<svg width="355" height="355" viewBox="0 0 355 355" fill="none" xmlns="http://www.w3.org/2000/svg">
<path d="M177.465 312.693L156.116 293.258C80.2889 224.498 30.2283 179.149 30.2283 123.493C30.2283 78.1441 65.8597 42.5127 111.209 42.5127C136.828 42.5127 161.417 54.4389 177.465 73.2853C193.514 54.4389 218.103 42.5127 243.722 42.5127C289.071 42.5127 324.703 78.1441 324.703 123.493C324.703 179.149 274.642 224.498 198.815 293.405L177.465 312.693Z" fill="#003E5C"/>
<path d="M147.951 148.605L177.292 73.6953L164.293 148.605L211.833 191.41L177.466 312.644L194.748 198.187L147.951 148.605Z" fill="white"/>
<path d="M194.447 198.224L177.124 313.199C148.818 292.198 87.7546 228.966 87.7546 228.966C87.7546 228.966 158.722 204.502 194.447 198.224Z" fill="#FF5151"/>
<path d="M159.533 242.151C161.76 242.151 163.566 240.345 163.566 238.117C163.566 235.89 161.76 234.084 159.533 234.084C157.305 234.084 155.499 235.89 155.499 238.117C155.499 240.345 157.305 242.151 159.533 242.151Z" fill="#003E5C"/>
<path d="M170.014 238.48C169.109 238.145 168.107 238.605 167.771 239.508L165.513 245.587L150.268 240.802L152.659 235.86C153.078 234.993 152.715 233.95 151.848 233.53C150.982 233.11 149.937 233.473 149.518 234.34L146.246 241.1C146.025 241.556 146.014 242.087 146.215 242.552C146.417 243.018 146.81 243.373 147.294 243.524L149.787 244.307L143.804 247.715L139.955 248.846C139.952 248.848 139.948 248.849 139.944 248.85L139.819 248.887L134.337 242.057C133.433 240.929 131.785 240.75 130.658 241.653C129.531 242.558 129.351 244.205 130.255 245.333L136.834 253.53C137.339 254.159 138.095 254.508 138.876 254.508C139.121 254.508 139.37 254.474 139.614 254.402L140.159 254.241L144.654 257.84C145.132 258.223 145.711 258.414 146.289 258.414C146.871 258.414 147.453 258.221 147.933 257.833L152.772 253.928C152.789 253.915 152.801 253.898 152.816 253.884L160.708 247.737L166.047 249.413C166.221 249.468 166.397 249.494 166.571 249.494C167.282 249.494 167.945 249.056 168.206 248.357L171.041 240.724C171.377 239.82 170.917 238.815 170.014 238.48Z" fill="#003E5C"/>
<path d="M165.28 233.437C165.28 233.849 165.614 234.184 166.027 234.184C166.439 234.184 166.773 233.849 166.773 233.437V222.052C166.773 221.64 166.439 221.305 166.027 221.305C165.614 221.305 165.28 221.64 165.28 222.052V233.437Z" fill="#003E5C"/>
<path d="M164.153 228.772V217.386C164.153 216.974 163.819 216.639 163.407 216.639C162.994 216.639 162.66 216.974 162.66 217.386V228.772C162.66 229.184 162.994 229.519 163.407 229.519C163.819 229.519 164.153 229.184 164.153 228.772Z" fill="#003E5C"/>
<path d="M138.534 230.725V242.11C138.534 242.523 138.868 242.857 139.28 242.857C139.692 242.857 140.027 242.523 140.027 242.11V230.725C140.027 230.312 139.692 229.978 139.28 229.978C138.868 229.978 138.534 230.312 138.534 230.725Z" fill="#003E5C"/>
<path d="M141.155 226.058V237.444C141.155 237.856 141.489 238.19 141.901 238.19C142.314 238.19 142.648 237.856 142.648 237.444V226.058C142.648 225.645 142.313 225.311 141.901 225.311C141.489 225.311 141.155 225.646 141.155 226.058Z" fill="#003E5C"/>
<path d="M148.732 278.153H147.014V270.397C147.014 270.124 147.014 269.873 147.014 269.644C147.025 269.404 147.036 269.175 147.047 268.957C147.058 268.728 147.068 268.509 147.079 268.302C146.938 268.444 146.79 268.58 146.638 268.711C146.485 268.842 146.31 268.995 146.114 269.169L144.838 270.2L143.954 269.088L147.292 266.469H148.732V278.153ZM160.633 272.295C160.633 273.244 160.556 274.089 160.404 274.831C160.262 275.573 160.033 276.206 159.716 276.729C159.411 277.242 159.002 277.635 158.489 277.907C157.987 278.18 157.382 278.316 156.673 278.316C155.778 278.316 155.042 278.076 154.464 277.596C153.885 277.116 153.455 276.429 153.171 275.535C152.887 274.629 152.745 273.549 152.745 272.295C152.745 271.029 152.871 269.949 153.122 269.055C153.384 268.16 153.804 267.478 154.382 267.009C154.96 266.529 155.724 266.289 156.673 266.289C157.567 266.289 158.304 266.529 158.882 267.009C159.471 267.478 159.907 268.16 160.191 269.055C160.485 269.949 160.633 271.029 160.633 272.295ZM154.48 272.295C154.48 273.309 154.551 274.155 154.693 274.831C154.834 275.507 155.064 276.015 155.38 276.353C155.707 276.691 156.138 276.86 156.673 276.86C157.207 276.86 157.633 276.696 157.949 276.369C158.276 276.031 158.511 275.524 158.653 274.847C158.805 274.16 158.882 273.309 158.882 272.295C158.882 271.28 158.805 270.44 158.653 269.775C158.511 269.098 158.276 268.591 157.949 268.253C157.633 267.915 157.207 267.746 156.673 267.746C156.138 267.746 155.707 267.915 155.38 268.253C155.064 268.591 154.834 269.098 154.693 269.775C154.551 270.44 154.48 271.28 154.48 272.295ZM164.581 266.306C165.421 266.306 166.053 266.628 166.479 267.271C166.915 267.904 167.133 268.798 167.133 269.955C167.133 271.111 166.926 272.017 166.511 272.671C166.108 273.315 165.464 273.637 164.581 273.637C164.046 273.637 163.588 273.489 163.206 273.195C162.835 272.9 162.557 272.48 162.371 271.935C162.186 271.378 162.093 270.718 162.093 269.955C162.093 268.798 162.29 267.904 162.682 267.271C163.086 266.628 163.719 266.306 164.581 266.306ZM164.581 267.517C164.221 267.517 163.953 267.724 163.779 268.138C163.604 268.542 163.517 269.148 163.517 269.955C163.517 270.773 163.604 271.389 163.779 271.804C163.953 272.218 164.221 272.426 164.581 272.426C164.962 272.426 165.246 272.224 165.431 271.82C165.617 271.406 165.71 270.784 165.71 269.955C165.71 269.148 165.617 268.542 165.431 268.138C165.246 267.724 164.962 267.517 164.581 267.517ZM172.304 266.469L165.824 278.153H164.368L170.848 266.469H172.304ZM172.042 270.986C172.599 270.986 173.062 271.133 173.433 271.427C173.815 271.711 174.104 272.126 174.3 272.671C174.497 273.206 174.595 273.86 174.595 274.635C174.595 275.791 174.388 276.696 173.973 277.351C173.559 277.995 172.915 278.316 172.042 278.316C171.497 278.316 171.039 278.169 170.668 277.875C170.297 277.58 170.013 277.16 169.817 276.615C169.631 276.058 169.539 275.398 169.539 274.635C169.539 273.478 169.735 272.584 170.128 271.951C170.531 271.307 171.17 270.986 172.042 270.986ZM172.042 272.197C171.671 272.197 171.399 272.398 171.224 272.802C171.06 273.206 170.979 273.817 170.979 274.635C170.979 275.453 171.06 276.069 171.224 276.484C171.399 276.887 171.671 277.089 172.042 277.089C172.424 277.089 172.702 276.887 172.877 276.484C173.062 276.08 173.155 275.464 173.155 274.635C173.155 273.817 173.062 273.206 172.877 272.802C172.702 272.398 172.424 272.197 172.042 272.197Z" fill="#003E5C"/>
</svg>
