<svg width="348" height="311" viewBox="0 0 348 311" fill="none" xmlns="http://www.w3.org/2000/svg">
<path opacity="0.8" d="M38.3724 53.9194C37.9586 53.9194 37.6201 53.7878 37.3568 53.5245C37.1311 53.2612 37.0183 52.9415 37.0183 52.5653V23.3395L28.4424 29.9407C28.1038 30.1664 27.7653 30.2604 27.4268 30.2228C27.0883 30.1476 26.7874 29.9407 26.5241 29.6022L24.1544 26.5555C23.9287 26.217 23.8347 25.8596 23.8723 25.4835C23.9475 25.1074 24.1544 24.8064 24.4929 24.5808L37.1311 14.82C37.3568 14.6319 37.5825 14.5191 37.8082 14.4815C38.0339 14.4439 38.2783 14.4251 38.5416 14.4251H43.5067C43.8828 14.4251 44.2025 14.5567 44.4658 14.82C44.7291 15.0833 44.8607 15.403 44.8607 15.7792V52.5653C44.8607 52.9415 44.7291 53.2612 44.4658 53.5245C44.2025 53.7878 43.8828 53.9194 43.5067 53.9194H38.3724Z" fill="#003E5C"/>
<path opacity="0.8" d="M279.912 54.5401C276.677 54.5401 273.95 54.0135 271.731 52.9603C269.512 51.8695 267.819 50.459 266.653 48.7287C265.525 46.9985 264.923 45.1554 264.848 43.1995C264.81 42.861 264.904 42.5977 265.13 42.4096C265.393 42.184 265.694 42.0711 266.033 42.0711H271.28C271.694 42.0711 272.032 42.1652 272.295 42.3532C272.596 42.5037 272.822 42.7858 272.972 43.1995C273.349 44.3279 273.875 45.2495 274.552 45.9641C275.267 46.6788 276.076 47.2054 276.978 47.5439C277.919 47.8824 278.897 48.0517 279.912 48.0517C281.266 48.0517 282.489 47.7884 283.579 47.2618C284.708 46.6976 285.611 45.8701 286.288 44.7793C286.965 43.6885 287.303 42.3532 287.303 40.7734C287.303 39.3817 286.984 38.1781 286.344 37.1625C285.705 36.147 284.821 35.3571 283.692 34.7929C282.602 34.1911 281.341 33.8901 279.912 33.8901C278.859 33.8901 277.994 34.0218 277.317 34.2851C276.64 34.5484 276.057 34.8493 275.568 35.1878C275.116 35.5263 274.703 35.8273 274.327 36.0905C273.988 36.3538 273.593 36.4855 273.142 36.4855H267.951C267.612 36.4855 267.312 36.3726 267.048 36.147C266.823 35.8837 266.71 35.5828 266.71 35.2442L268.684 15.9484C268.722 15.4594 268.891 15.0833 269.192 14.82C269.493 14.5567 269.85 14.4251 270.264 14.4251H291.478C291.854 14.4251 292.174 14.5567 292.437 14.82C292.701 15.0833 292.832 15.403 292.832 15.7792V19.5593C292.832 19.9355 292.701 20.2552 292.437 20.5185C292.174 20.7818 291.854 20.9134 291.478 20.9134H275.173L274.27 30.11C274.947 29.6586 275.85 29.226 276.978 28.8123C278.107 28.3985 279.668 28.1917 281.661 28.1917C283.467 28.1917 285.178 28.4926 286.795 29.0944C288.45 29.6586 289.917 30.5049 291.196 31.6333C292.475 32.7241 293.472 34.0594 294.187 35.6392C294.939 37.1813 295.315 38.9492 295.315 40.9427C295.315 43.6885 294.676 46.077 293.397 48.1081C292.118 50.1393 290.331 51.719 288.037 52.8474C285.742 53.9759 283.034 54.5401 279.912 54.5401ZM316.141 54.4836C313.47 54.4836 311.195 54.0887 309.314 53.2988C307.433 52.5089 305.891 51.4181 304.687 50.0264C303.484 48.6347 302.581 47.0361 301.979 45.2307C301.377 43.3876 301.02 41.4317 300.907 39.3629C300.87 38.3474 300.832 37.2378 300.794 36.0341C300.794 34.7929 300.794 33.5516 300.794 32.3104C300.832 31.0691 300.87 29.9219 300.907 28.8687C300.982 26.8 301.34 24.8629 301.979 23.0574C302.619 21.2143 303.54 19.6158 304.744 18.2617C305.985 16.9076 307.546 15.8356 309.427 15.0457C311.307 14.2558 313.545 13.8609 316.141 13.8609C318.774 13.8609 321.031 14.2558 322.911 15.0457C324.792 15.8356 326.334 16.9076 327.538 18.2617C328.779 19.6158 329.7 21.2143 330.302 23.0574C330.942 24.8629 331.299 26.8 331.374 28.8687C331.45 29.9219 331.487 31.0691 331.487 32.3104C331.487 33.5516 331.487 34.7929 331.487 36.0341C331.487 37.2378 331.45 38.3474 331.374 39.3629C331.299 41.4317 330.961 43.3876 330.359 45.2307C329.757 47.0361 328.854 48.6347 327.651 50.0264C326.447 51.4181 324.886 52.5089 322.968 53.2988C321.087 54.0887 318.811 54.4836 316.141 54.4836ZM316.141 47.9953C318.586 47.9953 320.372 47.2054 321.501 45.6256C322.667 44.0082 323.269 41.8266 323.306 39.0808C323.381 37.99 323.419 36.8992 323.419 35.8084C323.419 34.68 323.419 33.5516 323.419 32.4232C323.419 31.2948 323.381 30.2228 323.306 29.2072C323.269 26.5367 322.667 24.3927 321.501 22.7753C320.372 21.1203 318.586 20.2928 316.141 20.2928C313.733 20.2928 311.947 21.1203 310.781 22.7753C309.652 24.3927 309.051 26.5367 308.975 29.2072C308.975 30.2228 308.957 31.2948 308.919 32.4232C308.919 33.5516 308.919 34.68 308.919 35.8084C308.957 36.8992 308.975 37.99 308.975 39.0808C309.051 41.8266 309.671 44.0082 310.837 45.6256C312.003 47.2054 313.771 47.9953 316.141 47.9953Z" fill="#003E5C"/>
<path d="M87.8477 181.367C94.3346 181.367 99.5933 176.109 99.5933 169.622C99.5933 163.135 94.3346 157.876 87.8477 157.876C81.3607 157.876 76.1021 163.135 76.1021 169.622C76.1021 176.109 81.3607 181.367 87.8477 181.367Z" fill="#003E5C"/>
<path d="M118.369 170.674C115.736 169.7 112.816 171.039 111.838 173.668L105.263 191.371L60.8677 177.436L67.83 163.046C69.052 160.52 67.9953 157.482 65.4687 156.26C62.9464 155.038 59.9046 156.095 58.6826 158.619L49.1569 178.305C48.5132 179.634 48.4807 181.178 49.0657 182.535C49.6528 183.889 50.7985 184.924 52.2076 185.365L59.4675 187.644L42.0447 197.568L30.8364 200.864C30.8255 200.868 30.8146 200.87 30.8036 200.873L30.4385 200.981L14.4748 181.091C11.8417 177.808 7.04292 177.286 3.76209 179.917C0.478982 182.552 -0.0451232 187.348 2.58791 190.631L21.7479 214.503C23.2176 216.334 25.4182 217.352 27.6924 217.352C28.4078 217.352 29.132 217.252 29.843 217.041L31.428 216.574L44.5195 227.053C45.9111 228.169 47.5984 228.725 49.2813 228.725C50.977 228.725 52.671 228.162 54.0691 227.034L68.1606 215.662C68.2086 215.623 68.2432 215.575 68.2889 215.534L91.2711 197.633L106.82 202.514C107.326 202.673 107.837 202.749 108.344 202.749C110.414 202.749 112.346 201.475 113.105 199.438L121.361 177.21C122.34 174.577 121 171.65 118.369 170.674Z" fill="#003E5C"/>
<path d="M104.583 155.994C104.583 157.194 105.557 158.168 106.757 158.168C107.957 158.168 108.931 157.194 108.931 155.994V122.838C108.931 121.638 107.957 120.664 106.757 120.664C105.557 120.664 104.583 121.638 104.583 122.838V155.994Z" fill="#003E5C"/>
<path d="M101.305 142.407V109.248C101.305 108.048 100.331 107.074 99.1307 107.074C97.9304 107.074 96.9565 108.048 96.9565 109.248V142.406C96.9565 143.607 97.9304 144.581 99.1307 144.581C100.333 144.581 101.305 143.607 101.305 142.407Z" fill="#003E5C"/>
<path d="M26.696 148.092V181.248C26.696 182.45 27.6701 183.422 28.8702 183.422C30.0703 183.422 31.0444 182.45 31.0444 181.248V148.092C31.0444 146.892 30.0703 145.918 28.8702 145.918C27.6699 145.918 26.696 146.892 26.696 148.092Z" fill="#003E5C"/>
<path d="M34.3315 134.503V167.661C34.3315 168.862 35.3056 169.835 36.5057 169.835C37.7061 169.835 38.6799 168.862 38.6799 167.661V134.503C38.6799 133.303 37.7058 132.329 36.5057 132.329C35.3056 132.329 34.3315 133.303 34.3315 134.503Z" fill="#003E5C"/>
<line x1="182.821" y1="98.7627" x2="182.821" y2="236.66" stroke="#003E5C" stroke-width="0.376137"/>
<path opacity="0.8" d="M107.244 43.4282C106.089 43.4282 105.07 43.2116 104.187 42.7783C103.32 42.345 102.638 41.7191 102.141 40.9006C101.659 40.0661 101.394 39.063 101.346 37.8915C101.33 37.6508 101.322 37.3378 101.322 36.9527C101.322 36.5514 101.33 36.2224 101.346 35.9657C101.394 34.7941 101.659 33.7991 102.141 32.9807C102.638 32.1461 103.32 31.5122 104.187 31.0789C105.07 30.6456 106.089 30.4289 107.244 30.4289C108.271 30.4289 109.146 30.5734 109.868 30.8622C110.59 31.1511 111.184 31.5122 111.649 31.9455C112.115 32.3788 112.46 32.8362 112.685 33.3177C112.925 33.7831 113.054 34.2084 113.07 34.5935C113.086 34.7701 113.03 34.9145 112.901 35.0268C112.789 35.1231 112.653 35.1713 112.492 35.1713H110.374C110.213 35.1713 110.085 35.1312 109.988 35.0509C109.908 34.9707 109.828 34.8503 109.748 34.6898C109.507 34.0479 109.186 33.5985 108.785 33.3417C108.4 33.0689 107.902 32.9325 107.292 32.9325C106.49 32.9325 105.848 33.1893 105.366 33.7028C104.901 34.2003 104.652 34.9947 104.62 36.086C104.588 36.6959 104.588 37.2576 104.62 37.7711C104.652 38.8785 104.901 39.6809 105.366 40.1784C105.848 40.6759 106.49 40.9247 107.292 40.9247C107.918 40.9247 108.424 40.7963 108.809 40.5395C109.194 40.2667 109.507 39.8093 109.748 39.1673C109.828 39.0069 109.908 38.8865 109.988 38.8063C110.085 38.726 110.213 38.6859 110.374 38.6859H112.492C112.653 38.6859 112.789 38.7421 112.901 38.8544C113.03 38.9507 113.086 39.0871 113.07 39.2636C113.054 39.5525 112.973 39.8815 112.829 40.2506C112.701 40.6037 112.484 40.9728 112.179 41.358C111.89 41.7271 111.521 42.0721 111.072 42.3931C110.622 42.698 110.077 42.9468 109.435 43.1394C108.809 43.3319 108.079 43.4282 107.244 43.4282ZM116.182 43.1875C116.022 43.1875 115.885 43.1313 115.773 43.019C115.661 42.9067 115.604 42.7702 115.604 42.6098V26.6736C115.604 26.5131 115.661 26.3767 115.773 26.2644C115.885 26.152 116.022 26.0958 116.182 26.0958H118.325C118.501 26.0958 118.638 26.152 118.734 26.2644C118.846 26.3767 118.902 26.5131 118.902 26.6736V32.1622C119.336 31.6486 119.865 31.2314 120.491 30.9104C121.117 30.5894 121.887 30.4289 122.802 30.4289C123.781 30.4289 124.632 30.6536 125.354 31.103C126.092 31.5363 126.662 32.1542 127.063 32.9566C127.464 33.759 127.665 34.7219 127.665 35.8453V42.6098C127.665 42.7702 127.609 42.9067 127.496 43.019C127.384 43.1313 127.248 43.1875 127.087 43.1875H124.921C124.76 43.1875 124.624 43.1313 124.511 43.019C124.399 42.9067 124.343 42.7702 124.343 42.6098V35.9897C124.343 35.0589 124.11 34.3287 123.645 33.7991C123.195 33.2695 122.537 33.0047 121.671 33.0047C120.836 33.0047 120.162 33.2695 119.649 33.7991C119.151 34.3287 118.902 35.0589 118.902 35.9897V42.6098C118.902 42.7702 118.846 42.9067 118.734 43.019C118.638 43.1313 118.501 43.1875 118.325 43.1875H116.182ZM135.366 43.4282C134.387 43.4282 133.536 43.2116 132.814 42.7783C132.108 42.3289 131.562 41.703 131.177 40.9006C130.792 40.0821 130.599 39.1192 130.599 38.0119V31.2474C130.599 31.0869 130.656 30.9505 130.768 30.8382C130.88 30.7258 131.017 30.6697 131.177 30.6697H133.296C133.472 30.6697 133.609 30.7258 133.705 30.8382C133.817 30.9505 133.873 31.0869 133.873 31.2474V37.8674C133.873 39.8574 134.748 40.8524 136.497 40.8524C137.332 40.8524 137.99 40.5876 138.471 40.058C138.969 39.5284 139.217 38.7982 139.217 37.8674V31.2474C139.217 31.0869 139.274 30.9505 139.386 30.8382C139.498 30.7258 139.635 30.6697 139.795 30.6697H141.914C142.074 30.6697 142.211 30.7258 142.323 30.8382C142.435 30.9505 142.491 31.0869 142.491 31.2474V42.6098C142.491 42.7702 142.435 42.9067 142.323 43.019C142.211 43.1313 142.074 43.1875 141.914 43.1875H139.964C139.787 43.1875 139.643 43.1313 139.53 43.019C139.434 42.9067 139.386 42.7702 139.386 42.6098V41.6228C138.953 42.1845 138.415 42.6258 137.773 42.9468C137.131 43.2677 136.329 43.4282 135.366 43.4282ZM151.328 43.1875C150.365 43.1875 149.555 43.019 148.897 42.682C148.239 42.345 147.75 41.8474 147.429 41.1895C147.108 40.5154 146.947 39.6809 146.947 38.6859V33.2214H145.045C144.885 33.2214 144.748 33.1652 144.636 33.0529C144.524 32.9405 144.468 32.8041 144.468 32.6436V31.2474C144.468 31.0869 144.524 30.9505 144.636 30.8382C144.748 30.7258 144.885 30.6697 145.045 30.6697H146.947V26.6736C146.947 26.5131 146.995 26.3767 147.092 26.2644C147.204 26.152 147.348 26.0958 147.525 26.0958H149.475C149.635 26.0958 149.772 26.152 149.884 26.2644C149.996 26.3767 150.052 26.5131 150.052 26.6736V30.6697H153.062C153.222 30.6697 153.358 30.7258 153.471 30.8382C153.583 30.9505 153.639 31.0869 153.639 31.2474V32.6436C153.639 32.8041 153.583 32.9405 153.471 33.0529C153.358 33.1652 153.222 33.2214 153.062 33.2214H150.052V38.4452C150.052 39.1032 150.165 39.6167 150.389 39.9858C150.63 40.3549 151.039 40.5395 151.617 40.5395H153.278C153.439 40.5395 153.575 40.5957 153.687 40.708C153.8 40.8203 153.856 40.9568 153.856 41.1172V42.6098C153.856 42.7702 153.8 42.9067 153.687 43.019C153.575 43.1313 153.439 43.1875 153.278 43.1875H151.328ZM161.384 43.4282C159.602 43.4282 158.19 42.9147 157.147 41.8876C156.104 40.8605 155.542 39.4001 155.462 37.5063C155.446 37.3458 155.438 37.1452 155.438 36.9045C155.438 36.6477 155.446 36.4471 155.462 36.3027C155.526 35.0991 155.799 34.0559 156.28 33.1732C156.778 32.2906 157.46 31.6165 158.327 31.1511C159.193 30.6697 160.212 30.4289 161.384 30.4289C162.684 30.4289 163.775 30.7018 164.658 31.2474C165.54 31.777 166.206 32.5233 166.656 33.4862C167.105 34.433 167.33 35.5324 167.33 36.7841V37.2897C167.33 37.4502 167.274 37.5866 167.161 37.6989C167.049 37.8113 166.904 37.8674 166.728 37.8674H158.736C158.736 37.8674 158.736 37.8915 158.736 37.9396C158.736 37.9878 158.736 38.0279 158.736 38.06C158.752 38.6217 158.856 39.1433 159.049 39.6247C159.257 40.0901 159.554 40.4673 159.939 40.7562C160.341 41.045 160.814 41.1895 161.36 41.1895C161.809 41.1895 162.186 41.1253 162.491 40.9969C162.796 40.8524 163.045 40.692 163.237 40.5154C163.43 40.3389 163.566 40.1945 163.647 40.0821C163.791 39.8895 163.903 39.7772 163.984 39.7451C164.08 39.6969 164.216 39.6729 164.393 39.6729H166.463C166.624 39.6729 166.752 39.721 166.848 39.8173C166.961 39.9136 167.009 40.034 166.993 40.1784C166.977 40.4352 166.84 40.7481 166.584 41.1172C166.343 41.4864 165.99 41.8474 165.524 42.2005C165.059 42.5536 164.473 42.8505 163.767 43.0912C163.077 43.3159 162.283 43.4282 161.384 43.4282ZM158.736 35.8453H164.056V35.7731C164.056 35.1472 163.952 34.6015 163.743 34.1361C163.534 33.6707 163.229 33.3016 162.828 33.0288C162.427 32.756 161.945 32.6196 161.384 32.6196C160.822 32.6196 160.341 32.756 159.939 33.0288C159.538 33.3016 159.233 33.6707 159.025 34.1361C158.832 34.6015 158.736 35.1472 158.736 35.7731V35.8453ZM180.128 43.4282C179.165 43.4282 178.339 43.3159 177.649 43.0912C176.975 42.8665 176.421 42.5857 175.988 42.2487C175.555 41.9116 175.234 41.5746 175.025 41.2376C174.816 40.9006 174.704 40.6197 174.688 40.3951C174.672 40.2185 174.72 40.0821 174.832 39.9858C174.961 39.8735 175.097 39.8173 175.242 39.8173H177.143C177.208 39.8173 177.264 39.8253 177.312 39.8414C177.36 39.8574 177.424 39.9056 177.504 39.9858C177.713 40.1624 177.93 40.3469 178.154 40.5395C178.395 40.7321 178.676 40.9006 178.997 41.045C179.318 41.1734 179.719 41.2376 180.201 41.2376C180.826 41.2376 181.348 41.1172 181.765 40.8765C182.199 40.6197 182.415 40.2586 182.415 39.7932C182.415 39.4562 182.319 39.1834 182.126 38.9748C181.95 38.7661 181.613 38.5816 181.115 38.4211C180.618 38.2446 179.912 38.06 178.997 37.8674C178.098 37.6588 177.352 37.394 176.758 37.073C176.164 36.752 175.723 36.3508 175.434 35.8694C175.145 35.3879 175.001 34.8262 175.001 34.1843C175.001 33.5584 175.185 32.9646 175.555 32.4029C175.94 31.8252 176.501 31.3517 177.24 30.9826C177.994 30.6135 178.925 30.4289 180.032 30.4289C180.899 30.4289 181.653 30.5413 182.295 30.766C182.937 30.9746 183.466 31.2394 183.884 31.5604C184.317 31.8813 184.646 32.2103 184.871 32.5473C185.095 32.8683 185.216 33.1492 185.232 33.3899C185.248 33.5664 185.2 33.7109 185.087 33.8232C184.975 33.9195 184.847 33.9676 184.702 33.9676H182.921C182.841 33.9676 182.768 33.9516 182.704 33.9195C182.64 33.8874 182.576 33.8473 182.512 33.7991C182.335 33.6386 182.142 33.4701 181.934 33.2936C181.725 33.1171 181.468 32.9646 181.164 32.8362C180.875 32.6918 180.489 32.6196 180.008 32.6196C179.398 32.6196 178.933 32.756 178.612 33.0288C178.291 33.2856 178.13 33.6146 178.13 34.0158C178.13 34.2886 178.203 34.5293 178.347 34.738C178.507 34.9305 178.82 35.1151 179.286 35.2916C179.751 35.4682 180.457 35.6527 181.404 35.8453C182.479 36.0379 183.33 36.3268 183.956 36.7119C184.598 37.081 185.047 37.5144 185.304 38.0119C185.577 38.4933 185.713 39.0309 185.713 39.6247C185.713 40.3469 185.497 40.9969 185.063 41.5746C184.646 42.1524 184.02 42.6098 183.186 42.9468C182.367 43.2677 181.348 43.4282 180.128 43.4282ZM192.844 43.4282C191.865 43.4282 191.015 43.2116 190.293 42.7783C189.586 42.3289 189.041 41.703 188.656 40.9006C188.27 40.0821 188.078 39.1192 188.078 38.0119V31.2474C188.078 31.0869 188.134 30.9505 188.246 30.8382C188.359 30.7258 188.495 30.6697 188.656 30.6697H190.774C190.951 30.6697 191.087 30.7258 191.183 30.8382C191.296 30.9505 191.352 31.0869 191.352 31.2474V37.8674C191.352 39.8574 192.226 40.8524 193.976 40.8524C194.81 40.8524 195.468 40.5876 195.95 40.058C196.447 39.5284 196.696 38.7982 196.696 37.8674V31.2474C196.696 31.0869 196.752 30.9505 196.864 30.8382C196.977 30.7258 197.113 30.6697 197.274 30.6697H199.392C199.553 30.6697 199.689 30.7258 199.801 30.8382C199.914 30.9505 199.97 31.0869 199.97 31.2474V42.6098C199.97 42.7702 199.914 42.9067 199.801 43.019C199.689 43.1313 199.553 43.1875 199.392 43.1875H197.442C197.266 43.1875 197.121 43.1313 197.009 43.019C196.913 42.9067 196.864 42.7702 196.864 42.6098V41.6228C196.431 42.1845 195.893 42.6258 195.252 42.9468C194.61 43.2677 193.807 43.4282 192.844 43.4282ZM203.727 43.1875C203.567 43.1875 203.43 43.1313 203.318 43.019C203.206 42.9067 203.15 42.7702 203.15 42.6098V31.2715C203.15 31.095 203.206 30.9505 203.318 30.8382C203.43 30.7258 203.567 30.6697 203.727 30.6697H205.677C205.838 30.6697 205.974 30.7258 206.087 30.8382C206.215 30.9505 206.279 31.095 206.279 31.2715V32.2585C206.648 31.7449 207.122 31.3517 207.699 31.0789C208.293 30.8061 208.975 30.6697 209.746 30.6697H210.733C210.909 30.6697 211.046 30.7258 211.142 30.8382C211.254 30.9505 211.31 31.0869 211.31 31.2474V32.9807C211.31 33.1411 211.254 33.2775 211.142 33.3899C211.046 33.5022 210.909 33.5584 210.733 33.5584H208.855C208.085 33.5584 207.483 33.7751 207.049 34.2084C206.632 34.6417 206.424 35.2355 206.424 35.9897V42.6098C206.424 42.7702 206.367 42.9067 206.255 43.019C206.143 43.1313 205.998 43.1875 205.822 43.1875H203.727Z" fill="#003E5C"/>
<path opacity="0.8" d="M87.8181 305.971C86.4821 305.971 85.4229 305.585 84.6405 304.815C83.8581 304.045 83.4369 302.949 83.3767 301.529C83.3646 301.409 83.3586 301.258 83.3586 301.078C83.3586 300.885 83.3646 300.735 83.3767 300.626C83.4248 299.724 83.6294 298.941 83.9905 298.279C84.3637 297.617 84.8752 297.112 85.5252 296.763C86.1751 296.402 86.9394 296.221 87.8181 296.221C88.793 296.221 89.6115 296.426 90.2735 296.835C90.9355 297.232 91.435 297.792 91.7721 298.514C92.1091 299.224 92.2776 300.049 92.2776 300.988V301.367C92.2776 301.487 92.2355 301.589 92.1512 301.674C92.0669 301.758 91.9586 301.8 91.8262 301.8H85.8321C85.8321 301.8 85.8321 301.818 85.8321 301.854C85.8321 301.89 85.8321 301.92 85.8321 301.944C85.8441 302.366 85.9224 302.757 86.0668 303.118C86.2233 303.467 86.446 303.75 86.7348 303.967C87.0357 304.183 87.3908 304.292 87.8 304.292C88.1371 304.292 88.4199 304.243 88.6486 304.147C88.8773 304.039 89.0639 303.918 89.2083 303.786C89.3527 303.654 89.455 303.545 89.5152 303.461C89.6236 303.317 89.7078 303.232 89.768 303.208C89.8402 303.172 89.9425 303.154 90.0749 303.154H91.6276C91.748 303.154 91.8443 303.19 91.9165 303.262C92.0007 303.335 92.0369 303.425 92.0248 303.533C92.0128 303.726 91.9105 303.961 91.7179 304.237C91.5373 304.514 91.2725 304.785 90.9235 305.05C90.5744 305.315 90.1351 305.537 89.6055 305.718C89.0879 305.886 88.4921 305.971 87.8181 305.971ZM85.8321 300.283H89.8222V300.229C89.8222 299.76 89.7439 299.351 89.5874 299.002C89.431 298.652 89.2023 298.376 88.9014 298.171C88.6005 297.966 88.2394 297.864 87.8181 297.864C87.3968 297.864 87.0357 297.966 86.7348 298.171C86.4339 298.376 86.2052 298.652 86.0488 299.002C85.9043 299.351 85.8321 299.76 85.8321 300.229V300.283ZM97.7508 305.971C97.0286 305.971 96.4087 305.886 95.8912 305.718C95.3856 305.549 94.9704 305.339 94.6454 305.086C94.3204 304.833 94.0797 304.58 93.9232 304.328C93.7668 304.075 93.6825 303.864 93.6705 303.696C93.6584 303.563 93.6945 303.461 93.7788 303.389C93.8751 303.305 93.9774 303.262 94.0857 303.262H95.512C95.5602 303.262 95.6023 303.268 95.6384 303.28C95.6745 303.292 95.7227 303.329 95.7828 303.389C95.9393 303.521 96.1018 303.66 96.2703 303.804C96.4509 303.948 96.6615 304.075 96.9022 304.183C97.143 304.279 97.4439 304.328 97.805 304.328C98.2744 304.328 98.6656 304.237 98.9785 304.057C99.3035 303.864 99.466 303.593 99.466 303.244C99.466 302.992 99.3938 302.787 99.2493 302.63C99.1169 302.474 98.8642 302.336 98.491 302.215C98.1179 302.083 97.5883 301.944 96.9022 301.8C96.2282 301.644 95.6685 301.445 95.2232 301.204C94.7778 300.963 94.4468 300.663 94.2302 300.301C94.0135 299.94 93.9052 299.519 93.9052 299.038C93.9052 298.568 94.0436 298.123 94.3204 297.702C94.6093 297.268 95.0306 296.913 95.5842 296.636C96.15 296.36 96.8481 296.221 97.6786 296.221C98.3285 296.221 98.8942 296.305 99.3757 296.474C99.8572 296.63 100.254 296.829 100.567 297.07C100.892 297.31 101.139 297.557 101.308 297.81C101.476 298.051 101.566 298.261 101.578 298.442C101.59 298.574 101.554 298.683 101.47 298.767C101.386 298.839 101.289 298.875 101.181 298.875H99.8451C99.7849 298.875 99.7308 298.863 99.6826 298.839C99.6345 298.815 99.5863 298.785 99.5382 298.749C99.4058 298.628 99.2614 298.502 99.1049 298.37C98.9484 298.237 98.7558 298.123 98.5271 298.027C98.3105 297.918 98.0216 297.864 97.6605 297.864C97.2031 297.864 96.8541 297.966 96.6134 298.171C96.3726 298.364 96.2523 298.61 96.2523 298.911C96.2523 299.116 96.3064 299.296 96.4148 299.453C96.5351 299.597 96.7698 299.736 97.1189 299.868C97.4679 300.001 97.9975 300.139 98.7077 300.283C99.5141 300.428 100.152 300.644 100.621 300.933C101.103 301.21 101.44 301.535 101.633 301.908C101.837 302.269 101.939 302.673 101.939 303.118C101.939 303.66 101.777 304.147 101.452 304.58C101.139 305.014 100.67 305.357 100.044 305.609C99.4299 305.85 98.6656 305.971 97.7508 305.971ZM108.011 305.79C107.289 305.79 106.681 305.664 106.187 305.411C105.694 305.158 105.327 304.785 105.086 304.292C104.845 303.786 104.725 303.16 104.725 302.414V298.315H103.298C103.178 298.315 103.076 298.273 102.992 298.189C102.907 298.105 102.865 298.003 102.865 297.882V296.835C102.865 296.715 102.907 296.612 102.992 296.528C103.076 296.444 103.178 296.402 103.298 296.402H104.725V293.405C104.725 293.284 104.761 293.182 104.833 293.098C104.917 293.013 105.026 292.971 105.158 292.971H106.621C106.741 292.971 106.843 293.013 106.927 293.098C107.012 293.182 107.054 293.284 107.054 293.405V296.402H109.311C109.431 296.402 109.533 296.444 109.618 296.528C109.702 296.612 109.744 296.715 109.744 296.835V297.882C109.744 298.003 109.702 298.105 109.618 298.189C109.533 298.273 109.431 298.315 109.311 298.315H107.054V302.233C107.054 302.727 107.138 303.112 107.307 303.389C107.487 303.666 107.794 303.804 108.227 303.804H109.473C109.594 303.804 109.696 303.846 109.78 303.93C109.864 304.015 109.906 304.117 109.906 304.237V305.357C109.906 305.477 109.864 305.579 109.78 305.664C109.696 305.748 109.594 305.79 109.473 305.79H108.011ZM119.118 305.971C118.384 305.971 117.746 305.808 117.205 305.483C116.675 305.146 116.266 304.677 115.977 304.075C115.688 303.461 115.544 302.739 115.544 301.908V296.835C115.544 296.715 115.586 296.612 115.67 296.528C115.754 296.444 115.857 296.402 115.977 296.402H117.566C117.698 296.402 117.8 296.444 117.873 296.528C117.957 296.612 117.999 296.715 117.999 296.835V301.8C117.999 303.292 118.655 304.039 119.967 304.039C120.593 304.039 121.086 303.84 121.447 303.443C121.821 303.046 122.007 302.498 122.007 301.8V296.835C122.007 296.715 122.049 296.612 122.133 296.528C122.218 296.444 122.32 296.402 122.44 296.402H124.029C124.15 296.402 124.252 296.444 124.336 296.528C124.42 296.612 124.463 296.715 124.463 296.835V305.357C124.463 305.477 124.42 305.579 124.336 305.664C124.252 305.748 124.15 305.79 124.029 305.79H122.567C122.434 305.79 122.326 305.748 122.242 305.664C122.17 305.579 122.133 305.477 122.133 305.357V304.616C121.809 305.038 121.405 305.369 120.924 305.609C120.442 305.85 119.841 305.971 119.118 305.971ZM127.281 305.79C127.16 305.79 127.058 305.748 126.974 305.664C126.89 305.579 126.847 305.477 126.847 305.357V296.835C126.847 296.715 126.89 296.612 126.974 296.528C127.058 296.444 127.16 296.402 127.281 296.402H128.761C128.882 296.402 128.984 296.444 129.068 296.528C129.152 296.612 129.195 296.715 129.195 296.835V297.575C129.507 297.19 129.905 296.871 130.386 296.618C130.88 296.354 131.487 296.221 132.21 296.221C132.944 296.221 133.582 296.39 134.123 296.727C134.665 297.052 135.08 297.515 135.369 298.117C135.67 298.719 135.821 299.441 135.821 300.283V305.357C135.821 305.477 135.778 305.579 135.694 305.664C135.61 305.748 135.508 305.79 135.387 305.79H133.798C133.678 305.79 133.576 305.748 133.492 305.664C133.407 305.579 133.365 305.477 133.365 305.357V300.392C133.365 299.694 133.191 299.146 132.842 298.749C132.505 298.352 132.011 298.153 131.361 298.153C130.735 298.153 130.236 298.352 129.863 298.749C129.489 299.146 129.303 299.694 129.303 300.392V305.357C129.303 305.477 129.261 305.579 129.176 305.664C129.092 305.748 128.99 305.79 128.87 305.79H127.281ZM142.158 305.971C140.822 305.971 139.763 305.585 138.981 304.815C138.198 304.045 137.777 302.949 137.717 301.529C137.705 301.409 137.699 301.258 137.699 301.078C137.699 300.885 137.705 300.735 137.717 300.626C137.765 299.724 137.969 298.941 138.331 298.279C138.704 297.617 139.215 297.112 139.865 296.763C140.515 296.402 141.279 296.221 142.158 296.221C143.133 296.221 143.952 296.426 144.614 296.835C145.276 297.232 145.775 297.792 146.112 298.514C146.449 299.224 146.618 300.049 146.618 300.988V301.367C146.618 301.487 146.575 301.589 146.491 301.674C146.407 301.758 146.299 301.8 146.166 301.8H140.172C140.172 301.8 140.172 301.818 140.172 301.854C140.172 301.89 140.172 301.92 140.172 301.944C140.184 302.366 140.262 302.757 140.407 303.118C140.563 303.467 140.786 303.75 141.075 303.967C141.376 304.183 141.731 304.292 142.14 304.292C142.477 304.292 142.76 304.243 142.989 304.147C143.217 304.039 143.404 303.918 143.548 303.786C143.693 303.654 143.795 303.545 143.855 303.461C143.964 303.317 144.048 303.232 144.108 303.208C144.18 303.172 144.283 303.154 144.415 303.154H145.968C146.088 303.154 146.184 303.19 146.257 303.262C146.341 303.335 146.377 303.425 146.365 303.533C146.353 303.726 146.25 303.961 146.058 304.237C145.877 304.514 145.613 304.785 145.264 305.05C144.914 305.315 144.475 305.537 143.946 305.718C143.428 305.886 142.832 305.971 142.158 305.971ZM140.172 300.283H144.162V300.229C144.162 299.76 144.084 299.351 143.927 299.002C143.771 298.652 143.542 298.376 143.241 298.171C142.94 297.966 142.579 297.864 142.158 297.864C141.737 297.864 141.376 297.966 141.075 298.171C140.774 298.376 140.545 298.652 140.389 299.002C140.244 299.351 140.172 299.76 140.172 300.229V300.283ZM156.722 305.971C155.855 305.971 155.091 305.808 154.429 305.483C153.779 305.158 153.268 304.689 152.895 304.075C152.533 303.449 152.335 302.697 152.299 301.818C152.287 301.637 152.281 301.403 152.281 301.114C152.281 300.813 152.287 300.566 152.299 300.374C152.335 299.495 152.533 298.749 152.895 298.135C153.268 297.509 153.779 297.034 154.429 296.709C155.091 296.384 155.855 296.221 156.722 296.221C157.492 296.221 158.148 296.329 158.69 296.546C159.232 296.763 159.677 297.034 160.026 297.359C160.375 297.684 160.634 298.027 160.802 298.388C160.983 298.737 161.079 299.056 161.091 299.345C161.103 299.477 161.061 299.585 160.965 299.67C160.881 299.742 160.778 299.778 160.658 299.778H159.069C158.949 299.778 158.853 299.748 158.78 299.688C158.72 299.627 158.66 299.537 158.6 299.417C158.419 298.935 158.178 298.598 157.878 298.406C157.589 298.201 157.216 298.099 156.758 298.099C156.156 298.099 155.675 298.291 155.314 298.677C154.965 299.05 154.778 299.645 154.754 300.464C154.73 300.921 154.73 301.343 154.754 301.728C154.778 302.558 154.965 303.16 155.314 303.533C155.675 303.906 156.156 304.093 156.758 304.093C157.228 304.093 157.607 303.997 157.896 303.804C158.185 303.599 158.419 303.256 158.6 302.775C158.66 302.655 158.72 302.564 158.78 302.504C158.853 302.444 158.949 302.414 159.069 302.414H160.658C160.778 302.414 160.881 302.456 160.965 302.54C161.061 302.612 161.103 302.715 161.091 302.847C161.079 303.064 161.019 303.311 160.911 303.587C160.814 303.852 160.652 304.129 160.423 304.418C160.207 304.695 159.93 304.954 159.593 305.194C159.256 305.423 158.847 305.609 158.365 305.754C157.896 305.898 157.348 305.971 156.722 305.971ZM163.426 305.79C163.305 305.79 163.203 305.748 163.119 305.664C163.034 305.579 162.992 305.477 162.992 305.357V293.405C162.992 293.284 163.034 293.182 163.119 293.098C163.203 293.013 163.305 292.971 163.426 292.971H165.032C165.165 292.971 165.267 293.013 165.339 293.098C165.424 293.182 165.466 293.284 165.466 293.405V297.521C165.791 297.136 166.188 296.823 166.657 296.582C167.127 296.341 167.704 296.221 168.391 296.221C169.125 296.221 169.763 296.39 170.304 296.727C170.858 297.052 171.285 297.515 171.586 298.117C171.887 298.719 172.038 299.441 172.038 300.283V305.357C172.038 305.477 171.995 305.579 171.911 305.664C171.827 305.748 171.725 305.79 171.604 305.79H169.979C169.859 305.79 169.757 305.748 169.672 305.664C169.588 305.579 169.546 305.477 169.546 305.357V300.392C169.546 299.694 169.372 299.146 169.022 298.749C168.685 298.352 168.192 298.153 167.542 298.153C166.916 298.153 166.411 298.352 166.025 298.749C165.652 299.146 165.466 299.694 165.466 300.392V305.357C165.466 305.477 165.424 305.579 165.339 305.664C165.267 305.748 165.165 305.79 165.032 305.79H163.426ZM177.813 305.971C177.079 305.971 176.441 305.808 175.9 305.483C175.37 305.146 174.961 304.677 174.672 304.075C174.383 303.461 174.239 302.739 174.239 301.908V296.835C174.239 296.715 174.281 296.612 174.365 296.528C174.449 296.444 174.551 296.402 174.672 296.402H176.261C176.393 296.402 176.495 296.444 176.568 296.528C176.652 296.612 176.694 296.715 176.694 296.835V301.8C176.694 303.292 177.35 304.039 178.662 304.039C179.288 304.039 179.781 303.84 180.142 303.443C180.516 303.046 180.702 302.498 180.702 301.8V296.835C180.702 296.715 180.744 296.612 180.828 296.528C180.913 296.444 181.015 296.402 181.135 296.402H182.724C182.845 296.402 182.947 296.444 183.031 296.528C183.115 296.612 183.157 296.715 183.157 296.835V305.357C183.157 305.477 183.115 305.579 183.031 305.664C182.947 305.748 182.845 305.79 182.724 305.79H181.262C181.129 305.79 181.021 305.748 180.937 305.664C180.865 305.579 180.828 305.477 180.828 305.357V304.616C180.503 305.038 180.1 305.369 179.619 305.609C179.137 305.85 178.536 305.971 177.813 305.971ZM189.785 305.79C189.063 305.79 188.455 305.664 187.962 305.411C187.468 305.158 187.101 304.785 186.86 304.292C186.62 303.786 186.499 303.16 186.499 302.414V298.315H185.073C184.953 298.315 184.85 298.273 184.766 298.189C184.682 298.105 184.64 298.003 184.64 297.882V296.835C184.64 296.715 184.682 296.612 184.766 296.528C184.85 296.444 184.953 296.402 185.073 296.402H186.499V293.405C186.499 293.284 186.535 293.182 186.608 293.098C186.692 293.013 186.8 292.971 186.933 292.971H188.395C188.515 292.971 188.618 293.013 188.702 293.098C188.786 293.182 188.828 293.284 188.828 293.405V296.402H191.085C191.206 296.402 191.308 296.444 191.392 296.528C191.476 296.612 191.518 296.715 191.518 296.835V297.882C191.518 298.003 191.476 298.105 191.392 298.189C191.308 298.273 191.206 298.315 191.085 298.315H188.828V302.233C188.828 302.727 188.913 303.112 189.081 303.389C189.262 303.666 189.569 303.804 190.002 303.804H191.248C191.368 303.804 191.47 303.846 191.555 303.93C191.639 304.015 191.681 304.117 191.681 304.237V305.357C191.681 305.477 191.639 305.579 191.555 305.664C191.47 305.748 191.368 305.79 191.248 305.79H189.785ZM197.327 305.971C195.991 305.971 194.932 305.585 194.149 304.815C193.367 304.045 192.946 302.949 192.885 301.529C192.873 301.409 192.867 301.258 192.867 301.078C192.867 300.885 192.873 300.735 192.885 300.626C192.934 299.724 193.138 298.941 193.499 298.279C193.872 297.617 194.384 297.112 195.034 296.763C195.684 296.402 196.448 296.221 197.327 296.221C198.302 296.221 199.12 296.426 199.782 296.835C200.444 297.232 200.944 297.792 201.281 298.514C201.618 299.224 201.786 300.049 201.786 300.988V301.367C201.786 301.487 201.744 301.589 201.66 301.674C201.576 301.758 201.467 301.8 201.335 301.8H195.341C195.341 301.8 195.341 301.818 195.341 301.854C195.341 301.89 195.341 301.92 195.341 301.944C195.353 302.366 195.431 302.757 195.576 303.118C195.732 303.467 195.955 303.75 196.244 303.967C196.544 304.183 196.9 304.292 197.309 304.292C197.646 304.292 197.929 304.243 198.157 304.147C198.386 304.039 198.573 303.918 198.717 303.786C198.861 303.654 198.964 303.545 199.024 303.461C199.132 303.317 199.217 303.232 199.277 303.208C199.349 303.172 199.451 303.154 199.584 303.154H201.136C201.257 303.154 201.353 303.19 201.425 303.262C201.509 303.335 201.546 303.425 201.534 303.533C201.521 303.726 201.419 303.961 201.227 304.237C201.046 304.514 200.781 304.785 200.432 305.05C200.083 305.315 199.644 305.537 199.114 305.718C198.597 305.886 198.001 305.971 197.327 305.971ZM195.341 300.283H199.331V300.229C199.331 299.76 199.253 299.351 199.096 299.002C198.94 298.652 198.711 298.376 198.41 298.171C198.109 297.966 197.748 297.864 197.327 297.864C196.906 297.864 196.544 297.966 196.244 298.171C195.943 298.376 195.714 298.652 195.557 299.002C195.413 299.351 195.341 299.76 195.341 300.229V300.283ZM212.071 309.762C211.193 309.762 210.47 309.648 209.905 309.419C209.339 309.19 208.894 308.913 208.569 308.588C208.244 308.264 208.009 307.939 207.865 307.614C207.732 307.301 207.66 307.054 207.648 306.873C207.636 306.753 207.672 306.645 207.756 306.548C207.853 306.464 207.961 306.422 208.081 306.422H209.652C209.772 306.422 209.869 306.446 209.941 306.494C210.013 306.554 210.073 306.657 210.121 306.801C210.194 306.958 210.29 307.126 210.41 307.307C210.531 307.487 210.711 307.638 210.952 307.758C211.205 307.89 211.548 307.957 211.981 307.957C212.438 307.957 212.824 307.89 213.137 307.758C213.449 307.626 213.684 307.403 213.841 307.09C214.009 306.777 214.093 306.344 214.093 305.79V304.562C213.805 304.911 213.431 305.194 212.974 305.411C212.529 305.628 211.975 305.736 211.313 305.736C210.663 305.736 210.103 305.634 209.634 305.429C209.165 305.212 208.773 304.917 208.46 304.544C208.147 304.159 207.907 303.708 207.738 303.19C207.582 302.673 207.491 302.101 207.467 301.475C207.455 301.15 207.455 300.825 207.467 300.5C207.491 299.898 207.582 299.339 207.738 298.821C207.895 298.303 208.129 297.852 208.442 297.467C208.767 297.07 209.165 296.763 209.634 296.546C210.103 296.329 210.663 296.221 211.313 296.221C211.999 296.221 212.577 296.354 213.046 296.618C213.516 296.871 213.901 297.19 214.202 297.575V296.853C214.202 296.721 214.244 296.612 214.328 296.528C214.412 296.444 214.515 296.402 214.635 296.402H216.097C216.218 296.402 216.32 296.444 216.404 296.528C216.489 296.612 216.531 296.721 216.531 296.853L216.549 305.555C216.549 306.422 216.386 307.168 216.061 307.794C215.736 308.42 215.243 308.901 214.581 309.238C213.931 309.588 213.094 309.762 212.071 309.762ZM211.981 303.822C212.475 303.822 212.872 303.714 213.173 303.497C213.474 303.28 213.696 302.998 213.841 302.649C213.985 302.299 214.069 301.944 214.093 301.583C214.105 301.427 214.111 301.228 214.111 300.988C214.111 300.747 214.105 300.554 214.093 300.41C214.069 300.037 213.985 299.682 213.841 299.345C213.696 298.996 213.474 298.713 213.173 298.496C212.872 298.267 212.475 298.153 211.981 298.153C211.488 298.153 211.09 298.267 210.789 298.496C210.489 298.713 210.272 299.002 210.139 299.363C210.019 299.724 209.947 300.121 209.923 300.554C209.899 300.843 209.899 301.138 209.923 301.439C209.947 301.86 210.019 302.257 210.139 302.63C210.272 302.992 210.489 303.28 210.789 303.497C211.09 303.714 211.488 303.822 211.981 303.822ZM219.387 305.79C219.267 305.79 219.165 305.748 219.08 305.664C218.996 305.579 218.954 305.477 218.954 305.357V296.853C218.954 296.721 218.996 296.612 219.08 296.528C219.165 296.444 219.267 296.402 219.387 296.402H220.85C220.97 296.402 221.072 296.444 221.157 296.528C221.253 296.612 221.301 296.721 221.301 296.853V297.593C221.578 297.208 221.933 296.913 222.366 296.709C222.812 296.504 223.323 296.402 223.901 296.402H224.641C224.774 296.402 224.876 296.444 224.948 296.528C225.032 296.612 225.074 296.715 225.074 296.835V298.135C225.074 298.255 225.032 298.358 224.948 298.442C224.876 298.526 224.774 298.568 224.641 298.568H223.233C222.655 298.568 222.204 298.731 221.879 299.056C221.566 299.381 221.409 299.826 221.409 300.392V305.357C221.409 305.477 221.367 305.579 221.283 305.664C221.199 305.748 221.09 305.79 220.958 305.79H219.387ZM229.068 305.971C228.442 305.971 227.876 305.85 227.371 305.609C226.865 305.357 226.462 305.026 226.161 304.616C225.872 304.195 225.728 303.726 225.728 303.208C225.728 302.366 226.065 301.698 226.739 301.204C227.425 300.699 228.327 300.362 229.447 300.193L231.92 299.832V299.453C231.92 298.947 231.794 298.556 231.541 298.279C231.288 298.003 230.855 297.864 230.241 297.864C229.808 297.864 229.453 297.954 229.176 298.135C228.911 298.303 228.713 298.532 228.58 298.821C228.484 298.977 228.346 299.056 228.165 299.056H226.739C226.606 299.056 226.504 299.02 226.432 298.947C226.372 298.875 226.341 298.779 226.341 298.658C226.354 298.466 226.432 298.231 226.576 297.954C226.721 297.678 226.949 297.413 227.262 297.16C227.575 296.895 227.978 296.672 228.472 296.492C228.965 296.311 229.561 296.221 230.259 296.221C231.018 296.221 231.656 296.317 232.173 296.51C232.703 296.691 233.124 296.937 233.437 297.25C233.75 297.563 233.979 297.93 234.123 298.352C234.267 298.773 234.34 299.218 234.34 299.688V305.357C234.34 305.477 234.298 305.579 234.213 305.664C234.129 305.748 234.027 305.79 233.906 305.79H232.444C232.312 305.79 232.203 305.748 232.119 305.664C232.047 305.579 232.011 305.477 232.011 305.357V304.653C231.854 304.881 231.644 305.098 231.379 305.303C231.114 305.495 230.789 305.658 230.404 305.79C230.031 305.91 229.585 305.971 229.068 305.971ZM229.682 304.255C230.103 304.255 230.482 304.165 230.819 303.985C231.168 303.804 231.439 303.527 231.631 303.154C231.836 302.769 231.938 302.287 231.938 301.71V301.331L230.133 301.619C229.423 301.728 228.893 301.902 228.544 302.143C228.195 302.384 228.021 302.679 228.021 303.028C228.021 303.292 228.099 303.521 228.255 303.714C228.424 303.894 228.634 304.033 228.887 304.129C229.14 304.213 229.405 304.255 229.682 304.255ZM239.749 305.79C239.556 305.79 239.412 305.748 239.315 305.664C239.231 305.567 239.159 305.459 239.099 305.339L235.723 296.961C235.698 296.901 235.686 296.847 235.686 296.799C235.686 296.691 235.723 296.6 235.795 296.528C235.879 296.444 235.975 296.402 236.084 296.402H237.546C237.69 296.402 237.799 296.444 237.871 296.528C237.943 296.6 237.991 296.672 238.015 296.745L240.417 303.082L242.818 296.745C242.842 296.672 242.89 296.6 242.962 296.528C243.035 296.444 243.143 296.402 243.287 296.402H244.768C244.864 296.402 244.948 296.444 245.021 296.528C245.105 296.6 245.147 296.691 245.147 296.799C245.147 296.847 245.141 296.901 245.129 296.961L241.735 305.339C241.687 305.459 241.614 305.567 241.518 305.664C241.422 305.748 241.277 305.79 241.085 305.79H239.749ZM250.503 305.971C249.167 305.971 248.108 305.585 247.326 304.815C246.543 304.045 246.122 302.949 246.062 301.529C246.05 301.409 246.044 301.258 246.044 301.078C246.044 300.885 246.05 300.735 246.062 300.626C246.11 299.724 246.314 298.941 246.676 298.279C247.049 297.617 247.56 297.112 248.21 296.763C248.86 296.402 249.624 296.221 250.503 296.221C251.478 296.221 252.297 296.426 252.959 296.835C253.621 297.232 254.12 297.792 254.457 298.514C254.794 299.224 254.963 300.049 254.963 300.988V301.367C254.963 301.487 254.92 301.589 254.836 301.674C254.752 301.758 254.644 301.8 254.511 301.8H248.517C248.517 301.8 248.517 301.818 248.517 301.854C248.517 301.89 248.517 301.92 248.517 301.944C248.529 302.366 248.607 302.757 248.752 303.118C248.908 303.467 249.131 303.75 249.42 303.967C249.721 304.183 250.076 304.292 250.485 304.292C250.822 304.292 251.105 304.243 251.334 304.147C251.562 304.039 251.749 303.918 251.893 303.786C252.038 303.654 252.14 303.545 252.2 303.461C252.309 303.317 252.393 303.232 252.453 303.208C252.525 303.172 252.628 303.154 252.76 303.154H254.313C254.433 303.154 254.529 303.19 254.602 303.262C254.686 303.335 254.722 303.425 254.71 303.533C254.698 303.726 254.596 303.961 254.403 304.237C254.222 304.514 253.958 304.785 253.609 305.05C253.259 305.315 252.82 305.537 252.291 305.718C251.773 305.886 251.177 305.971 250.503 305.971ZM248.517 300.283H252.507V300.229C252.507 299.76 252.429 299.351 252.272 299.002C252.116 298.652 251.887 298.376 251.586 298.171C251.286 297.966 250.924 297.864 250.503 297.864C250.082 297.864 249.721 297.966 249.42 298.171C249.119 298.376 248.89 298.652 248.734 299.002C248.589 299.351 248.517 299.76 248.517 300.229V300.283Z" fill="#003E5C"/>
<path d="M347.574 139.93C346.636 137.484 343.894 136.261 341.447 137.199L325.813 143.193C306.912 140.376 315.352 141.816 289.081 136.967L279.885 129.26L287.892 114.452C289.137 112.148 288.28 109.27 285.975 108.023C283.67 106.777 280.792 107.636 279.546 109.94L269.716 128.12C268.653 130.087 269.108 132.53 270.808 133.983L287.067 147.873L282.686 171.61L267.398 180.362C265.288 181.57 264.178 183.985 264.635 186.373L268.652 207.352C269.174 210.078 271.56 211.975 274.237 211.975C274.591 211.975 274.952 211.941 275.313 211.872C278.401 211.281 280.425 208.299 279.834 205.211L276.581 188.223L287.066 182.221L296.735 184.006L301.748 199.967L291.009 226.261C289.821 229.171 291.216 232.494 294.127 233.683C294.831 233.971 295.56 234.107 296.277 234.107C298.521 234.107 300.648 232.771 301.549 230.565L313.064 202.371C313.566 201.144 313.622 199.779 313.225 198.513L306.956 178.552L312.089 150.739L325.648 152.76C326.435 152.877 327.261 152.798 328.046 152.497L344.844 146.056C347.289 145.119 348.512 142.376 347.574 139.93Z" fill="#003E5C"/>
<path d="M303.895 135.748C309.325 135.748 313.726 131.347 313.726 125.917C313.726 120.487 309.325 116.086 303.895 116.086C298.466 116.086 294.064 120.487 294.064 125.917C294.064 131.347 298.466 135.748 303.895 135.748Z" fill="#003E5C"/>
<path d="M280.4 219.18H223.074C221.396 219.18 220.035 220.54 220.035 222.218V233.597C220.035 235.275 221.396 236.636 223.074 236.636H280.4C282.078 236.636 283.438 235.275 283.438 233.597V222.218C283.439 220.54 282.078 219.18 280.4 219.18Z" fill="#003E5C"/>
</svg>
