<svg width="502" height="354" viewBox="0 0 502 354" fill="none" xmlns="http://www.w3.org/2000/svg">
<line x1="49.2893" y1="65.2064" x2="501.314" y2="65.2064" stroke="#CFD8DC" stroke-width="0.805065" stroke-linecap="round" stroke-dasharray="7.25 7.25"/>
<line x1="49.2893" y1="125.853" x2="501.314" y2="125.853" stroke="#CFD8DC" stroke-width="0.805065" stroke-linecap="round" stroke-dasharray="7.25 7.25"/>
<line x1="49.2893" y1="187.309" x2="501.314" y2="187.309" stroke="#CFD8DC" stroke-width="0.805065" stroke-linecap="round" stroke-dasharray="7.25 7.25"/>
<line x1="49.2893" y1="248.765" x2="501.314" y2="248.765" stroke="#CFD8DC" stroke-width="0.805065" stroke-linecap="round" stroke-dasharray="7.25 7.25"/>
<line x1="49.2893" y1="309.411" x2="501.314" y2="309.411" stroke="#CFD8DC" stroke-width="0.805065" stroke-linecap="round" stroke-dasharray="7.25 7.25"/>
<path d="M30.3957 316.08C29.6658 316.08 29.0539 315.962 28.5602 315.726C28.0771 315.49 27.6853 315.168 27.3848 314.76C27.095 314.341 26.8856 313.863 26.7568 313.327C26.628 312.79 26.5529 312.226 26.5314 311.636C26.5314 311.346 26.526 311.051 26.5153 310.75C26.5153 310.45 26.5153 310.149 26.5153 309.849C26.526 309.537 26.5314 309.232 26.5314 308.931C26.5421 308.341 26.6119 307.777 26.7407 307.24C26.8803 306.704 27.095 306.231 27.3848 305.823C27.6853 305.405 28.0771 305.077 28.5602 304.841C29.0539 304.605 29.6658 304.487 30.3957 304.487C31.1256 304.487 31.7321 304.605 32.2152 304.841C32.7089 305.077 33.1007 305.405 33.3906 305.823C33.6911 306.231 33.9058 306.704 34.0346 307.24C34.1742 307.777 34.2493 308.341 34.26 308.931C34.2708 309.232 34.2761 309.537 34.2761 309.849C34.2761 310.149 34.2761 310.45 34.2761 310.75C34.2761 311.051 34.2708 311.346 34.26 311.636C34.2493 312.226 34.1742 312.79 34.0346 313.327C33.9058 313.863 33.6911 314.341 33.3906 314.76C33.1007 315.168 32.7089 315.49 32.2152 315.726C31.7321 315.962 31.1256 316.08 30.3957 316.08ZM30.3957 315.114C31.3511 315.114 32.0595 314.797 32.5211 314.164C32.9827 313.531 33.2242 312.661 33.2457 311.555C33.2564 311.244 33.2618 310.954 33.2618 310.686C33.2618 310.407 33.2618 310.133 33.2618 309.865C33.2618 309.586 33.2564 309.301 33.2457 309.011C33.2242 307.927 32.9827 307.063 32.5211 306.419C32.0595 305.775 31.3511 305.453 30.3957 305.453C29.4511 305.453 28.7427 305.775 28.2704 306.419C27.8088 307.063 27.5673 307.927 27.5458 309.011C27.5458 309.301 27.5404 309.586 27.5297 309.865C27.5297 310.133 27.5297 310.407 27.5297 310.686C27.5404 310.954 27.5458 311.244 27.5458 311.555C27.5673 312.661 27.8088 313.531 28.2704 314.164C28.7427 314.797 29.4511 315.114 30.3957 315.114Z" fill="#003E5C"/>
<path d="M23.7657 254.624C22.907 254.624 22.1878 254.442 21.6081 254.077C21.0285 253.712 20.5884 253.24 20.2878 252.66C19.998 252.08 19.8531 251.469 19.8531 250.824C19.8531 250.513 19.8853 250.218 19.9497 249.939C20.0248 249.649 20.1161 249.381 20.2234 249.134C20.3308 248.887 20.4381 248.667 20.5455 248.474C20.6635 248.27 20.7709 248.103 20.8675 247.975L24.0394 243.514C24.0931 243.461 24.1521 243.396 24.2166 243.321C24.2917 243.235 24.399 243.192 24.5386 243.192H24.8445C24.9411 243.192 25.0162 243.23 25.0699 243.305C25.1343 243.37 25.1665 243.45 25.1665 243.547C25.1665 243.59 25.1558 243.633 25.1343 243.676C25.1236 243.708 25.1075 243.735 25.086 243.756L22.6708 247.169C22.8211 247.127 22.9982 247.094 23.2022 247.073C23.4061 247.051 23.594 247.041 23.7657 247.041C24.4098 247.041 24.9733 247.148 25.4564 247.363C25.9501 247.567 26.358 247.846 26.6801 248.2C27.0128 248.554 27.2597 248.962 27.4207 249.424C27.5925 249.875 27.6783 250.341 27.6783 250.824C27.6783 251.469 27.5281 252.08 27.2275 252.66C26.9377 253.24 26.5029 253.712 25.9233 254.077C25.3436 254.442 24.6245 254.624 23.7657 254.624ZM23.7657 253.658C24.2702 253.658 24.7425 253.551 25.1826 253.336C25.6227 253.122 25.977 252.805 26.2453 252.386C26.5244 251.957 26.6639 251.436 26.6639 250.824C26.6639 250.213 26.5244 249.697 26.2453 249.279C25.977 248.86 25.6227 248.543 25.1826 248.329C24.7425 248.114 24.2702 248.007 23.7657 248.007C23.2612 248.007 22.7889 248.114 22.3488 248.329C21.9087 248.543 21.5491 248.86 21.27 249.279C21.0017 249.697 20.8675 250.213 20.8675 250.824C20.8675 251.436 21.0017 251.957 21.27 252.386C21.5491 252.805 21.9087 253.122 22.3488 253.336C22.7889 253.551 23.2612 253.658 23.7657 253.658ZM33.2982 254.624C32.5683 254.624 31.9564 254.506 31.4626 254.27C30.9796 254.034 30.5878 253.712 30.2872 253.304C29.9974 252.885 29.7881 252.408 29.6593 251.871C29.5305 251.334 29.4553 250.771 29.4339 250.18C29.4339 249.891 29.4285 249.595 29.4178 249.295C29.4178 248.994 29.4178 248.694 29.4178 248.393C29.4285 248.082 29.4339 247.776 29.4339 247.475C29.4446 246.885 29.5144 246.321 29.6432 245.785C29.7827 245.248 29.9974 244.776 30.2872 244.368C30.5878 243.949 30.9796 243.622 31.4626 243.386C31.9564 243.15 32.5683 243.031 33.2982 243.031C34.0281 243.031 34.6346 243.15 35.1176 243.386C35.6114 243.622 36.0032 243.949 36.293 244.368C36.5936 244.776 36.8083 245.248 36.9371 245.785C37.0766 246.321 37.1518 246.885 37.1625 247.475C37.1732 247.776 37.1786 248.082 37.1786 248.393C37.1786 248.694 37.1786 248.994 37.1786 249.295C37.1786 249.595 37.1732 249.891 37.1625 250.18C37.1518 250.771 37.0766 251.334 36.9371 251.871C36.8083 252.408 36.5936 252.885 36.293 253.304C36.0032 253.712 35.6114 254.034 35.1176 254.27C34.6346 254.506 34.0281 254.624 33.2982 254.624ZM33.2982 253.658C34.2535 253.658 34.962 253.342 35.4236 252.708C35.8851 252.075 36.1266 251.206 36.1481 250.1C36.1588 249.789 36.1642 249.499 36.1642 249.23C36.1642 248.951 36.1642 248.678 36.1642 248.409C36.1642 248.13 36.1588 247.846 36.1481 247.556C36.1266 246.472 35.8851 245.608 35.4236 244.964C34.962 244.32 34.2535 243.998 33.2982 243.998C32.3536 243.998 31.6451 244.32 31.1728 244.964C30.7112 245.608 30.4697 246.472 30.4483 247.556C30.4483 247.846 30.4429 248.13 30.4322 248.409C30.4322 248.678 30.4322 248.951 30.4322 249.23C30.4429 249.499 30.4483 249.789 30.4483 250.1C30.4697 251.206 30.7112 252.075 31.1728 252.708C31.6451 253.342 32.3536 253.658 33.2982 253.658Z" fill="#003E5C"/>
<path d="M20.9855 193.008C20.8781 193.008 20.7922 192.976 20.7278 192.912C20.6634 192.847 20.6312 192.761 20.6312 192.654V183.058L17.7491 185.28C17.6632 185.344 17.572 185.371 17.4754 185.36C17.3895 185.349 17.3144 185.301 17.25 185.215L17.0728 184.99C17.0084 184.904 16.9816 184.818 16.9923 184.732C17.0031 184.636 17.0514 184.555 17.1373 184.491L20.5668 181.85C20.642 181.796 20.7117 181.764 20.7761 181.753C20.8406 181.743 20.9103 181.737 20.9855 181.737H21.2914C21.3987 181.737 21.4846 181.77 21.549 181.834C21.6134 181.898 21.6456 181.984 21.6456 182.092V192.654C21.6456 192.761 21.6134 192.847 21.549 192.912C21.4846 192.976 21.3987 193.008 21.2914 193.008H20.9855ZM24.1484 193.008C24.041 193.008 23.9551 192.976 23.8907 192.912C23.8263 192.847 23.7941 192.761 23.7941 192.654V192.413C23.7941 192.305 23.821 192.203 23.8746 192.107C23.939 191.999 24.0464 191.876 24.1967 191.736L28.3669 187.566C28.7748 187.19 29.0861 186.863 29.3008 186.584C29.5155 186.305 29.6604 186.031 29.7355 185.763C29.8214 185.484 29.8643 185.178 29.8643 184.845C29.8643 184.126 29.655 183.562 29.2364 183.154C28.8285 182.746 28.2435 182.542 27.4813 182.542C26.9983 182.542 26.5797 182.639 26.2254 182.832C25.8712 183.025 25.5921 183.299 25.3882 183.653C25.1842 183.997 25.05 184.399 24.9856 184.861C24.9749 184.99 24.9266 185.086 24.8407 185.151C24.7548 185.205 24.6797 185.231 24.6153 185.231H24.2933C24.1859 185.231 24.1001 185.205 24.0357 185.151C23.982 185.086 23.9551 185.011 23.9551 184.925C23.9659 184.56 24.041 184.185 24.1806 183.798C24.3201 183.401 24.5294 183.036 24.8085 182.703C25.0983 182.371 25.4633 182.102 25.9034 181.898C26.3435 181.684 26.8695 181.576 27.4813 181.576C28.2971 181.576 28.9519 181.732 29.4457 182.043C29.9502 182.355 30.3152 182.757 30.5406 183.251C30.766 183.745 30.8787 184.276 30.8787 184.845C30.8787 185.285 30.8143 185.693 30.6855 186.069C30.5567 186.434 30.3635 186.793 30.1058 187.147C29.8482 187.491 29.5208 187.845 29.1237 188.21L25.356 192.042H30.7499C30.868 192.042 30.9592 192.074 31.0236 192.139C31.088 192.203 31.1202 192.294 31.1202 192.413V192.654C31.1202 192.761 31.088 192.847 31.0236 192.912C30.9592 192.976 30.868 193.008 30.7499 193.008H24.1484ZM36.9259 193.169C36.1959 193.169 35.5841 193.051 35.0903 192.815C34.6073 192.579 34.2155 192.257 33.9149 191.849C33.6251 191.43 33.4158 190.953 33.287 190.416C33.1582 189.879 33.083 189.316 33.0616 188.725C33.0616 188.436 33.0562 188.14 33.0455 187.84C33.0455 187.539 33.0455 187.239 33.0455 186.938C33.0562 186.627 33.0616 186.321 33.0616 186.02C33.0723 185.43 33.1421 184.866 33.2709 184.33C33.4104 183.793 33.6251 183.321 33.9149 182.913C34.2155 182.494 34.6073 182.167 35.0903 181.931C35.5841 181.694 36.1959 181.576 36.9259 181.576C37.6558 181.576 38.2623 181.694 38.7453 181.931C39.2391 182.167 39.6309 182.494 39.9207 182.913C40.2213 183.321 40.436 183.793 40.5648 184.33C40.7043 184.866 40.7794 185.43 40.7902 186.02C40.8009 186.321 40.8063 186.627 40.8063 186.938C40.8063 187.239 40.8063 187.539 40.8063 187.84C40.8063 188.14 40.8009 188.436 40.7902 188.725C40.7794 189.316 40.7043 189.879 40.5648 190.416C40.436 190.953 40.2213 191.43 39.9207 191.849C39.6309 192.257 39.2391 192.579 38.7453 192.815C38.2623 193.051 37.6558 193.169 36.9259 193.169ZM36.9259 192.203C37.8812 192.203 38.5897 191.887 39.0512 191.253C39.5128 190.62 39.7543 189.75 39.7758 188.645C39.7865 188.334 39.7919 188.044 39.7919 187.775C39.7919 187.496 39.7919 187.223 39.7919 186.954C39.7919 186.675 39.7865 186.391 39.7758 186.101C39.7543 185.017 39.5128 184.153 39.0512 183.509C38.5897 182.864 37.8812 182.542 36.9259 182.542C35.9813 182.542 35.2728 182.864 34.8005 183.509C34.3389 184.153 34.0974 185.017 34.0759 186.101C34.0759 186.391 34.0706 186.675 34.0598 186.954C34.0598 187.223 34.0598 187.496 34.0598 187.775C34.0706 188.044 34.0759 188.334 34.0759 188.645C34.0974 189.75 34.3389 190.62 34.8005 191.253C35.2728 191.887 35.9813 192.203 36.9259 192.203Z" fill="#003E5C"/>
<path d="M20.9855 131.553C20.8781 131.553 20.7922 131.521 20.7278 131.456C20.6634 131.392 20.6312 131.306 20.6312 131.199V121.602L17.7491 123.824C17.6632 123.889 17.572 123.915 17.4754 123.905C17.3895 123.894 17.3144 123.846 17.25 123.76L17.0728 123.534C17.0084 123.448 16.9816 123.363 16.9923 123.277C17.0031 123.18 17.0514 123.1 17.1373 123.035L20.5668 120.395C20.642 120.341 20.7117 120.309 20.7761 120.298C20.8406 120.287 20.9103 120.282 20.9855 120.282H21.2914C21.3987 120.282 21.4846 120.314 21.549 120.378C21.6134 120.443 21.6456 120.529 21.6456 120.636V131.199C21.6456 131.306 21.6134 131.392 21.549 131.456C21.4846 131.521 21.3987 131.553 21.2914 131.553H20.9855ZM27.9322 131.714C27.3847 131.714 26.8641 131.644 26.3703 131.504C25.8873 131.354 25.4633 131.139 25.0983 130.86C24.7334 130.571 24.4436 130.222 24.2289 129.814C24.0249 129.395 23.9229 128.917 23.9229 128.381C23.9229 127.694 24.0893 127.114 24.4221 126.642C24.7548 126.159 25.1949 125.788 25.7424 125.531C25.313 125.284 24.9695 124.957 24.7119 124.549C24.4543 124.141 24.3255 123.652 24.3255 123.083C24.3255 122.429 24.4865 121.887 24.8085 121.457C25.1305 121.017 25.5653 120.684 26.1127 120.459C26.6602 120.234 27.2666 120.121 27.9322 120.121C28.5977 120.121 29.2042 120.234 29.7516 120.459C30.2991 120.684 30.7338 121.017 31.0558 121.457C31.3778 121.887 31.5389 122.429 31.5389 123.083C31.5389 123.652 31.41 124.141 31.1524 124.549C30.8948 124.957 30.5513 125.284 30.1219 125.531C30.6694 125.788 31.1095 126.159 31.4422 126.642C31.775 127.114 31.9414 127.694 31.9414 128.381C31.9414 129.1 31.7589 129.706 31.3939 130.2C31.0397 130.694 30.5567 131.07 29.9448 131.327C29.3437 131.585 28.6728 131.714 27.9322 131.714ZM27.9322 130.748C28.4903 130.748 28.9949 130.651 29.4457 130.458C29.8965 130.265 30.2561 129.991 30.5245 129.637C30.7928 129.282 30.927 128.864 30.927 128.381C30.927 127.887 30.7928 127.468 30.5245 127.125C30.2561 126.771 29.8965 126.502 29.4457 126.32C28.9949 126.127 28.4903 126.03 27.9322 126.03C27.3847 126.03 26.8802 126.127 26.4186 126.32C25.9678 126.502 25.6082 126.771 25.3399 127.125C25.0715 127.468 24.9373 127.887 24.9373 128.381C24.9373 128.864 25.0715 129.282 25.3399 129.637C25.6082 129.991 25.9678 130.265 26.4186 130.458C26.8802 130.651 27.3847 130.748 27.9322 130.748ZM27.9322 125.064C28.3937 125.053 28.8177 124.967 29.2042 124.806C29.6013 124.645 29.918 124.42 30.1541 124.13C30.401 123.84 30.5245 123.491 30.5245 123.083C30.5245 122.665 30.4064 122.311 30.1702 122.021C29.9448 121.72 29.6335 121.489 29.2364 121.328C28.8499 121.167 28.4152 121.087 27.9322 121.087C27.4599 121.087 27.0251 121.167 26.628 121.328C26.2308 121.489 25.9141 121.72 25.678 122.021C25.4526 122.311 25.3399 122.665 25.3399 123.083C25.3399 123.502 25.4526 123.862 25.678 124.162C25.9141 124.452 26.2308 124.677 26.628 124.838C27.0251 124.989 27.4599 125.064 27.9322 125.064ZM37.8693 131.714C37.1394 131.714 36.5275 131.596 36.0338 131.36C35.5507 131.123 35.1589 130.801 34.8584 130.393C34.5685 129.975 34.3592 129.497 34.2304 128.96C34.1016 128.424 34.0265 127.86 34.005 127.27C34.005 126.98 33.9996 126.685 33.9889 126.384C33.9889 126.084 33.9889 125.783 33.9889 125.483C33.9996 125.171 34.005 124.865 34.005 124.565C34.0157 123.974 34.0855 123.411 34.2143 122.874C34.3539 122.337 34.5685 121.865 34.8584 121.457C35.1589 121.039 35.5507 120.711 36.0338 120.475C36.5275 120.239 37.1394 120.121 37.8693 120.121C38.5992 120.121 39.2057 120.239 39.6888 120.475C40.1825 120.711 40.5743 121.039 40.8641 121.457C41.1647 121.865 41.3794 122.337 41.5082 122.874C41.6477 123.411 41.7229 123.974 41.7336 124.565C41.7444 124.865 41.7497 125.171 41.7497 125.483C41.7497 125.783 41.7497 126.084 41.7497 126.384C41.7497 126.685 41.7444 126.98 41.7336 127.27C41.7229 127.86 41.6477 128.424 41.5082 128.96C41.3794 129.497 41.1647 129.975 40.8641 130.393C40.5743 130.801 40.1825 131.123 39.6888 131.36C39.2057 131.596 38.5992 131.714 37.8693 131.714ZM37.8693 130.748C38.8246 130.748 39.5331 130.431 39.9947 129.798C40.4562 129.164 40.6978 128.295 40.7192 127.189C40.73 126.878 40.7353 126.588 40.7353 126.32C40.7353 126.041 40.7353 125.767 40.7353 125.499C40.7353 125.22 40.73 124.935 40.7192 124.645C40.6978 123.561 40.4562 122.697 39.9947 122.053C39.5331 121.409 38.8246 121.087 37.8693 121.087C36.9247 121.087 36.2162 121.409 35.7439 122.053C35.2824 122.697 35.0408 123.561 35.0194 124.645C35.0194 124.935 35.014 125.22 35.0033 125.499C35.0033 125.767 35.0033 126.041 35.0033 126.32C35.014 126.588 35.0194 126.878 35.0194 127.189C35.0408 128.295 35.2824 129.164 35.7439 129.798C36.2162 130.431 36.9247 130.748 37.8693 130.748Z" fill="#003E5C"/>
<path d="M16.9244 70.0967C16.8171 70.0967 16.7312 70.0645 16.6668 70.0001C16.6024 69.9357 16.5702 69.8498 16.5702 69.7425V69.5009C16.5702 69.3936 16.597 69.2916 16.6507 69.195C16.7151 69.0877 16.8224 68.9642 16.9727 68.8247L21.1429 64.6544C21.5508 64.2787 21.8621 63.9514 22.0768 63.6723C22.2915 63.3932 22.4364 63.1195 22.5116 62.8511C22.5974 62.572 22.6404 62.2661 22.6404 61.9333C22.6404 61.2141 22.431 60.6506 22.0124 60.2427C21.6045 59.8348 21.0195 59.6308 20.2574 59.6308C19.7743 59.6308 19.3557 59.7274 19.0015 59.9207C18.6472 60.1139 18.3682 60.3876 18.1642 60.7418C17.9603 61.0853 17.8261 61.4879 17.7617 61.9494C17.7509 62.0782 17.7026 62.1748 17.6168 62.2392C17.5309 62.2929 17.4557 62.3198 17.3913 62.3198H17.0693C16.962 62.3198 16.8761 62.2929 16.8117 62.2392C16.758 62.1748 16.7312 62.0997 16.7312 62.0138C16.7419 61.6489 16.8171 61.2732 16.9566 60.8867C17.0962 60.4896 17.3055 60.1246 17.5846 59.7918C17.8744 59.4591 18.2393 59.1907 18.6794 58.9868C19.1195 58.7721 19.6455 58.6648 20.2574 58.6648C21.0732 58.6648 21.728 58.8204 22.2217 59.1317C22.7262 59.443 23.0912 59.8455 23.3166 60.3393C23.542 60.8331 23.6547 61.3644 23.6547 61.9333C23.6547 62.3734 23.5903 62.7813 23.4615 63.157C23.3327 63.522 23.1395 63.8816 22.8819 64.2358C22.6243 64.5793 22.2969 64.9335 21.8997 65.2985L18.132 69.1306H23.5259C23.644 69.1306 23.7353 69.1628 23.7997 69.2272C23.8641 69.2916 23.8963 69.3829 23.8963 69.5009V69.7425C23.8963 69.8498 23.8641 69.9357 23.7997 70.0001C23.7353 70.0645 23.644 70.0967 23.5259 70.0967H16.9244ZM31.0912 70.0967C30.9838 70.0967 30.8979 70.0645 30.8335 70.0001C30.7691 69.9357 30.7369 69.8498 30.7369 69.7425V67.1984H25.4235C25.3162 67.1984 25.2303 67.1662 25.1659 67.1018C25.1015 67.0374 25.0693 66.9516 25.0693 66.8442V66.5866C25.0693 66.5651 25.08 66.5061 25.1015 66.4095C25.1229 66.3129 25.1712 66.2109 25.2464 66.1036L30.1412 59.0995C30.27 58.917 30.4686 58.8258 30.7369 58.8258H31.3971C31.5044 58.8258 31.5903 58.858 31.6547 58.9224C31.7191 58.9868 31.7513 59.0727 31.7513 59.18V66.2324H33.2165C33.3239 66.2324 33.4097 66.2646 33.4741 66.329C33.5386 66.3934 33.5708 66.4793 33.5708 66.5866V66.8442C33.5708 66.9516 33.5386 67.0374 33.4741 67.1018C33.4097 67.1662 33.3239 67.1984 33.2165 67.1984H31.7513V69.7425C31.7513 69.8498 31.7191 69.9357 31.6547 70.0001C31.5903 70.0645 31.5044 70.0967 31.3971 70.0967H31.0912ZM26.3413 66.2324H30.7369V59.969L26.3413 66.2324ZM39.0891 70.2577C38.3592 70.2577 37.7473 70.1396 37.2535 69.9035C36.7705 69.6673 36.3787 69.3453 36.0782 68.9374C35.7883 68.5188 35.579 68.0411 35.4502 67.5044C35.3214 66.9677 35.2463 66.4041 35.2248 65.8137C35.2248 65.5239 35.2194 65.2287 35.2087 64.9282C35.2087 64.6276 35.2087 64.327 35.2087 64.0265C35.2194 63.7152 35.2248 63.4093 35.2248 63.1087C35.2355 62.5183 35.3053 61.9548 35.4341 61.4181C35.5736 60.8814 35.7883 60.4091 36.0782 60.0012C36.3787 59.5825 36.7705 59.2551 37.2535 59.019C37.7473 58.7828 38.3592 58.6648 39.0891 58.6648C39.819 58.6648 40.4255 58.7828 40.9085 59.019C41.4023 59.2551 41.7941 59.5825 42.0839 60.0012C42.3845 60.4091 42.5992 60.8814 42.728 61.4181C42.8675 61.9548 42.9427 62.5183 42.9534 63.1087C42.9641 63.4093 42.9695 63.7152 42.9695 64.0265C42.9695 64.327 42.9695 64.6276 42.9695 64.9282C42.9695 65.2287 42.9641 65.5239 42.9534 65.8137C42.9427 66.4041 42.8675 66.9677 42.728 67.5044C42.5992 68.0411 42.3845 68.5188 42.0839 68.9374C41.7941 69.3453 41.4023 69.6673 40.9085 69.9035C40.4255 70.1396 39.819 70.2577 39.0891 70.2577ZM39.0891 69.2916C40.0444 69.2916 40.7529 68.975 41.2145 68.3416C41.676 67.7083 41.9176 66.8389 41.939 65.7332C41.9498 65.4219 41.9551 65.1321 41.9551 64.8638C41.9551 64.5847 41.9551 64.3109 41.9551 64.0426C41.9551 63.7635 41.9498 63.479 41.939 63.1892C41.9176 62.1051 41.676 61.241 41.2145 60.5969C40.7529 59.9529 40.0444 59.6308 39.0891 59.6308C38.1445 59.6308 37.436 59.9529 36.9637 60.5969C36.5022 61.241 36.2606 62.1051 36.2392 63.1892C36.2392 63.479 36.2338 63.7635 36.2231 64.0426C36.2231 64.3109 36.2231 64.5847 36.2231 64.8638C36.2338 65.1321 36.2392 65.4219 36.2392 65.7332C36.2606 66.8389 36.5022 67.7083 36.9637 68.3416C37.436 68.975 38.1445 69.2916 39.0891 69.2916Z" fill="#003E5C"/>
<path d="M185.544 283.902C185.544 279.456 189.149 275.852 193.595 275.852H226.82C231.266 275.852 234.871 279.456 234.871 283.902V309.814H185.544V283.902Z" fill="#037CBF"/>
<path d="M132.984 134.306C132.984 129.86 136.588 126.256 141.034 126.256H174.259C178.705 126.256 182.31 129.86 182.31 134.307V309.814H132.984V134.306Z" fill="#EF7D00"/>
<path d="M161.97 346.326H150.57V344.563L155.087 339.998C155.956 339.129 156.689 338.356 157.285 337.68C157.88 337.004 158.331 336.343 158.637 335.699C158.943 335.039 159.096 334.323 159.096 333.55C159.096 332.6 158.814 331.883 158.251 331.4C157.687 330.901 156.955 330.652 156.053 330.652C155.216 330.652 154.475 330.796 153.831 331.086C153.203 331.376 152.559 331.779 151.899 332.294L150.764 330.869C151.215 330.482 151.706 330.136 152.237 329.83C152.784 329.524 153.372 329.283 154 329.106C154.644 328.929 155.328 328.84 156.053 328.84C157.132 328.84 158.058 329.025 158.83 329.396C159.603 329.766 160.199 330.297 160.618 330.99C161.052 331.666 161.27 332.479 161.27 333.429C161.27 334.105 161.165 334.749 160.956 335.361C160.746 335.957 160.449 336.545 160.062 337.124C159.676 337.704 159.209 338.292 158.661 338.887C158.114 339.483 157.51 340.103 156.85 340.747L153.251 344.297V344.394H161.97V346.326ZM175.864 337.68C175.864 339.081 175.759 340.328 175.55 341.423C175.341 342.518 175.003 343.452 174.536 344.225C174.085 344.982 173.489 345.561 172.748 345.964C172.024 346.366 171.146 346.568 170.116 346.568C168.828 346.568 167.757 346.213 166.904 345.505C166.066 344.797 165.438 343.782 165.02 342.462C164.617 341.125 164.416 339.531 164.416 337.68C164.416 335.812 164.601 334.218 164.971 332.898C165.358 331.577 165.97 330.571 166.807 329.879C167.644 329.17 168.747 328.816 170.116 328.816C171.404 328.816 172.475 329.17 173.328 329.879C174.181 330.571 174.817 331.577 175.236 332.898C175.655 334.218 175.864 335.812 175.864 337.68ZM166.541 337.68C166.541 339.258 166.654 340.57 166.879 341.617C167.121 342.663 167.499 343.452 168.015 343.983C168.546 344.499 169.246 344.756 170.116 344.756C170.985 344.756 171.678 344.499 172.193 343.983C172.724 343.468 173.111 342.687 173.352 341.641C173.594 340.578 173.714 339.258 173.714 337.68C173.714 336.102 173.594 334.798 173.352 333.767C173.111 332.721 172.724 331.94 172.193 331.424C171.678 330.893 170.985 330.627 170.116 330.627C169.246 330.627 168.546 330.893 168.015 331.424C167.499 331.94 167.121 332.721 166.879 333.767C166.654 334.798 166.541 336.102 166.541 337.68ZM185.628 346.326H183.551V334.274C183.551 333.807 183.551 333.413 183.551 333.091C183.567 332.769 183.583 332.471 183.599 332.197C183.615 331.907 183.631 331.61 183.647 331.304C183.39 331.561 183.156 331.779 182.947 331.956C182.738 332.133 182.472 332.358 182.15 332.632L180.314 334.129L179.203 332.704L183.865 329.082H185.628V346.326ZM197.758 328.84C198.773 328.84 199.666 329.001 200.439 329.323C201.212 329.629 201.816 330.088 202.251 330.7C202.702 331.312 202.927 332.068 202.927 332.97C202.927 333.663 202.774 334.266 202.468 334.782C202.178 335.297 201.784 335.756 201.285 336.158C200.786 336.545 200.238 336.891 199.642 337.197C200.351 337.535 200.995 337.921 201.574 338.356C202.154 338.775 202.613 339.266 202.951 339.829C203.305 340.393 203.482 341.069 203.482 341.858C203.482 342.824 203.249 343.661 202.782 344.37C202.315 345.062 201.655 345.602 200.802 345.988C199.964 346.374 198.974 346.568 197.831 346.568C196.591 346.568 195.536 346.383 194.667 346.012C193.814 345.642 193.162 345.119 192.711 344.442C192.276 343.75 192.059 342.913 192.059 341.931C192.059 341.142 192.22 340.457 192.542 339.878C192.88 339.298 193.323 338.799 193.87 338.38C194.417 337.962 195.005 337.607 195.633 337.317C195.07 336.995 194.554 336.633 194.087 336.231C193.637 335.812 193.274 335.337 193.001 334.806C192.743 334.274 192.614 333.654 192.614 332.946C192.614 332.06 192.84 331.32 193.29 330.724C193.741 330.112 194.353 329.645 195.126 329.323C195.899 329.001 196.776 328.84 197.758 328.84ZM194.136 341.955C194.136 342.792 194.434 343.492 195.029 344.056C195.625 344.603 196.543 344.877 197.783 344.877C198.572 344.877 199.232 344.748 199.763 344.491C200.294 344.233 200.697 343.879 200.971 343.428C201.26 342.977 201.405 342.462 201.405 341.882C201.405 341.319 201.252 340.828 200.947 340.409C200.657 339.974 200.238 339.588 199.691 339.25C199.159 338.912 198.523 338.606 197.783 338.332L197.396 338.187C196.688 338.493 196.092 338.823 195.609 339.177C195.126 339.531 194.756 339.934 194.498 340.385C194.256 340.836 194.136 341.359 194.136 341.955ZM197.734 330.555C196.849 330.555 196.116 330.772 195.536 331.207C194.973 331.626 194.691 332.238 194.691 333.043C194.691 333.638 194.828 334.137 195.102 334.54C195.392 334.943 195.778 335.289 196.261 335.579C196.744 335.852 197.275 336.118 197.855 336.376C198.419 336.134 198.918 335.868 199.352 335.579C199.803 335.289 200.158 334.943 200.415 334.54C200.689 334.121 200.826 333.622 200.826 333.043C200.826 332.238 200.544 331.626 199.98 331.207C199.417 330.772 198.668 330.555 197.734 330.555Z" fill="#003E5C"/>
<path d="M376.256 346.326H364.856V344.563L369.373 339.998C370.242 339.129 370.975 338.356 371.57 337.68C372.166 337.004 372.617 336.343 372.923 335.699C373.229 335.039 373.382 334.323 373.382 333.55C373.382 332.6 373.1 331.883 372.536 331.4C371.973 330.901 371.24 330.652 370.339 330.652C369.501 330.652 368.761 330.796 368.117 331.086C367.489 331.376 366.845 331.779 366.184 332.294L365.049 330.869C365.5 330.482 365.991 330.136 366.523 329.83C367.07 329.524 367.658 329.283 368.286 329.106C368.93 328.929 369.614 328.84 370.339 328.84C371.417 328.84 372.343 329.025 373.116 329.396C373.889 329.766 374.485 330.297 374.903 330.99C375.338 331.666 375.555 332.479 375.555 333.429C375.555 334.105 375.451 334.749 375.241 335.361C375.032 335.957 374.734 336.545 374.348 337.124C373.961 337.704 373.494 338.292 372.947 338.887C372.4 339.483 371.796 340.103 371.136 340.747L367.537 344.297V344.394H376.256V346.326ZM390.15 337.68C390.15 339.081 390.045 340.328 389.836 341.423C389.626 342.518 389.288 343.452 388.821 344.225C388.37 344.982 387.775 345.561 387.034 345.964C386.309 346.366 385.432 346.568 384.401 346.568C383.113 346.568 382.043 346.213 381.189 345.505C380.352 344.797 379.724 343.782 379.305 342.462C378.903 341.125 378.702 339.531 378.702 337.68C378.702 335.812 378.887 334.218 379.257 332.898C379.644 331.577 380.255 330.571 381.093 329.879C381.93 329.17 383.033 328.816 384.401 328.816C385.69 328.816 386.76 329.17 387.614 329.879C388.467 330.571 389.103 331.577 389.522 332.898C389.94 334.218 390.15 335.812 390.15 337.68ZM380.827 337.68C380.827 339.258 380.94 340.57 381.165 341.617C381.407 342.663 381.785 343.452 382.3 343.983C382.832 344.499 383.532 344.756 384.401 344.756C385.271 344.756 385.963 344.499 386.479 343.983C387.01 343.468 387.396 342.687 387.638 341.641C387.879 340.578 388 339.258 388 337.68C388 336.102 387.879 334.798 387.638 333.767C387.396 332.721 387.01 331.94 386.479 331.424C385.963 330.893 385.271 330.627 384.401 330.627C383.532 330.627 382.832 330.893 382.3 331.424C381.785 331.94 381.407 332.721 381.165 333.767C380.94 334.798 380.827 336.102 380.827 337.68ZM399.913 346.326H397.836V334.274C397.836 333.807 397.836 333.413 397.836 333.091C397.852 332.769 397.869 332.471 397.885 332.197C397.901 331.907 397.917 331.61 397.933 331.304C397.675 331.561 397.442 331.779 397.233 331.956C397.023 332.133 396.758 332.358 396.436 332.632L394.6 334.129L393.489 332.704L398.15 329.082H399.913V346.326ZM417.72 336.448C417.72 337.43 417.647 338.412 417.502 339.395C417.374 340.361 417.14 341.278 416.802 342.148C416.464 343.001 415.997 343.766 415.401 344.442C414.805 345.102 414.049 345.626 413.131 346.012C412.213 346.383 411.102 346.568 409.798 346.568C409.476 346.568 409.098 346.544 408.663 346.495C408.244 346.463 407.898 346.407 407.624 346.326V344.515C407.914 344.611 408.252 344.692 408.639 344.756C409.025 344.805 409.395 344.829 409.75 344.829C410.877 344.829 411.803 344.644 412.527 344.273C413.268 343.903 413.855 343.404 414.29 342.776C414.725 342.132 415.039 341.391 415.232 340.554C415.425 339.7 415.538 338.807 415.57 337.873H415.425C415.184 338.243 414.878 338.581 414.508 338.887C414.137 339.193 413.686 339.435 413.155 339.612C412.64 339.789 412.028 339.878 411.32 339.878C410.337 339.878 409.468 339.676 408.711 339.274C407.97 338.855 407.391 338.259 406.972 337.487C406.57 336.714 406.368 335.772 406.368 334.661C406.368 333.453 406.594 332.415 407.045 331.545C407.512 330.676 408.156 330.008 408.977 329.541C409.798 329.074 410.764 328.84 411.875 328.84C412.696 328.84 413.461 329.001 414.169 329.323C414.878 329.629 415.498 330.096 416.029 330.724C416.561 331.352 416.971 332.141 417.261 333.091C417.567 334.041 417.72 335.16 417.72 336.448ZM411.875 330.627C410.877 330.627 410.056 330.957 409.412 331.618C408.784 332.278 408.47 333.284 408.47 334.637C408.47 335.748 408.735 336.625 409.267 337.269C409.814 337.897 410.651 338.211 411.778 338.211C412.551 338.211 413.219 338.058 413.783 337.752C414.347 337.43 414.781 337.028 415.087 336.545C415.409 336.062 415.57 335.562 415.57 335.047C415.57 334.532 415.49 334.017 415.329 333.501C415.184 332.97 414.958 332.487 414.653 332.052C414.347 331.618 413.96 331.271 413.493 331.014C413.026 330.756 412.487 330.627 411.875 330.627Z" fill="#003E5C"/>
<path d="M5.69867 35.4872C4.72186 35.4872 3.92216 35.2993 3.29958 34.9236C2.68773 34.5372 2.23152 34.0166 1.93097 33.3618C1.63041 32.707 1.46403 31.961 1.43183 31.1237C1.42109 30.6836 1.41572 30.2113 1.41572 29.7068C1.41572 29.2023 1.42109 28.7193 1.43183 28.2577C1.46403 27.4204 1.63041 26.6744 1.93097 26.0196C2.23152 25.3541 2.68773 24.8335 3.29958 24.4578C3.92216 24.0821 4.72186 23.8943 5.69867 23.8943C6.4608 23.8943 7.11022 24.0016 7.64693 24.2163C8.18364 24.431 8.61837 24.7154 8.95113 25.0696C9.29463 25.4131 9.54688 25.7888 9.70789 26.1967C9.87964 26.5939 9.97625 26.9857 9.99772 27.3721C10.0085 27.4687 9.97625 27.5492 9.90111 27.6137C9.8367 27.6673 9.7562 27.6942 9.65959 27.6942H9.33756C9.25169 27.6942 9.17655 27.6727 9.11214 27.6298C9.04774 27.5761 9.0048 27.4848 8.98333 27.356C8.77938 26.4007 8.39295 25.7459 7.82404 25.3917C7.26586 25.0374 6.55741 24.8603 5.69867 24.8603C4.72186 24.8603 3.94363 25.1394 3.36398 25.6976C2.79507 26.245 2.48914 27.1252 2.44621 28.3382C2.41401 29.2184 2.41401 30.1201 2.44621 31.0432C2.48914 32.2562 2.79507 33.1418 3.36398 33.6999C3.94363 34.2474 4.72186 34.5211 5.69867 34.5211C6.55741 34.5211 7.26586 34.344 7.82404 33.9898C8.39295 33.6355 8.77938 32.9807 8.98333 32.0254C9.0048 31.8966 9.04774 31.8107 9.11214 31.7678C9.17655 31.7141 9.25169 31.6873 9.33756 31.6873H9.65959C9.7562 31.6873 9.8367 31.7195 9.90111 31.7839C9.97625 31.8376 10.0085 31.9127 9.99772 32.0093C9.97625 32.3957 9.87964 32.7929 9.70789 33.2008C9.54688 33.598 9.29463 33.9737 8.95113 34.3279C8.61837 34.6714 8.18364 34.9505 7.64693 35.1652C7.11022 35.3798 6.4608 35.4872 5.69867 35.4872ZM12.5315 35.3262C12.4242 35.3262 12.3383 35.294 12.2739 35.2296C12.2095 35.1652 12.1773 35.0793 12.1773 34.9719V24.2485C12.1773 24.1411 12.2095 24.0553 12.2739 23.9909C12.3383 23.9265 12.4242 23.8943 12.5315 23.8943H12.8053C12.9126 23.8943 12.9985 23.9265 13.0629 23.9909C13.1273 24.0553 13.1595 24.1411 13.1595 24.2485V28.0645C13.4493 27.6888 13.7982 27.3829 14.2061 27.1467C14.6247 26.9106 15.1775 26.7925 15.8645 26.7925C16.5944 26.7925 17.2009 26.9535 17.6839 27.2755C18.1777 27.5868 18.5427 28.0162 18.7788 28.5636C19.0257 29.1003 19.1492 29.7122 19.1492 30.3992V34.9719C19.1492 35.0793 19.117 35.1652 19.0526 35.2296C18.9882 35.294 18.9023 35.3262 18.7949 35.3262H18.5212C18.4139 35.3262 18.328 35.294 18.2636 35.2296C18.1992 35.1652 18.167 35.0793 18.167 34.9719V30.4797C18.167 29.6209 17.9577 28.9501 17.539 28.467C17.1204 27.9732 16.5086 27.7264 15.7035 27.7264C14.9414 27.7264 14.3241 27.9732 13.8518 28.467C13.3903 28.9501 13.1595 29.6209 13.1595 30.4797V34.9719C13.1595 35.0793 13.1273 35.1652 13.0629 35.2296C12.9985 35.294 12.9126 35.3262 12.8053 35.3262H12.5315ZM24.8139 35.4872C24.084 35.4872 23.4775 35.3315 22.9945 35.0202C22.5222 34.6982 22.1679 34.2635 21.9318 33.716C21.7064 33.1686 21.5937 32.5567 21.5937 31.8805V27.3077C21.5937 27.2004 21.6259 27.1145 21.6903 27.0501C21.7547 26.9857 21.8406 26.9535 21.9479 26.9535H22.2216C22.329 26.9535 22.4148 26.9857 22.4792 27.0501C22.5436 27.1145 22.5758 27.2004 22.5758 27.3077V31.8C22.5758 33.6355 23.3755 34.5533 24.9749 34.5533C25.7371 34.5533 26.3489 34.3118 26.8105 33.8288C27.2721 33.335 27.5028 32.6587 27.5028 31.8V27.3077C27.5028 27.2004 27.535 27.1145 27.5995 27.0501C27.6639 26.9857 27.7497 26.9535 27.8571 26.9535H28.1308C28.2381 26.9535 28.324 26.9857 28.3884 27.0501C28.4528 27.1145 28.485 27.2004 28.485 27.3077V34.9719C28.485 35.0793 28.4528 35.1652 28.3884 35.2296C28.324 35.294 28.2381 35.3262 28.1308 35.3262H27.8571C27.7497 35.3262 27.6639 35.294 27.5995 35.2296C27.535 35.1652 27.5028 35.0793 27.5028 34.9719V34.2152C27.213 34.5909 26.8642 34.8968 26.4563 35.133C26.0591 35.3691 25.5116 35.4872 24.8139 35.4872ZM33.9105 35.3262C33.3524 35.3262 32.9122 35.2081 32.5902 34.9719C32.2682 34.7358 32.0428 34.4138 31.914 34.0059C31.7852 33.598 31.7208 33.1418 31.7208 32.6373V27.8874H30.4649C30.3575 27.8874 30.2716 27.8552 30.2072 27.7908C30.1428 27.7264 30.1106 27.6405 30.1106 27.5331V27.3077C30.1106 27.2004 30.1428 27.1145 30.2072 27.0501C30.2716 26.9857 30.3575 26.9535 30.4649 26.9535H31.7208V24.2485C31.7208 24.1411 31.753 24.0553 31.8174 23.9909C31.8818 23.9265 31.9676 23.8943 32.075 23.8943H32.3487C32.456 23.8943 32.5419 23.9265 32.6063 23.9909C32.6707 24.0553 32.7029 24.1411 32.7029 24.2485V26.9535H34.6995C34.8068 26.9535 34.8927 26.9857 34.9571 27.0501C35.0215 27.1145 35.0537 27.2004 35.0537 27.3077V27.5331C35.0537 27.6405 35.0215 27.7264 34.9571 27.7908C34.8927 27.8552 34.8068 27.8874 34.6995 27.8874H32.7029V32.5729C32.7029 33.1418 32.7942 33.5872 32.9767 33.9093C33.1699 34.2313 33.508 34.3923 33.991 34.3923H34.8605C34.9678 34.3923 35.0537 34.4245 35.1181 34.4889C35.1825 34.5533 35.2147 34.6392 35.2147 34.7465V34.9719C35.2147 35.0793 35.1825 35.1652 35.1181 35.2296C35.0537 35.294 34.9678 35.3262 34.8605 35.3262H33.9105ZM39.9868 35.4872C38.9455 35.4872 38.119 35.1491 37.5072 34.4728C36.8953 33.7858 36.5464 32.8895 36.4606 31.7839C36.4498 31.6229 36.4445 31.4082 36.4445 31.1398C36.4445 30.8715 36.4498 30.6568 36.4606 30.4958C36.5142 29.7659 36.686 29.1218 36.9758 28.5636C37.2656 28.0054 37.6628 27.5707 38.1673 27.2594C38.6826 26.9481 39.289 26.7925 39.9868 26.7925C40.7381 26.7925 41.3768 26.9589 41.9028 27.2916C42.4288 27.6244 42.8313 28.1021 43.1104 28.7246C43.4002 29.3472 43.5451 30.0879 43.5451 30.9466V31.1881C43.5451 31.2955 43.5076 31.3814 43.4324 31.4458C43.368 31.5102 43.2822 31.5424 43.1748 31.5424H37.4428C37.4428 31.5424 37.4428 31.5638 37.4428 31.6068C37.4428 31.6497 37.4428 31.6819 37.4428 31.7034C37.4642 32.1864 37.5769 32.648 37.7809 33.0881C37.9848 33.5175 38.2747 33.8717 38.6503 34.1508C39.026 34.4191 39.4715 34.5533 39.9868 34.5533C40.4483 34.5533 40.8294 34.4835 41.1299 34.344C41.4412 34.2044 41.6881 34.0542 41.8706 33.8932C42.0531 33.7214 42.1712 33.5926 42.2248 33.5067C42.3214 33.3672 42.3966 33.2867 42.4503 33.2652C42.5039 33.233 42.5898 33.2169 42.7079 33.2169H42.9655C43.0621 33.2169 43.1426 33.2491 43.207 33.3135C43.2822 33.3672 43.3144 33.4423 43.3036 33.5389C43.2929 33.6892 43.207 33.8771 43.046 34.1025C42.8957 34.3172 42.6757 34.5318 42.3858 34.7465C42.1068 34.9612 41.7633 35.1383 41.3554 35.2779C40.9475 35.4174 40.4913 35.4872 39.9868 35.4872ZM37.4428 30.6407H42.563V30.5763C42.563 30.0396 42.461 29.5565 42.257 29.1272C42.0531 28.6978 41.7579 28.3597 41.3715 28.1128C40.985 27.8552 40.5235 27.7264 39.9868 27.7264C39.45 27.7264 38.9885 27.8552 38.602 28.1128C38.2263 28.3597 37.9365 28.6978 37.7326 29.1272C37.5394 29.5565 37.4428 30.0396 37.4428 30.5763V30.6407ZM48.3256 35.4872C47.7674 35.4872 47.2844 35.412 46.8765 35.2618C46.4793 35.1115 46.1519 34.9344 45.8943 34.7304C45.6367 34.5157 45.4435 34.3064 45.3147 34.1025C45.1966 33.8985 45.1322 33.7429 45.1214 33.6355C45.1107 33.5175 45.1483 33.4316 45.2341 33.3779C45.32 33.3135 45.4005 33.2813 45.4757 33.2813H45.7172C45.7816 33.2813 45.8353 33.292 45.8782 33.3135C45.9319 33.335 45.9963 33.394 46.0714 33.4906C46.211 33.6731 46.372 33.8502 46.5544 34.022C46.7369 34.183 46.9677 34.3118 47.2468 34.4084C47.5366 34.505 47.8962 34.5533 48.3256 34.5533C48.9696 34.5533 49.501 34.4299 49.9196 34.183C50.3383 33.9361 50.5476 33.5711 50.5476 33.0881C50.5476 32.7875 50.4617 32.546 50.29 32.3635C50.1289 32.1811 49.8498 32.02 49.4527 31.8805C49.0555 31.7409 48.5188 31.596 47.8426 31.4458C47.1663 31.2847 46.6457 31.0915 46.2807 30.8661C45.9265 30.6407 45.685 30.3831 45.5562 30.0933C45.4274 29.7927 45.363 29.4707 45.363 29.1272C45.363 28.7515 45.4703 28.3865 45.685 28.0323C45.8997 27.6673 46.2163 27.3721 46.635 27.1467C47.0643 26.9106 47.601 26.7925 48.2451 26.7925C48.7711 26.7925 49.2165 26.8623 49.5815 27.0018C49.9572 27.1413 50.2631 27.3131 50.4993 27.517C50.7354 27.7103 50.9072 27.9035 51.0145 28.0967C51.1326 28.2899 51.197 28.4456 51.2077 28.5636C51.2185 28.671 51.1863 28.7568 51.1111 28.8212C51.036 28.8857 50.9501 28.9179 50.8535 28.9179H50.612C50.5261 28.9179 50.4563 28.9018 50.4027 28.8696C50.349 28.8266 50.3007 28.7729 50.2577 28.7085C50.1504 28.5368 50.0216 28.3758 49.8713 28.2255C49.721 28.0752 49.5171 27.9571 49.2595 27.8713C49.0126 27.7747 48.6745 27.7264 48.2451 27.7264C47.601 27.7264 47.1234 27.8605 46.8121 28.1289C46.5008 28.3865 46.3451 28.7193 46.3451 29.1272C46.3451 29.3633 46.4095 29.5726 46.5383 29.7551C46.6672 29.9269 46.9087 30.0879 47.2629 30.2382C47.6171 30.3777 48.1324 30.528 48.8086 30.689C49.4956 30.8393 50.0377 31.0271 50.4349 31.2525C50.832 31.4672 51.1111 31.7248 51.2721 32.0254C51.4439 32.326 51.5298 32.6802 51.5298 33.0881C51.5298 33.5175 51.4063 33.9146 51.1594 34.2796C50.9233 34.6446 50.5637 34.9397 50.0806 35.1652C49.6083 35.3798 49.0233 35.4872 48.3256 35.4872Z" fill="#003E5C"/>
<path d="M452.347 14.8725V11.8439H449.521V10.8585H452.347V7.82984H453.449V10.8585H456.274V11.8439H453.449V14.8725H452.347ZM464.631 6.72851H460.197L459.907 10.5832H460.009C460.25 10.245 460.521 9.97453 460.82 9.77165C461.129 9.56878 461.55 9.46734 462.081 9.46734C462.516 9.46734 462.917 9.53979 463.284 9.68471C463.651 9.82962 463.97 10.0373 464.24 10.3078C464.511 10.5687 464.718 10.8923 464.863 11.2787C465.018 11.6652 465.095 12.1047 465.095 12.5974C465.095 13.0901 465.018 13.5442 464.863 13.9596C464.709 14.3654 464.482 14.718 464.182 15.0175C463.892 15.3073 463.535 15.5343 463.11 15.6985C462.694 15.8628 462.221 15.9449 461.69 15.9449C461.265 15.9449 460.888 15.8966 460.559 15.8C460.24 15.7034 459.955 15.573 459.704 15.4087C459.453 15.2445 459.231 15.0609 459.038 14.8581C458.854 14.6552 458.685 14.4426 458.531 14.2204L459.443 13.5249C459.569 13.7277 459.699 13.9113 459.835 14.0755C459.98 14.2398 460.134 14.3798 460.298 14.4958C460.472 14.6117 460.67 14.7035 460.893 14.7711C461.115 14.8291 461.38 14.8581 461.69 14.8581C462.385 14.8581 462.912 14.6745 463.269 14.3074C463.627 13.9403 463.805 13.4234 463.805 12.7568V12.6119C463.805 11.9453 463.627 11.4285 463.269 11.0614C462.912 10.6943 462.385 10.5107 461.69 10.5107C461.226 10.5107 460.859 10.5976 460.588 10.7715C460.327 10.9358 460.091 11.1338 459.878 11.3657L458.849 11.2208L459.212 5.65616H464.631V6.72851ZM468.931 15.771L475.944 5.65616H477.06L470.047 15.771H468.931ZM469.51 11.2208C468.776 11.2208 468.211 10.9793 467.815 10.4962C467.419 10.0035 467.221 9.28861 467.221 8.35152C467.221 7.41442 467.419 6.70436 467.815 6.22132C468.211 5.72862 468.776 5.48227 469.51 5.48227C470.245 5.48227 470.81 5.72862 471.206 6.22132C471.602 6.70436 471.8 7.41442 471.8 8.35152C471.8 9.28861 471.602 10.0035 471.206 10.4962C470.81 10.9793 470.245 11.2208 469.51 11.2208ZM469.51 10.4672C470.341 10.4672 470.757 9.9069 470.757 8.78625V7.91678C470.757 6.79613 470.341 6.23581 469.51 6.23581C468.68 6.23581 468.264 6.79613 468.264 7.91678V8.78625C468.264 9.9069 468.68 10.4672 469.51 10.4672ZM476.481 15.9449C475.746 15.9449 475.181 15.7034 474.785 15.2203C474.389 14.7276 474.191 14.0127 474.191 13.0756C474.191 12.1385 474.389 11.4285 474.785 10.9454C475.181 10.4527 475.746 10.2064 476.481 10.2064C477.215 10.2064 477.78 10.4527 478.176 10.9454C478.572 11.4285 478.77 12.1385 478.77 13.0756C478.77 14.0127 478.572 14.7276 478.176 15.2203C477.78 15.7034 477.215 15.9449 476.481 15.9449ZM476.481 15.1913C477.311 15.1913 477.727 14.631 477.727 13.5104V12.6409C477.727 11.5203 477.311 10.9599 476.481 10.9599C475.65 10.9599 475.234 11.5203 475.234 12.6409V13.5104C475.234 14.631 475.65 15.1913 476.481 15.1913Z" fill="#EF7D00"/>
<path d="M432.273 1.44395C432.576 0.875383 433.391 0.875381 433.694 1.44395L444.958 22.5794C445.244 23.1157 444.855 23.7631 444.248 23.7631L421.72 23.7631C421.112 23.7631 420.724 23.1157 421.009 22.5794L432.273 1.44395Z" fill="#EF7D00"/>
</svg>
