<svg width="516" height="363" viewBox="0 0 516 363" fill="none" xmlns="http://www.w3.org/2000/svg">
<line x1="53.887" y1="74.2068" x2="481.65" y2="74.2068" stroke="#CFD8DC" stroke-width="0.805065" stroke-dasharray="7.25 7.25"/>
<line x1="53.887" y1="134.854" x2="481.65" y2="134.854" stroke="#CFD8DC" stroke-width="0.805065" stroke-dasharray="7.25 7.25"/>
<line x1="53.8867" y1="196.309" x2="481.65" y2="196.309" stroke="#CFD8DC" stroke-width="0.805065" stroke-dasharray="7.25 7.25"/>
<line x1="53.8867" y1="318.412" x2="481.65" y2="318.412" stroke="#CFD8DC" stroke-width="0.805065" stroke-dasharray="7.25 7.25"/>
<line x1="53.8867" y1="257.765" x2="481.65" y2="257.765" stroke="#CFD8DC" stroke-width="0.805065" stroke-dasharray="7.25 7.25"/>
<path d="M41.0564 325.08C40.3264 325.08 39.7146 324.962 39.2208 324.726C38.7378 324.49 38.346 324.168 38.0454 323.76C37.7556 323.342 37.5463 322.864 37.4175 322.327C37.2887 321.79 37.2135 321.227 37.1921 320.636C37.1921 320.347 37.1867 320.051 37.176 319.751C37.176 319.45 37.176 319.15 37.176 318.849C37.1867 318.538 37.1921 318.232 37.1921 317.931C37.2028 317.341 37.2726 316.778 37.4014 316.241C37.5409 315.704 37.7556 315.232 38.0454 314.824C38.346 314.405 38.7378 314.078 39.2208 313.842C39.7146 313.606 40.3264 313.488 41.0564 313.488C41.7863 313.488 42.3928 313.606 42.8758 313.842C43.3696 314.078 43.7614 314.405 44.0512 314.824C44.3518 315.232 44.5664 315.704 44.6953 316.241C44.8348 316.778 44.9099 317.341 44.9207 317.931C44.9314 318.232 44.9368 318.538 44.9368 318.849C44.9368 319.15 44.9368 319.45 44.9368 319.751C44.9368 320.051 44.9314 320.347 44.9207 320.636C44.9099 321.227 44.8348 321.79 44.6953 322.327C44.5664 322.864 44.3518 323.342 44.0512 323.76C43.7614 324.168 43.3696 324.49 42.8758 324.726C42.3928 324.962 41.7863 325.08 41.0564 325.08ZM41.0564 324.114C42.0117 324.114 42.7202 323.798 43.1817 323.164C43.6433 322.531 43.8848 321.662 43.9063 320.556C43.917 320.245 43.9224 319.955 43.9224 319.687C43.9224 319.407 43.9224 319.134 43.9224 318.865C43.9224 318.586 43.917 318.302 43.9063 318.012C43.8848 316.928 43.6433 316.064 43.1817 315.42C42.7202 314.776 42.0117 314.454 41.0564 314.454C40.1118 314.454 39.4033 314.776 38.931 315.42C38.4694 316.064 38.2279 316.928 38.2064 318.012C38.2064 318.302 38.2011 318.586 38.1903 318.865C38.1903 319.134 38.1903 319.407 38.1903 319.687C38.2011 319.955 38.2064 320.245 38.2064 320.556C38.2279 321.662 38.4694 322.531 38.931 323.164C39.4033 323.798 40.1118 324.114 41.0564 324.114Z" fill="#003E5C"/>
<path d="M44.5843 263.464C44.477 263.464 44.3911 263.432 44.3267 263.367C44.2623 263.303 44.2301 263.217 44.2301 263.11V253.513L41.348 255.735C41.2621 255.8 41.1709 255.826 41.0743 255.816C40.9884 255.805 40.9132 255.757 40.8488 255.671L40.6717 255.445C40.6073 255.36 40.5805 255.274 40.5912 255.188C40.602 255.091 40.6503 255.011 40.7361 254.946L44.1657 252.306C44.2408 252.252 44.3106 252.22 44.375 252.209C44.4394 252.198 44.5092 252.193 44.5843 252.193H44.8903C44.9976 252.193 45.0835 252.225 45.1479 252.29C45.2123 252.354 45.2445 252.44 45.2445 252.547V263.11C45.2445 263.217 45.2123 263.303 45.1479 263.367C45.0835 263.432 44.9976 263.464 44.8903 263.464H44.5843Z" fill="#003E5C"/>
<path d="M38.0973 202.009C37.9899 202.009 37.904 201.977 37.8396 201.912C37.7752 201.848 37.743 201.762 37.743 201.655V201.413C37.743 201.306 37.7699 201.204 37.8235 201.107C37.8879 201 37.9953 200.876 38.1456 200.737L42.3158 196.567C42.7237 196.191 43.035 195.863 43.2497 195.584C43.4644 195.305 43.6093 195.032 43.6844 194.763C43.7703 194.484 43.8132 194.178 43.8132 193.845C43.8132 193.126 43.6039 192.563 43.1853 192.155C42.7774 191.747 42.1924 191.543 41.4302 191.543C40.9472 191.543 40.5286 191.64 40.1743 191.833C39.8201 192.026 39.541 192.3 39.3371 192.654C39.1331 192.997 38.9989 193.4 38.9345 193.862C38.9238 193.99 38.8755 194.087 38.7896 194.151C38.7037 194.205 38.6286 194.232 38.5642 194.232H38.2422C38.1348 194.232 38.049 194.205 37.9845 194.151C37.9309 194.087 37.904 194.012 37.904 193.926C37.9148 193.561 37.9899 193.185 38.1295 192.799C38.269 192.402 38.4783 192.037 38.7574 191.704C39.0472 191.371 39.4122 191.103 39.8523 190.899C40.2924 190.684 40.8184 190.577 41.4302 190.577C42.246 190.577 42.9008 190.733 43.3946 191.044C43.8991 191.355 44.2641 191.758 44.4895 192.251C44.7149 192.745 44.8276 193.277 44.8276 193.845C44.8276 194.286 44.7632 194.693 44.6344 195.069C44.5056 195.434 44.3124 195.794 44.0547 196.148C43.7971 196.491 43.4697 196.846 43.0726 197.211L39.3049 201.043H44.6988C44.8169 201.043 44.9081 201.075 44.9725 201.139C45.0369 201.204 45.0691 201.295 45.0691 201.413V201.655C45.0691 201.762 45.0369 201.848 44.9725 201.912C44.9081 201.977 44.8169 202.009 44.6988 202.009H38.0973Z" fill="#003E5C"/>
<path d="M41.5107 140.714C40.9096 140.714 40.3729 140.639 39.9006 140.489C39.4283 140.328 39.0258 140.118 38.693 139.861C38.371 139.603 38.1187 139.313 37.9362 138.991C37.7645 138.659 37.6733 138.315 37.6625 137.961C37.6625 137.864 37.6947 137.789 37.7591 137.735C37.8235 137.682 37.904 137.655 38.0006 137.655H38.2261C38.3119 137.655 38.3924 137.676 38.4676 137.719C38.5535 137.762 38.6179 137.864 38.6608 138.025C38.7789 138.487 38.9882 138.846 39.2888 139.104C39.6 139.351 39.9489 139.523 40.3353 139.619C40.7325 139.705 41.1243 139.748 41.5107 139.748C42.3373 139.748 43.0135 139.55 43.5395 139.152C44.0762 138.755 44.3446 138.159 44.3446 137.365C44.3446 136.571 44.103 136.002 43.62 135.658C43.1477 135.315 42.4983 135.143 41.6717 135.143H40.2548C40.1475 135.143 40.0616 135.111 39.9972 135.047C39.9328 134.982 39.9006 134.896 39.9006 134.789V134.547C39.9006 134.462 39.9113 134.392 39.9328 134.338C39.965 134.274 40.0026 134.215 40.0455 134.161L43.3624 130.248H38.4998C38.3924 130.248 38.3066 130.216 38.2422 130.152C38.1778 130.087 38.1456 130.002 38.1456 129.894V129.653C38.1456 129.535 38.1778 129.443 38.2422 129.379C38.3066 129.315 38.3924 129.282 38.4998 129.282H44.5056C44.6236 129.282 44.7149 129.315 44.7793 129.379C44.8437 129.443 44.8759 129.535 44.8759 129.653V129.894C44.8759 129.959 44.8598 130.018 44.8276 130.071C44.8061 130.114 44.7793 130.157 44.7471 130.2L41.3497 134.177H41.6717C42.4124 134.177 43.0565 134.295 43.6039 134.531C44.1621 134.757 44.5914 135.106 44.892 135.578C45.2033 136.05 45.3589 136.646 45.3589 137.365C45.3589 138.074 45.1926 138.68 44.8598 139.185C44.527 139.678 44.0708 140.059 43.4912 140.328C42.9115 140.585 42.2514 140.714 41.5107 140.714Z" fill="#003E5C"/>
<path d="M43.4429 79.0972C43.3355 79.0972 43.2497 79.065 43.1853 79.0006C43.1209 78.9362 43.0887 78.8503 43.0887 78.7429V76.1989H37.7752C37.6679 76.1989 37.582 76.1667 37.5176 76.1023C37.4532 76.0379 37.421 75.952 37.421 75.8447V75.5871C37.421 75.5656 37.4317 75.5066 37.4532 75.41C37.4747 75.3134 37.523 75.2114 37.5981 75.104L42.4929 68.1C42.6217 67.9175 42.8203 67.8263 43.0887 67.8263H43.7488C43.8562 67.8263 43.942 67.8585 44.0064 67.9229C44.0708 67.9873 44.103 68.0731 44.103 68.1805V75.2329H45.5683C45.6756 75.2329 45.7615 75.2651 45.8259 75.3295C45.8903 75.3939 45.9225 75.4797 45.9225 75.5871V75.8447C45.9225 75.952 45.8903 76.0379 45.8259 76.1023C45.7615 76.1667 45.6756 76.1989 45.5683 76.1989H44.103V78.7429C44.103 78.8503 44.0708 78.9362 44.0064 79.0006C43.942 79.065 43.8562 79.0972 43.7488 79.0972H43.4429ZM38.693 75.2329H43.0887V68.9695L38.693 75.2329Z" fill="#003E5C"/>
<path d="M361.165 222.553C361.165 218.106 364.769 214.502 369.215 214.502H402.44C406.886 214.502 410.491 218.106 410.491 222.553V318.815H361.165V222.553Z" fill="#037CBF"/>
<path d="M165.477 222.553C165.477 218.106 169.081 214.502 173.528 214.502H206.753C211.199 214.502 214.803 218.106 214.803 222.553V318.815H165.477V222.553Z" fill="#037CBF"/>
<path d="M308.604 143.307C308.604 138.861 312.208 135.256 316.655 135.256H349.88C354.326 135.256 357.93 138.861 357.93 143.307V318.814H308.604V143.307Z" fill="#EF7D00"/>
<path d="M342.442 355.327H331.042V353.564L335.559 348.999C336.428 348.129 337.161 347.357 337.757 346.68C338.352 346.004 338.803 345.344 339.109 344.7C339.415 344.04 339.568 343.323 339.568 342.55C339.568 341.6 339.286 340.884 338.723 340.401C338.159 339.902 337.427 339.652 336.525 339.652C335.688 339.652 334.947 339.797 334.303 340.087C333.675 340.377 333.031 340.779 332.371 341.294L331.236 339.869C331.686 339.483 332.178 339.137 332.709 338.831C333.256 338.525 333.844 338.283 334.472 338.106C335.116 337.929 335.8 337.841 336.525 337.841C337.604 337.841 338.529 338.026 339.302 338.396C340.075 338.766 340.671 339.298 341.09 339.99C341.524 340.666 341.742 341.48 341.742 342.43C341.742 343.106 341.637 343.75 341.428 344.362C341.218 344.957 340.921 345.545 340.534 346.125C340.148 346.704 339.681 347.292 339.133 347.888C338.586 348.484 337.982 349.104 337.322 349.748L333.723 353.298V353.395H342.442V355.327ZM356.336 346.68C356.336 348.081 356.231 349.329 356.022 350.424C355.813 351.519 355.474 352.453 355.008 353.225C354.557 353.982 353.961 354.562 353.22 354.964C352.496 355.367 351.618 355.568 350.588 355.568C349.3 355.568 348.229 355.214 347.376 354.505C346.538 353.797 345.91 352.783 345.492 351.462C345.089 350.126 344.888 348.532 344.888 346.68C344.888 344.813 345.073 343.218 345.443 341.898C345.83 340.578 346.442 339.572 347.279 338.879C348.116 338.171 349.219 337.817 350.588 337.817C351.876 337.817 352.947 338.171 353.8 338.879C354.653 339.572 355.289 340.578 355.708 341.898C356.127 343.218 356.336 344.813 356.336 346.68ZM347.013 346.68C347.013 348.258 347.126 349.57 347.351 350.617C347.593 351.664 347.971 352.453 348.487 352.984C349.018 353.499 349.718 353.757 350.588 353.757C351.457 353.757 352.15 353.499 352.665 352.984C353.196 352.469 353.583 351.688 353.824 350.641C354.066 349.578 354.186 348.258 354.186 346.68C354.186 345.102 354.066 343.798 353.824 342.768C353.583 341.721 353.196 340.94 352.665 340.425C352.15 339.894 351.457 339.628 350.588 339.628C349.718 339.628 349.018 339.894 348.487 340.425C347.971 340.94 347.593 341.721 347.351 342.768C347.126 343.798 347.013 345.102 347.013 346.68ZM366.1 355.327H364.023V343.275C364.023 342.808 364.023 342.413 364.023 342.091C364.039 341.769 364.055 341.471 364.071 341.198C364.087 340.908 364.103 340.61 364.119 340.304C363.862 340.562 363.628 340.779 363.419 340.956C363.21 341.133 362.944 341.359 362.622 341.633L360.786 343.13L359.675 341.705L364.337 338.082H366.1V355.327ZM383.906 345.449C383.906 346.431 383.834 347.413 383.689 348.395C383.56 349.361 383.326 350.279 382.988 351.148C382.65 352.002 382.183 352.767 381.588 353.443C380.992 354.103 380.235 354.626 379.317 355.013C378.399 355.383 377.288 355.568 375.984 355.568C375.662 355.568 375.284 355.544 374.849 355.496C374.43 355.464 374.084 355.407 373.811 355.327V353.515C374.1 353.612 374.439 353.692 374.825 353.757C375.211 353.805 375.582 353.829 375.936 353.829C377.063 353.829 377.989 353.644 378.713 353.274C379.454 352.903 380.042 352.404 380.477 351.776C380.911 351.132 381.225 350.392 381.418 349.554C381.612 348.701 381.724 347.807 381.757 346.873H381.612C381.37 347.244 381.064 347.582 380.694 347.888C380.324 348.194 379.873 348.435 379.341 348.612C378.826 348.79 378.214 348.878 377.506 348.878C376.524 348.878 375.654 348.677 374.897 348.274C374.157 347.856 373.577 347.26 373.158 346.487C372.756 345.714 372.555 344.772 372.555 343.661C372.555 342.454 372.78 341.415 373.231 340.546C373.698 339.676 374.342 339.008 375.163 338.541C375.984 338.074 376.95 337.841 378.061 337.841C378.882 337.841 379.647 338.002 380.356 338.324C381.064 338.63 381.684 339.097 382.215 339.725C382.747 340.352 383.157 341.141 383.447 342.091C383.753 343.041 383.906 344.16 383.906 345.449ZM378.061 339.628C377.063 339.628 376.242 339.958 375.598 340.618C374.97 341.278 374.656 342.285 374.656 343.637C374.656 344.748 374.922 345.626 375.453 346.27C376 346.898 376.838 347.212 377.965 347.212C378.738 347.212 379.406 347.059 379.969 346.753C380.533 346.431 380.968 346.028 381.274 345.545C381.596 345.062 381.757 344.563 381.757 344.048C381.757 343.532 381.676 343.017 381.515 342.502C381.37 341.971 381.145 341.488 380.839 341.053C380.533 340.618 380.146 340.272 379.679 340.014C379.213 339.757 378.673 339.628 378.061 339.628Z" fill="#003E5C"/>
<path d="M5.84711 44.4877C4.8703 44.4877 4.0706 44.2998 3.44801 43.9241C2.83616 43.5377 2.37996 43.0171 2.0794 42.3623C1.77885 41.7075 1.61247 40.9615 1.58026 40.1242C1.56953 39.6841 1.56416 39.2118 1.56416 38.7073C1.56416 38.2028 1.56953 37.7198 1.58026 37.2582C1.61247 36.4209 1.77885 35.6749 2.0794 35.0201C2.37996 34.3546 2.83616 33.834 3.44801 33.4583C4.0706 33.0826 4.8703 32.8947 5.84711 32.8947C6.60924 32.8947 7.25865 33.0021 7.79536 33.2168C8.33207 33.4314 8.76681 33.7159 9.09957 34.0701C9.44306 34.4136 9.69532 34.7893 9.85633 35.1972C10.0281 35.5944 10.1247 35.9862 10.1462 36.3726C10.1569 36.4692 10.1247 36.5497 10.0495 36.6141C9.98514 36.6678 9.90463 36.6946 9.80803 36.6946H9.486C9.40013 36.6946 9.32499 36.6732 9.26058 36.6302C9.19618 36.5766 9.15324 36.4853 9.13177 36.3565C8.92782 35.4012 8.54139 34.7464 7.97248 34.3922C7.4143 34.0379 6.70584 33.8608 5.84711 33.8608C4.8703 33.8608 4.09207 34.1399 3.51242 34.6981C2.94351 35.2455 2.63758 36.1257 2.59465 37.3387C2.56244 38.2189 2.56244 39.1206 2.59465 40.0437C2.63758 41.2567 2.94351 42.1423 3.51242 42.7004C4.09207 43.2479 4.8703 43.5216 5.84711 43.5216C6.70584 43.5216 7.4143 43.3445 7.97248 42.9903C8.54139 42.636 8.92782 41.9812 9.13177 41.0259C9.15324 40.8971 9.19618 40.8112 9.26058 40.7683C9.32499 40.7146 9.40013 40.6878 9.486 40.6878H9.80803C9.90463 40.6878 9.98514 40.72 10.0495 40.7844C10.1247 40.838 10.1569 40.9132 10.1462 41.0098C10.1247 41.3962 10.0281 41.7934 9.85633 42.2013C9.69532 42.5985 9.44306 42.9742 9.09957 43.3284C8.76681 43.6719 8.33207 43.951 7.79536 44.1656C7.25865 44.3803 6.60924 44.4877 5.84711 44.4877ZM12.68 44.3267C12.5726 44.3267 12.4868 44.2945 12.4223 44.2301C12.3579 44.1656 12.3257 44.0798 12.3257 43.9724V33.249C12.3257 33.1416 12.3579 33.0558 12.4223 32.9913C12.4868 32.9269 12.5726 32.8947 12.68 32.8947H12.9537C13.061 32.8947 13.1469 32.9269 13.2113 32.9913C13.2757 33.0558 13.3079 33.1416 13.3079 33.249V37.065C13.5977 36.6893 13.9466 36.3834 14.3545 36.1472C14.7731 35.911 15.3259 35.793 16.0129 35.793C16.7429 35.793 17.3493 35.954 17.8324 36.276C18.3262 36.5873 18.6911 37.0167 18.9273 37.5641C19.1742 38.1008 19.2976 38.7127 19.2976 39.3997V43.9724C19.2976 44.0798 19.2654 44.1656 19.201 44.2301C19.1366 44.2945 19.0507 44.3267 18.9434 44.3267H18.6697C18.5623 44.3267 18.4764 44.2945 18.412 44.2301C18.3476 44.1656 18.3154 44.0798 18.3154 43.9724V39.4802C18.3154 38.6214 18.1061 37.9505 17.6875 37.4675C17.2688 36.9737 16.657 36.7268 15.8519 36.7268C15.0898 36.7268 14.4726 36.9737 14.0003 37.4675C13.5387 37.9505 13.3079 38.6214 13.3079 39.4802V43.9724C13.3079 44.0798 13.2757 44.1656 13.2113 44.2301C13.1469 44.2945 13.061 44.3267 12.9537 44.3267H12.68ZM24.9624 44.4877C24.2324 44.4877 23.626 44.332 23.1429 44.0207C22.6706 43.6987 22.3164 43.264 22.0802 42.7165C21.8548 42.1691 21.7421 41.5572 21.7421 40.881V36.3082C21.7421 36.2009 21.7743 36.115 21.8387 36.0506C21.9031 35.9862 21.989 35.954 22.0963 35.954H22.3701C22.4774 35.954 22.5633 35.9862 22.6277 36.0506C22.6921 36.115 22.7243 36.2009 22.7243 36.3082V40.8005C22.7243 42.636 23.524 43.5538 25.1234 43.5538C25.8855 43.5538 26.4974 43.3123 26.9589 42.8292C27.4205 42.3355 27.6513 41.6592 27.6513 40.8005V36.3082C27.6513 36.2009 27.6835 36.115 27.7479 36.0506C27.8123 35.9862 27.8982 35.954 28.0055 35.954H28.2792C28.3866 35.954 28.4724 35.9862 28.5369 36.0506C28.6013 36.115 28.6335 36.2009 28.6335 36.3082V43.9724C28.6335 44.0798 28.6013 44.1656 28.5369 44.2301C28.4724 44.2945 28.3866 44.3267 28.2792 44.3267H28.0055C27.8982 44.3267 27.8123 44.2945 27.7479 44.2301C27.6835 44.1656 27.6513 44.0798 27.6513 43.9724V43.2157C27.3615 43.5914 27.0126 43.8973 26.6047 44.1334C26.2075 44.3696 25.6601 44.4877 24.9624 44.4877ZM34.059 44.3267C33.5008 44.3267 33.0607 44.2086 32.7387 43.9724C32.4166 43.7363 32.1912 43.4143 32.0624 43.0064C31.9336 42.5985 31.8692 42.1423 31.8692 41.6377V36.8879H30.6133C30.5059 36.8879 30.4201 36.8557 30.3557 36.7913C30.2913 36.7268 30.2591 36.641 30.2591 36.5336V36.3082C30.2591 36.2009 30.2913 36.115 30.3557 36.0506C30.4201 35.9862 30.5059 35.954 30.6133 35.954H31.8692V33.249C31.8692 33.1416 31.9014 33.0558 31.9658 32.9913C32.0302 32.9269 32.1161 32.8947 32.2234 32.8947H32.4971C32.6045 32.8947 32.6904 32.9269 32.7548 32.9913C32.8192 33.0558 32.8514 33.1416 32.8514 33.249V35.954H34.8479C34.9553 35.954 35.0411 35.9862 35.1056 36.0506C35.17 36.115 35.2022 36.2009 35.2022 36.3082V36.5336C35.2022 36.641 35.17 36.7268 35.1056 36.7913C35.0411 36.8557 34.9553 36.8879 34.8479 36.8879H32.8514V41.5733C32.8514 42.1423 32.9426 42.5877 33.1251 42.9097C33.3183 43.2318 33.6564 43.3928 34.1395 43.3928H35.0089C35.1163 43.3928 35.2022 43.425 35.2666 43.4894C35.331 43.5538 35.3632 43.6397 35.3632 43.747V43.9724C35.3632 44.0798 35.331 44.1656 35.2666 44.2301C35.2022 44.2945 35.1163 44.3267 35.0089 44.3267H34.059ZM40.1352 44.4877C39.094 44.4877 38.2674 44.1495 37.6556 43.4733C37.0437 42.7863 36.6949 41.89 36.609 40.7844C36.5983 40.6234 36.5929 40.4087 36.5929 40.1403C36.5929 39.872 36.5983 39.6573 36.609 39.4963C36.6627 38.7663 36.8344 38.1223 37.1243 37.5641C37.4141 37.0059 37.8112 36.5712 38.3157 36.2599C38.831 35.9486 39.4375 35.793 40.1352 35.793C40.8866 35.793 41.5253 35.9594 42.0512 36.2921C42.5772 36.6249 42.9798 37.1025 43.2588 37.7251C43.5487 38.3477 43.6936 39.0884 43.6936 39.9471V40.1886C43.6936 40.296 43.656 40.3818 43.5809 40.4462C43.5165 40.5107 43.4306 40.5429 43.3233 40.5429H37.5912C37.5912 40.5429 37.5912 40.5643 37.5912 40.6073C37.5912 40.6502 37.5912 40.6824 37.5912 40.7039C37.6127 41.1869 37.7254 41.6485 37.9293 42.0886C38.1333 42.5179 38.4231 42.8722 38.7988 43.1513C39.1745 43.4196 39.62 43.5538 40.1352 43.5538C40.5968 43.5538 40.9778 43.484 41.2784 43.3445C41.5897 43.2049 41.8366 43.0547 42.019 42.8936C42.2015 42.7219 42.3196 42.5931 42.3733 42.5072C42.4699 42.3677 42.545 42.2872 42.5987 42.2657C42.6524 42.2335 42.7382 42.2174 42.8563 42.2174H43.1139C43.2105 42.2174 43.291 42.2496 43.3555 42.314C43.4306 42.3677 43.4628 42.4428 43.4521 42.5394C43.4413 42.6897 43.3555 42.8775 43.1944 43.103C43.0442 43.3176 42.8241 43.5323 42.5343 43.747C42.2552 43.9617 41.9117 44.1388 41.5038 44.2784C41.0959 44.4179 40.6397 44.4877 40.1352 44.4877ZM37.5912 39.6412H42.7114V39.5768C42.7114 39.0401 42.6094 38.557 42.4055 38.1277C42.2015 37.6983 41.9063 37.3602 41.5199 37.1133C41.1335 36.8557 40.6719 36.7268 40.1352 36.7268C39.5985 36.7268 39.1369 36.8557 38.7505 37.1133C38.3748 37.3602 38.085 37.6983 37.881 38.1277C37.6878 38.557 37.5912 39.0401 37.5912 39.5768V39.6412ZM48.474 44.4877C47.9159 44.4877 47.4328 44.4125 47.0249 44.2623C46.6277 44.112 46.3004 43.9349 46.0427 43.7309C45.7851 43.5162 45.5919 43.3069 45.4631 43.103C45.345 42.899 45.2806 42.7434 45.2699 42.636C45.2591 42.5179 45.2967 42.4321 45.3826 42.3784C45.4685 42.314 45.549 42.2818 45.6241 42.2818H45.8656C45.93 42.2818 45.9837 42.2925 46.0266 42.314C46.0803 42.3355 46.1447 42.3945 46.2198 42.4911C46.3594 42.6736 46.5204 42.8507 46.7029 43.0225C46.8854 43.1835 47.1162 43.3123 47.3952 43.4089C47.6851 43.5055 48.0447 43.5538 48.474 43.5538C49.1181 43.5538 49.6494 43.4304 50.0681 43.1835C50.4867 42.9366 50.696 42.5716 50.696 42.0886C50.696 41.788 50.6101 41.5465 50.4384 41.364C50.2774 41.1815 49.9983 41.0205 49.6011 40.881C49.204 40.7414 48.6672 40.5965 47.991 40.4462C47.3147 40.2852 46.7941 40.092 46.4292 39.8666C46.0749 39.6412 45.8334 39.3836 45.7046 39.0937C45.5758 38.7932 45.5114 38.4712 45.5114 38.1277C45.5114 37.752 45.6187 37.387 45.8334 37.0328C46.0481 36.6678 46.3648 36.3726 46.7834 36.1472C47.2128 35.911 47.7495 35.793 48.3935 35.793C48.9195 35.793 49.365 35.8627 49.7299 36.0023C50.1056 36.1418 50.4116 36.3136 50.6477 36.5175C50.8839 36.7107 51.0556 36.904 51.1629 37.0972C51.281 37.2904 51.3454 37.446 51.3562 37.5641C51.3669 37.6715 51.3347 37.7573 51.2596 37.8217C51.1844 37.8861 51.0985 37.9183 51.0019 37.9183H50.7604C50.6745 37.9183 50.6048 37.9022 50.5511 37.87C50.4974 37.8271 50.4491 37.7734 50.4062 37.709C50.2988 37.5373 50.17 37.3763 50.0198 37.226C49.8695 37.0757 49.6655 36.9576 49.4079 36.8718C49.161 36.7752 48.8229 36.7268 48.3935 36.7268C47.7495 36.7268 47.2718 36.861 46.9605 37.1294C46.6492 37.387 46.4936 37.7198 46.4936 38.1277C46.4936 38.3638 46.558 38.5731 46.6868 38.7556C46.8156 38.9274 47.0571 39.0884 47.4113 39.2387C47.7656 39.3782 48.2808 39.5285 48.9571 39.6895C49.6441 39.8398 50.1861 40.0276 50.5833 40.253C50.9805 40.4677 51.2596 40.7253 51.4206 41.0259C51.5923 41.3265 51.6782 41.6807 51.6782 42.0886C51.6782 42.5179 51.5547 42.9151 51.3079 43.2801C51.0717 43.645 50.7121 43.9402 50.2291 44.1656C49.7568 44.3803 49.1718 44.4877 48.474 44.4877Z" fill="#003E5C"/>
<path d="M69.4707 22.6426H66.9396L59.9645 11.494H59.8872C59.9001 11.7517 59.913 12.0286 59.9259 12.3249C59.9516 12.6211 59.971 12.9367 59.9838 13.2716C59.9967 13.5936 60.0096 13.9286 60.0225 14.2763C60.0354 14.6113 60.0418 14.9526 60.0418 15.3004V22.6426H58.1483V8.84699H60.6601L67.6159 19.9376H67.6738C67.6609 19.7443 67.6481 19.506 67.6352 19.2227C67.6223 18.9264 67.6094 18.6108 67.5965 18.2759C67.5965 17.941 67.5901 17.5997 67.5772 17.2519C67.5643 16.9041 67.5514 16.5756 67.5386 16.2665V8.84699H69.4707V22.6426ZM82.0948 17.4258C82.0948 18.2888 81.9789 19.0552 81.747 19.725C81.5151 20.3948 81.1867 20.9616 80.7616 21.4253C80.3365 21.889 79.8213 22.2433 79.2159 22.488C78.6105 22.7199 77.9278 22.8358 77.1678 22.8358C76.4722 22.8358 75.8282 22.7199 75.2356 22.488C74.6431 22.2433 74.1279 21.889 73.6899 21.4253C73.2648 20.9616 72.9299 20.3948 72.6852 19.725C72.4405 19.0552 72.3181 18.2823 72.3181 17.4064C72.3181 16.26 72.5113 15.2875 72.8977 14.4889C73.297 13.6903 73.8638 13.0848 74.598 12.6727C75.3451 12.2476 76.221 12.035 77.2258 12.035C78.179 12.035 79.0162 12.2476 79.7376 12.6727C80.4718 13.0848 81.045 13.6903 81.4572 14.4889C81.8823 15.2875 82.0948 16.2665 82.0948 17.4258ZM74.4241 17.4258C74.4241 18.1986 74.5207 18.8684 74.714 19.4352C74.9072 19.9891 75.2099 20.4142 75.6221 20.7104C76.0343 21.0067 76.5624 21.1548 77.2064 21.1548C77.8505 21.1548 78.3786 21.0067 78.7908 20.7104C79.203 20.4142 79.5057 19.9891 79.6989 19.4352C79.8921 18.8684 79.9887 18.1986 79.9887 17.4258C79.9887 16.6271 79.8857 15.9573 79.6796 15.4163C79.4864 14.8753 79.1837 14.4631 78.7715 14.1797C78.3722 13.8835 77.8441 13.7353 77.1871 13.7353C76.221 13.7353 75.519 14.0574 75.0811 14.7014C74.6431 15.3455 74.4241 16.2536 74.4241 17.4258ZM96.3614 12.035C97.5335 12.035 98.4159 12.3377 99.0084 12.9432C99.6009 13.5486 99.8972 14.5211 99.8972 15.8607V22.6426H97.8491V16.1312C97.8491 15.3326 97.6881 14.7336 97.3661 14.3343C97.0569 13.9221 96.5674 13.716 95.8976 13.716C94.9702 13.716 94.3068 14.0058 93.9075 14.5855C93.5082 15.1523 93.3085 15.9766 93.3085 17.0586V22.6426H91.2798V16.1312C91.2798 15.6031 91.2025 15.1587 91.0479 14.798C90.9062 14.4374 90.6937 14.1669 90.4103 13.9865C90.1269 13.8062 89.7598 13.716 89.309 13.716C88.6649 13.716 88.1561 13.8577 87.7826 14.1411C87.409 14.4245 87.1385 14.8431 86.9711 15.397C86.8165 15.938 86.7392 16.6014 86.7392 17.3871V22.6426H84.6911V12.2283H86.3141L86.604 13.6194H86.7199C86.9389 13.2587 87.2029 12.9625 87.5121 12.7306C87.8341 12.4988 88.1883 12.3249 88.5748 12.2089C88.9612 12.093 89.3605 12.035 89.7727 12.035C90.5584 12.035 91.2218 12.1767 91.7628 12.4601C92.3038 12.7306 92.6967 13.1493 92.9414 13.716H93.096C93.4309 13.1364 93.8946 12.7113 94.4872 12.4408C95.0797 12.1703 95.7044 12.035 96.3614 12.035ZM105.08 11.494C105.08 11.9191 105.067 12.3249 105.041 12.7113C105.028 13.0848 105.009 13.3811 104.983 13.6001H105.08C105.376 13.1621 105.775 12.795 106.278 12.4988C106.78 12.2025 107.43 12.0544 108.229 12.0544C109.478 12.0544 110.483 12.5052 111.243 13.4069C112.016 14.3085 112.402 15.6482 112.402 17.4258C112.402 18.6237 112.229 19.622 111.881 20.4206C111.533 21.2192 111.044 21.8246 110.412 22.2368C109.781 22.6361 109.047 22.8358 108.21 22.8358C107.398 22.8358 106.748 22.6941 106.258 22.4107C105.769 22.1145 105.376 21.7667 105.08 21.3674H104.925L104.539 22.6426H103.032V7.95819H105.08V11.494ZM107.746 13.716C107.076 13.716 106.548 13.8448 106.162 14.1024C105.775 14.3601 105.498 14.7529 105.331 15.2811C105.163 15.8092 105.08 16.479 105.08 17.2905V17.4451C105.08 18.643 105.273 19.564 105.659 20.2081C106.046 20.8392 106.754 21.1548 107.785 21.1548C108.609 21.1548 109.234 20.8328 109.659 20.1887C110.084 19.5447 110.296 18.6173 110.296 17.4064C110.296 16.1827 110.084 15.2617 109.659 14.6435C109.234 14.0252 108.596 13.716 107.746 13.716ZM120.153 12.035C120.333 12.035 120.533 12.0479 120.752 12.0737C120.971 12.0866 121.151 12.1059 121.293 12.1317L121.08 14.0445C120.938 14.0058 120.771 13.9736 120.578 13.9479C120.385 13.9221 120.204 13.9092 120.037 13.9092C119.65 13.9092 119.277 13.9865 118.916 14.1411C118.568 14.2828 118.253 14.4953 117.969 14.7787C117.686 15.0492 117.461 15.3841 117.293 15.7834C117.139 16.1827 117.061 16.64 117.061 17.1553V22.6426H115.013V12.2283H116.636L116.907 14.0831H116.984C117.203 13.7096 117.467 13.3682 117.776 13.0591C118.085 12.7499 118.439 12.5052 118.839 12.3249C119.238 12.1317 119.676 12.035 120.153 12.035ZM126.94 12.035C127.854 12.035 128.64 12.2283 129.297 12.6147C129.954 12.9882 130.456 13.5292 130.804 14.2377C131.165 14.9462 131.345 15.7834 131.345 16.7495V17.8702H124.351C124.377 18.9393 124.653 19.7572 125.182 20.324C125.723 20.8908 126.476 21.1741 127.442 21.1741C128.112 21.1741 128.705 21.1162 129.22 21.0002C129.748 20.8714 130.289 20.6847 130.843 20.4399V22.1402C130.328 22.3721 129.799 22.546 129.258 22.6619C128.73 22.7778 128.099 22.8358 127.365 22.8358C126.36 22.8358 125.471 22.6361 124.699 22.2368C123.926 21.8375 123.32 21.245 122.882 20.4592C122.457 19.6606 122.245 18.6817 122.245 17.5224C122.245 16.3502 122.438 15.3584 122.824 14.5468C123.224 13.7353 123.771 13.1171 124.467 12.692C125.175 12.254 126 12.035 126.94 12.035ZM126.94 13.6194C126.206 13.6194 125.613 13.8577 125.162 14.3343C124.724 14.8109 124.467 15.4872 124.389 16.3631H129.297C129.297 15.8221 129.213 15.3455 129.046 14.9333C128.878 14.5211 128.621 14.1991 128.273 13.9672C127.925 13.7353 127.481 13.6194 126.94 13.6194ZM142.494 22.8358C141.245 22.8358 140.234 22.385 139.461 21.4833C138.701 20.5816 138.321 19.242 138.321 17.4644C138.321 15.6739 138.707 14.3214 139.48 13.4069C140.253 12.4923 141.271 12.035 142.533 12.035C143.061 12.035 143.518 12.1059 143.905 12.2476C144.304 12.3764 144.645 12.5567 144.929 12.7886C145.225 13.0204 145.476 13.2781 145.682 13.5614H145.798C145.773 13.3811 145.74 13.1235 145.702 12.7886C145.663 12.4408 145.644 12.1317 145.644 11.8611V7.95819H147.692V22.6426H146.088L145.74 21.2514H145.644C145.45 21.5477 145.206 21.8182 144.909 22.0629C144.626 22.2948 144.285 22.4816 143.885 22.6233C143.486 22.7649 143.022 22.8358 142.494 22.8358ZM142.977 21.1548C143.982 21.1548 144.69 20.8779 145.103 20.324C145.515 19.7572 145.721 18.9135 145.721 17.7929V17.4837C145.721 16.26 145.521 15.3261 145.122 14.6821C144.736 14.038 144.014 13.716 142.958 13.716C142.121 13.716 141.49 14.0574 141.064 14.7401C140.639 15.4099 140.427 16.3309 140.427 17.503C140.427 18.6752 140.639 19.5769 141.064 20.2081C141.49 20.8392 142.127 21.1548 142.977 21.1548ZM154.998 12.035C155.912 12.035 156.698 12.2283 157.355 12.6147C158.012 12.9882 158.514 13.5292 158.862 14.2377C159.223 14.9462 159.403 15.7834 159.403 16.7495V17.8702H152.409C152.434 18.9393 152.711 19.7572 153.239 20.324C153.78 20.8908 154.534 21.1741 155.5 21.1741C156.17 21.1741 156.762 21.1162 157.278 21.0002C157.806 20.8714 158.347 20.6847 158.901 20.4399V22.1402C158.385 22.3721 157.857 22.546 157.316 22.6619C156.788 22.7778 156.157 22.8358 155.423 22.8358C154.418 22.8358 153.529 22.6361 152.756 22.2368C151.983 21.8375 151.378 21.245 150.94 20.4592C150.515 19.6606 150.302 18.6817 150.302 17.5224C150.302 16.3502 150.496 15.3584 150.882 14.5468C151.281 13.7353 151.829 13.1171 152.524 12.692C153.233 12.254 154.057 12.035 154.998 12.035ZM154.998 13.6194C154.263 13.6194 153.671 13.8577 153.22 14.3343C152.782 14.8109 152.524 15.4872 152.447 16.3631H157.355C157.355 15.8221 157.271 15.3455 157.104 14.9333C156.936 14.5211 156.679 14.1991 156.331 13.9672C155.983 13.7353 155.539 13.6194 154.998 13.6194ZM171.17 22.8358C170.217 22.8358 169.38 22.649 168.659 22.2755C167.937 21.9019 167.377 21.3223 166.978 20.5365C166.578 19.7379 166.379 18.7267 166.379 17.503C166.379 16.2149 166.591 15.1716 167.016 14.373C167.454 13.5743 168.04 12.9882 168.774 12.6147C169.522 12.2283 170.372 12.035 171.325 12.035C171.905 12.035 172.446 12.0994 172.948 12.2283C173.463 12.3442 173.888 12.4794 174.223 12.634L173.605 14.2957C173.244 14.154 172.858 14.0316 172.446 13.9286C172.046 13.8255 171.666 13.774 171.306 13.774C170.662 13.774 170.127 13.9157 169.702 14.1991C169.29 14.4696 168.981 14.8818 168.774 15.4356C168.581 15.9766 168.485 16.6593 168.485 17.4837C168.485 18.2695 168.588 18.9328 168.794 19.4738C169 20.0148 169.303 20.427 169.702 20.7104C170.114 20.9809 170.623 21.1162 171.228 21.1162C171.808 21.1162 172.317 21.0518 172.755 20.923C173.193 20.7941 173.605 20.6267 173.991 20.4206V22.1982C173.618 22.4172 173.212 22.5782 172.774 22.6812C172.336 22.7843 171.802 22.8358 171.17 22.8358ZM178.498 11.8805C178.498 12.2025 178.485 12.5245 178.459 12.8465C178.433 13.1686 178.408 13.4326 178.382 13.6387H178.517C178.736 13.2781 179.007 12.9818 179.329 12.7499C179.663 12.5181 180.031 12.3442 180.43 12.2283C180.842 12.1123 181.261 12.0544 181.686 12.0544C182.51 12.0544 183.199 12.1896 183.753 12.4601C184.32 12.7177 184.745 13.1299 185.028 13.6967C185.325 14.2506 185.473 14.9719 185.473 15.8607V22.6426H183.444V16.1505C183.444 15.339 183.27 14.7336 182.922 14.3343C182.587 13.9221 182.046 13.716 181.299 13.716C180.591 13.716 180.031 13.8577 179.618 14.1411C179.219 14.4245 178.929 14.8431 178.749 15.397C178.581 15.938 178.498 16.6078 178.498 17.4064V22.6426H176.45V7.95819H178.498V11.8805ZM197.585 12.2283V22.6426H195.943L195.653 21.2707H195.556C195.337 21.6314 195.054 21.9277 194.706 22.1595C194.358 22.3914 193.978 22.5589 193.566 22.6619C193.154 22.7778 192.729 22.8358 192.291 22.8358C191.48 22.8358 190.79 22.707 190.224 22.4494C189.67 22.1789 189.245 21.7667 188.948 21.2128C188.665 20.646 188.523 19.9247 188.523 19.0488V12.2283H190.591V18.7396C190.591 19.5511 190.758 20.1565 191.093 20.5559C191.441 20.9552 191.975 21.1548 192.697 21.1548C193.418 21.1548 193.985 21.0131 194.397 20.7297C194.809 20.4464 195.099 20.0342 195.267 19.4932C195.447 18.9393 195.537 18.2759 195.537 17.503V12.2283H197.585ZM204.539 21.1741C204.809 21.1741 205.086 21.1484 205.369 21.0969C205.653 21.0453 205.898 20.9874 206.104 20.923V22.4687C205.885 22.5717 205.588 22.6555 205.215 22.7199C204.841 22.7972 204.468 22.8358 204.094 22.8358C203.528 22.8358 203.006 22.7392 202.529 22.546C202.066 22.3528 201.692 22.0178 201.409 21.5412C201.125 21.0647 200.984 20.4013 200.984 19.5511V13.7933H199.534V12.8659L201.061 12.093L201.776 9.89035H203.032V12.2283H206.007V13.7933H203.032V19.5125C203.032 20.0793 203.167 20.4979 203.437 20.7684C203.721 21.0389 204.088 21.1741 204.539 21.1741ZM212.283 12.035C213.198 12.035 213.983 12.2283 214.64 12.6147C215.297 12.9882 215.8 13.5292 216.147 14.2377C216.508 14.9462 216.688 15.7834 216.688 16.7495V17.8702H209.694C209.72 18.9393 209.997 19.7572 210.525 20.324C211.066 20.8908 211.819 21.1741 212.785 21.1741C213.455 21.1741 214.048 21.1162 214.563 21.0002C215.091 20.8714 215.632 20.6847 216.186 20.4399V22.1402C215.671 22.3721 215.143 22.546 214.602 22.6619C214.073 22.7778 213.442 22.8358 212.708 22.8358C211.703 22.8358 210.815 22.6361 210.042 22.2368C209.269 21.8375 208.663 21.245 208.225 20.4592C207.8 19.6606 207.588 18.6817 207.588 17.5224C207.588 16.3502 207.781 15.3584 208.167 14.5468C208.567 13.7353 209.114 13.1171 209.81 12.692C210.518 12.254 211.343 12.035 212.283 12.035ZM212.283 13.6194C211.549 13.6194 210.956 13.8577 210.505 14.3343C210.067 14.8109 209.81 15.4872 209.733 16.3631H214.64C214.64 15.8221 214.556 15.3455 214.389 14.9333C214.222 14.5211 213.964 14.1991 213.616 13.9672C213.268 13.7353 212.824 13.6194 212.283 13.6194ZM226.161 19.7057C226.161 20.3884 225.994 20.9616 225.659 21.4253C225.324 21.889 224.841 22.2433 224.21 22.488C223.578 22.7199 222.818 22.8358 221.93 22.8358C221.195 22.8358 220.564 22.7778 220.036 22.6619C219.521 22.5589 219.044 22.4043 218.606 22.1982V20.4013C219.07 20.6203 219.605 20.8199 220.21 21.0002C220.815 21.1677 221.408 21.2514 221.988 21.2514C222.76 21.2514 223.314 21.1291 223.649 20.8843C223.997 20.6396 224.171 20.3111 224.171 19.8989C224.171 19.6671 224.106 19.461 223.978 19.2806C223.849 19.0874 223.604 18.8942 223.243 18.701C222.896 18.4949 222.38 18.263 221.698 18.0054C221.041 17.7349 220.48 17.4708 220.017 17.2132C219.553 16.9427 219.199 16.6271 218.954 16.2665C218.709 15.8929 218.587 15.4163 218.587 14.8367C218.587 13.935 218.948 13.2459 219.669 12.7693C220.403 12.2798 221.369 12.035 222.567 12.035C223.198 12.035 223.791 12.0994 224.345 12.2283C224.912 12.3442 225.459 12.5245 225.987 12.7693L225.311 14.3343C225.015 14.1926 224.705 14.0767 224.383 13.9865C224.074 13.8835 223.759 13.7997 223.437 13.7353C223.128 13.6709 222.805 13.6387 222.471 13.6387C221.852 13.6387 221.382 13.7353 221.06 13.9286C220.738 14.1218 220.577 14.3923 220.577 14.7401C220.577 14.9848 220.648 15.1973 220.79 15.3777C220.944 15.558 221.208 15.7383 221.582 15.9187C221.955 16.099 222.464 16.318 223.108 16.5756C223.752 16.8203 224.3 17.0715 224.751 17.3292C225.214 17.5868 225.562 17.9024 225.794 18.2759C226.039 18.6495 226.161 19.1261 226.161 19.7057ZM245.292 12.035C246.464 12.035 247.347 12.3377 247.939 12.9432C248.532 13.5486 248.828 14.5211 248.828 15.8607V22.6426H246.78V16.1312C246.78 15.3326 246.619 14.7336 246.297 14.3343C245.988 13.9221 245.498 13.716 244.828 13.716C243.901 13.716 243.238 14.0058 242.838 14.5855C242.439 15.1523 242.239 15.9766 242.239 17.0586V22.6426H240.21V16.1312C240.21 15.6031 240.133 15.1587 239.979 14.798C239.837 14.4374 239.624 14.1669 239.341 13.9865C239.058 13.8062 238.691 13.716 238.24 13.716C237.596 13.716 237.087 13.8577 236.713 14.1411C236.34 14.4245 236.069 14.8431 235.902 15.397C235.747 15.938 235.67 16.6014 235.67 17.3871V22.6426H233.622V12.2283H235.245L235.535 13.6194H235.651C235.87 13.2587 236.134 12.9625 236.443 12.7306C236.765 12.4988 237.119 12.3249 237.505 12.2089C237.892 12.093 238.291 12.035 238.703 12.035C239.489 12.035 240.153 12.1767 240.694 12.4601C241.235 12.7306 241.627 13.1493 241.872 13.716H242.027C242.362 13.1364 242.825 12.7113 243.418 12.4408C244.01 12.1703 244.635 12.035 245.292 12.035ZM261.14 17.4258C261.14 18.2888 261.024 19.0552 260.792 19.725C260.56 20.3948 260.232 20.9616 259.807 21.4253C259.382 21.889 258.866 22.2433 258.261 22.488C257.656 22.7199 256.973 22.8358 256.213 22.8358C255.517 22.8358 254.873 22.7199 254.281 22.488C253.688 22.2433 253.173 21.889 252.735 21.4253C252.31 20.9616 251.975 20.3948 251.73 19.725C251.486 19.0552 251.363 18.2823 251.363 17.4064C251.363 16.26 251.556 15.2875 251.943 14.4889C252.342 13.6903 252.909 13.0848 253.643 12.6727C254.39 12.2476 255.266 12.035 256.271 12.035C257.224 12.035 258.061 12.2476 258.783 12.6727C259.517 13.0848 260.09 13.6903 260.502 14.4889C260.927 15.2875 261.14 16.2665 261.14 17.4258ZM253.469 17.4258C253.469 18.1986 253.566 18.8684 253.759 19.4352C253.952 19.9891 254.255 20.4142 254.667 20.7104C255.079 21.0067 255.608 21.1548 256.252 21.1548C256.896 21.1548 257.424 21.0067 257.836 20.7104C258.248 20.4142 258.551 19.9891 258.744 19.4352C258.937 18.8684 259.034 18.1986 259.034 17.4258C259.034 16.6271 258.931 15.9573 258.725 15.4163C258.532 14.8753 258.229 14.4631 257.817 14.1797C257.417 13.8835 256.889 13.7353 256.232 13.7353C255.266 13.7353 254.564 14.0574 254.126 14.7014C253.688 15.3455 253.469 16.2536 253.469 17.4258ZM261.775 12.2283H263.977L266.141 18.1407C266.257 18.4369 266.36 18.7267 266.45 19.0101C266.541 19.2935 266.618 19.5769 266.682 19.8603C266.76 20.1308 266.817 20.4013 266.856 20.6718H266.933C266.998 20.3369 267.101 19.944 267.243 19.4932C267.384 19.0294 267.532 18.5722 267.687 18.1213L269.735 12.2283H271.938L267.474 24.0531C267.23 24.7229 266.927 25.2961 266.566 25.7727C266.206 26.2621 265.774 26.6357 265.272 26.8933C264.782 27.1509 264.203 27.2798 263.533 27.2798C263.211 27.2798 262.934 27.2604 262.702 27.2218C262.47 27.196 262.27 27.1638 262.103 27.1252V25.5022C262.245 25.5279 262.412 25.5537 262.605 25.5795C262.811 25.6052 263.024 25.6181 263.243 25.6181C263.642 25.6181 263.984 25.5408 264.267 25.3862C264.563 25.2317 264.808 25.0127 265.001 24.7293C265.207 24.4459 265.381 24.1239 265.523 23.7632L265.948 22.6426L261.775 12.2283ZM277.644 12.035C278.559 12.035 279.344 12.2283 280.001 12.6147C280.658 12.9882 281.161 13.5292 281.509 14.2377C281.869 14.9462 282.05 15.7834 282.05 16.7495V17.8702H275.055C275.081 18.9393 275.358 19.7572 275.886 20.324C276.427 20.8908 277.18 21.1741 278.147 21.1741C278.816 21.1741 279.409 21.1162 279.924 21.0002C280.452 20.8714 280.993 20.6847 281.547 20.4399V22.1402C281.032 22.3721 280.504 22.546 279.963 22.6619C279.435 22.7778 278.803 22.8358 278.069 22.8358C277.065 22.8358 276.176 22.6361 275.403 22.2368C274.63 21.8375 274.025 21.245 273.587 20.4592C273.162 19.6606 272.949 18.6817 272.949 17.5224C272.949 16.3502 273.142 15.3584 273.529 14.5468C273.928 13.7353 274.475 13.1171 275.171 12.692C275.879 12.254 276.704 12.035 277.644 12.035ZM277.644 13.6194C276.91 13.6194 276.317 13.8577 275.867 14.3343C275.429 14.8109 275.171 15.4872 275.094 16.3631H280.001C280.001 15.8221 279.918 15.3455 279.75 14.9333C279.583 14.5211 279.325 14.1991 278.977 13.9672C278.63 13.7353 278.185 13.6194 277.644 13.6194ZM289.88 12.035C291.091 12.035 292.018 12.3377 292.662 12.9432C293.306 13.5486 293.628 14.5211 293.628 15.8607V22.6426H291.599V16.1505C291.599 15.339 291.426 14.7336 291.078 14.3343C290.743 13.9221 290.202 13.716 289.455 13.716C288.399 13.716 287.664 14.0316 287.252 14.6628C286.853 15.2939 286.653 16.2021 286.653 17.3871V22.6426H284.605V12.2283H286.228L286.518 13.6194H286.634C286.866 13.2587 287.149 12.9625 287.484 12.7306C287.819 12.4988 288.192 12.3249 288.605 12.2089C289.017 12.093 289.442 12.035 289.88 12.035ZM307.456 8.84699L302.316 22.6426H300.365L305.504 8.84699H307.456ZM319.426 12.035C320.676 12.035 321.681 12.4859 322.441 13.3876C323.213 14.2892 323.6 15.6353 323.6 17.4258C323.6 18.5979 323.426 19.5898 323.078 20.4013C322.73 21.2128 322.241 21.8246 321.61 22.2368C320.979 22.6361 320.244 22.8358 319.407 22.8358C318.879 22.8358 318.415 22.7714 318.016 22.6426C317.617 22.5009 317.275 22.3206 316.992 22.1016C316.721 21.8697 316.483 21.625 316.277 21.3674H316.142C316.18 21.5992 316.213 21.8762 316.238 22.1982C316.264 22.5073 316.277 22.7843 316.277 23.029V27.2798H314.229V12.2283H315.891L316.18 13.6194H316.277C316.483 13.336 316.728 13.072 317.011 12.8272C317.295 12.5825 317.636 12.3893 318.035 12.2476C318.435 12.1059 318.898 12.035 319.426 12.035ZM318.943 13.716C318.299 13.716 317.784 13.8448 317.398 14.1024C317.011 14.3472 316.728 14.7207 316.548 15.2231C316.38 15.7126 316.29 16.3373 316.277 17.0973V17.4064C316.277 18.2051 316.361 18.8878 316.528 19.4545C316.696 20.0084 316.973 20.4335 317.359 20.7297C317.758 21.0131 318.299 21.1548 318.982 21.1548C319.562 21.1548 320.032 21.0002 320.393 20.6911C320.766 20.3691 321.043 19.9247 321.223 19.3579C321.404 18.7911 321.494 18.1342 321.494 17.3871C321.494 16.2536 321.288 15.3584 320.876 14.7014C320.463 14.0445 319.819 13.716 318.943 13.716ZM330.249 12.035C331.563 12.035 332.542 12.3249 333.186 12.9045C333.83 13.4713 334.152 14.3665 334.152 15.5902V22.6426H332.703L332.297 21.1935H332.22C331.923 21.567 331.614 21.8762 331.292 22.1209C330.983 22.3656 330.622 22.546 330.21 22.6619C329.811 22.7778 329.321 22.8358 328.742 22.8358C328.123 22.8358 327.563 22.7263 327.061 22.5073C326.571 22.2755 326.185 21.9277 325.901 21.464C325.618 20.9874 325.476 20.3948 325.476 19.6864C325.476 18.6301 325.876 17.8251 326.674 17.2712C327.486 16.7173 328.716 16.4146 330.365 16.3631L332.142 16.3051V15.7255C332.142 14.9526 331.968 14.4116 331.621 14.1024C331.273 13.7933 330.783 13.6387 330.152 13.6387C329.611 13.6387 329.096 13.716 328.606 13.8706C328.117 14.0252 327.653 14.2119 327.215 14.4309L326.558 12.9432C327.048 12.6855 327.608 12.473 328.239 12.3055C328.883 12.1252 329.553 12.035 330.249 12.035ZM330.732 17.6769C329.547 17.7285 328.722 17.9281 328.259 18.2759C327.808 18.6108 327.582 19.0874 327.582 19.7057C327.582 20.2467 327.743 20.6396 328.065 20.8843C328.4 21.1291 328.819 21.2514 329.321 21.2514C330.133 21.2514 330.803 21.026 331.331 20.5752C331.859 20.1243 332.123 19.4481 332.123 18.5464V17.6383L330.732 17.6769ZM341.054 21.1741C341.324 21.1741 341.601 21.1484 341.885 21.0969C342.168 21.0453 342.413 20.9874 342.619 20.923V22.4687C342.4 22.5717 342.104 22.6555 341.73 22.7199C341.356 22.7972 340.983 22.8358 340.609 22.8358C340.043 22.8358 339.521 22.7392 339.044 22.546C338.581 22.3528 338.207 22.0178 337.924 21.5412C337.64 21.0647 337.499 20.4013 337.499 19.5511V13.7933H336.049V12.8659L337.576 12.093L338.291 9.89035H339.547V12.2283H342.522V13.7933H339.547V19.5125C339.547 20.0793 339.682 20.4979 339.952 20.7684C340.236 21.0389 340.603 21.1741 341.054 21.1741ZM346.75 12.2283V22.6426H344.702V12.2283H346.75ZM345.745 8.26734C346.054 8.26734 346.325 8.35751 346.557 8.53784C346.789 8.71818 346.905 9.02088 346.905 9.44595C346.905 9.85815 346.789 10.1609 346.557 10.3541C346.325 10.5344 346.054 10.6246 345.745 10.6246C345.41 10.6246 345.127 10.5344 344.895 10.3541C344.676 10.1609 344.567 9.85815 344.567 9.44595C344.567 9.02088 344.676 8.71818 344.895 8.53784C345.127 8.35751 345.41 8.26734 345.745 8.26734ZM354.062 12.035C354.977 12.035 355.763 12.2283 356.42 12.6147C357.077 12.9882 357.579 13.5292 357.927 14.2377C358.287 14.9462 358.468 15.7834 358.468 16.7495V17.8702H351.473C351.499 18.9393 351.776 19.7572 352.304 20.324C352.845 20.8908 353.599 21.1741 354.565 21.1741C355.235 21.1741 355.827 21.1162 356.342 21.0002C356.871 20.8714 357.412 20.6847 357.965 20.4399V22.1402C357.45 22.3721 356.922 22.546 356.381 22.6619C355.853 22.7778 355.222 22.8358 354.488 22.8358C353.483 22.8358 352.594 22.6361 351.821 22.2368C351.048 21.8375 350.443 21.245 350.005 20.4592C349.58 19.6606 349.367 18.6817 349.367 17.5224C349.367 16.3502 349.561 15.3584 349.947 14.5468C350.346 13.7353 350.894 13.1171 351.589 12.692C352.298 12.254 353.122 12.035 354.062 12.035ZM354.062 13.6194C353.328 13.6194 352.736 13.8577 352.285 14.3343C351.847 14.8109 351.589 15.4872 351.512 16.3631H356.42C356.42 15.8221 356.336 15.3455 356.168 14.9333C356.001 14.5211 355.743 14.1991 355.396 13.9672C355.048 13.7353 354.603 13.6194 354.062 13.6194ZM366.298 12.035C367.509 12.035 368.436 12.3377 369.08 12.9432C369.724 13.5486 370.047 14.5211 370.047 15.8607V22.6426H368.018V16.1505C368.018 15.339 367.844 14.7336 367.496 14.3343C367.161 13.9221 366.62 13.716 365.873 13.716C364.817 13.716 364.083 14.0316 363.67 14.6628C363.271 15.2939 363.071 16.2021 363.071 17.3871V22.6426H361.023V12.2283H362.646L362.936 13.6194H363.052C363.284 13.2587 363.567 12.9625 363.902 12.7306C364.237 12.4988 364.611 12.3249 365.023 12.2089C365.435 12.093 365.86 12.035 366.298 12.035ZM376.942 21.1741C377.213 21.1741 377.489 21.1484 377.773 21.0969C378.056 21.0453 378.301 20.9874 378.507 20.923V22.4687C378.288 22.5717 377.992 22.6555 377.618 22.7199C377.245 22.7972 376.871 22.8358 376.498 22.8358C375.931 22.8358 375.409 22.7392 374.933 22.546C374.469 22.3528 374.095 22.0178 373.812 21.5412C373.529 21.0647 373.387 20.4013 373.387 19.5511V13.7933H371.938V12.8659L373.464 12.093L374.179 9.89035H375.435V12.2283H378.41V13.7933H375.435V19.5125C375.435 20.0793 375.57 20.4979 375.841 20.7684C376.124 21.0389 376.491 21.1741 376.942 21.1741ZM387.507 19.7057C387.507 20.3884 387.34 20.9616 387.005 21.4253C386.67 21.889 386.187 22.2433 385.556 22.488C384.925 22.7199 384.165 22.8358 383.276 22.8358C382.542 22.8358 381.911 22.7778 381.382 22.6619C380.867 22.5589 380.391 22.4043 379.953 22.1982V20.4013C380.416 20.6203 380.951 20.8199 381.556 21.0002C382.162 21.1677 382.754 21.2514 383.334 21.2514C384.107 21.2514 384.661 21.1291 384.996 20.8843C385.343 20.6396 385.517 20.3111 385.517 19.8989C385.517 19.6671 385.453 19.461 385.324 19.2806C385.195 19.0874 384.95 18.8942 384.59 18.701C384.242 18.4949 383.727 18.263 383.044 18.0054C382.387 17.7349 381.827 17.4708 381.363 17.2132C380.899 16.9427 380.545 16.6271 380.3 16.2665C380.056 15.8929 379.933 15.4163 379.933 14.8367C379.933 13.935 380.294 13.2459 381.015 12.7693C381.749 12.2798 382.716 12.035 383.914 12.035C384.545 12.035 385.137 12.0994 385.691 12.2283C386.258 12.3442 386.805 12.5245 387.333 12.7693L386.657 14.3343C386.361 14.1926 386.052 14.0767 385.73 13.9865C385.421 13.8835 385.105 13.7997 384.783 13.7353C384.474 13.6709 384.152 13.6387 383.817 13.6387C383.199 13.6387 382.728 13.7353 382.406 13.9286C382.084 14.1218 381.923 14.3923 381.923 14.7401C381.923 14.9848 381.994 15.1973 382.136 15.3777C382.29 15.558 382.555 15.7383 382.928 15.9187C383.302 16.099 383.81 16.318 384.455 16.5756C385.099 16.8203 385.646 17.0715 386.097 17.3292C386.561 17.5868 386.908 17.9024 387.14 18.2759C387.385 18.6495 387.507 19.1261 387.507 19.7057ZM400.629 8.84699L395.49 22.6426H393.538L398.678 8.84699H400.629ZM411.441 12.035C412.755 12.035 413.734 12.3249 414.378 12.9045C415.022 13.4713 415.344 14.3665 415.344 15.5902V22.6426H413.895L413.489 21.1935H413.412C413.115 21.567 412.806 21.8762 412.484 22.1209C412.175 22.3656 411.814 22.546 411.402 22.6619C411.003 22.7778 410.513 22.8358 409.934 22.8358C409.315 22.8358 408.755 22.7263 408.253 22.5073C407.763 22.2755 407.377 21.9277 407.093 21.464C406.81 20.9874 406.668 20.3948 406.668 19.6864C406.668 18.6301 407.068 17.8251 407.866 17.2712C408.678 16.7173 409.908 16.4146 411.557 16.3631L413.334 16.3051V15.7255C413.334 14.9526 413.16 14.4116 412.813 14.1024C412.465 13.7933 411.975 13.6387 411.344 13.6387C410.803 13.6387 410.288 13.716 409.799 13.8706C409.309 14.0252 408.845 14.2119 408.407 14.4309L407.75 12.9432C408.24 12.6855 408.8 12.473 409.431 12.3055C410.075 12.1252 410.745 12.035 411.441 12.035ZM411.924 17.6769C410.739 17.7285 409.914 17.9281 409.451 18.2759C409 18.6108 408.774 19.0874 408.774 19.7057C408.774 20.2467 408.935 20.6396 409.258 20.8843C409.592 21.1291 410.011 21.2514 410.513 21.2514C411.325 21.2514 411.995 21.026 412.523 20.5752C413.051 20.1243 413.315 19.4481 413.315 18.5464V17.6383L411.924 17.6769ZM423.772 12.035C424.983 12.035 425.91 12.3377 426.555 12.9432C427.199 13.5486 427.521 14.5211 427.521 15.8607V22.6426H425.492V16.1505C425.492 15.339 425.318 14.7336 424.97 14.3343C424.635 13.9221 424.094 13.716 423.347 13.716C422.291 13.716 421.557 14.0316 421.144 14.6628C420.745 15.2939 420.546 16.2021 420.546 17.3871V22.6426H418.497V12.2283H420.12L420.41 13.6194H420.526C420.758 13.2587 421.041 12.9625 421.376 12.7306C421.711 12.4988 422.085 12.3249 422.497 12.2089C422.909 12.093 423.334 12.035 423.772 12.035Z" fill="#003E5C"/>
<path d="M112.917 115.814C112.917 111.368 116.521 107.764 120.967 107.764H154.192C158.638 107.764 162.243 111.368 162.243 115.814V318.815H112.917V115.814Z" fill="#EF7D00"/>
<path d="M149.989 355.327H138.59V353.564L143.106 348.999C143.975 348.13 144.708 347.357 145.304 346.681C145.899 346.004 146.35 345.344 146.656 344.7C146.962 344.04 147.115 343.324 147.115 342.551C147.115 341.601 146.833 340.884 146.27 340.401C145.706 339.902 144.974 339.653 144.072 339.653C143.235 339.653 142.494 339.797 141.85 340.087C141.222 340.377 140.578 340.78 139.918 341.295L138.783 339.87C139.234 339.483 139.725 339.137 140.256 338.831C140.803 338.525 141.391 338.284 142.019 338.107C142.663 337.93 143.347 337.841 144.072 337.841C145.151 337.841 146.077 338.026 146.849 338.397C147.622 338.767 148.218 339.298 148.637 339.991C149.071 340.667 149.289 341.48 149.289 342.43C149.289 343.106 149.184 343.75 148.975 344.362C148.766 344.958 148.468 345.546 148.081 346.125C147.695 346.705 147.228 347.293 146.68 347.888C146.133 348.484 145.529 349.104 144.869 349.748L141.27 353.298V353.395H149.989V355.327ZM163.883 346.681C163.883 348.082 163.778 349.329 163.569 350.424C163.36 351.519 163.022 352.453 162.555 353.226C162.104 353.983 161.508 354.562 160.767 354.965C160.043 355.367 159.165 355.569 158.135 355.569C156.847 355.569 155.776 355.214 154.923 354.506C154.085 353.798 153.457 352.783 153.039 351.463C152.636 350.126 152.435 348.532 152.435 346.681C152.435 344.813 152.62 343.219 152.99 341.899C153.377 340.578 153.989 339.572 154.826 338.88C155.663 338.171 156.766 337.817 158.135 337.817C159.423 337.817 160.494 338.171 161.347 338.88C162.2 339.572 162.836 340.578 163.255 341.899C163.674 343.219 163.883 344.813 163.883 346.681ZM154.56 346.681C154.56 348.259 154.673 349.571 154.898 350.618C155.14 351.664 155.518 352.453 156.034 352.984C156.565 353.5 157.265 353.757 158.135 353.757C159.004 353.757 159.697 353.5 160.212 352.984C160.743 352.469 161.13 351.688 161.371 350.642C161.613 349.579 161.733 348.259 161.733 346.681C161.733 345.103 161.613 343.799 161.371 342.768C161.13 341.722 160.743 340.941 160.212 340.425C159.697 339.894 159.004 339.628 158.135 339.628C157.265 339.628 156.565 339.894 156.034 340.425C155.518 340.941 155.14 341.722 154.898 342.768C154.673 343.799 154.56 345.103 154.56 346.681ZM173.647 355.327H171.57V343.275C171.57 342.808 171.57 342.414 171.57 342.092C171.586 341.77 171.602 341.472 171.618 341.198C171.634 340.908 171.65 340.611 171.666 340.305C171.409 340.562 171.175 340.78 170.966 340.957C170.757 341.134 170.491 341.359 170.169 341.633L168.333 343.13L167.222 341.705L171.884 338.083H173.647V355.327ZM185.778 337.841C186.792 337.841 187.686 338.002 188.458 338.324C189.231 338.63 189.835 339.089 190.27 339.701C190.721 340.313 190.946 341.069 190.946 341.971C190.946 342.663 190.793 343.267 190.487 343.783C190.197 344.298 189.803 344.757 189.304 345.159C188.805 345.546 188.257 345.892 187.661 346.198C188.37 346.536 189.014 346.922 189.594 347.357C190.173 347.776 190.632 348.267 190.97 348.83C191.324 349.394 191.502 350.07 191.502 350.859C191.502 351.825 191.268 352.662 190.801 353.371C190.334 354.063 189.674 354.603 188.821 354.989C187.983 355.375 186.993 355.569 185.85 355.569C184.61 355.569 183.556 355.384 182.686 355.013C181.833 354.643 181.181 354.12 180.73 353.443C180.295 352.751 180.078 351.914 180.078 350.931C180.078 350.143 180.239 349.458 180.561 348.879C180.899 348.299 181.342 347.8 181.889 347.381C182.436 346.963 183.024 346.608 183.652 346.318C183.089 345.996 182.573 345.634 182.106 345.232C181.656 344.813 181.293 344.338 181.02 343.807C180.762 343.275 180.633 342.655 180.633 341.947C180.633 341.061 180.859 340.321 181.309 339.725C181.76 339.113 182.372 338.646 183.145 338.324C183.918 338.002 184.795 337.841 185.778 337.841ZM182.155 350.956C182.155 351.793 182.453 352.493 183.048 353.057C183.644 353.604 184.562 353.878 185.802 353.878C186.591 353.878 187.251 353.749 187.782 353.492C188.313 353.234 188.716 352.88 188.99 352.429C189.28 351.978 189.424 351.463 189.424 350.883C189.424 350.32 189.271 349.829 188.966 349.41C188.676 348.975 188.257 348.589 187.71 348.251C187.178 347.913 186.542 347.607 185.802 347.333L185.415 347.188C184.707 347.494 184.111 347.824 183.628 348.178C183.145 348.532 182.775 348.935 182.517 349.386C182.275 349.837 182.155 350.36 182.155 350.956ZM185.753 339.556C184.868 339.556 184.135 339.773 183.556 340.208C182.992 340.627 182.71 341.239 182.71 342.044C182.71 342.639 182.847 343.138 183.121 343.541C183.411 343.944 183.797 344.29 184.28 344.58C184.763 344.853 185.294 345.119 185.874 345.377C186.438 345.135 186.937 344.869 187.372 344.58C187.822 344.29 188.177 343.944 188.434 343.541C188.708 343.122 188.845 342.623 188.845 342.044C188.845 341.239 188.563 340.627 187.999 340.208C187.436 339.773 186.687 339.556 185.753 339.556Z" fill="#003E5C"/>
<path d="M488.18 19.3726V18.1264H491.962V19.3726H488.18ZM500.359 14.1123H495.925L495.635 17.9669H495.737C495.978 17.6288 496.249 17.3583 496.548 17.1554C496.857 16.9526 497.278 16.8511 497.809 16.8511C498.244 16.8511 498.645 16.9236 499.012 17.0685C499.379 17.2134 499.698 17.4211 499.968 17.6916C500.239 17.9525 500.446 18.2761 500.591 18.6625C500.746 19.049 500.823 19.4885 500.823 19.9812C500.823 20.4739 500.746 20.928 500.591 21.3434C500.437 21.7491 500.21 22.1018 499.91 22.4012C499.62 22.6911 499.263 22.9181 498.838 23.0823C498.422 23.2466 497.949 23.3287 497.418 23.3287C496.993 23.3287 496.616 23.2804 496.287 23.1838C495.969 23.0872 495.684 22.9567 495.432 22.7925C495.181 22.6283 494.959 22.4447 494.766 22.2418C494.582 22.039 494.413 21.8264 494.259 21.6042L495.171 20.9087C495.297 21.1115 495.428 21.2951 495.563 21.4593C495.708 21.6236 495.862 21.7636 496.026 21.8796C496.2 21.9955 496.398 22.0873 496.621 22.1549C496.843 22.2129 497.108 22.2418 497.418 22.2418C498.113 22.2418 498.64 22.0583 498.997 21.6912C499.355 21.3241 499.533 20.8072 499.533 20.1406V19.9957C499.533 19.3291 499.355 18.8123 498.997 18.4452C498.64 18.078 498.113 17.8945 497.418 17.8945C496.954 17.8945 496.587 17.9814 496.316 18.1553C496.055 18.3196 495.819 18.5176 495.606 18.7495L494.577 18.6046L494.94 13.04H500.359V14.1123ZM504.659 23.1548L511.672 13.04H512.788L505.775 23.1548H504.659ZM505.238 18.6046C504.504 18.6046 503.939 18.363 503.543 17.88C503.147 17.3873 502.949 16.6724 502.949 15.7353C502.949 14.7982 503.147 14.0881 503.543 13.6051C503.939 13.1124 504.504 12.8661 505.238 12.8661C505.973 12.8661 506.538 13.1124 506.934 13.6051C507.33 14.0881 507.528 14.7982 507.528 15.7353C507.528 16.6724 507.33 17.3873 506.934 17.88C506.538 18.363 505.973 18.6046 505.238 18.6046ZM505.238 17.851C506.069 17.851 506.485 17.2907 506.485 16.17V15.3006C506.485 14.1799 506.069 13.6196 505.238 13.6196C504.408 13.6196 503.992 14.1799 503.992 15.3006V16.17C503.992 17.2907 504.408 17.851 505.238 17.851ZM512.209 23.3287C511.474 23.3287 510.909 23.0872 510.513 22.6041C510.117 22.1114 509.919 21.3965 509.919 20.4594C509.919 19.5223 510.117 18.8123 510.513 18.3292C510.909 17.8365 511.474 17.5902 512.209 17.5902C512.943 17.5902 513.508 17.8365 513.904 18.3292C514.3 18.8123 514.498 19.5223 514.498 20.4594C514.498 21.3965 514.3 22.1114 513.904 22.6041C513.508 23.0872 512.943 23.3287 512.209 23.3287ZM512.209 22.5751C513.039 22.5751 513.455 22.0148 513.455 20.8942V20.0247C513.455 18.904 513.039 18.3437 512.209 18.3437C511.378 18.3437 510.962 18.904 510.962 20.0247V20.8942C510.962 22.0148 511.378 22.5751 512.209 22.5751Z" fill="#54C352"/>
<path d="M471.848 30.4193C471.545 30.9879 470.73 30.9879 470.427 30.4193L459.163 9.28385C458.877 8.7476 459.266 8.10015 459.874 8.10015L482.402 8.10015C483.009 8.10015 483.398 8.7476 483.112 9.28385L471.848 30.4193Z" fill="#54C352"/>
</svg>
