<svg width="80" height="46" viewBox="0 0 80 46" fill="none" xmlns="http://www.w3.org/2000/svg">
<path d="M79.2282 10.241C79.2282 11.6441 78.659 12.9167 77.7399 13.8358C76.8208 14.7549 75.5482 15.3241 74.1451 15.3241H5.45421C2.64617 15.3241 0.371094 13.049 0.371094 10.241C0.371094 8.83785 0.940315 7.56708 1.85941 6.64798C2.7785 5.72889 4.05109 5.15967 5.45421 5.15967H74.1451C76.9532 5.15967 79.2282 7.43474 79.2282 10.241Z" fill="#003E5C"/>
<path d="M79.2282 10.2407C79.2282 11.6438 78.659 12.9164 77.7399 13.8355C76.8208 14.7546 75.5482 15.3238 74.1451 15.3238H5.45421C2.64617 15.3238 0.371094 13.0488 0.371094 10.2407H79.2282Z" fill="#003458"/>
<path d="M65.1794 15.6255H61.7351V5.15196C61.7351 4.67972 61.3509 4.29541 60.8785 4.29541H18.9029C18.4307 4.29541 18.0464 4.67972 18.0464 5.15196V15.6255H14.6021V5.15196C14.6021 2.78045 16.5314 0.851074 18.9029 0.851074H60.8787C63.2502 0.851074 65.1796 2.78045 65.1796 5.15196V15.6255H65.1794Z" fill="#CCCCCC"/>
<path d="M68.5568 26.0186H11.0427V31.4443H68.5568V26.0186Z" fill="#E6E6E6"/>
<path d="M13.8344 26.0186H11.0427V31.4443H13.8344V26.0186Z" fill="#CCCCCC"/>
<path d="M68.5642 26.0186H65.7725V31.4443H68.5642V26.0186Z" fill="#CCCCCC"/>
<path d="M11.7858 17.1421H6.36011V41.0712H11.7858V17.1421Z" fill="#E6E6E6"/>
<path d="M73.2399 17.1421H67.8142V41.0712H73.2399V17.1421Z" fill="#E6E6E6"/>
<path d="M11.7858 17.1421H6.36011V26.0185H11.7858V17.1421Z" fill="#CCCCCC"/>
<path d="M73.2329 17.1421H67.8071V26.0185H73.2329V17.1421Z" fill="#CCCCCC"/>
<path d="M9.07304 45.2345C11.5725 45.2345 13.5987 43.2082 13.5987 40.7088C13.5987 38.2093 11.5725 36.1831 9.07304 36.1831C6.57358 36.1831 4.54736 38.2093 4.54736 40.7088C4.54736 43.2082 6.57358 45.2345 9.07304 45.2345Z" fill="#666666"/>
<path d="M70.5271 45.2345C73.0266 45.2345 75.0528 43.2082 75.0528 40.7088C75.0528 38.2093 73.0266 36.1831 70.5271 36.1831C68.0277 36.1831 66.0015 38.2093 66.0015 40.7088C66.0015 43.2082 68.0277 45.2345 70.5271 45.2345Z" fill="#666666"/>
<path d="M79.2282 15.1416H0.371094V20.5673H79.2282V15.1416Z" fill="#E6E6E6"/>
</svg>
