<svg width="169" height="152" viewBox="0 0 169 152" fill="none" xmlns="http://www.w3.org/2000/svg">
<path d="M18.4964 151.095C2.01859 151.095 -4.72267 139.419 3.51625 125.149L69.4288 10.9856C77.6677 -3.28492 91.1497 -3.28492 99.3886 10.9856L165.301 125.149C173.54 139.419 166.799 151.095 150.321 151.095H18.4964Z" fill="#003E5C"/>
<path d="M165.302 125.149L99.3894 10.9862C95.2702 3.85058 89.8391 0.293342 84.4092 0.293945V151.095H150.322C166.8 151.095 173.541 139.42 165.302 125.149Z" fill="#002A54"/>
<path d="M84.4094 96.8319H72.351L66.3218 48.5981H84.4094L90.4386 72.715L84.4094 96.8319Z" fill="#EF7D00"/>
<path d="M96.4676 96.8328H84.4092V48.5991H102.497L96.4676 96.8328Z" fill="#C96D08"/>
<path d="M84.4095 133.007H72.3511V108.891H84.4095L90.4387 120.949L84.4095 133.007Z" fill="#EF7D00"/>
<path d="M96.4676 108.891H84.4092V133.007H96.4676V108.891Z" fill="#C96D08"/>
</svg>
