<svg width="648" height="339" viewBox="0 0 648 339" fill="none" xmlns="http://www.w3.org/2000/svg">
<line x1="34.4565" y1="49.824" x2="623.139" y2="49.824" stroke="#CFD8DC" stroke-width="0.805065" stroke-linecap="round" stroke-dasharray="7.25 7.25"/>
<line x1="34.4565" y1="110.471" x2="623.139" y2="110.471" stroke="#CFD8DC" stroke-width="0.805065" stroke-linecap="round" stroke-dasharray="7.25 7.25"/>
<line x1="34.4565" y1="171.927" x2="623.139" y2="171.927" stroke="#CFD8DC" stroke-width="0.805065" stroke-linecap="round" stroke-dasharray="7.25 7.25"/>
<line x1="34.4565" y1="233.382" x2="623.139" y2="233.382" stroke="#CFD8DC" stroke-width="0.805065" stroke-linecap="round" stroke-dasharray="7.25 7.25"/>
<path d="M24.0733 294.33C24.0733 295.296 24.0035 296.149 23.864 296.89C23.7352 297.631 23.5258 298.253 23.236 298.758C22.9569 299.252 22.5973 299.627 22.1572 299.885C21.7171 300.143 21.1912 300.271 20.5793 300.271C19.8064 300.271 19.1624 300.051 18.6472 299.611C18.1319 299.16 17.7455 298.495 17.4879 297.615C17.2302 296.724 17.1014 295.629 17.1014 294.33C17.1014 293.138 17.2141 292.103 17.4396 291.222C17.665 290.342 18.0299 289.661 18.5344 289.178C19.0497 288.684 19.7313 288.437 20.5793 288.437C21.4273 288.437 22.1036 288.678 22.6081 289.161C23.1233 289.645 23.4936 290.326 23.7191 291.206C23.9552 292.087 24.0733 293.128 24.0733 294.33ZM18.0031 294.33C18.0031 295.489 18.0943 296.45 18.2768 297.212C18.4593 297.964 18.7384 298.527 19.1141 298.903C19.5005 299.278 19.9889 299.466 20.5793 299.466C21.1912 299.466 21.6849 299.284 22.0606 298.919C22.4363 298.543 22.71 297.974 22.8818 297.212C23.0535 296.45 23.1394 295.489 23.1394 294.33C23.1394 293.257 23.0589 292.344 22.8979 291.593C22.7476 290.831 22.4846 290.251 22.1089 289.854C21.744 289.446 21.2395 289.242 20.5954 289.242C19.9514 289.242 19.4415 289.446 19.0658 289.854C18.6901 290.262 18.4164 290.847 18.2446 291.609C18.0836 292.36 18.0031 293.267 18.0031 294.33Z" fill="#003E5C"/>
<path d="M15.0495 238.655H8.17421V237.882L11.2657 234.453C11.7809 233.884 12.2156 233.374 12.5699 232.923C12.9241 232.472 13.1924 232.022 13.3749 231.571C13.5574 231.109 13.6486 230.605 13.6486 230.057C13.6486 229.338 13.4501 228.785 13.0529 228.399C12.6665 228.002 12.1405 227.803 11.475 227.803C11.0134 227.803 10.5679 227.894 10.1386 228.077C9.7092 228.259 9.29056 228.522 8.88266 228.866L8.38352 228.222C8.68408 227.964 8.99537 227.744 9.3174 227.561C9.65016 227.379 9.99902 227.239 10.364 227.143C10.7289 227.046 11.11 226.998 11.5072 226.998C12.1405 226.998 12.6826 227.121 13.1334 227.368C13.595 227.604 13.9492 227.948 14.1961 228.399C14.4537 228.85 14.5825 229.386 14.5825 230.009C14.5825 230.481 14.5181 230.916 14.3893 231.313C14.2712 231.71 14.0995 232.097 13.8741 232.472C13.6486 232.848 13.3749 233.229 13.0529 233.616C12.7416 233.991 12.3927 234.394 12.0063 234.823L9.3496 237.77V237.818H15.0495V238.655ZM23.8264 232.875C23.8264 233.841 23.7567 234.694 23.6171 235.435C23.4883 236.176 23.279 236.798 22.9892 237.303C22.7101 237.797 22.3505 238.172 21.9104 238.43C21.4703 238.687 20.9443 238.816 20.3324 238.816C19.5596 238.816 18.9155 238.596 18.4003 238.156C17.885 237.705 17.4986 237.04 17.241 236.16C16.9834 235.269 16.8546 234.174 16.8546 232.875C16.8546 231.683 16.9673 230.648 17.1927 229.767C17.4181 228.887 17.7831 228.206 18.2876 227.722C18.8028 227.229 19.4844 226.982 20.3324 226.982C21.1804 226.982 21.8567 227.223 22.3612 227.706C22.8765 228.189 23.2468 228.871 23.4722 229.751C23.7084 230.631 23.8264 231.673 23.8264 232.875ZM17.7562 232.875C17.7562 234.034 17.8475 234.995 18.03 235.757C18.2124 236.508 18.4915 237.072 18.8672 237.448C19.2537 237.823 19.7421 238.011 20.3324 238.011C20.9443 238.011 21.4381 237.829 21.8138 237.464C22.1895 237.088 22.4632 236.519 22.6349 235.757C22.8067 234.995 22.8926 234.034 22.8926 232.875C22.8926 231.801 22.812 230.889 22.651 230.138C22.5008 229.376 22.2378 228.796 21.8621 228.399C21.4971 227.991 20.9926 227.787 20.3485 227.787C19.7045 227.787 19.1946 227.991 18.8189 228.399C18.4432 228.807 18.1695 229.392 17.9978 230.154C17.8367 230.905 17.7562 231.812 17.7562 232.875Z" fill="#003E5C"/>
<path d="M15.7901 174.333H13.9868V177.199H13.1012V174.333H7.70727V173.593L13.0529 165.638H13.9868V173.496H15.7901V174.333ZM13.1012 169.229C13.1012 168.918 13.1012 168.644 13.1012 168.408C13.1119 168.172 13.1173 167.957 13.1173 167.764C13.128 167.571 13.1334 167.383 13.1334 167.2C13.1441 167.018 13.1495 166.835 13.1495 166.653H13.1012C12.9724 166.9 12.8489 167.131 12.7309 167.345C12.6128 167.56 12.4679 167.791 12.2961 168.038L8.65724 173.496H13.1012V169.229ZM23.8264 171.419C23.8264 172.385 23.7567 173.238 23.6171 173.979C23.4883 174.72 23.279 175.342 22.9892 175.847C22.7101 176.34 22.3505 176.716 21.9104 176.974C21.4703 177.231 20.9443 177.36 20.3324 177.36C19.5596 177.36 18.9155 177.14 18.4003 176.7C17.885 176.249 17.4986 175.584 17.241 174.704C16.9834 173.813 16.8546 172.718 16.8546 171.419C16.8546 170.227 16.9673 169.192 17.1927 168.311C17.4181 167.431 17.7831 166.749 18.2876 166.266C18.8028 165.773 19.4844 165.526 20.3324 165.526C21.1804 165.526 21.8567 165.767 22.3612 166.25C22.8765 166.733 23.2468 167.415 23.4722 168.295C23.7084 169.175 23.8264 170.217 23.8264 171.419ZM17.7562 171.419C17.7562 172.578 17.8475 173.539 18.03 174.301C18.2124 175.052 18.4915 175.616 18.8672 175.992C19.2537 176.367 19.7421 176.555 20.3324 176.555C20.9443 176.555 21.4381 176.373 21.8138 176.008C22.1895 175.632 22.4632 175.063 22.6349 174.301C22.8067 173.539 22.8926 172.578 22.8926 171.419C22.8926 170.345 22.812 169.433 22.651 168.682C22.5008 167.92 22.2378 167.34 21.8621 166.943C21.4971 166.535 20.9926 166.331 20.3485 166.331C19.7045 166.331 19.1946 166.535 18.8189 166.943C18.4432 167.351 18.1695 167.936 17.9978 168.698C17.8367 169.449 17.7562 170.356 17.7562 171.419Z" fill="#003E5C"/>
<path d="M10.8757 104.086C11.4983 104.086 12.0404 104.194 12.5019 104.408C12.9635 104.612 13.3231 104.913 13.5807 105.31C13.8491 105.707 13.9832 106.196 13.9832 106.775C13.9832 107.237 13.8866 107.645 13.6934 107.999C13.5002 108.342 13.2319 108.648 12.8884 108.917C12.5449 109.174 12.1531 109.41 11.713 109.625C12.2389 109.84 12.6951 110.097 13.0816 110.398C13.468 110.688 13.7739 111.031 13.9993 111.429C14.2248 111.815 14.3375 112.271 14.3375 112.797C14.3375 113.452 14.1872 114.01 13.8866 114.472C13.5968 114.933 13.1889 115.287 12.6629 115.534C12.137 115.781 11.5358 115.905 10.8596 115.905C10.1404 115.905 9.52319 115.787 9.00794 115.55C8.4927 115.304 8.09554 114.955 7.81645 114.504C7.54809 114.042 7.41392 113.5 7.41392 112.878C7.41392 112.33 7.51589 111.853 7.71984 111.445C7.93452 111.037 8.22971 110.688 8.60541 110.398C8.99184 110.108 9.42658 109.861 9.90962 109.657C9.51245 109.464 9.14749 109.244 8.81473 108.997C8.4927 108.74 8.23508 108.434 8.04187 108.079C7.85938 107.714 7.76814 107.28 7.76814 106.775C7.76814 106.217 7.90232 105.739 8.17068 105.342C8.43903 104.945 8.80399 104.639 9.26556 104.424C9.73787 104.199 10.2746 104.086 10.8757 104.086ZM8.31559 112.878C8.31559 113.554 8.53564 114.101 8.97574 114.52C9.41584 114.939 10.0384 115.148 10.8435 115.148C11.3695 115.148 11.8257 115.057 12.2121 114.874C12.5985 114.681 12.8991 114.413 13.1138 114.069C13.3285 113.715 13.4358 113.296 13.4358 112.813C13.4358 112.384 13.3392 112.014 13.146 111.702C12.9635 111.38 12.6951 111.096 12.3409 110.849C11.9867 110.602 11.5627 110.382 11.0689 110.189L10.7308 110.06C10.2477 110.253 9.82374 110.479 9.45878 110.736C9.10455 110.983 8.82546 111.278 8.62151 111.622C8.41756 111.965 8.31559 112.384 8.31559 112.878ZM10.8596 104.859C10.2155 104.859 9.6842 105.026 9.26556 105.358C8.85767 105.691 8.65372 106.174 8.65372 106.807C8.65372 107.248 8.75032 107.618 8.94354 107.918C9.14749 108.219 9.41584 108.471 9.7486 108.675C10.0921 108.879 10.4785 109.072 10.9079 109.255C11.3265 109.072 11.6969 108.874 12.0189 108.659C12.3409 108.444 12.5932 108.187 12.7756 107.886C12.9689 107.586 13.0655 107.221 13.0655 106.791C13.0655 106.158 12.8669 105.68 12.4697 105.358C12.0726 105.026 11.5358 104.859 10.8596 104.859ZM23.0178 109.963C23.0178 110.929 22.9481 111.783 22.8085 112.523C22.6797 113.264 22.4704 113.887 22.1806 114.391C21.9015 114.885 21.5419 115.261 21.1018 115.518C20.6617 115.776 20.1357 115.905 19.5239 115.905C18.751 115.905 18.1069 115.685 17.5917 115.245C17.0765 114.794 16.69 114.128 16.4324 113.248C16.1748 112.357 16.046 111.262 16.046 109.963C16.046 108.772 16.1587 107.736 16.3841 106.856C16.6095 105.976 16.9745 105.294 17.479 104.811C17.9942 104.317 18.6758 104.07 19.5239 104.07C20.3719 104.07 21.0481 104.312 21.5526 104.795C22.0679 105.278 22.4382 105.959 22.6636 106.84C22.8998 107.72 23.0178 108.761 23.0178 109.963ZM16.9476 109.963C16.9476 111.123 17.0389 112.083 17.2214 112.845C17.4038 113.597 17.6829 114.16 18.0586 114.536C18.4451 114.912 18.9335 115.1 19.5239 115.1C20.1357 115.1 20.6295 114.917 21.0052 114.552C21.3809 114.176 21.6546 113.608 21.8263 112.845C21.9981 112.083 22.084 111.123 22.084 109.963C22.084 108.89 22.0035 107.977 21.8424 107.226C21.6922 106.464 21.4292 105.884 21.0535 105.487C20.6885 105.079 20.184 104.875 19.54 104.875C18.8959 104.875 18.386 105.079 18.0103 105.487C17.6346 105.895 17.3609 106.48 17.1892 107.242C17.0282 107.994 16.9476 108.901 16.9476 109.963Z" fill="#003E5C"/>
<path d="M5.22787 54.2886H4.34229V45.7388C4.34229 45.4275 4.34229 45.1591 4.34229 44.9337C4.34229 44.7083 4.34766 44.499 4.3584 44.3058C4.36913 44.1126 4.3745 43.9301 4.3745 43.7583C4.24569 43.8979 4.11151 44.0267 3.97197 44.1448C3.84315 44.2521 3.68751 44.3863 3.50503 44.5473L2.00761 45.7871L1.50847 45.143L4.47111 42.7922H5.22787V54.2886ZM16.5488 48.5082C16.5488 49.4743 16.4791 50.3277 16.3395 51.0683C16.2107 51.809 16.0014 52.4316 15.7116 52.9361C15.4325 53.4298 15.0729 53.8055 14.6328 54.0632C14.1927 54.3208 13.6667 54.4496 13.0549 54.4496C12.282 54.4496 11.6379 54.2295 11.1227 53.7894C10.6075 53.3386 10.221 52.6731 9.96341 51.7929C9.70579 50.9019 9.57698 49.807 9.57698 48.5082C9.57698 47.3167 9.68969 46.2809 9.9151 45.4007C10.1405 44.5205 10.5055 43.8388 11.01 43.3558C11.5252 42.862 12.2069 42.6151 13.0549 42.6151C13.9029 42.6151 14.5791 42.8567 15.0836 43.3397C15.5989 43.8227 15.9692 44.5044 16.1946 45.3846C16.4308 46.2648 16.5488 47.306 16.5488 48.5082ZM10.4786 48.5082C10.4786 49.6675 10.5699 50.6282 10.7524 51.3903C10.9349 52.1417 11.2139 52.7053 11.5896 53.081C11.9761 53.4567 12.4645 53.6445 13.0549 53.6445C13.6667 53.6445 14.1605 53.462 14.5362 53.0971C14.9119 52.7214 15.1856 52.1525 15.3573 51.3903C15.5291 50.6282 15.615 49.6675 15.615 48.5082C15.615 47.4348 15.5345 46.5224 15.3734 45.771C15.2232 45.0089 14.9602 44.4292 14.5845 44.032C14.2195 43.6241 13.715 43.4202 13.071 43.4202C12.4269 43.4202 11.917 43.6241 11.5413 44.032C11.1656 44.4399 10.8919 45.025 10.7202 45.7871C10.5592 46.5385 10.4786 47.4455 10.4786 48.5082ZM25.197 48.5082C25.197 49.4743 25.1272 50.3277 24.9877 51.0683C24.8589 51.809 24.6496 52.4316 24.3597 52.9361C24.0806 53.4298 23.721 53.8055 23.2809 54.0632C22.8408 54.3208 22.3149 54.4496 21.703 54.4496C20.9302 54.4496 20.2861 54.2295 19.7709 53.7894C19.2556 53.3386 18.8692 52.6731 18.6116 51.7929C18.3539 50.9019 18.2251 49.807 18.2251 48.5082C18.2251 47.3167 18.3378 46.2809 18.5633 45.4007C18.7887 44.5205 19.1536 43.8388 19.6581 43.3558C20.1734 42.862 20.855 42.6151 21.703 42.6151C22.551 42.6151 23.2273 42.8567 23.7318 43.3397C24.247 43.8227 24.6173 44.5044 24.8428 45.3846C25.0789 46.2648 25.197 47.306 25.197 48.5082ZM19.1268 48.5082C19.1268 49.6675 19.218 50.6282 19.4005 51.3903C19.583 52.1417 19.8621 52.7053 20.2378 53.081C20.6242 53.4567 21.1126 53.6445 21.703 53.6445C22.3149 53.6445 22.8086 53.462 23.1843 53.0971C23.56 52.7214 23.8338 52.1525 24.0055 51.3903C24.1772 50.6282 24.2631 49.6675 24.2631 48.5082C24.2631 47.4348 24.1826 46.5224 24.0216 45.771C23.8713 45.0089 23.6083 44.4292 23.2326 44.032C22.8677 43.6241 22.3632 43.4202 21.7191 43.4202C21.0751 43.4202 20.5652 43.6241 20.1895 44.032C19.8138 44.4399 19.5401 45.025 19.3683 45.7871C19.2073 46.5385 19.1268 47.4455 19.1268 48.5082Z" fill="#003E5C"/>
<line x1="34.4565" y1="294.029" x2="623.139" y2="294.029" stroke="#CFD8DC" stroke-width="0.805065" stroke-linecap="round" stroke-dasharray="7.25 7.25"/>
<path d="M56.1643 322.297C56.1643 323.698 56.0596 324.946 55.8503 326.041C55.641 327.135 55.3029 328.069 54.8359 328.842C54.3851 329.599 53.7893 330.179 53.0487 330.581C52.3241 330.984 51.4466 331.185 50.4161 331.185C49.128 331.185 48.0573 330.831 47.2039 330.122C46.3666 329.414 45.7387 328.399 45.3201 327.079C44.9175 325.743 44.7163 324.149 44.7163 322.297C44.7163 320.429 44.9014 318.835 45.2717 317.515C45.6582 316.195 46.27 315.188 47.1073 314.496C47.9446 313.787 49.0475 313.433 50.4161 313.433C51.7042 313.433 52.775 313.787 53.6283 314.496C54.4817 315.188 55.1177 316.195 55.5363 317.515C55.955 318.835 56.1643 320.429 56.1643 322.297ZM46.8416 322.297C46.8416 323.875 46.9543 325.187 47.1798 326.234C47.4213 327.28 47.7997 328.069 48.3149 328.601C48.8462 329.116 49.5466 329.373 50.4161 329.373C51.2856 329.373 51.9779 329.116 52.4932 328.601C53.0245 328.085 53.411 327.304 53.6525 326.258C53.894 325.195 54.0148 323.875 54.0148 322.297C54.0148 320.719 53.894 319.415 53.6525 318.384C53.411 317.338 53.0245 316.557 52.4932 316.042C51.9779 315.51 51.2856 315.245 50.4161 315.245C49.5466 315.245 48.8462 315.51 48.3149 316.042C47.7997 316.557 47.4213 317.338 47.1798 318.384C46.9543 319.415 46.8416 320.719 46.8416 322.297ZM61.5324 317.974C61.5324 318.28 61.5163 318.594 61.4841 318.916C61.468 319.238 61.4439 319.528 61.4117 319.785H61.5566C61.8303 319.334 62.1765 318.964 62.5951 318.674C63.0137 318.384 63.4807 318.167 63.9959 318.022C64.5112 317.861 65.0425 317.781 65.5899 317.781C66.6365 317.781 67.506 317.95 68.1984 318.288C68.9068 318.61 69.4382 319.117 69.7924 319.809C70.1466 320.502 70.3237 321.403 70.3237 322.514V330.943H68.2225V322.659C68.2225 321.613 67.989 320.832 67.5221 320.317C67.0552 319.801 66.3226 319.544 65.3243 319.544C64.3582 319.544 63.6014 319.729 63.054 320.099C62.5066 320.453 62.1121 320.985 61.8705 321.693C61.6451 322.386 61.5324 323.239 61.5324 324.253V330.943H59.4071V312.588H61.5324V317.974Z" fill="#003E5C"/>
<path d="M622.202 319.871C622.202 321.272 622.097 322.52 621.888 323.615C621.679 324.71 621.34 325.643 620.874 326.416C620.423 327.173 619.827 327.753 619.086 328.155C618.362 328.558 617.484 328.759 616.454 328.759C615.166 328.759 614.095 328.405 613.242 327.696C612.404 326.988 611.776 325.974 611.358 324.653C610.955 323.317 610.754 321.723 610.754 319.871C610.754 318.003 610.939 316.409 611.309 315.089C611.696 313.769 612.308 312.762 613.145 312.07C613.982 311.362 615.085 311.007 616.454 311.007C617.742 311.007 618.813 311.362 619.666 312.07C620.519 312.762 621.155 313.769 621.574 315.089C621.993 316.409 622.202 318.003 622.202 319.871ZM612.879 319.871C612.879 321.449 612.992 322.761 613.217 323.808C613.459 324.855 613.837 325.643 614.352 326.175C614.884 326.69 615.584 326.948 616.454 326.948C617.323 326.948 618.016 326.69 618.531 326.175C619.062 325.66 619.449 324.879 619.69 323.832C619.932 322.769 620.052 321.449 620.052 319.871C620.052 318.293 619.932 316.989 619.69 315.959C619.449 314.912 619.062 314.131 618.531 313.616C618.016 313.084 617.323 312.819 616.454 312.819C615.584 312.819 614.884 313.084 614.352 313.616C613.837 314.131 613.459 314.912 613.217 315.959C612.992 316.989 612.879 318.293 612.879 319.871ZM627.57 315.548C627.57 315.854 627.554 316.168 627.522 316.49C627.506 316.812 627.481 317.102 627.449 317.359H627.594C627.868 316.909 628.214 316.538 628.633 316.248C629.051 315.959 629.518 315.741 630.034 315.596C630.549 315.435 631.08 315.355 631.628 315.355C632.674 315.355 633.544 315.524 634.236 315.862C634.944 316.184 635.476 316.691 635.83 317.384C636.184 318.076 636.361 318.978 636.361 320.089V328.518H634.26V320.233C634.26 319.187 634.027 318.406 633.56 317.891C633.093 317.375 632.36 317.118 631.362 317.118C630.396 317.118 629.639 317.303 629.092 317.673C628.544 318.028 628.15 318.559 627.908 319.267C627.683 319.96 627.57 320.813 627.57 321.827V328.518H625.445V310.162H627.57V315.548Z" fill="#003E5C"/>
<path d="M175.05 323.577C175.05 322.579 175.114 321.597 175.243 320.63C175.388 319.664 175.63 318.755 175.968 317.901C176.306 317.032 176.773 316.267 177.368 315.607C177.964 314.931 178.713 314.407 179.615 314.037C180.532 313.651 181.643 313.457 182.948 313.457C183.286 313.457 183.656 313.473 184.059 313.506C184.477 313.538 184.815 313.594 185.073 313.675V315.486C184.783 315.39 184.453 315.317 184.083 315.269C183.728 315.22 183.366 315.196 182.996 315.196C181.885 315.196 180.959 315.381 180.218 315.752C179.478 316.122 178.89 316.629 178.455 317.273C178.037 317.917 177.731 318.658 177.538 319.495C177.344 320.333 177.224 321.226 177.175 322.176H177.32C177.562 321.79 177.868 321.444 178.238 321.138C178.608 320.832 179.051 320.59 179.566 320.413C180.098 320.236 180.709 320.147 181.402 320.147C182.4 320.147 183.27 320.357 184.01 320.775C184.767 321.178 185.355 321.774 185.773 322.563C186.192 323.335 186.401 324.277 186.401 325.388C186.401 326.58 186.176 327.61 185.725 328.48C185.274 329.349 184.638 330.018 183.817 330.484C183.012 330.951 182.046 331.185 180.919 331.185C180.098 331.185 179.333 331.032 178.624 330.726C177.916 330.42 177.288 329.953 176.741 329.325C176.209 328.697 175.791 327.908 175.485 326.958C175.195 325.992 175.05 324.865 175.05 323.577ZM180.895 329.398C181.909 329.398 182.73 329.076 183.358 328.432C183.986 327.771 184.3 326.757 184.3 325.388C184.3 324.294 184.018 323.424 183.455 322.78C182.907 322.136 182.078 321.814 180.967 321.814C180.21 321.814 179.55 321.975 178.987 322.297C178.423 322.603 177.98 322.997 177.658 323.48C177.352 323.963 177.199 324.463 177.199 324.978C177.199 325.509 177.272 326.032 177.417 326.548C177.578 327.063 177.811 327.538 178.117 327.973C178.439 328.407 178.826 328.754 179.276 329.011C179.743 329.269 180.283 329.398 180.895 329.398ZM191.721 317.974C191.721 318.28 191.705 318.594 191.673 318.916C191.657 319.238 191.633 319.528 191.6 319.785H191.745C192.019 319.334 192.365 318.964 192.784 318.674C193.202 318.384 193.669 318.167 194.185 318.022C194.7 317.861 195.231 317.781 195.779 317.781C196.825 317.781 197.695 317.95 198.387 318.288C199.096 318.61 199.627 319.117 199.981 319.809C200.335 320.502 200.512 321.403 200.512 322.514V330.943H198.411V322.659C198.411 321.613 198.178 320.832 197.711 320.317C197.244 319.801 196.511 319.544 195.513 319.544C194.547 319.544 193.79 319.729 193.243 320.099C192.695 320.453 192.301 320.985 192.059 321.693C191.834 322.386 191.721 323.239 191.721 324.253V330.943H189.596V312.588H191.721V317.974Z" fill="#003E5C"/>
<path d="M316.894 330.943H314.817V318.892C314.817 318.425 314.817 318.03 314.817 317.708C314.833 317.386 314.849 317.088 314.865 316.814C314.881 316.525 314.897 316.227 314.914 315.921C314.656 316.178 314.422 316.396 314.213 316.573C314.004 316.75 313.738 316.975 313.416 317.249L311.581 318.747L310.47 317.322L315.131 313.699H316.894V330.943ZM334.7 330.943H323.301V329.18L327.817 324.616C328.687 323.746 329.419 322.973 330.015 322.297C330.611 321.621 331.062 320.961 331.367 320.317C331.673 319.656 331.826 318.94 331.826 318.167C331.826 317.217 331.545 316.5 330.981 316.017C330.417 315.518 329.685 315.269 328.783 315.269C327.946 315.269 327.205 315.414 326.561 315.703C325.933 315.993 325.289 316.396 324.629 316.911L323.494 315.486C323.945 315.1 324.436 314.754 324.967 314.448C325.515 314.142 326.102 313.9 326.73 313.723C327.374 313.546 328.059 313.457 328.783 313.457C329.862 313.457 330.788 313.643 331.561 314.013C332.334 314.383 332.929 314.915 333.348 315.607C333.783 316.283 334 317.096 334 318.046C334 318.722 333.895 319.367 333.686 319.978C333.477 320.574 333.179 321.162 332.792 321.741C332.406 322.321 331.939 322.909 331.392 323.505C330.844 324.1 330.24 324.72 329.58 325.364L325.982 328.915V329.011H334.7V330.943ZM340.141 317.974C340.141 318.28 340.125 318.594 340.093 318.916C340.077 319.238 340.052 319.528 340.02 319.785H340.165C340.439 319.334 340.785 318.964 341.204 318.674C341.622 318.384 342.089 318.167 342.605 318.022C343.12 317.861 343.651 317.781 344.199 317.781C345.245 317.781 346.115 317.95 346.807 318.288C347.515 318.61 348.047 319.117 348.401 319.809C348.755 320.502 348.932 321.403 348.932 322.514V330.943H346.831V322.659C346.831 321.613 346.598 320.832 346.131 320.317C345.664 319.801 344.931 319.544 343.933 319.544C342.967 319.544 342.21 319.729 341.663 320.099C341.115 320.453 340.721 320.985 340.479 321.693C340.254 322.386 340.141 323.239 340.141 324.253V330.943H338.016V312.588H340.141V317.974Z" fill="#003E5C"/>
<path d="M469.724 330.943H467.647V318.892C467.647 318.425 467.647 318.03 467.647 317.708C467.663 317.386 467.679 317.088 467.696 316.814C467.712 316.525 467.728 316.227 467.744 315.921C467.486 316.178 467.253 316.396 467.043 316.573C466.834 316.75 466.569 316.975 466.246 317.249L464.411 318.747L463.3 317.322L467.961 313.699H469.724V330.943ZM481.855 313.457C482.869 313.457 483.763 313.618 484.536 313.94C485.309 314.246 485.913 314.705 486.347 315.317C486.798 315.929 487.024 316.686 487.024 317.587C487.024 318.28 486.871 318.883 486.565 319.399C486.275 319.914 485.88 320.373 485.381 320.775C484.882 321.162 484.335 321.508 483.739 321.814C484.447 322.152 485.091 322.538 485.671 322.973C486.251 323.392 486.71 323.883 487.048 324.446C487.402 325.01 487.579 325.686 487.579 326.475C487.579 327.441 487.346 328.279 486.879 328.987C486.412 329.679 485.752 330.219 484.898 330.605C484.061 330.992 483.071 331.185 481.928 331.185C480.688 331.185 479.633 331 478.764 330.629C477.91 330.259 477.258 329.736 476.807 329.06C476.373 328.367 476.155 327.53 476.155 326.548C476.155 325.759 476.316 325.074 476.638 324.495C476.976 323.915 477.419 323.416 477.967 322.997C478.514 322.579 479.102 322.225 479.73 321.935C479.166 321.613 478.651 321.25 478.184 320.848C477.733 320.429 477.371 319.954 477.097 319.423C476.839 318.892 476.711 318.272 476.711 317.563C476.711 316.678 476.936 315.937 477.387 315.341C477.838 314.729 478.45 314.262 479.222 313.94C479.995 313.618 480.873 313.457 481.855 313.457ZM478.232 326.572C478.232 327.409 478.53 328.11 479.126 328.673C479.722 329.221 480.639 329.494 481.879 329.494C482.668 329.494 483.328 329.365 483.86 329.108C484.391 328.85 484.794 328.496 485.067 328.045C485.357 327.594 485.502 327.079 485.502 326.499C485.502 325.936 485.349 325.445 485.043 325.026C484.753 324.591 484.335 324.205 483.787 323.867C483.256 323.529 482.62 323.223 481.879 322.949L481.493 322.804C480.784 323.11 480.189 323.44 479.706 323.794C479.222 324.149 478.852 324.551 478.595 325.002C478.353 325.453 478.232 325.976 478.232 326.572ZM481.831 315.172C480.945 315.172 480.213 315.39 479.633 315.824C479.07 316.243 478.788 316.855 478.788 317.66C478.788 318.256 478.925 318.755 479.198 319.157C479.488 319.56 479.875 319.906 480.358 320.196C480.841 320.469 481.372 320.735 481.952 320.993C482.515 320.751 483.014 320.486 483.449 320.196C483.9 319.906 484.254 319.56 484.512 319.157C484.785 318.739 484.922 318.239 484.922 317.66C484.922 316.855 484.641 316.243 484.077 315.824C483.513 315.39 482.765 315.172 481.831 315.172ZM492.971 317.974C492.971 318.28 492.955 318.594 492.923 318.916C492.907 319.238 492.883 319.528 492.851 319.785H492.996C493.269 319.334 493.615 318.964 494.034 318.674C494.453 318.384 494.92 318.167 495.435 318.022C495.95 317.861 496.481 317.781 497.029 317.781C498.075 317.781 498.945 317.95 499.637 318.288C500.346 318.61 500.877 319.117 501.231 319.809C501.586 320.502 501.763 321.403 501.763 322.514V330.943H499.661V322.659C499.661 321.613 499.428 320.832 498.961 320.317C498.494 319.801 497.761 319.544 496.763 319.544C495.797 319.544 495.04 319.729 494.493 320.099C493.945 320.453 493.551 320.985 493.309 321.693C493.084 322.386 492.971 323.239 492.971 324.253V330.943H490.846V312.588H492.971V317.974Z" fill="#003E5C"/>
<path d="M83.3801 235.404C68.5014 255.458 57.2668 290.344 26 292.5H635.5C627.953 276.867 582.612 144.838 558.852 144.838C513.569 144.838 559.935 243.491 426.237 243.491C371.251 243.491 399.553 68.0189 363.165 68.8275C326.776 69.6361 322.815 243.371 282.5 243.371C248.374 243.371 295.815 112.374 237.217 112.374C207.287 112.374 211.143 226.509 172.329 226.509C149.315 226.509 156.156 144.838 133.515 144.838C110.233 144.838 101.979 210.337 83.3801 235.404Z" fill="url(#paint0_linear_1602_8303)"/>
<circle cx="243.914" cy="112.873" r="5.66038" fill="#EF7D00"/>
<circle cx="362.356" cy="69.6335" r="5.66038" fill="#EF7D00"/>
<circle cx="554" cy="146.452" r="5.66038" fill="#EF7D00"/>
<circle cx="131.897" cy="145.644" r="5.66038" fill="#EF7D00"/>
<path d="M34.054 266.94C65.3208 264.784 69.31 255.458 84.1887 235.404C102.787 210.337 111.041 144.838 134.324 144.838C156.965 144.838 150.124 226.509 173.138 226.509C211.952 226.509 206.28 112.493 236.21 112.493C296 112.493 248.874 243.491 283 243.491C320 243.491 327.585 69.6361 363.973 68.8275C400.361 68.0189 372.059 243.491 427.046 243.491C560.743 243.491 514.377 144.838 559.66 144.838C583.421 144.838 616.953 251.367 624.5 267" stroke="url(#paint1_linear_1602_8303)" stroke-width="2.41519"/>
<path d="M489.069 6.35373C488.432 6.35373 487.857 6.46483 487.345 6.68703C486.843 6.89957 486.417 7.20871 486.07 7.61446C485.722 8.01056 485.456 8.48876 485.273 9.04909C485.089 9.59975 484.997 10.2132 484.997 10.8895C484.997 11.8169 485.142 12.6284 485.432 13.324C485.722 14.0099 486.157 14.5412 486.736 14.918C487.326 15.2948 488.055 15.4832 488.924 15.4832C489.427 15.4832 489.891 15.4445 490.316 15.3672C490.741 15.29 491.132 15.1933 491.489 15.0774V15.802C491.142 15.9372 490.75 16.0435 490.316 16.1208C489.891 16.1981 489.393 16.2367 488.823 16.2367C487.789 16.2367 486.92 16.0145 486.215 15.5701C485.519 15.1257 484.992 14.5026 484.635 13.7008C484.287 12.8989 484.113 11.9618 484.113 10.8895C484.113 10.1263 484.224 9.42103 484.447 8.77376C484.669 8.12649 484.992 7.56616 485.418 7.09278C485.843 6.6194 486.359 6.25229 486.968 5.99145C487.586 5.73061 488.292 5.60019 489.084 5.60019C489.577 5.60019 490.05 5.6485 490.504 5.7451C490.968 5.84171 491.398 5.98179 491.794 6.16535L491.46 6.9044C491.093 6.72084 490.707 6.58559 490.301 6.49864C489.905 6.40204 489.494 6.35373 489.069 6.35373ZM496.432 8.23758C497.098 8.23758 497.649 8.39216 498.084 8.7013C498.528 9.00079 498.861 9.4162 499.083 9.94754C499.315 10.4789 499.431 11.0923 499.431 11.7879V12.3386H493.925C493.925 13.3723 494.161 14.1596 494.635 14.7006C495.118 15.2416 495.799 15.5122 496.678 15.5122C497.161 15.5122 497.581 15.4735 497.939 15.3962C498.296 15.3189 498.687 15.1837 499.112 14.9905V15.744C498.726 15.9179 498.344 16.0435 497.968 16.1208C497.591 16.1981 497.151 16.2367 496.649 16.2367C495.886 16.2367 495.234 16.0773 494.693 15.7585C494.161 15.4397 493.755 14.9856 493.475 14.3963C493.205 13.7974 493.07 13.1018 493.07 12.3096C493.07 11.5174 493.2 10.817 493.461 10.2084C493.722 9.59975 494.103 9.12155 494.606 8.77376C495.108 8.41631 495.717 8.23758 496.432 8.23758ZM496.432 8.93316C495.717 8.93316 495.142 9.16985 494.707 9.64323C494.272 10.1069 494.016 10.7784 493.939 11.6575H498.576C498.576 11.1165 498.499 10.6431 498.344 10.2374C498.19 9.83161 497.953 9.51281 497.634 9.28095C497.325 9.04909 496.924 8.93316 496.432 8.93316ZM506.354 14.0485C506.354 14.5123 506.239 14.9084 506.007 15.2368C505.775 15.5653 505.437 15.8165 504.992 15.9904C504.548 16.1546 504.007 16.2367 503.369 16.2367C502.838 16.2367 502.365 16.1884 501.949 16.0918C501.534 15.9952 501.181 15.8793 500.891 15.744V14.947C501.239 15.1209 501.63 15.2658 502.065 15.3817C502.5 15.488 502.939 15.5411 503.384 15.5411C504.157 15.5411 504.712 15.4155 505.05 15.1644C505.388 14.9035 505.557 14.5509 505.557 14.1065C505.557 13.8167 505.475 13.58 505.311 13.3964C505.157 13.2032 504.92 13.0342 504.601 12.8892C504.292 12.7347 503.905 12.5801 503.442 12.4255C502.968 12.2613 502.548 12.0971 502.181 11.9328C501.814 11.7589 501.529 11.5416 501.326 11.2807C501.123 11.0199 501.022 10.6624 501.022 10.2084C501.022 9.59009 501.273 9.10705 501.775 8.75927C502.278 8.41148 502.949 8.23758 503.79 8.23758C504.253 8.23758 504.683 8.28106 505.079 8.368C505.485 8.45495 505.852 8.57088 506.181 8.71579L505.891 9.39688C505.698 9.30993 505.48 9.23264 505.239 9.16502C504.997 9.08773 504.751 9.02977 504.5 8.99113C504.248 8.95248 503.997 8.93316 503.746 8.93316C503.137 8.93316 502.664 9.03943 502.326 9.25197C501.988 9.4645 501.819 9.77365 501.819 10.1794C501.819 10.4885 501.896 10.7349 502.051 10.9185C502.215 11.0923 502.452 11.2421 502.761 11.3677C503.079 11.4933 503.461 11.6382 503.905 11.8024C504.36 11.957 504.77 12.1212 505.137 12.2951C505.514 12.469 505.809 12.6912 506.021 12.9617C506.243 13.2322 506.354 13.5945 506.354 14.0485ZM517.752 8.13615C517.752 8.5902 517.661 8.99113 517.477 9.33891C517.293 9.6867 517.037 9.97169 516.709 10.1939C516.39 10.4161 516.013 10.5707 515.579 10.6576V10.6866C516.4 10.7929 517.018 11.0585 517.434 11.4836C517.859 11.9087 518.071 12.4883 518.071 13.2225C518.071 13.8022 517.931 14.3239 517.651 14.7876C517.38 15.2416 516.965 15.5991 516.405 15.8599C515.854 16.1111 515.158 16.2367 514.318 16.2367C513.767 16.2367 513.25 16.1884 512.767 16.0918C512.284 15.9855 511.845 15.8358 511.449 15.6426V14.86C511.845 15.0533 512.299 15.2127 512.811 15.3383C513.323 15.4638 513.83 15.5266 514.332 15.5266C515.318 15.5266 516.042 15.3189 516.506 14.9035C516.979 14.4881 517.216 13.923 517.216 13.2081C517.216 12.696 517.091 12.2855 516.839 11.9763C516.588 11.6672 516.231 11.445 515.767 11.3097C515.303 11.1648 514.757 11.0923 514.13 11.0923H513.028V10.3678H514.144C514.685 10.3678 515.163 10.2857 515.579 10.1214C515.994 9.9572 516.318 9.71085 516.55 9.38239C516.791 9.05392 516.912 8.653 516.912 8.17962C516.912 7.56133 516.714 7.09761 516.318 6.78847C515.931 6.46966 515.405 6.31026 514.738 6.31026C514.381 6.31026 514.043 6.3489 513.724 6.42619C513.405 6.49381 513.101 6.60008 512.811 6.74499C512.531 6.88025 512.246 7.04931 511.956 7.25219L511.536 6.67254C511.806 6.46 512.101 6.27645 512.42 6.12187C512.748 5.95764 513.106 5.83205 513.492 5.7451C513.878 5.6485 514.294 5.60019 514.738 5.60019C515.695 5.60019 516.434 5.83205 516.955 6.29577C517.487 6.74982 517.752 7.36328 517.752 8.13615ZM526.868 16.2367C525.834 16.2367 525.037 15.9082 524.477 15.2513C523.926 14.5847 523.651 13.609 523.651 12.3241C523.651 10.9909 523.941 9.97652 524.521 9.28095C525.11 8.58537 525.916 8.23758 526.941 8.23758C527.375 8.23758 527.752 8.30521 528.071 8.44046C528.39 8.56605 528.66 8.73994 528.882 8.96214C529.114 9.18434 529.293 9.43552 529.419 9.71568H529.476C529.467 9.48382 529.452 9.23264 529.433 8.96214C529.423 8.68198 529.419 8.4308 529.419 8.2086V5.07851H530.245V16.0918H529.578L529.462 14.7441H529.419C529.283 15.0146 529.105 15.2658 528.882 15.4977C528.66 15.7199 528.385 15.8986 528.056 16.0338C527.728 16.1691 527.332 16.2367 526.868 16.2367ZM526.97 15.5266C527.868 15.5266 528.501 15.2561 528.868 14.7151C529.245 14.1741 529.433 13.3916 529.433 12.3676V12.2371C529.433 11.1745 529.245 10.363 528.868 9.80263C528.501 9.23264 527.887 8.94765 527.027 8.94765C526.197 8.94765 525.569 9.24231 525.144 9.83161C524.719 10.4113 524.506 11.2469 524.506 12.3386C524.506 13.3819 524.709 14.1741 525.115 14.7151C525.52 15.2561 526.139 15.5266 526.97 15.5266ZM535.688 8.23758C536.354 8.23758 536.905 8.39216 537.34 8.7013C537.784 9.00079 538.118 9.4162 538.34 9.94754C538.572 10.4789 538.688 11.0923 538.688 11.7879V12.3386H533.181C533.181 13.3723 533.418 14.1596 533.891 14.7006C534.374 15.2416 535.055 15.5122 535.934 15.5122C536.417 15.5122 536.838 15.4735 537.195 15.3962C537.552 15.3189 537.944 15.1837 538.369 14.9905V15.744C537.982 15.9179 537.601 16.0435 537.224 16.1208C536.847 16.1981 536.408 16.2367 535.905 16.2367C535.142 16.2367 534.49 16.0773 533.949 15.7585C533.418 15.4397 533.012 14.9856 532.732 14.3963C532.461 13.7974 532.326 13.1018 532.326 12.3096C532.326 11.5174 532.456 10.817 532.717 10.2084C532.978 9.59975 533.36 9.12155 533.862 8.77376C534.364 8.41631 534.973 8.23758 535.688 8.23758ZM535.688 8.93316C534.973 8.93316 534.398 9.16985 533.963 9.64323C533.529 10.1069 533.273 10.7784 533.195 11.6575H537.833C537.833 11.1165 537.755 10.6431 537.601 10.2374C537.446 9.83161 537.209 9.51281 536.891 9.28095C536.581 9.04909 536.181 8.93316 535.688 8.93316ZM543.93 8.25208C544.123 8.25208 544.307 8.26657 544.48 8.29555C544.664 8.31487 544.828 8.34385 544.973 8.3825L544.857 9.13604C544.703 9.09739 544.548 9.06841 544.394 9.04909C544.239 9.02011 544.07 9.00562 543.886 9.00562C543.539 9.00562 543.225 9.07324 542.944 9.20849C542.664 9.34374 542.423 9.53696 542.22 9.78814C542.017 10.0393 541.862 10.3388 541.756 10.6866C541.65 11.0344 541.597 11.4256 541.597 11.8604V16.0918H540.771V8.3825H541.466L541.553 9.83161H541.597C541.722 9.53213 541.891 9.26646 542.104 9.0346C542.326 8.79308 542.592 8.60469 542.901 8.46944C543.21 8.32453 543.553 8.25208 543.93 8.25208ZM549.923 8.23758C550.802 8.23758 551.473 8.46461 551.937 8.91867C552.401 9.37273 552.633 10.0876 552.633 11.0634V16.0918H551.821V11.1068C551.821 10.363 551.652 9.81712 551.314 9.46933C550.976 9.12155 550.478 8.94765 549.821 8.94765C548.981 8.94765 548.348 9.194 547.923 9.6867C547.498 10.1794 547.285 10.9136 547.285 11.8894V16.0918H546.474V8.3825H547.126L547.256 9.71568H547.3C547.445 9.43552 547.638 9.18434 547.879 8.96214C548.121 8.73994 548.411 8.56605 548.749 8.44046C549.097 8.30521 549.488 8.23758 549.923 8.23758ZM555.904 8.3825V16.0918H555.092V8.3825H555.904ZM555.498 5.52774C555.681 5.52774 555.821 5.5857 555.918 5.70163C556.015 5.8079 556.063 5.95764 556.063 6.15086C556.063 6.35373 556.015 6.51314 555.918 6.62906C555.821 6.73533 555.681 6.78847 555.498 6.78847C555.324 6.78847 555.189 6.73533 555.092 6.62906C554.996 6.51314 554.947 6.35373 554.947 6.15086C554.947 5.95764 554.996 5.8079 555.092 5.70163C555.189 5.5857 555.324 5.52774 555.498 5.52774ZM561.373 8.23758C562.039 8.23758 562.59 8.39216 563.025 8.7013C563.469 9.00079 563.803 9.4162 564.025 9.94754C564.257 10.4789 564.373 11.0923 564.373 11.7879V12.3386H558.866C558.866 13.3723 559.103 14.1596 559.576 14.7006C560.059 15.2416 560.74 15.5122 561.619 15.5122C562.102 15.5122 562.523 15.4735 562.88 15.3962C563.237 15.3189 563.629 15.1837 564.054 14.9905V15.744C563.667 15.9179 563.286 16.0435 562.909 16.1208C562.532 16.1981 562.093 16.2367 561.59 16.2367C560.827 16.2367 560.175 16.0773 559.634 15.7585C559.103 15.4397 558.697 14.9856 558.417 14.3963C558.146 13.7974 558.011 13.1018 558.011 12.3096C558.011 11.5174 558.141 10.817 558.402 10.2084C558.663 9.59975 559.045 9.12155 559.547 8.77376C560.049 8.41631 560.658 8.23758 561.373 8.23758ZM561.373 8.93316C560.658 8.93316 560.083 9.16985 559.648 9.64323C559.214 10.1069 558.958 10.7784 558.88 11.6575H563.518C563.518 11.1165 563.44 10.6431 563.286 10.2374C563.131 9.83161 562.894 9.51281 562.576 9.28095C562.267 9.04909 561.866 8.93316 561.373 8.93316ZM560.634 4.99156C560.759 5.19444 560.919 5.43596 561.112 5.71612C561.315 5.98662 561.523 6.25229 561.735 6.51314C561.957 6.77398 562.16 6.99617 562.344 7.17973V7.31015H561.764C561.59 7.15558 561.402 6.98651 561.199 6.80296C560.996 6.60974 560.798 6.4117 560.605 6.20882C560.412 6.00594 560.233 5.81273 560.069 5.62917C559.904 5.43596 559.769 5.26206 559.663 5.10749V4.99156H560.634ZM569.615 8.25208C569.808 8.25208 569.992 8.26657 570.166 8.29555C570.349 8.31487 570.513 8.34385 570.658 8.3825L570.542 9.13604C570.388 9.09739 570.233 9.06841 570.079 9.04909C569.924 9.02011 569.755 9.00562 569.571 9.00562C569.224 9.00562 568.91 9.07324 568.629 9.20849C568.349 9.34374 568.108 9.53696 567.905 9.78814C567.702 10.0393 567.547 10.3388 567.441 10.6866C567.335 11.0344 567.282 11.4256 567.282 11.8604V16.0918H566.456V8.3825H567.151L567.238 9.83161H567.282C567.407 9.53213 567.576 9.26646 567.789 9.0346C568.011 8.79308 568.277 8.60469 568.586 8.46944C568.895 8.32453 569.238 8.25208 569.615 8.25208ZM574.789 8.23758C575.455 8.23758 576.006 8.39216 576.441 8.7013C576.885 9.00079 577.218 9.4162 577.44 9.94754C577.672 10.4789 577.788 11.0923 577.788 11.7879V12.3386H572.282C572.282 13.3723 572.518 14.1596 572.992 14.7006C573.475 15.2416 574.156 15.5122 575.035 15.5122C575.518 15.5122 575.938 15.4735 576.296 15.3962C576.653 15.3189 577.044 15.1837 577.469 14.9905V15.744C577.083 15.9179 576.701 16.0435 576.325 16.1208C575.948 16.1981 575.508 16.2367 575.006 16.2367C574.243 16.2367 573.591 16.0773 573.05 15.7585C572.518 15.4397 572.113 14.9856 571.832 14.3963C571.562 13.7974 571.427 13.1018 571.427 12.3096C571.427 11.5174 571.557 10.817 571.818 10.2084C572.079 9.59975 572.46 9.12155 572.963 8.77376C573.465 8.41631 574.074 8.23758 574.789 8.23758ZM574.789 8.93316C574.074 8.93316 573.499 9.16985 573.064 9.64323C572.629 10.1069 572.373 10.7784 572.296 11.6575H576.933C576.933 11.1165 576.856 10.6431 576.701 10.2374C576.547 9.83161 576.31 9.51281 575.991 9.28095C575.682 9.04909 575.281 8.93316 574.789 8.93316ZM584.711 14.0485C584.711 14.5123 584.596 14.9084 584.364 15.2368C584.132 15.5653 583.794 15.8165 583.349 15.9904C582.905 16.1546 582.364 16.2367 581.726 16.2367C581.195 16.2367 580.722 16.1884 580.306 16.0918C579.891 15.9952 579.538 15.8793 579.248 15.744V14.947C579.596 15.1209 579.987 15.2658 580.422 15.3817C580.857 15.488 581.296 15.5411 581.741 15.5411C582.514 15.5411 583.069 15.4155 583.407 15.1644C583.745 14.9035 583.914 14.5509 583.914 14.1065C583.914 13.8167 583.832 13.58 583.668 13.3964C583.514 13.2032 583.277 13.0342 582.958 12.8892C582.649 12.7347 582.262 12.5801 581.799 12.4255C581.325 12.2613 580.905 12.0971 580.538 11.9328C580.171 11.7589 579.886 11.5416 579.683 11.2807C579.48 11.0199 579.379 10.6624 579.379 10.2084C579.379 9.59009 579.63 9.10705 580.132 8.75927C580.635 8.41148 581.306 8.23758 582.147 8.23758C582.61 8.23758 583.04 8.28106 583.436 8.368C583.842 8.45495 584.209 8.57088 584.538 8.71579L584.248 9.39688C584.055 9.30993 583.837 9.23264 583.596 9.16502C583.354 9.08773 583.108 9.02977 582.857 8.99113C582.605 8.95248 582.354 8.93316 582.103 8.93316C581.494 8.93316 581.021 9.03943 580.683 9.25197C580.345 9.4645 580.176 9.77365 580.176 10.1794C580.176 10.4885 580.253 10.7349 580.408 10.9185C580.572 11.0923 580.809 11.2421 581.118 11.3677C581.436 11.4933 581.818 11.6382 582.262 11.8024C582.717 11.957 583.127 12.1212 583.494 12.2951C583.871 12.469 584.166 12.6912 584.378 12.9617C584.6 13.2322 584.711 13.5945 584.711 14.0485ZM593.139 8.25208C594.008 8.25208 594.655 8.46461 595.08 8.88969C595.506 9.31476 595.718 9.99102 595.718 10.9185V16.0918H595.095L594.95 14.7876H594.907C594.723 15.0774 594.51 15.3334 594.269 15.5556C594.037 15.7682 593.752 15.9372 593.414 16.0628C593.086 16.1787 592.68 16.2367 592.197 16.2367C591.714 16.2367 591.293 16.1546 590.936 15.9904C590.579 15.8165 590.303 15.5701 590.11 15.2513C589.917 14.9325 589.82 14.5412 589.82 14.0775C589.82 13.3143 590.134 12.7347 590.762 12.3386C591.39 11.9328 592.303 11.701 593.501 11.643L594.907 11.585V11.0344C594.907 10.2712 594.752 9.735 594.443 9.42586C594.143 9.10705 593.694 8.94765 593.095 8.94765C592.699 8.94765 592.317 9.00079 591.95 9.10705C591.593 9.20366 591.231 9.34374 590.864 9.5273L590.603 8.8752C590.96 8.69164 591.356 8.5419 591.791 8.42597C592.226 8.31004 592.675 8.25208 593.139 8.25208ZM593.588 12.2516C592.612 12.2999 591.883 12.4738 591.4 12.7733C590.917 13.0631 590.675 13.5027 590.675 14.092C590.675 14.5654 590.825 14.9277 591.124 15.1789C591.424 15.4204 591.83 15.5411 592.342 15.5411C593.163 15.5411 593.791 15.3141 594.225 14.86C594.67 14.406 594.897 13.7684 594.907 12.9472V12.1937L593.588 12.2516ZM601.632 8.23758C602.512 8.23758 603.183 8.46461 603.647 8.91867C604.11 9.37273 604.342 10.0876 604.342 11.0634V16.0918H603.531V11.1068C603.531 10.363 603.362 9.81712 603.024 9.46933C602.685 9.12155 602.188 8.94765 601.531 8.94765C600.69 8.94765 600.058 9.194 599.633 9.6867C599.208 10.1794 598.995 10.9136 598.995 11.8894V16.0918H598.184V8.3825H598.836L598.966 9.71568H599.01C599.154 9.43552 599.348 9.18434 599.589 8.96214C599.831 8.73994 600.121 8.56605 600.459 8.44046C600.806 8.30521 601.198 8.23758 601.632 8.23758ZM610.251 8.23758C611.13 8.23758 611.801 8.46461 612.265 8.91867C612.729 9.37273 612.961 10.0876 612.961 11.0634V16.0918H612.149V11.1068C612.149 10.363 611.98 9.81712 611.642 9.46933C611.304 9.12155 610.806 8.94765 610.149 8.94765C609.309 8.94765 608.676 9.194 608.251 9.6867C607.826 10.1794 607.613 10.9136 607.613 11.8894V16.0918H606.802V8.3825H607.454L607.584 9.71568H607.628C607.773 9.43552 607.966 9.18434 608.207 8.96214C608.449 8.73994 608.739 8.56605 609.077 8.44046C609.425 8.30521 609.816 8.23758 610.251 8.23758ZM618.333 8.23758C618.999 8.23758 619.55 8.39216 619.985 8.7013C620.429 9.00079 620.762 9.4162 620.985 9.94754C621.217 10.4789 621.332 11.0923 621.332 11.7879V12.3386H615.826C615.826 13.3723 616.063 14.1596 616.536 14.7006C617.019 15.2416 617.7 15.5122 618.579 15.5122C619.062 15.5122 619.482 15.4735 619.84 15.3962C620.197 15.3189 620.589 15.1837 621.014 14.9905V15.744C620.627 15.9179 620.246 16.0435 619.869 16.1208C619.492 16.1981 619.053 16.2367 618.55 16.2367C617.787 16.2367 617.135 16.0773 616.594 15.7585C616.063 15.4397 615.657 14.9856 615.377 14.3963C615.106 13.7974 614.971 13.1018 614.971 12.3096C614.971 11.5174 615.101 10.817 615.362 10.2084C615.623 9.59975 616.005 9.12155 616.507 8.77376C617.009 8.41631 617.618 8.23758 618.333 8.23758ZM618.333 8.93316C617.618 8.93316 617.043 9.16985 616.608 9.64323C616.174 10.1069 615.918 10.7784 615.84 11.6575H620.477C620.477 11.1165 620.4 10.6431 620.246 10.2374C620.091 9.83161 619.854 9.51281 619.536 9.28095C619.226 9.04909 618.825 8.93316 618.333 8.93316ZM620.144 5.10749C620.038 5.26206 619.898 5.43596 619.724 5.62917C619.56 5.81273 619.381 6.00594 619.188 6.20882C618.995 6.4117 618.797 6.60974 618.594 6.80296C618.4 6.98651 618.212 7.15558 618.028 7.31015H617.463V7.17973C617.647 6.99617 617.845 6.77398 618.057 6.51314C618.27 6.25229 618.478 5.98662 618.681 5.71612C618.883 5.43596 619.043 5.19444 619.159 4.99156H620.144V5.10749ZM626.328 8.23758C626.995 8.23758 627.546 8.39216 627.98 8.7013C628.425 9.00079 628.758 9.4162 628.98 9.94754C629.212 10.4789 629.328 11.0923 629.328 11.7879V12.3386H623.821C623.821 13.3723 624.058 14.1596 624.532 14.7006C625.015 15.2416 625.696 15.5122 626.575 15.5122C627.058 15.5122 627.478 15.4735 627.836 15.3962C628.193 15.3189 628.584 15.1837 629.009 14.9905V15.744C628.623 15.9179 628.241 16.0435 627.864 16.1208C627.488 16.1981 627.048 16.2367 626.546 16.2367C625.783 16.2367 625.13 16.0773 624.589 15.7585C624.058 15.4397 623.652 14.9856 623.372 14.3963C623.102 13.7974 622.966 13.1018 622.966 12.3096C622.966 11.5174 623.097 10.817 623.358 10.2084C623.619 9.59975 624 9.12155 624.503 8.77376C625.005 8.41631 625.614 8.23758 626.328 8.23758ZM626.328 8.93316C625.614 8.93316 625.039 9.16985 624.604 9.64323C624.169 10.1069 623.913 10.7784 623.836 11.6575H628.473C628.473 11.1165 628.396 10.6431 628.241 10.2374C628.087 9.83161 627.85 9.51281 627.531 9.28095C627.222 9.04909 626.821 8.93316 626.328 8.93316ZM636.251 14.0485C636.251 14.5123 636.135 14.9084 635.904 15.2368C635.672 15.5653 635.334 15.8165 634.889 15.9904C634.445 16.1546 633.904 16.2367 633.266 16.2367C632.735 16.2367 632.261 16.1884 631.846 16.0918C631.431 15.9952 631.078 15.8793 630.788 15.744V14.947C631.136 15.1209 631.527 15.2658 631.962 15.3817C632.397 15.488 632.836 15.5411 633.281 15.5411C634.054 15.5411 634.609 15.4155 634.947 15.1644C635.285 14.9035 635.454 14.5509 635.454 14.1065C635.454 13.8167 635.372 13.58 635.208 13.3964C635.053 13.2032 634.817 13.0342 634.498 12.8892C634.189 12.7347 633.802 12.5801 633.339 12.4255C632.865 12.2613 632.445 12.0971 632.078 11.9328C631.711 11.7589 631.426 11.5416 631.223 11.2807C631.02 11.0199 630.919 10.6624 630.919 10.2084C630.919 9.59009 631.17 9.10705 631.672 8.75927C632.175 8.41148 632.846 8.23758 633.686 8.23758C634.15 8.23758 634.58 8.28106 634.976 8.368C635.382 8.45495 635.749 8.57088 636.077 8.71579L635.788 9.39688C635.594 9.30993 635.377 9.23264 635.136 9.16502C634.894 9.08773 634.648 9.02977 634.396 8.99113C634.145 8.95248 633.894 8.93316 633.643 8.93316C633.034 8.93316 632.561 9.03943 632.223 9.25197C631.885 9.4645 631.716 9.77365 631.716 10.1794C631.716 10.4885 631.793 10.7349 631.947 10.9185C632.112 11.0923 632.348 11.2421 632.658 11.3677C632.976 11.4933 633.358 11.6382 633.802 11.8024C634.256 11.957 634.667 12.1212 635.034 12.2951C635.411 12.469 635.706 12.6912 635.918 12.9617C636.14 13.2322 636.251 13.5945 636.251 14.0485Z" fill="#003E5C"/>
<line x1="35.6641" y1="182.848" x2="621.932" y2="182.848" stroke="#037CBF" stroke-width="3.22026" stroke-linecap="round"/>
<defs>
<linearGradient id="paint0_linear_1602_8303" x1="328.973" y1="68.8247" x2="328.973" y2="262.483" gradientUnits="userSpaceOnUse">
<stop offset="0.494792" stop-color="#EF7D00" stop-opacity="0.46"/>
<stop offset="0.739583" stop-color="#54C352" stop-opacity="0.31"/>
<stop offset="1" stop-color="#54C352" stop-opacity="0"/>
</linearGradient>
<linearGradient id="paint1_linear_1602_8303" x1="329.277" y1="68.8247" x2="329.277" y2="267" gradientUnits="userSpaceOnUse">
<stop offset="0.578025" stop-color="#EF7D00"/>
<stop offset="0.578125" stop-color="#54C352" stop-opacity="0.56"/>
</linearGradient>
</defs>
</svg>
