<svg width="704" height="761" viewBox="0 0 704 761" fill="none" xmlns="http://www.w3.org/2000/svg">
<path d="M129.976 326.523L118.473 319.873L129.976 316.547V326.523Z" fill="#003E5C"/>
<path opacity="0.6" d="M129.976 326.523L118.473 319.873L129.976 316.547V326.523Z" fill="#003E5C"/>
<path d="M72.3374 349.846V360.436L5.96606 322.03V311.44L72.3374 349.846Z" fill="#003E5C"/>
<path opacity="0.6" d="M72.3374 349.846V360.436L5.96606 322.03V311.44L72.3374 349.846Z" fill="#003E5C"/>
<path d="M0.214355 228.366L66.5708 266.772V353.155L0.214355 314.764V228.366Z" fill="#003E5C"/>
<path opacity="0.55" d="M0.214355 228.366L66.5708 266.772V353.155L0.214355 314.764V228.366Z" fill="#003458"/>
<path d="M66.5713 266.774L141.496 223.515V309.913L66.5713 353.157V266.774Z" fill="#003E5C"/>
<path opacity="0.45" d="M66.5713 266.774L141.496 223.515V309.913L66.5713 353.157V266.774Z" fill="#002A54"/>
<path d="M141.495 223.514L75.1387 185.108L0.214355 228.367L66.5708 266.773L141.495 223.514Z" fill="#003E5C"/>
<path opacity="0.3" d="M141.495 223.514L75.1387 185.108L0.214355 228.367L66.5708 266.773L141.495 223.514Z" fill="#003E5C"/>
<path d="M72.3376 270.096L135.743 233.488V253.425L72.3376 290.033V270.096Z" fill="#003E5C"/>
<path opacity="0.2" d="M72.3376 270.096L135.743 233.488V253.425L72.3376 290.033V270.096Z" fill="#003E5C"/>
<path opacity="0.2" d="M72.3376 296.671L135.743 260.062V306.587L72.3376 343.195V296.671Z" fill="#002A54"/>
<path d="M72.3376 360.435L78.0895 357.11V346.52L72.3376 349.845V360.435Z" fill="#003E5C"/>
<path opacity="0.55" d="M72.3376 360.435L78.0895 357.11V346.52L72.3376 349.845V360.435Z" fill="#003E5C"/>
<path d="M129.977 326.524L135.744 323.199V313.223L129.977 316.548V326.524Z" fill="#003E5C"/>
<path opacity="0.55" d="M129.977 326.524L135.744 323.199V313.223L129.977 316.548V326.524Z" fill="#003E5C"/>
<path d="M91.9749 262.953C91.9749 263.867 94.731 263.028 98.1162 261.066L108.871 254.865C112.256 252.902 114.997 250.581 114.997 249.652V247.989L91.9749 261.29V262.953Z" fill="#37474F"/>
<path opacity="0.2" d="M135.743 306.586L95.7197 283.174L72.3376 296.67V343.195L135.743 306.586Z" fill="#003E5C"/>
<path d="M48.9397 229.595C48.9443 229.187 48.9042 228.78 48.8198 228.381C47.8413 223.917 45.2082 219.988 41.4502 217.387H26.037C22.2714 219.981 19.636 223.912 18.6674 228.381C18.5756 228.779 18.5353 229.187 18.5475 229.595C18.5475 229.669 18.5475 229.804 18.5475 229.804C18.6823 231.931 20.1503 234.043 23.0412 235.661C26.3741 237.352 30.0587 238.233 33.796 238.233C37.5333 238.233 41.2179 237.352 44.5509 235.661C47.3669 234.043 48.8348 231.931 49.0445 229.804C48.9247 229.804 48.9397 229.654 48.9397 229.595Z" fill="#263238"/>
<path d="M26.426 217.148C22.3967 219.47 22.3967 223.244 26.426 225.581C28.6904 226.733 31.1951 227.334 33.7357 227.334C36.2764 227.334 38.7811 226.733 41.0454 225.581C45.0897 223.244 45.0897 219.47 41.0454 217.148C38.7811 215.996 36.2764 215.395 33.7357 215.395C31.1951 215.395 28.6904 215.996 26.426 217.148Z" fill="#37474F"/>
<path d="M35.8335 165.709H31.6394V219.723C31.6304 219.926 31.6827 220.128 31.7895 220.302C31.8963 220.475 32.0528 220.613 32.2386 220.696C32.7031 220.931 33.2162 221.053 33.7365 221.053C34.2568 221.053 34.7698 220.931 35.2344 220.696C35.4241 220.618 35.5843 220.482 35.6919 220.307C35.7995 220.132 35.8491 219.927 35.8335 219.723V165.709Z" fill="#455A64"/>
<path d="M63.7239 163.897L49.5988 127.947H17.8586L3.74846 163.897C1.72631 169.529 4.49741 175.625 12.0617 179.984C24.0448 186.889 43.4275 186.889 55.3806 179.984C62.9749 175.625 65.731 169.529 63.7239 163.897Z" fill="#003E5C"/>
<path d="M22.2477 136.515C25.8097 138.316 29.7451 139.254 33.7364 139.254C37.7278 139.254 41.6632 138.316 45.2252 136.515C51.5763 132.845 51.5763 126.914 45.2252 123.244C41.6632 121.443 37.7278 120.505 33.7364 120.505C29.7451 120.505 25.8097 121.443 22.2477 123.244C15.9116 126.854 15.9116 132.845 22.2477 136.515Z" fill="#003E5C"/>
<path opacity="0.6" d="M22.2477 136.515C25.8097 138.316 29.7451 139.254 33.7364 139.254C37.7278 139.254 41.6632 138.316 45.2252 136.515C51.5763 132.845 51.5763 126.914 45.2252 123.244C41.6632 121.443 37.7278 120.505 33.7364 120.505C29.7451 120.505 25.8097 121.443 22.2477 123.244C15.9116 126.854 15.9116 132.845 22.2477 136.515Z" fill="white"/>
<path d="M33.7365 136.951C30.2748 137.03 26.8506 136.22 23.7906 134.599C21.4688 133.266 20.1807 131.603 20.1807 129.881C20.1807 128.158 21.4688 126.511 23.7906 125.163C26.8506 123.542 30.2748 122.732 33.7365 122.811C37.203 122.734 40.6316 123.543 43.6975 125.163C46.0192 126.511 47.2924 128.158 47.2924 129.881C47.2924 131.603 46.0192 133.266 43.6975 134.599C40.6316 136.219 37.203 137.028 33.7365 136.951Z" fill="#003E5C"/>
<path d="M103.569 284.943L79.4975 271.042C78.2274 270.213 77.1707 269.096 76.4134 267.781C75.656 266.467 75.2193 264.993 75.1387 263.478V122.062C75.2194 120.546 75.656 119.069 76.4132 117.752C77.1705 116.436 78.2271 115.316 79.4975 114.483L275.721 1.16781C277.074 0.480997 278.57 0.123047 280.087 0.123047C281.604 0.123047 283.1 0.480997 284.453 1.16781L308.524 15.0682C309.787 15.8894 310.84 16.9942 311.599 18.2946C312.358 19.5949 312.803 21.0548 312.898 22.5576V163.973C312.803 165.476 312.358 166.936 311.599 168.236C310.84 169.537 309.787 170.641 308.524 171.463L112.301 284.793C110.96 285.503 109.47 285.887 107.953 285.913C106.435 285.939 104.933 285.606 103.569 284.943Z" fill="#455A64"/>
<path d="M312.959 22.6321V164.048C312.866 165.549 312.424 167.009 311.667 168.309C310.911 169.61 309.86 170.715 308.6 171.537L112.376 284.867C109.965 286.26 108.018 285.122 108.018 282.336V140.995C108.098 139.48 108.535 138.006 109.292 136.692C110.05 135.377 111.106 134.26 112.376 133.431L308.6 20.1007C310.996 18.7076 312.959 19.846 312.959 22.6321Z" fill="#263238"/>
<path d="M111.298 285.406C110.045 285.854 108.714 286.043 107.386 285.963C106.057 285.884 104.759 285.536 103.569 284.942L79.4975 271.041C78.2299 270.209 77.1751 269.092 76.4181 267.778C75.661 266.464 75.2228 264.991 75.1387 263.477V122.046C75.1885 120.528 75.6269 119.048 76.4119 117.748L109.216 136.696C108.429 137.996 107.99 139.476 107.942 140.995V282.41C107.942 284.792 109.38 285.96 111.298 285.406Z" fill="#37474F"/>
<path d="M458.388 423.512L438.152 411.829C437.475 411.482 436.725 411.301 435.965 411.301C435.204 411.301 434.455 411.482 433.778 411.829L413.541 423.512C412.918 423.922 412.404 424.477 412.043 425.13C411.969 425.265 411.924 425.415 411.864 425.549C411.589 426.09 411.43 426.682 411.399 427.287V460.121C411.439 460.843 411.641 461.547 411.991 462.18C412.342 462.813 412.831 463.358 413.422 463.775L413.571 463.91L433.808 475.594C433.895 475.632 433.985 475.662 434.077 475.684C434.317 475.808 434.568 475.908 434.826 475.983C435.209 476.076 435.602 476.116 435.995 476.103C436.755 476.121 437.507 475.946 438.182 475.594L458.418 463.91C459.051 463.492 459.577 462.932 459.955 462.274C460.332 461.615 460.549 460.878 460.59 460.121V427.287C460.546 426.529 460.324 425.792 459.941 425.136C459.558 424.48 459.026 423.924 458.388 423.512Z" fill="#455A64"/>
<path d="M438.152 475.594L458.388 463.911C459.021 463.493 459.548 462.932 459.925 462.274C460.302 461.616 460.52 460.878 460.56 460.121V427.287C460.56 425.894 459.572 425.34 458.373 426.029L438.137 437.713C437.501 438.126 436.972 438.683 436.592 439.339C436.212 439.994 435.992 440.73 435.95 441.487V474.366C435.965 475.714 436.983 476.283 438.152 475.594Z" fill="#37474F"/>
<path d="M630.6 324.083L610.364 312.4C609.686 312.056 608.937 311.877 608.177 311.877C607.417 311.877 606.668 312.056 605.99 312.4L585.753 324.083C585.126 324.494 584.611 325.055 584.256 325.716C584.187 325.847 584.127 325.982 584.076 326.121C583.805 326.661 583.651 327.254 583.626 327.858V360.692C583.666 361.414 583.868 362.118 584.218 362.751C584.569 363.384 585.058 363.93 585.649 364.347C585.7 364.396 585.755 364.441 585.813 364.481L606.035 376.165C606.122 376.203 606.212 376.234 606.305 376.255C606.541 376.385 606.792 376.486 607.053 376.554C607.436 376.644 607.828 376.69 608.222 376.689C608.983 376.703 609.736 376.522 610.409 376.165L630.645 364.481C631.279 364.063 631.807 363.503 632.187 362.845C632.566 362.187 632.787 361.45 632.832 360.692V327.858C632.785 327.097 632.558 326.359 632.17 325.702C631.782 325.046 631.244 324.491 630.6 324.083Z" fill="#455A64"/>
<path d="M610.364 376.163L630.6 364.479C631.234 364.061 631.762 363.501 632.142 362.843C632.521 362.185 632.742 361.448 632.787 360.689V327.856C632.787 326.463 631.799 325.908 630.6 326.597L610.364 338.281C609.726 338.695 609.196 339.255 608.816 339.914C608.436 340.572 608.217 341.311 608.177 342.071V374.889C608.177 376.282 609.15 376.852 610.364 376.163Z" fill="#37474F"/>
<path d="M304.211 126.721L116.675 234.988C114.131 236.649 112.013 238.885 110.493 241.516C108.974 244.146 108.095 247.098 107.928 250.132V258.43C108.083 261.477 108.957 264.443 110.477 267.088C111.997 269.733 114.121 271.981 116.675 273.649L427.217 452.946C429.929 454.32 432.926 455.036 435.965 455.036C439.005 455.036 442.001 454.32 444.713 452.946L632.233 344.664C634.782 343.008 636.903 340.773 638.423 338.141C639.943 335.509 640.82 332.555 640.981 329.52V321.222C640.815 318.188 639.937 315.235 638.417 312.604C636.897 309.973 634.779 307.737 632.233 306.078L321.646 126.721C318.943 125.355 315.957 124.643 312.929 124.643C309.9 124.643 306.914 125.355 304.211 126.721Z" fill="#455A64"/>
<path d="M640.981 321.162V329.46C640.816 332.493 639.94 335.444 638.423 338.075C636.906 340.706 634.79 342.943 632.248 344.604L444.712 452.871C442.02 454.295 439.01 455.012 435.965 454.953V426.434C439.01 426.492 442.02 425.775 444.712 424.351L632.248 316.084C636.742 313.463 637.041 309.359 633.132 306.558C635.434 308.264 637.331 310.458 638.688 312.983C640.045 315.507 640.828 318.3 640.981 321.162Z" fill="#263238"/>
<path d="M116.69 245.084C112.092 242.448 111.867 238.239 116.016 235.453C113.66 237.143 111.711 239.338 110.312 241.878C108.913 244.417 108.098 247.237 107.928 250.132V258.43C108.083 261.477 108.957 264.444 110.477 267.088C111.997 269.733 114.121 271.981 116.675 273.649L427.217 452.946C429.91 454.37 432.92 455.086 435.965 455.028V426.433C432.924 426.495 429.918 425.778 427.232 424.351L116.69 245.084Z" fill="#37474F"/>
<path d="M304.211 79.447L116.675 187.714C114.131 189.375 112.013 191.611 110.493 194.242C108.974 196.872 108.095 199.824 107.928 202.858V220.548C108.095 223.582 108.974 226.533 110.493 229.164C112.013 231.795 114.131 234.031 116.675 235.692L427.217 414.989C429.929 416.363 432.926 417.079 435.965 417.079C439.005 417.079 442.001 416.363 444.713 414.989L632.233 306.706C634.78 305.052 636.9 302.819 638.42 300.19C639.94 297.561 640.818 294.61 640.981 291.578V273.888C640.82 270.853 639.943 267.899 638.423 265.267C636.903 262.635 634.782 260.4 632.233 258.744L321.646 79.447C318.943 78.0806 315.957 77.3687 312.929 77.3687C309.9 77.3687 306.914 78.0806 304.211 79.447Z" fill="#003E5C"/>
<path opacity="0.8" d="M116.675 197.811L427.217 377.108C429.929 378.482 432.925 379.198 435.965 379.198C439.005 379.198 442.001 378.482 444.713 377.108L632.233 268.841C637.071 266.054 637.071 261.531 632.233 258.745L321.646 79.4476C318.938 78.0739 315.943 77.3579 312.906 77.3579C309.869 77.3579 306.875 78.0739 304.166 79.4476L116.63 187.715C111.852 190.501 111.852 195.025 116.675 197.811Z" fill="white"/>
<path opacity="0.05" d="M148.94 178.562L189.727 202.244C194.565 205.03 199.434 204.341 206.339 202.244C213.244 200.147 236.147 191.04 236.147 191.04C236.147 191.04 239.862 205.794 255.619 225.91C261.611 233.565 272.89 247.929 291.868 258.175L403.161 192.762L312.958 140.681L321.152 136.037C327.248 132.337 325.975 129.177 321.152 126.391L271.497 97.811L148.91 169.081C144.087 171.882 144.117 175.776 148.94 178.562Z" fill="#003E5C"/>
<path opacity="0.5" d="M640.981 273.888V291.623C640.816 294.656 639.94 297.607 638.423 300.238C636.906 302.869 634.79 305.106 632.248 306.767L444.712 415.034C442.02 416.458 439.01 417.175 435.965 417.116V379.19C439.009 379.253 442.019 378.542 444.712 377.123L632.248 268.841C636.742 266.219 637.041 262.13 633.132 259.314C635.43 261.017 637.325 263.207 638.682 265.726C640.039 268.245 640.823 271.032 640.981 273.888Z" fill="white"/>
<path opacity="0.6" d="M116.69 197.827C112.092 195.175 111.867 190.966 116.016 188.18C113.66 189.87 111.711 192.065 110.312 194.605C108.913 197.145 108.098 199.965 107.928 202.859V220.549C108.095 223.583 108.974 226.535 110.493 229.166C112.013 231.797 114.131 234.033 116.675 235.693L427.217 414.99C429.91 416.414 432.92 417.131 435.965 417.072V379.191C432.926 379.257 429.92 378.546 427.232 377.124L116.69 197.827Z" fill="white"/>
<path d="M327.638 117.509C327.638 112.266 319.789 103.489 310.112 97.9015L271.167 75.4332C265.76 72.3026 260.922 70.8496 257.686 71.0743C249.313 71.0743 215.835 87.2365 199.389 96.7182C182.942 106.2 147.082 129.073 141.495 138.764C139.668 141.939 204.407 188.913 212.27 187.25C229.901 183.566 261.701 168.422 278.043 158.461C304.72 142.194 319.819 128.653 325.136 122.871C327.638 120.085 327.638 118.617 327.638 117.509Z" fill="#F0F0F0"/>
<path d="M233.735 108.252C221.872 115.067 221.078 123.53 226.905 133.551C230.785 140.232 236.776 149.459 246.752 153.833C252.744 156.469 255.545 159.06 259.874 164.393C259.963 164.498 260.023 164.602 260.098 164.707C265.955 161.712 271.707 158.641 277.009 155.72L233.735 108.252Z" fill="#E0E0E0"/>
<path d="M158.257 160.708L197.202 183.176C206.893 188.763 214.727 189.048 214.727 183.805C214.727 178.563 206.893 169.785 197.202 164.198L158.257 141.73C148.58 136.142 140.731 135.858 140.731 141.1C140.731 146.343 148.58 155.121 158.257 160.708Z" fill="#E0E0E0"/>
<path d="M358.015 164.394L385.171 179.717L369.204 194.352L346.93 179.028L358.015 164.394Z" fill="#B16668"/>
<path d="M299.897 146.837C314.487 140.71 320.868 142.598 329.271 146.462C339.202 151.046 364.921 167.433 364.921 167.433C364.921 167.433 356.667 181.123 348.848 182.037C329.99 171.297 299.897 146.837 299.897 146.837Z" fill="#37474F"/>
<path d="M263.977 159.808C254.57 166.159 246.751 171.477 247.695 180.524C248.639 189.571 318.275 242.192 318.275 242.192L371.076 197.495C371.076 197.495 343.814 168.751 329.225 157.457C314.636 146.163 308.614 143.122 286.835 149.728C271.946 154.266 263.977 159.808 263.977 159.808Z" fill="#455A64"/>
<path d="M248.369 134.57C247.695 135.783 245.059 134.66 242.992 134.061C240.925 133.462 235.697 134.061 236.176 139.678C236.656 145.295 244.055 148.98 247.95 148.096C254.645 146.598 253.372 142.449 253.372 142.449L266.059 163.24C278.357 168.153 298.593 155.615 284.963 150.927L281.323 144.726C283.685 143.762 285.931 142.536 288.018 141.071C291.808 138 292.512 133.192 291.149 127.949C288.962 119.531 286.326 113.24 276.305 100.014C265.325 85.5142 247.096 95.9395 240.895 107.803C234.693 119.666 248.369 134.57 248.369 134.57Z" fill="#B16668"/>
<path d="M248.108 135.928C247.584 136.243 243.689 134.101 241.712 133.681C238.986 133.097 232.725 117.04 232.725 117.04C231.51 116.038 230.615 114.704 230.15 113.2C229.684 111.696 229.668 110.089 230.103 108.577C231.107 103.814 236.529 100.069 240.289 97.5524C247.075 93.0587 254.654 87.876 257.26 79.7874C257.47 79.1583 257.799 78.4094 258.458 78.2896C258.881 78.2892 259.288 78.4498 259.597 78.7389C261.494 80.4026 262.728 82.6948 263.072 85.1948C263.072 85.4345 263.207 85.7191 263.446 85.749C263.686 85.779 263.836 85.5843 263.956 85.4045C264.581 84.4258 265.018 83.3386 265.244 82.199C265.558 80.6263 268.539 84.1463 268.809 84.6556C269.603 86.2528 270.069 87.9936 270.177 89.7743C270.285 91.555 270.034 93.3393 269.438 95.0209C268.24 98.3762 265.229 100.743 262.473 102.84C256.618 106.862 250.4 110.327 243.899 113.19C241.832 114.044 242.506 116.186 244.438 121.848C246.176 126.866 249.831 134.865 248.108 135.928Z" fill="#B0B0B0"/>
<path d="M281.323 144.726C281.323 144.726 269.789 148.665 265.535 148.845C263.044 148.956 260.576 148.32 258.45 147.017C260.048 148.628 261.953 149.901 264.052 150.762C268.201 152.425 282.761 147.197 282.761 147.197L281.323 144.726Z" fill="#9A4A4D"/>
<path d="M265.73 121.239C265.966 121.991 265.943 122.802 265.664 123.54C265.385 124.278 264.866 124.9 264.191 125.308C263.515 125.716 262.722 125.885 261.939 125.788C261.156 125.691 260.429 125.334 259.873 124.774C261.11 125.011 262.391 124.781 263.468 124.13C264.545 123.469 265.348 122.443 265.73 121.239Z" fill="#263238"/>
<path d="M280.859 112.669C281.042 113.434 280.964 114.238 280.638 114.953C280.311 115.668 279.754 116.253 279.056 116.615C278.358 116.977 277.559 117.095 276.786 116.95C276.013 116.805 275.311 116.405 274.792 115.815C276.013 116.122 277.304 115.972 278.422 115.392C279.54 114.812 280.406 113.844 280.859 112.669Z" fill="#263238"/>
<path d="M259.079 116.177L255.994 120.446C255.425 120.016 255.045 119.383 254.934 118.679C254.822 117.975 254.987 117.256 255.394 116.671C255.598 116.389 255.857 116.151 256.156 115.973C256.454 115.794 256.786 115.678 257.131 115.632C257.475 115.585 257.826 115.61 258.161 115.704C258.496 115.797 258.809 115.958 259.079 116.177Z" fill="#263238"/>
<path d="M272.8 134.435L277.983 133.551C278.057 133.89 278.062 134.24 277.997 134.581C277.932 134.922 277.799 135.246 277.606 135.534C277.413 135.822 277.164 136.068 276.874 136.258C276.583 136.447 276.257 136.576 275.916 136.637C275.212 136.746 274.494 136.578 273.912 136.167C273.331 135.756 272.932 135.135 272.8 134.435Z" fill="#9A4A4D"/>
<path d="M278.073 107.668L272.8 106.994C272.828 106.649 272.925 106.314 273.087 106.008C273.248 105.702 273.47 105.432 273.739 105.215C274.008 104.998 274.319 104.838 274.652 104.744C274.985 104.651 275.333 104.627 275.676 104.672C276.383 104.77 277.026 105.135 277.472 105.692C277.918 106.249 278.133 106.957 278.073 107.668Z" fill="#263238"/>
<path d="M268.321 117.014L275.466 127.858L280.155 122.451L268.321 117.014Z" fill="#9A4A4D"/>
<path opacity="0.1" d="M335.127 244.949C330.238 242.059 325.612 238.746 321.302 235.048C317.872 231.917 314.621 227.723 316.044 223.304L296.662 234.493C300.062 241.683 308.165 245.967 315.071 249.907C318.805 252.034 322.565 254.096 326.35 256.093L330.634 258.37C352.024 269.304 374.342 278.456 396.541 287.579C399.252 288.687 402.188 289.825 405.034 289.151L335.127 244.949Z" fill="#003E5C"/>
<path d="M239.143 268.526V334.808L435.965 448.438V379.19C432.919 379.257 429.907 378.54 427.217 377.108L239.143 268.526Z" fill="#003E5C"/>
<path opacity="0.3" d="M239.143 268.526V334.808L435.965 448.438V379.19C432.919 379.257 429.907 378.54 427.217 377.108L239.143 268.526Z" fill="#003E5C"/>
<path d="M632.248 268.841C636.742 266.219 637.041 262.13 633.132 259.314C635.43 261.017 637.325 263.207 638.682 265.726C640.039 268.245 640.823 271.032 640.981 273.888V330.074L435.965 448.407V379.19C439.008 379.245 442.016 378.534 444.712 377.123L632.248 268.841Z" fill="#003E5C"/>
<path opacity="0.45" d="M632.248 268.841C636.742 266.219 637.041 262.13 633.132 259.314C635.43 261.017 637.325 263.207 638.682 265.726C640.039 268.245 640.823 271.032 640.981 273.888V330.074L435.965 448.407V379.19C439.008 379.245 442.016 378.534 444.712 377.123L632.248 268.841Z" fill="#003E5C"/>
<path d="M632.233 258.745L444.158 150.163L381.756 186.187C356.457 182.502 309.379 213.389 298.459 234.284L239.143 268.526L427.217 377.108C429.929 378.482 432.925 379.198 435.965 379.198C439.005 379.198 442.001 378.482 444.713 377.108L632.233 268.841C637.071 266.055 637.071 261.531 632.233 258.745Z" fill="#003E5C"/>
<path opacity="0.2" d="M632.233 258.745L444.158 150.163L381.756 186.187C356.457 182.502 309.379 213.389 298.459 234.284L239.143 268.526L427.217 377.108C429.929 378.482 432.925 379.198 435.965 379.198C439.005 379.198 442.001 378.482 444.713 377.108L632.233 268.841C637.071 266.055 637.071 261.531 632.233 258.745Z" fill="#003E5C"/>
<path opacity="0.1" d="M632.233 258.745L444.158 150.163L381.756 186.187C400.824 198.305 419.548 205.27 438.945 216.445C448.307 221.837 459.182 230.645 482.938 246.837C490.727 252.154 500.044 258.326 509.9 257.322C517.39 256.588 523.876 252.109 531.051 249.833C532.589 249.277 534.226 249.043 535.859 249.143C542.974 249.877 542.449 258.43 542.554 263.598C542.72 271.559 540.492 279.386 536.158 286.066C535.141 287.49 534.436 289.114 534.091 290.83C533.192 296.162 535.814 300.221 540.907 302.468C545.999 304.715 565.996 306.962 575.718 301.3L632.233 268.676C637.041 266.055 637.041 261.516 632.233 258.745Z" fill="#00184C"/>
<path opacity="0.1" d="M463.78 322.884C459.786 320.448 455.832 317.926 451.917 315.32C450.419 314.287 443.514 309.793 441.777 308.25C446.854 310.497 451.857 312.744 456.86 315.17C462.342 317.777 467.885 320.248 473.532 322.465C481.126 325.461 493.723 331.063 500.269 323.064C504.164 318.301 503.115 311.366 504.403 305.344C505.691 299.323 516.177 279.536 503.025 278.173C501.393 278.08 499.758 278.315 498.217 278.862C491.042 281.078 484.526 285.557 477.067 286.351C467.211 287.34 457.265 281.977 450.105 275.866C441.588 268.813 432.443 262.555 422.783 257.172C422.004 256.723 422.064 257.052 421.42 256.408C425.598 258.002 429.637 259.941 433.493 262.205C436.489 263.928 439.26 265.83 442.211 267.538C447.721 270.848 453.412 273.849 459.257 276.525C465.041 279.291 471.429 280.553 477.831 280.195C485.32 279.521 492.165 275.896 499.146 273.125C501.813 271.847 504.761 271.265 507.714 271.432C512.387 272.031 516.296 277.888 516.042 282.412C516.05 282.551 516.05 282.691 516.042 282.831C515.158 290.47 513.87 298.049 513.151 305.704C512.727 307.977 512.977 310.326 513.87 312.459C514.598 313.565 515.551 314.505 516.665 315.22C517.78 315.935 519.032 316.408 520.341 316.608C522.932 317.193 525.613 317.282 528.13 318.106C528.465 318.181 528.769 318.359 528.998 318.615C529.388 319.17 528.998 319.934 528.594 320.473C526.16 323.422 523.037 325.726 519.502 327.183C516.027 328.771 512.372 329.895 508.867 331.392C506.166 332.736 503.336 333.8 500.419 334.568C498.549 334.888 496.653 335.028 494.757 334.987C491.476 334.987 485.08 334.987 475.194 329.595C471.315 327.393 467.525 325.161 463.78 322.884Z" fill="#000943"/>
<path opacity="0.2" d="M271.946 287.475V353.876L276.065 356.123L276.05 289.826L271.946 287.475Z" fill="#003E5C"/>
<path opacity="0.1" d="M271.946 287.474L326.305 256.019C339.471 240.051 388.662 201.316 415.818 204.342L476.992 169.021L481.261 171.523L420.402 206.589C393.185 207.937 353.956 233.116 330.663 258.311L276.05 289.766L271.946 287.474Z" fill="#003E5C"/>
<path d="M375.046 272.764C373.083 272.03 370.552 270.847 368.395 269.948C364.923 268.754 361.612 267.134 358.539 265.125C361.46 265.125 362.823 266.279 366.927 265.365C368.377 265.074 369.668 264.258 370.552 263.073C370.704 262.888 370.802 262.666 370.837 262.429C370.926 261.47 369.638 261.081 368.68 260.931C364.755 260.467 361.475 258.355 357.73 257.306C352.173 255.808 344.758 256.542 340.564 254.835C336.37 253.127 301.619 226.615 301.619 226.615C291.8 216.605 282.822 205.804 274.777 194.32C264.621 179.626 260.068 173.874 252.758 171.732C245.269 176.9 245.583 180.45 246.033 186.846C246.482 193.242 251.695 201.285 255.14 206.947C260.038 214.991 264.547 220.174 273.04 231.198C277.523 236.938 282.661 242.136 288.348 246.686C296.556 253.307 329.031 269.829 329.031 269.829C329.031 269.829 349.656 287.489 364.231 286.56C368.32 286.29 371.181 285.511 374.222 282.546C377.068 279.76 378.82 274.202 375.046 272.764Z" fill="#B16668"/>
<path d="M250.991 170.04C243.502 175.012 241.809 184.569 245.584 194.904C249.358 205.24 269.835 230.644 269.835 230.644C269.835 230.644 286.806 226.6 291.794 213.688C291.794 213.688 275.047 189.542 269.82 182.547C263.753 174.428 255.739 167.823 250.991 170.04Z" fill="#37474F"/>
<path d="M377.712 175.506L363.781 184.089L368.125 187.325C362.463 193.151 352.907 203.607 350.6 204.895C346.645 207.097 341.283 204.745 335.951 206.977C332.371 208.475 329.45 210.572 325.63 211.471C324.686 211.71 323.443 212.249 323.668 213.193C323.748 213.466 323.904 213.71 324.117 213.897C325.099 214.877 326.391 215.486 327.772 215.62C332.056 216.054 333.254 214.706 336.205 214.376C333.395 216.741 330.307 218.753 327.008 220.368C324.926 221.536 322.604 223.004 320.747 223.978C317.182 225.865 319.833 229.67 323.203 231.602C326.428 233.521 330.151 234.439 333.898 234.238C344.833 233.594 356.472 222.825 361.609 217.492C363.576 215.437 365.75 213.59 368.095 211.98C375.18 207.157 389.964 196.761 393.02 192.073C397.049 185.887 385.546 179.371 377.712 175.506Z" fill="#B16668"/>
<path d="M350.6 204.895C351.338 204.488 352.168 204.274 353.012 204.274C353.855 204.274 354.685 204.488 355.423 204.895C358.586 206.81 361.173 209.542 362.913 212.804C364.006 215.231 362.913 216.264 362.913 216.264C365.047 215.396 366.873 213.909 368.155 211.995C368.155 210.375 367.63 208.798 366.657 207.502C364.825 204.73 362.334 202.455 359.408 200.881C358.233 200.379 356.939 200.223 355.678 200.432C353.818 201.718 352.114 203.216 350.6 204.895Z" fill="#37474F"/>
<path d="M360.471 202.768L357.775 205.135C357.579 205.303 357.42 205.509 357.306 205.741C357.193 205.973 357.128 206.226 357.116 206.484C357.103 206.741 357.143 206.999 357.233 207.241C357.323 207.483 357.462 207.704 357.64 207.891L360.756 211.261C361.123 211.649 361.624 211.884 362.158 211.917C362.692 211.951 363.219 211.78 363.632 211.441L366.223 209.269C366.423 209.103 366.587 208.899 366.706 208.669C366.825 208.438 366.896 208.186 366.916 207.928C366.935 207.669 366.903 207.409 366.82 207.164C366.737 206.918 366.605 206.691 366.433 206.498L363.272 202.933C362.921 202.541 362.43 202.304 361.906 202.273C361.381 202.243 360.865 202.42 360.471 202.768Z" fill="#263238"/>
<path d="M360.471 202.08L357.775 204.446C357.579 204.615 357.42 204.821 357.306 205.053C357.193 205.285 357.128 205.538 357.116 205.796C357.103 206.053 357.143 206.311 357.233 206.553C357.323 206.795 357.462 207.016 357.64 207.203L360.756 210.573C361.123 210.947 361.616 211.171 362.139 211.201C362.663 211.231 363.179 211.066 363.587 210.738L366.178 208.551C366.377 208.386 366.541 208.184 366.66 207.955C366.779 207.725 366.85 207.475 366.87 207.217C366.889 206.96 366.857 206.701 366.774 206.457C366.691 206.212 366.56 205.987 366.388 205.795L363.227 202.23C362.878 201.85 362.395 201.622 361.88 201.594C361.365 201.566 360.859 201.74 360.471 202.08Z" fill="#455A64"/>
<path d="M362.298 210.482C362.113 210.486 361.929 210.451 361.758 210.379C361.588 210.307 361.435 210.199 361.309 210.063L358.194 206.692C358.082 206.578 357.995 206.442 357.939 206.292C357.882 206.143 357.857 205.983 357.864 205.824C357.886 205.507 358.031 205.211 358.269 205L360.965 202.633C361.189 202.439 361.477 202.332 361.774 202.334C361.95 202.334 362.125 202.369 362.287 202.439C362.449 202.508 362.596 202.61 362.717 202.738L365.878 206.303C366.084 206.544 366.191 206.855 366.177 207.172C366.164 207.331 366.119 207.487 366.045 207.628C365.97 207.77 365.867 207.895 365.743 207.996L363.152 210.182C362.91 210.378 362.608 210.483 362.298 210.482Z" fill="#003E5C"/>
<path d="M288.742 128.251C288.962 127.916 288.87 127.466 288.535 127.245C288.2 127.024 287.749 127.117 287.528 127.452L288.742 128.251ZM287.092 136.83C287.271 137.189 287.708 137.335 288.066 137.155C288.425 136.976 288.571 136.539 288.391 136.18L287.092 136.83ZM287.528 127.452C285.554 130.447 285.581 133.809 287.092 136.83L288.391 136.18C287.085 133.567 287.085 130.765 288.742 128.251L287.528 127.452Z" fill="#9A4A4D"/>
<path d="M260.6 141.225C262.874 141.225 265.126 141.747 266.442 143.687C266.865 144.31 267.279 144.95 267.68 145.552" stroke="#9A4A4D" stroke-width="1.45319" stroke-linecap="round"/>
<ellipse cx="265.209" cy="125.845" rx="4.41858" ry="2.42284" transform="rotate(-35.7873 265.209 125.845)" fill="url(#paint0_linear_1724_1274)"/>
<ellipse rx="4.41859" ry="2.42284" transform="matrix(0.811194 -0.584777 0.584779 0.811193 279.894 117.453)" fill="url(#paint1_linear_1724_1274)"/>
<path d="M303.213 56.2607L652.951 249.291C655.268 250.57 656.706 253.007 656.706 255.653V361.502" stroke="#FFD600" stroke-width="3.63299"/>
<path d="M109.16 176.889L458.898 369.919C461.215 371.198 462.653 373.635 462.653 376.281V482.13" stroke="#FFD600" stroke-width="3.63299"/>
<circle cx="478.204" cy="295.478" r="42.964" stroke="#FFD600" stroke-width="2.1482" stroke-linecap="round" stroke-dasharray="12.89 12.89"/>
<circle cx="315.477" cy="168.197" r="13.4263" stroke="#FFD600" stroke-width="2.1482" stroke-linecap="round" stroke-dasharray="12.89 12.89"/>
<circle cx="297.219" cy="239.086" r="13.4263" stroke="#FFD600" stroke-width="2.1482" stroke-linecap="round" stroke-dasharray="12.89 12.89"/>
<circle cx="448.658" cy="137.79" r="13.4263" stroke="#FFD600" stroke-width="2.1482" stroke-linecap="round" stroke-dasharray="12.89 12.89"/>
<path d="M290.117 246.529C289.896 245.476 289.487 244.787 289.766 243.748C290.046 242.709 291.006 241.351 291.726 240.551L301.024 230.964C302.437 229.501 304.293 230.207 304.814 232.044C305.035 233.095 305.093 233.514 304.814 234.552C304.535 235.589 303.646 236.813 302.928 237.612L293.645 247.217C292.213 248.675 290.644 248.373 290.117 246.529Z" fill="#F28F8F"/>
<path d="M295.445 243.405L294.322 239.452C294.311 239.414 294.31 239.373 294.32 239.335C294.329 239.296 294.349 239.261 294.376 239.233L298.805 234.665C298.832 234.638 298.867 234.618 298.904 234.608C298.941 234.598 298.981 234.597 299.018 234.607C299.056 234.616 299.09 234.635 299.118 234.661C299.147 234.688 299.167 234.721 299.179 234.758L300.316 238.687C300.327 238.725 300.327 238.765 300.318 238.804C300.308 238.842 300.289 238.877 300.261 238.906L295.839 243.503C295.813 243.538 295.778 243.564 295.737 243.579C295.696 243.594 295.651 243.596 295.609 243.585C295.567 243.575 295.529 243.552 295.5 243.52C295.471 243.488 295.452 243.448 295.445 243.405Z" fill="#FFA8A7"/>
<path fill-rule="evenodd" clip-rule="evenodd" d="M312.347 163.511C314.025 156.884 328.634 158.351 319.697 176.242C299.735 175.037 305.769 161.651 312.347 163.511Z" fill="#FF5E5E"/>
<path d="M559.303 32.897C558.883 32.4775 558.203 32.4775 557.784 32.897L550.948 39.7325C550.529 40.152 550.529 40.8321 550.948 41.2515C551.368 41.671 552.048 41.671 552.467 41.2515L558.543 35.1755L564.619 41.2515C565.039 41.671 565.719 41.671 566.138 41.2515C566.558 40.8321 566.558 40.152 566.138 39.7325L559.303 32.897ZM556.861 39.8759C556.756 40.4597 557.144 41.0182 557.728 41.1234C558.312 41.2286 558.87 40.8406 558.975 40.2568L556.861 39.8759ZM555.264 52.8501C555.481 52.2982 555.21 51.6745 554.658 51.4572C554.106 51.2398 553.482 51.511 553.265 52.0629L555.264 52.8501ZM547.797 63.6304C547.512 64.1505 547.702 64.8034 548.222 65.0888C548.742 65.3741 549.395 65.1839 549.68 64.6638L547.797 63.6304ZM542.816 75.7408C543.153 75.2531 543.032 74.5839 542.544 74.2462C542.057 73.9085 541.387 74.03 541.05 74.5177L542.816 75.7408ZM533.242 84.6932C532.859 85.1458 532.915 85.8236 533.367 86.207C533.82 86.5905 534.498 86.5344 534.881 86.0818L533.242 84.6932ZM525.979 95.6059C526.405 95.193 526.416 94.513 526.003 94.087C525.59 93.6611 524.91 93.6504 524.484 94.0632L525.979 95.6059ZM514.836 102.497C514.369 102.864 514.288 103.539 514.654 104.005C515.021 104.472 515.696 104.553 516.163 104.187L514.836 102.497ZM505.467 111.659C505.972 111.348 506.129 110.687 505.818 110.182C505.507 109.677 504.845 109.519 504.34 109.831L505.467 111.659ZM493.058 115.86C492.518 116.106 492.279 116.742 492.525 117.282C492.771 117.822 493.408 118.061 493.948 117.815L493.058 115.86ZM481.721 122.417C482.29 122.247 482.612 121.648 482.442 121.08C482.272 120.512 481.673 120.189 481.105 120.359L481.721 122.417ZM468.646 123.131C468.059 123.217 467.653 123.763 467.739 124.349C467.825 124.936 468.371 125.342 468.958 125.256L468.646 123.131ZM455.906 126.19C456.499 126.192 456.982 125.712 456.983 125.119C456.985 124.526 456.505 124.043 455.912 124.042L455.906 126.19ZM557.469 33.6565C557.469 35.543 557.266 37.6272 556.861 39.8759L558.975 40.2568C559.399 37.907 559.618 35.6934 559.618 33.6565L557.469 33.6565ZM553.265 52.0629C551.804 55.7728 549.975 59.6619 547.797 63.6304L549.68 64.6638C551.898 60.6223 553.767 56.6511 555.264 52.8501L553.265 52.0629ZM541.05 74.5177C538.679 77.9403 536.072 81.3525 533.242 84.6932L534.881 86.0818C537.757 82.6873 540.406 79.2198 542.816 75.7408L541.05 74.5177ZM524.484 94.0632C521.448 97.0058 518.228 99.8336 514.836 102.497L516.163 104.187C519.616 101.475 522.892 98.5977 525.979 95.6059L524.484 94.0632ZM504.34 109.831C500.728 112.056 496.964 114.081 493.058 115.86L493.948 117.815C497.94 115.997 501.783 113.929 505.467 111.659L504.34 109.831ZM481.105 120.359C477.073 121.567 472.917 122.504 468.646 123.131L468.958 125.256C473.336 124.614 477.593 123.653 481.721 122.417L481.105 120.359ZM455.912 124.042C453.807 124.036 451.678 123.953 449.526 123.789L449.363 125.931C451.568 126.099 453.749 126.184 455.906 126.19L455.912 124.042Z" fill="#FFD600"/>
<path d="M664.91 168.102C665.405 167.777 666.071 167.914 666.397 168.41L671.709 176.487C672.035 176.982 671.897 177.648 671.402 177.974C670.906 178.3 670.24 178.163 669.914 177.667L665.193 170.487L658.013 175.209C657.518 175.535 656.852 175.397 656.526 174.902C656.2 174.406 656.337 173.74 656.833 173.414L664.91 168.102ZM665.216 175.607C665.094 176.187 664.524 176.558 663.943 176.435C663.363 176.312 662.992 175.742 663.115 175.162L665.216 175.607ZM660.38 187.752C660.509 187.173 661.083 186.809 661.662 186.938C662.241 187.067 662.606 187.642 662.476 188.22L660.38 187.752ZM659.577 200.791C659.44 201.368 658.86 201.724 658.283 201.587C657.706 201.449 657.35 200.87 657.488 200.293L659.577 200.791ZM654.401 212.757C654.549 212.182 655.134 211.837 655.709 211.985C656.283 212.133 656.629 212.719 656.481 213.293L654.401 212.757ZM653.104 225.808C652.942 226.379 652.348 226.711 651.778 226.549C651.207 226.388 650.875 225.794 651.037 225.223L653.104 225.808ZM647.348 237.559C647.527 236.994 648.131 236.681 648.696 236.86C649.262 237.039 649.575 237.642 649.396 238.208L647.348 237.559ZM645.26 250.442C645.058 251 644.442 251.288 643.884 251.086C643.327 250.884 643.038 250.268 643.24 249.71L645.26 250.442ZM638.549 261.675C638.781 261.129 639.412 260.876 639.958 261.108C640.504 261.341 640.757 261.972 640.525 262.517L638.549 261.675ZM635.002 274.274C634.729 274.801 634.08 275.005 633.554 274.732C633.028 274.458 632.823 273.809 633.097 273.283L635.002 274.274ZM626.636 284.301C626.964 283.807 627.631 283.674 628.125 284.002C628.619 284.331 628.753 284.998 628.424 285.491L626.636 284.301ZM620.45 295.802C620.052 296.242 619.372 296.274 618.933 295.876C618.494 295.477 618.461 294.798 618.86 294.359L620.45 295.802ZM609.506 302.888C609.982 302.535 610.655 302.635 611.008 303.112C611.362 303.588 611.262 304.261 610.785 304.614L609.506 302.888ZM599.46 311.211C598.917 311.451 598.283 311.206 598.043 310.663C597.803 310.121 598.049 309.486 598.591 309.246L599.46 311.211ZM586.543 313.118C587.123 312.993 587.694 313.362 587.818 313.942C587.943 314.522 587.574 315.093 586.994 315.218L586.543 313.118ZM574.061 316.883C573.468 316.914 572.963 316.459 572.932 315.867C572.901 315.274 573.356 314.769 573.948 314.738L574.061 316.883ZM561.183 314.634C561.775 314.671 562.226 315.181 562.189 315.773C562.152 316.365 561.643 316.815 561.051 316.779L561.183 314.634ZM548.142 315.429C547.554 315.345 547.146 314.801 547.23 314.214C547.314 313.626 547.858 313.218 548.445 313.302L548.142 315.429ZM535.78 311.106C536.362 311.223 536.738 311.789 536.622 312.371C536.505 312.953 535.939 313.329 535.357 313.213L535.78 311.106ZM666.552 169.217C666.106 171.374 665.661 173.504 665.216 175.607L663.115 175.162C663.559 173.063 664.003 170.936 664.448 168.783L666.552 169.217ZM662.476 188.22C661.513 192.535 660.547 196.724 659.577 200.791L657.488 200.293C658.455 196.237 659.418 192.057 660.38 187.752L662.476 188.22ZM656.481 213.293C655.366 217.618 654.242 221.789 653.104 225.808L651.037 225.223C652.17 221.221 653.29 217.067 654.401 212.757L656.481 213.293ZM649.396 238.208C648.044 242.48 646.667 246.556 645.26 250.442L643.24 249.71C644.636 245.855 646.004 241.806 647.348 237.559L649.396 238.208ZM640.525 262.517C638.743 266.699 636.906 270.616 635.002 274.274L633.097 273.283C634.971 269.679 636.785 265.813 638.549 261.675L640.525 262.517ZM628.424 285.491C625.893 289.295 623.242 292.727 620.45 295.802L618.86 294.359C621.571 291.371 624.157 288.025 626.636 284.301L628.424 285.491ZM610.785 304.614C607.226 307.252 603.461 309.443 599.46 311.211L598.591 309.246C602.446 307.542 606.074 305.432 609.506 302.888L610.785 304.614ZM586.994 315.218C582.902 316.097 578.598 316.645 574.061 316.883L573.948 314.738C578.384 314.505 582.574 313.971 586.543 313.118L586.994 315.218ZM561.051 316.779C556.926 316.523 552.628 316.069 548.142 315.429L548.445 313.302C552.882 313.936 557.124 314.383 561.183 314.634L561.051 316.779ZM535.357 313.213C533.274 312.794 531.154 312.343 528.996 311.86L529.465 309.764C531.609 310.243 533.713 310.691 535.78 311.106L535.357 313.213Z" fill="#FFD600"/>
<path d="M259.152 409.084L187.907 450.222C186.647 450.791 185.27 451.058 183.888 451C182.506 450.942 181.157 450.561 179.948 449.889L131.528 421.962C120.164 415.389 118.929 405.464 128.767 399.782L171.731 374.97C181.581 369.277 198.777 369.997 210.152 376.56L258.562 404.486C260.935 405.851 261.236 407.913 259.152 409.084Z" fill="#E0E0E0"/>
<path d="M254.362 397.591C254.294 397.076 254.094 396.589 253.781 396.174C253.469 395.76 253.055 395.434 252.579 395.228L208.541 369.793C198.186 363.821 182.548 363.176 173.59 368.343L134.492 390.899C130.421 393.219 128.434 396.441 128.445 399.664C128.445 400.899 128.445 405.732 128.445 406.935C128.445 410.909 131.313 415.088 136.973 418.353L181.012 443.788C182.113 444.401 183.342 444.747 184.601 444.799C185.86 444.851 187.114 444.608 188.262 444.088L253.073 406.667C253.432 406.504 253.739 406.245 253.96 405.919C254.182 405.593 254.31 405.213 254.33 404.819C254.34 404.035 254.362 398.267 254.362 397.591Z" fill="#FFD600"/>
<path opacity="0.2" d="M185.276 437.558V444.83C183.802 444.87 182.342 444.522 181.044 443.82L137.006 418.396C131.346 415.174 128.413 410.878 128.478 406.968C128.478 405.754 128.478 400.932 128.478 399.696C128.478 403.66 131.378 407.827 137.071 411.092L181.109 436.527C182.388 437.218 183.822 437.573 185.276 437.558Z" fill="#003E5C"/>
<path d="M253.105 399.405L188.294 436.826C187.146 437.349 185.892 437.593 184.633 437.541C183.373 437.489 182.144 437.141 181.043 436.526L137.005 411.102C126.662 405.13 125.545 396.064 134.503 390.919L173.6 368.363C182.558 363.197 198.197 363.841 208.551 369.813L252.589 395.248C254.727 396.44 254.963 398.341 253.105 399.405Z" fill="#FFD600"/>
<g opacity="0.3">
<path opacity="0.3" d="M253.105 399.406L188.294 436.827C187.146 437.35 185.892 437.594 184.633 437.542C183.373 437.49 182.144 437.142 181.043 436.527L137.005 411.103C126.662 405.131 125.545 396.065 134.503 390.92L173.6 368.364C182.558 363.198 198.197 363.842 208.551 369.814L252.589 395.249C254.727 396.441 254.963 398.342 253.105 399.406Z" fill="white"/>
</g>
<path d="M202.998 372.435L244.179 396.216C244.441 396.304 244.668 396.473 244.829 396.697C244.99 396.922 245.077 397.191 245.077 397.467C245.077 397.743 244.99 398.013 244.829 398.237C244.668 398.461 244.441 398.63 244.179 398.718L187.123 431.683C186.456 432.016 185.721 432.19 184.975 432.19C184.229 432.19 183.494 432.016 182.827 431.683L141.571 407.902C134.288 403.692 134.288 396.871 141.571 392.671C142.238 392.339 142.973 392.166 143.719 392.166C144.464 392.166 145.2 392.339 145.867 392.671L155.437 398.203C156.105 398.535 156.84 398.708 157.586 398.708C158.331 398.708 159.066 398.535 159.734 398.203L186.103 382.972C186.364 382.884 186.592 382.715 186.753 382.491C186.914 382.266 187 381.997 187 381.721C187 381.445 186.914 381.175 186.753 380.951C186.592 380.726 186.364 380.558 186.103 380.469L176.619 374.959C176.357 374.871 176.13 374.702 175.969 374.478C175.808 374.253 175.721 373.984 175.721 373.708C175.721 373.432 175.808 373.163 175.969 372.938C176.13 372.714 176.357 372.545 176.619 372.457C183.901 368.235 195.716 368.235 202.998 372.435Z" fill="#37474F"/>
<path d="M183.321 382.049L158.208 396.539C151.764 392.822 152.161 386.56 159.1 382.575C166.038 378.591 176.865 378.322 183.321 382.049Z" fill="#FAFAFA"/>
<path d="M164.309 386.774C164.202 386.731 164.111 386.657 164.046 386.561C163.982 386.465 163.948 386.353 163.948 386.237C163.948 386.122 163.982 386.01 164.046 385.914C164.111 385.818 164.202 385.744 164.309 385.7L164.438 385.625C164.733 385.472 165.061 385.392 165.394 385.392C165.726 385.392 166.054 385.472 166.349 385.625L171.784 388.762L169.744 389.932L164.309 386.774Z" fill="#FFD600"/>
<path d="M626.754 560.002C627.174 559.583 627.854 559.583 628.273 560.002L635.109 566.838C635.528 567.257 635.528 567.937 635.109 568.357C634.689 568.776 634.009 568.776 633.59 568.357L627.514 562.281L621.438 568.357C621.018 568.776 620.338 568.776 619.919 568.357C619.499 567.937 619.499 567.257 619.919 566.838L626.754 560.002ZM627.981 567.572C627.873 568.156 627.313 568.541 626.73 568.433C626.146 568.326 625.761 567.765 625.869 567.182L627.981 567.572ZM621.177 578.758C621.506 578.265 622.173 578.132 622.666 578.462C623.16 578.791 623.293 579.458 622.963 579.951L621.177 578.758ZM613.714 589.535C613.24 589.892 612.566 589.796 612.21 589.322C611.854 588.847 611.949 588.174 612.424 587.818L613.714 589.535ZM601.312 594.251C601.853 594.008 602.488 594.249 602.732 594.79C602.975 595.331 602.733 595.967 602.192 596.21L601.312 594.251ZM589.718 600.71C589.148 600.874 588.553 600.544 588.389 599.974C588.226 599.404 588.555 598.809 589.125 598.645L589.718 600.71ZM576.492 601.577C577.075 601.469 577.635 601.855 577.743 602.439C577.85 603.022 577.464 603.582 576.881 603.689L576.492 601.577ZM563.89 605.583C563.301 605.649 562.769 605.224 562.704 604.634C562.638 604.045 563.063 603.514 563.653 603.448L563.89 605.583ZM550.691 604.517C551.283 604.484 551.79 604.937 551.823 605.529C551.856 606.122 551.403 606.629 550.811 606.662L550.691 604.517ZM537.661 607.097C537.067 607.104 536.581 606.629 536.574 606.035C536.567 605.442 537.042 604.956 537.635 604.949L537.661 607.097ZM524.505 604.854C525.098 604.869 525.567 605.361 525.552 605.954C525.537 606.547 525.044 607.016 524.451 607.001L524.505 604.854ZM511.388 606.464C510.796 606.431 510.343 605.924 510.376 605.331C510.409 604.739 510.916 604.286 511.509 604.319L511.388 606.464ZM498.516 603.406C499.107 603.456 499.546 603.975 499.497 604.566C499.447 605.157 498.928 605.597 498.337 605.547L498.516 603.406ZM485.225 604.286C484.636 604.223 484.209 603.693 484.273 603.103C484.337 602.513 484.867 602.087 485.457 602.151L485.225 604.286ZM472.499 600.603C473.087 600.679 473.502 601.218 473.425 601.807C473.349 602.395 472.81 602.81 472.221 602.733L472.499 600.603ZM459.262 600.908C458.675 600.82 458.272 600.273 458.36 599.686C458.449 599.1 458.996 598.696 459.582 598.784L459.262 600.908ZM446.62 596.702C447.205 596.802 447.598 597.357 447.499 597.941C447.399 598.526 446.844 598.92 446.26 598.82L446.62 596.702ZM433.404 596.516C432.821 596.406 432.437 595.844 432.547 595.261C432.657 594.678 433.218 594.295 433.801 594.404L433.404 596.516ZM420.964 591.876C421.545 591.995 421.919 592.563 421.8 593.144C421.68 593.725 421.113 594.1 420.531 593.98L420.964 591.876ZM407.704 591.234C407.124 591.105 406.759 590.532 406.888 589.953C407.017 589.374 407.591 589.009 408.17 589.137L407.704 591.234ZM395.446 586.203C396.023 586.34 396.379 586.92 396.242 587.497C396.104 588.074 395.524 588.43 394.947 588.292L395.446 586.203ZM382.203 585.145C381.628 584.998 381.281 584.414 381.428 583.839C381.574 583.264 382.159 582.917 382.734 583.064L382.203 585.145ZM370.105 579.741C370.677 579.896 371.015 580.486 370.86 581.059C370.705 581.631 370.115 581.97 369.542 581.814L370.105 579.741ZM356.913 578.288C356.342 578.124 356.013 577.529 356.177 576.959C356.341 576.389 356.936 576.059 357.506 576.223L356.913 578.288ZM344.972 572.52C345.54 572.692 345.86 573.292 345.688 573.859C345.515 574.427 344.915 574.747 344.348 574.575L344.972 572.52ZM331.828 570.668C331.263 570.487 330.951 569.882 331.133 569.317C331.314 568.752 331.918 568.441 332.483 568.622L331.828 570.668ZM320.087 564.542C320.649 564.732 320.951 565.341 320.761 565.904C320.571 566.466 319.962 566.767 319.4 566.577L320.087 564.542ZM306.989 562.273C306.43 562.074 306.138 561.46 306.337 560.901C306.536 560.342 307.15 560.05 307.709 560.249L306.989 562.273ZM295.445 555.769C296.001 555.978 296.282 556.597 296.074 557.152C295.866 557.708 295.247 557.989 294.691 557.781L295.445 555.769ZM282.451 553.07C281.9 552.852 281.629 552.228 281.847 551.676C282.065 551.124 282.689 550.854 283.241 551.072L282.451 553.07ZM271.113 546.149C271.661 546.378 271.919 547.007 271.691 547.554C271.463 548.102 270.834 548.361 270.287 548.132L271.113 546.149ZM258.298 542.995C257.755 542.756 257.509 542.122 257.748 541.579C257.987 541.037 258.621 540.79 259.164 541.029L258.298 542.995ZM247.197 535.605C247.735 535.855 247.967 536.495 247.716 537.032C247.465 537.57 246.826 537.802 246.288 537.551L247.197 535.605ZM234.477 531.87C233.945 531.607 233.728 530.962 233.992 530.431C234.255 529.899 234.9 529.682 235.431 529.946L234.477 531.87ZM223.857 524.019C224.381 524.296 224.581 524.946 224.304 525.471C224.027 525.995 223.377 526.195 222.852 525.918L223.857 524.019ZM211.277 519.576C210.761 519.283 210.58 518.627 210.873 518.111C211.166 517.596 211.822 517.415 212.338 517.708L211.277 519.576ZM201.099 511.076C201.604 511.387 201.763 512.048 201.452 512.553C201.142 513.059 200.481 513.217 199.975 512.907L201.099 511.076ZM188.992 505.871C188.499 505.541 188.367 504.874 188.697 504.381C189.027 503.888 189.694 503.756 190.187 504.086L188.992 505.871ZM179.487 496.557C179.963 496.91 180.063 497.582 179.71 498.059C179.357 498.536 178.684 498.636 178.208 498.282L179.487 496.557ZM167.828 490.124C167.373 489.743 167.312 489.066 167.693 488.611C168.073 488.156 168.751 488.096 169.206 488.476L167.828 490.124ZM159.522 479.773C159.947 480.186 159.957 480.866 159.544 481.292C159.131 481.717 158.451 481.727 158.025 481.314L159.522 479.773ZM149.004 471.699C148.621 471.246 148.677 470.569 149.13 470.185C149.583 469.802 150.26 469.858 150.644 470.311L149.004 471.699ZM142.927 459.939C143.247 460.438 143.101 461.102 142.602 461.422C142.102 461.742 141.438 461.596 141.118 461.097L142.927 459.939ZM628.588 560.762C628.588 563.125 628.383 565.395 627.981 567.572L625.869 567.182C626.246 565.14 626.44 563.001 626.44 560.762L628.588 560.762ZM622.963 579.951C620.571 583.534 617.46 586.721 613.714 589.535L612.424 587.818C616.003 585.129 618.937 582.112 621.177 578.758L622.963 579.951ZM602.192 596.21C598.382 597.923 594.212 599.42 589.718 600.71L589.125 598.645C593.536 597.379 597.608 595.916 601.312 594.251L602.192 596.21ZM576.881 603.689C572.745 604.451 568.409 605.08 563.89 605.583L563.653 603.448C568.126 602.95 572.411 602.328 576.492 601.577L576.881 603.689ZM550.811 606.662C546.553 606.9 542.165 607.044 537.661 607.097L537.635 604.949C542.111 604.896 546.466 604.753 550.691 604.517L550.811 606.662ZM524.451 607.001C520.181 606.894 515.824 606.714 511.388 606.464L511.509 604.319C515.923 604.568 520.258 604.747 524.505 604.854L524.451 607.001ZM498.337 605.547C494.026 605.186 489.653 604.766 485.225 604.286L485.457 602.151C489.868 602.628 494.223 603.047 498.516 603.406L498.337 605.547ZM472.221 602.733C467.942 602.175 463.62 601.566 459.262 600.908L459.582 598.784C463.927 599.44 468.235 600.046 472.499 600.603L472.221 602.733ZM446.26 598.82C442.001 598.095 437.713 597.327 433.404 596.516L433.801 594.404C438.099 595.213 442.374 595.98 446.62 596.702L446.26 598.82ZM420.531 593.98C416.27 593.104 411.993 592.188 407.704 591.234L408.17 589.137C412.448 590.089 416.714 591.002 420.964 591.876L420.531 593.98ZM394.947 588.292C390.704 587.279 386.454 586.229 382.203 585.145L382.734 583.064C386.974 584.145 391.213 585.192 395.446 586.203L394.947 588.292ZM369.542 581.814C365.327 580.671 361.115 579.496 356.913 578.288L357.506 576.223C361.698 577.428 365.899 578.601 370.105 579.741L369.542 581.814ZM344.348 574.575C340.159 573.303 335.984 572 331.828 570.668L332.483 568.622C336.629 569.951 340.794 571.25 344.972 572.52L344.348 574.575ZM319.4 566.577C315.237 565.171 311.098 563.736 306.989 562.273L307.709 560.249C311.807 561.708 315.935 563.14 320.087 564.542L319.4 566.577ZM294.691 557.781C290.574 556.237 286.492 554.666 282.451 553.07L283.241 551.072C287.27 552.664 291.34 554.23 295.445 555.769L294.691 557.781ZM270.287 548.132C266.24 546.445 262.242 544.732 258.298 542.995L259.164 541.029C263.095 542.761 267.08 544.468 271.113 546.149L270.287 548.132ZM246.288 537.551C242.283 535.682 238.344 533.788 234.477 531.87L235.431 529.946C239.283 531.855 243.207 533.742 247.197 535.605L246.288 537.551ZM222.852 525.918C218.902 523.828 215.041 521.713 211.277 519.576L212.338 517.708C216.082 519.834 219.924 521.939 223.857 524.019L222.852 525.918ZM199.975 512.907C196.192 510.585 192.528 508.239 188.992 505.871L190.187 504.086C193.698 506.437 197.338 508.768 201.099 511.076L199.975 512.907ZM178.208 498.282C174.57 495.586 171.105 492.866 167.828 490.124L169.206 488.476C172.449 491.189 175.88 493.883 179.487 496.557L178.208 498.282ZM158.025 481.314C154.749 478.132 151.735 474.925 149.004 471.699L150.644 470.311C153.325 473.479 156.291 476.634 159.522 479.773L158.025 481.314ZM141.118 461.097C139.923 459.23 138.828 457.359 137.837 455.482L139.737 454.479C140.698 456.299 141.763 458.119 142.927 459.939L141.118 461.097Z" fill="#FFD600"/>
<circle cx="190.344" cy="405.036" r="71.9647" stroke="#FFD600" stroke-width="2.1482" stroke-linecap="round" stroke-dasharray="12.89 12.89"/>
<path d="M445.442 348.646L446.128 347.818L445.442 348.646ZM690.016 296.651C689.822 296.09 689.211 295.792 688.65 295.985L679.51 299.132C678.949 299.325 678.651 299.936 678.844 300.497C679.037 301.058 679.648 301.356 680.209 301.163L688.334 298.366L691.131 306.491C691.324 307.052 691.935 307.35 692.496 307.157C693.057 306.964 693.355 306.352 693.162 305.791L690.016 296.651ZM685.008 302.54C684.734 303.066 684.939 303.714 685.465 303.988C685.991 304.262 686.64 304.057 686.914 303.531L685.008 302.54ZM680.424 315.223C680.727 314.713 680.558 314.054 680.048 313.752C679.537 313.449 678.878 313.618 678.576 314.128L680.424 315.223ZM671.481 325.315C671.148 325.806 671.275 326.474 671.766 326.808C672.257 327.141 672.925 327.013 673.258 326.523L671.481 325.315ZM665.364 337.332C665.731 336.865 665.65 336.19 665.183 335.824C664.717 335.457 664.042 335.538 663.675 336.005L665.364 337.332ZM655.121 346.079C654.72 346.515 654.749 347.195 655.185 347.596C655.622 347.998 656.302 347.969 656.703 347.532L655.121 346.079ZM647.251 356.988C647.688 356.587 647.717 355.908 647.316 355.471C646.915 355.034 646.236 355.004 645.799 355.405L647.251 356.988ZM635.636 363.898C635.164 364.257 635.071 364.93 635.429 365.403C635.788 365.876 636.461 365.968 636.934 365.61L635.636 363.898ZM625.845 373.182C626.351 372.873 626.511 372.212 626.201 371.706C625.892 371.199 625.231 371.04 624.725 371.349L625.845 373.182ZM613.144 377.623C612.608 377.877 612.38 378.518 612.635 379.054C612.89 379.59 613.531 379.817 614.066 379.563L613.144 377.623ZM601.625 384.679C602.184 384.483 602.48 383.87 602.284 383.31C602.088 382.75 601.476 382.455 600.916 382.651L601.625 384.679ZM588.253 386.331C587.675 386.466 587.316 387.044 587.452 387.622C587.587 388.199 588.164 388.558 588.742 388.423L588.253 386.331ZM575.519 390.797C576.107 390.722 576.524 390.185 576.449 389.596C576.374 389.008 575.837 388.591 575.248 388.666L575.519 390.797ZM562.084 389.678C561.491 389.694 561.024 390.188 561.04 390.781C561.057 391.374 561.551 391.842 562.144 391.825L562.084 389.678ZM548.724 391.577C549.316 391.615 549.827 391.166 549.865 390.574C549.903 389.982 549.453 389.471 548.861 389.433L548.724 391.577ZM535.714 388.018C535.127 387.93 534.58 388.334 534.492 388.92C534.403 389.507 534.807 390.054 535.394 390.142L535.714 388.018ZM522.226 387.615C522.804 387.75 523.382 387.391 523.516 386.813C523.651 386.235 523.291 385.658 522.714 385.523L522.226 387.615ZM509.938 382.038C509.372 381.861 508.77 382.177 508.593 382.743C508.416 383.309 508.731 383.912 509.297 384.089L509.938 382.038ZM496.667 379.646C497.219 379.862 497.842 379.589 498.059 379.037C498.275 378.484 498.002 377.861 497.45 377.645L496.667 379.646ZM485.272 372.397C484.735 372.144 484.095 372.374 483.842 372.911C483.589 373.447 483.819 374.087 484.356 374.34L485.272 372.397ZM472.438 368.229C472.956 368.517 473.61 368.33 473.898 367.812C474.186 367.293 474 366.639 473.481 366.351L472.438 368.229ZM462.136 359.532C461.639 359.209 460.974 359.351 460.651 359.848C460.328 360.346 460.469 361.011 460.967 361.334L462.136 359.532ZM450.01 353.639C450.482 353.999 451.156 353.907 451.515 353.435C451.874 352.963 451.782 352.289 451.31 351.93L450.01 353.639ZM441.101 343.661C440.644 343.283 439.967 343.347 439.589 343.805C439.211 344.262 439.275 344.939 439.733 345.317L441.101 343.661ZM429.672 336.989C430.128 337.368 430.805 337.306 431.185 336.85C431.564 336.394 431.502 335.717 431.046 335.337L429.672 336.989ZM421.076 326.942C420.626 326.557 419.948 326.609 419.562 327.06C419.176 327.51 419.228 328.188 419.679 328.574L421.076 326.942ZM409.879 319.949C410.318 320.348 410.997 320.316 411.396 319.877C411.795 319.438 411.763 318.759 411.324 318.36L409.879 319.949ZM401.912 309.405C401.492 308.985 400.812 308.985 400.393 309.405C399.973 309.824 399.973 310.504 400.393 310.924L401.912 309.405ZM391.409 301.396C391.802 301.84 392.481 301.88 392.925 301.487C393.369 301.093 393.41 300.414 393.016 299.971L391.409 301.396ZM384.713 289.996C384.347 289.529 383.672 289.446 383.205 289.812C382.738 290.177 382.655 290.852 383.02 291.319L384.713 289.996ZM375.26 280.791C375.599 281.278 376.269 281.398 376.755 281.058C377.242 280.719 377.362 280.05 377.023 279.563L375.26 280.791ZM369.849 268.741C369.532 268.24 368.869 268.09 368.367 268.408C367.866 268.725 367.717 269.388 368.034 269.89L369.849 268.741ZM361.243 258.721C361.543 259.232 362.201 259.404 362.713 259.104C363.225 258.804 363.397 258.146 363.097 257.635L361.243 258.721ZM356.67 246.321C356.384 245.801 355.73 245.613 355.211 245.899C354.692 246.186 354.503 246.84 354.79 247.359L356.67 246.321ZM348.573 235.82C348.849 236.345 349.499 236.546 350.024 236.27C350.548 235.993 350.75 235.343 350.473 234.819L348.573 235.82ZM344.515 223.3C344.246 222.772 343.6 222.561 343.071 222.83C342.542 223.099 342.331 223.745 342.6 224.274L344.515 223.3ZM336.732 212.564C336.995 213.096 337.639 213.314 338.171 213.051C338.703 212.788 338.921 212.144 338.658 211.612L336.732 212.564ZM332.948 199.929C332.689 199.395 332.047 199.172 331.513 199.43C330.979 199.688 330.755 200.331 331.014 200.865L332.948 199.929ZM325.384 189.12C325.639 189.656 326.28 189.884 326.816 189.629C327.351 189.374 327.579 188.734 327.325 188.198L325.384 189.12ZM688.035 296.53C687.038 298.573 686.029 300.576 685.008 302.54L686.914 303.531C687.943 301.551 688.961 299.531 689.965 297.472L688.035 296.53ZM678.576 314.128C676.262 318.034 673.896 321.761 671.481 325.315L673.258 326.523C675.698 322.931 678.088 319.166 680.424 315.223L678.576 314.128ZM663.675 336.005C660.876 339.567 658.023 342.922 655.121 346.079L656.703 347.532C659.643 344.334 662.532 340.936 665.364 337.332L663.675 336.005ZM645.799 355.405C642.46 358.467 639.07 361.295 635.636 363.898L636.934 365.61C640.422 362.965 643.864 360.095 647.251 356.988L645.799 355.405ZM624.725 371.349C620.903 373.685 617.039 375.771 613.144 377.623L614.066 379.563C618.029 377.679 621.959 375.557 625.845 373.182L624.725 371.349ZM600.916 382.651C596.715 384.119 592.49 385.34 588.253 386.331L588.742 388.423C593.052 387.415 597.35 386.173 601.625 384.679L600.916 382.651ZM575.248 388.666C570.855 389.224 566.462 389.555 562.084 389.678L562.144 391.825C566.59 391.7 571.053 391.364 575.519 390.797L575.248 388.666ZM548.861 389.433C544.444 389.15 540.056 388.672 535.714 388.018L535.394 390.142C539.795 390.805 544.243 391.29 548.724 391.577L548.861 389.433ZM522.714 385.523C518.387 384.516 514.124 383.347 509.938 382.038L509.297 384.089C513.531 385.412 517.846 386.595 522.226 387.615L522.714 385.523ZM497.45 377.645C493.282 376.014 489.216 374.257 485.272 372.397L484.356 374.34C488.343 376.22 492.453 377.997 496.667 379.646L497.45 377.645ZM473.481 366.351C469.531 364.156 465.742 361.873 462.136 359.532L460.967 361.334C464.614 363.701 468.445 366.01 472.438 368.229L473.481 366.351ZM451.31 351.93C449.516 350.565 447.787 349.193 446.128 347.818L444.757 349.473C446.44 350.867 448.192 352.257 450.01 353.639L451.31 351.93ZM446.128 347.818C444.414 346.399 442.739 345.014 441.101 343.661L439.733 345.317C441.37 346.67 443.044 348.054 444.757 349.473L446.128 347.818ZM431.046 335.337C427.557 332.436 424.245 329.656 421.076 326.942L419.679 328.574C422.858 331.297 426.179 334.084 429.672 336.989L431.046 335.337ZM411.324 318.36C408.059 315.39 404.937 312.431 401.912 309.405L400.393 310.924C403.445 313.977 406.593 316.96 409.879 319.949L411.324 318.36ZM393.016 299.971C390.213 296.81 387.459 293.51 384.713 289.996L383.02 291.319C385.794 294.868 388.577 298.202 391.409 301.396L393.016 299.971ZM377.023 279.563C374.663 276.175 372.28 272.583 369.849 268.741L368.034 269.89C370.48 273.756 372.88 277.375 375.26 280.791L377.023 279.563ZM363.097 257.635C361.007 254.069 358.87 250.306 356.67 246.321L354.79 247.359C356.997 251.358 359.144 255.137 361.243 258.721L363.097 257.635ZM350.473 234.819C348.541 231.153 346.558 227.318 344.515 223.3L342.6 224.274C344.648 228.3 346.636 232.144 348.573 235.82L350.473 234.819ZM338.658 211.612C336.806 207.865 334.904 203.974 332.948 199.929L331.014 200.865C332.972 204.914 334.877 208.811 336.732 212.564L338.658 211.612ZM327.325 188.198C326.396 186.244 325.456 184.258 324.503 182.239L322.56 183.155C323.514 185.177 324.455 187.165 325.384 189.12L327.325 188.198Z" fill="#FFD600"/>
<path d="M693.709 385.625C693.944 385.08 693.693 384.448 693.148 384.213L684.273 380.382C683.728 380.147 683.096 380.398 682.861 380.942C682.626 381.487 682.877 382.119 683.422 382.354L691.311 385.759L687.905 393.649C687.67 394.193 687.921 394.825 688.466 395.06C689.01 395.296 689.643 395.045 689.878 394.5L693.709 385.625ZM686.325 386.551C685.772 386.765 685.496 387.387 685.71 387.941C685.924 388.494 686.546 388.769 687.099 388.555L686.325 386.551ZM675.239 393.012C675.796 392.809 676.083 392.192 675.879 391.635C675.676 391.078 675.059 390.791 674.502 390.995L675.239 393.012ZM662.917 395.099C662.356 395.291 662.057 395.902 662.25 396.463C662.442 397.024 663.053 397.323 663.614 397.13L662.917 395.099ZM651.473 401.157C652.038 400.976 652.35 400.372 652.169 399.807C651.988 399.242 651.384 398.93 650.819 399.111L651.473 401.157ZM638.921 402.773C638.352 402.941 638.027 403.539 638.195 404.108C638.363 404.676 638.961 405.001 639.53 404.833L638.921 402.773ZM627.424 408.26C627.996 408.105 628.335 407.515 628.18 406.943C628.026 406.37 627.436 406.031 626.863 406.186L627.424 408.26ZM614.691 409.313C614.115 409.454 613.761 410.035 613.902 410.611C614.042 411.188 614.623 411.541 615.199 411.401L614.691 409.313ZM603.048 414.191C603.628 414.066 603.996 413.495 603.871 412.915C603.746 412.335 603.175 411.966 602.595 412.091L603.048 414.191ZM590.206 414.58C589.623 414.688 589.238 415.249 589.346 415.832C589.455 416.415 590.015 416.8 590.599 416.692L590.206 414.58ZM578.338 418.782C578.924 418.691 579.326 418.142 579.235 417.556C579.144 416.97 578.595 416.568 578.009 416.659L578.338 418.782ZM565.48 418.393C564.891 418.465 564.472 419 564.543 419.589C564.615 420.178 565.15 420.597 565.739 420.526L565.48 418.393ZM553.336 421.821C553.927 421.77 554.364 421.249 554.313 420.658C554.261 420.067 553.741 419.63 553.15 419.681L553.336 421.821ZM540.577 420.543C539.985 420.572 539.528 421.077 539.558 421.669C539.587 422.262 540.092 422.718 540.684 422.689L540.577 420.543ZM528.144 423.068C528.737 423.062 529.213 422.576 529.207 421.983C529.2 421.39 528.714 420.914 528.121 420.92L528.144 423.068ZM515.624 420.793C515.031 420.774 514.535 421.24 514.517 421.833C514.498 422.426 514.964 422.921 515.557 422.94L515.624 420.793ZM502.934 422.265C503.526 422.31 504.042 421.867 504.087 421.276C504.132 420.684 503.689 420.168 503.097 420.123L502.934 422.265ZM490.785 418.899C490.197 418.827 489.661 419.245 489.588 419.834C489.515 420.423 489.934 420.959 490.523 421.032L490.785 418.899ZM477.952 419.164C478.537 419.266 479.093 418.875 479.195 418.291C479.297 417.706 478.906 417.15 478.322 417.048L477.952 419.164ZM466.079 414.582C465.5 414.45 464.924 414.812 464.792 415.39C464.659 415.968 465.021 416.544 465.599 416.677L466.079 414.582ZM453.473 413.554C454.043 413.718 454.638 413.388 454.802 412.818C454.965 412.247 454.636 411.653 454.065 411.489L453.473 413.554ZM442.105 407.688C441.545 407.492 440.933 407.787 440.737 408.347C440.541 408.907 440.836 409.52 441.396 409.716L442.105 407.688ZM429.599 405.2C430.147 405.429 430.775 405.17 431.004 404.622C431.232 404.075 430.973 403.446 430.426 403.218L429.599 405.2ZM419.07 398.082C418.537 397.821 417.894 398.042 417.634 398.575C417.373 399.108 417.594 399.751 418.127 400.012L419.07 398.082ZM407.004 394.152C407.521 394.445 408.176 394.263 408.468 393.747C408.76 393.231 408.579 392.575 408.063 392.283L407.004 394.152ZM397.376 385.795C396.878 385.472 396.213 385.613 395.89 386.11C395.567 386.608 395.708 387.273 396.205 387.596L397.376 385.795ZM385.821 380.391C386.298 380.744 386.97 380.643 387.323 380.166C387.676 379.69 387.576 379.017 387.099 378.664L385.821 380.391ZM377.282 370.934C376.827 370.553 376.15 370.613 375.769 371.068C375.388 371.523 375.448 372.2 375.903 372.581L377.282 370.934ZM366.474 364.2C366.905 364.607 367.585 364.587 367.992 364.155C368.399 363.724 368.379 363.044 367.947 362.637L366.474 364.2ZM359.112 353.812C358.704 353.381 358.024 353.362 357.593 353.769C357.162 354.177 357.143 354.857 357.551 355.288L359.112 353.812ZM349.147 345.885C349.53 346.338 350.208 346.395 350.661 346.012C351.114 345.629 351.171 344.952 350.788 344.498L349.147 345.885ZM342.985 334.738C342.628 334.265 341.954 334.171 341.481 334.529C341.008 334.887 340.914 335.561 341.272 336.034L342.985 334.738ZM333.93 325.775C334.263 326.266 334.93 326.395 335.422 326.062C335.913 325.729 336.042 325.062 335.709 324.57L333.93 325.775ZM328.963 314.036C328.656 313.528 327.996 313.366 327.488 313.673C326.981 313.98 326.818 314.641 327.125 315.148L328.963 314.036ZM320.865 304.198C321.146 304.72 321.798 304.915 322.32 304.634C322.842 304.352 323.037 303.7 322.755 303.178L320.865 304.198ZM317.104 292.06C316.848 291.525 316.206 291.298 315.671 291.554C315.136 291.81 314.91 292.451 315.165 292.986L317.104 292.06ZM310.003 281.47C310.232 282.017 310.862 282.275 311.409 282.046C311.956 281.817 312.214 281.187 311.985 280.64L310.003 281.47ZM307.454 269.002C307.253 268.444 306.638 268.154 306.08 268.355C305.522 268.555 305.232 269.171 305.433 269.729L307.454 269.002ZM301.514 257.738C301.68 258.308 302.276 258.635 302.846 258.469C303.416 258.303 303.743 257.707 303.577 257.138L301.514 257.738ZM692.326 384.201C690.316 384.999 688.315 385.782 686.325 386.551L687.099 388.555C689.096 387.784 691.102 386.998 693.119 386.197L692.326 384.201ZM674.502 390.995C670.601 392.419 666.739 393.786 662.917 395.099L663.614 397.13C667.45 395.814 671.325 394.441 675.239 393.012L674.502 390.995ZM650.819 399.111C646.808 400.393 642.842 401.613 638.921 402.773L639.53 404.833C643.467 403.669 647.448 402.444 651.473 401.157L650.819 399.111ZM626.863 406.186C622.756 407.296 618.699 408.338 614.691 409.313L615.199 411.401C619.225 410.421 623.299 409.374 627.424 408.26L626.863 406.186ZM602.595 412.091C598.409 412.994 594.28 413.823 590.206 414.58L590.599 416.692C594.693 415.931 598.842 415.098 603.048 414.191L602.595 412.091ZM578.009 416.659C573.77 417.316 569.594 417.893 565.48 418.393L565.739 420.526C569.877 420.023 574.076 419.442 578.338 418.782L578.009 416.659ZM553.15 419.681C548.89 420.052 544.699 420.338 540.577 420.543L540.684 422.689C544.833 422.482 549.05 422.194 553.336 421.821L553.15 419.681ZM528.121 420.92C523.879 420.965 519.714 420.921 515.624 420.793L515.557 422.94C519.677 423.069 523.872 423.113 528.144 423.068L528.121 420.92ZM503.097 420.123C498.91 419.804 494.807 419.395 490.785 418.899L490.523 421.032C494.577 421.531 498.714 421.944 502.934 422.265L503.097 420.123ZM478.322 417.048C474.147 416.319 470.066 415.495 466.079 414.582L465.599 416.677C469.624 417.598 473.741 418.429 477.952 419.164L478.322 417.048ZM454.065 411.489C449.975 410.316 445.989 409.046 442.105 407.688L441.396 409.716C445.318 411.087 449.343 412.369 453.473 413.554L454.065 411.489ZM430.426 403.218C426.529 401.593 422.745 399.878 419.07 398.082L418.127 400.012C421.84 401.827 425.663 403.56 429.599 405.2L430.426 403.218ZM408.063 392.283C404.381 390.199 400.82 388.033 397.376 385.795L396.205 387.596C399.686 389.857 403.284 392.046 407.004 394.152L408.063 392.283ZM387.099 378.664C383.701 376.15 380.43 373.569 377.282 370.934L375.903 372.581C379.083 375.243 382.388 377.851 385.821 380.391L387.099 378.664ZM367.947 362.637C364.871 359.736 361.927 356.789 359.112 353.812L357.551 355.288C360.393 358.294 363.366 361.27 366.474 364.2L367.947 362.637ZM350.788 344.498C348.048 341.255 345.449 337.995 342.985 334.738L341.272 336.034C343.758 339.321 346.381 342.611 349.147 345.885L350.788 344.498ZM335.709 324.57C333.308 321.023 331.062 317.503 328.963 314.036L327.125 315.148C329.242 318.645 331.508 322.196 333.93 325.775L335.709 324.57ZM322.755 303.178C320.693 299.354 318.813 295.635 317.104 292.06L315.165 292.986C316.889 296.591 318.784 300.342 320.865 304.198L322.755 303.178ZM311.985 280.64C310.21 276.404 308.709 272.495 307.454 269.002L305.433 269.729C306.7 273.254 308.213 277.197 310.003 281.47L311.985 280.64ZM303.577 257.138C303.021 255.231 302.625 253.743 302.368 252.734C302.24 252.229 302.146 251.845 302.085 251.587C302.054 251.459 302.032 251.362 302.017 251.298C302.01 251.266 302.004 251.242 302.001 251.227C301.999 251.219 301.998 251.213 301.997 251.21C301.997 251.208 301.996 251.207 301.996 251.206C301.996 251.206 301.996 251.205 301.996 251.205C301.996 251.205 301.996 251.205 301.996 251.205C301.996 251.205 301.996 251.205 301.996 251.205C301.996 251.205 301.996 251.205 300.948 251.438C299.899 251.671 299.899 251.671 299.899 251.671C299.899 251.671 299.899 251.671 299.899 251.671C299.899 251.672 299.899 251.672 299.899 251.672C299.899 251.672 299.899 251.673 299.9 251.674C299.9 251.675 299.9 251.677 299.901 251.679C299.902 251.684 299.903 251.691 299.905 251.7C299.91 251.718 299.916 251.745 299.924 251.779C299.939 251.848 299.963 251.951 299.995 252.085C300.059 252.353 300.155 252.748 300.286 253.264C300.549 254.295 300.952 255.807 301.514 257.738L303.577 257.138Z" fill="#FFD600"/>
<defs>
<linearGradient id="paint0_linear_1724_1274" x1="265.209" y1="123.423" x2="265.209" y2="128.268" gradientUnits="userSpaceOnUse">
<stop offset="0.296875" stop-color="#B16668" stop-opacity="0"/>
<stop offset="1" stop-color="#9A4A4D"/>
</linearGradient>
<linearGradient id="paint1_linear_1724_1274" x1="4.41859" y1="0" x2="4.41859" y2="4.84569" gradientUnits="userSpaceOnUse">
<stop offset="0.296875" stop-color="#B16668" stop-opacity="0"/>
<stop offset="1" stop-color="#9A4A4D"/>
</linearGradient>
</defs>
</svg>
