<svg width="80" height="79" viewBox="0 0 80 79" fill="none" xmlns="http://www.w3.org/2000/svg">
<g clip-path="url(#clip0_1628_1330)">
<path d="M71.1889 70.4291H33.4746C32.0541 70.4291 30.9031 69.2781 30.9031 67.8576C30.9031 66.4371 32.0541 65.2861 33.4746 65.2861H71.1889C72.6094 65.2861 73.7604 66.4371 73.7604 67.8576C73.7604 69.2781 72.6093 70.4291 71.1889 70.4291Z" fill="#003E5C"/>
<path d="M24.9031 61.8574C23.4826 61.8574 22.3317 60.7064 22.3317 59.2859V10.4288C22.3317 7.59291 20.0248 5.28603 17.1889 5.28603C14.3529 5.28603 12.046 7.59291 12.046 10.4288V13.0003C12.046 14.4208 10.8951 15.5718 9.47456 15.5718C8.05405 15.5718 6.90308 14.4208 6.90308 13.0003V10.4288C6.90323 4.75682 11.517 0.143066 17.1889 0.143066C22.8607 0.143066 27.4746 4.75682 27.4746 10.4288V59.2859C27.4746 60.7064 26.3237 61.8574 24.9031 61.8574Z" fill="#003E5C"/>
<path d="M24.9031 79.0001C18.7592 79.0001 13.7603 74.0013 13.7603 67.8572C13.7603 61.7132 18.7591 56.7144 24.9031 56.7144C31.0472 56.7144 36.046 61.7132 36.046 67.8572C36.046 74.0013 31.0472 79.0001 24.9031 79.0001Z" fill="#00293D"/>
<path d="M36.046 67.8572C36.046 61.7133 31.0472 56.7144 24.9031 56.7144V79.0001C31.0472 79.0001 36.046 74.0013 36.046 67.8572Z" fill="#001B29"/>
<path d="M24.9032 61.8574C21.5952 61.8574 18.9031 64.5493 18.9031 67.8575C18.9031 71.1656 21.595 73.8576 24.9032 73.8576C28.2113 73.8576 30.9032 71.1656 30.9032 67.8575C30.9032 64.5493 28.2111 61.8574 24.9032 61.8574Z" fill="#D1E7F8"/>
<path d="M73.7602 57.5717C73.7602 58.9918 72.6089 60.1432 71.1887 60.1432H40.3317C38.9117 60.1432 37.7603 58.9919 37.7603 57.5717V26.7145C37.7603 25.2945 38.9115 24.1431 40.3317 24.1431H71.1889C72.6089 24.1431 73.7604 25.2943 73.7604 26.7145V57.5717H73.7602Z" fill="#FFEC8A"/>
<path d="M71.1888 24.1431H55.7603V60.1431H71.1888C72.6089 60.1431 73.7603 58.9918 73.7603 57.5716V26.7145C73.7602 25.2944 72.6089 24.1431 71.1888 24.1431Z" fill="#FFD600"/>
<path d="M60.9032 39.5716H50.6174C49.1973 39.5716 48.0459 38.4204 48.0459 37.0002V24.1431H63.4745V37.0002C63.4746 38.4204 62.3234 39.5716 60.9032 39.5716Z" fill="#EE8700"/>
<path d="M55.7603 39.5716H60.9031C62.3231 39.5716 63.4745 38.4204 63.4745 37.0002V24.1431H55.7603V39.5716Z" fill="#CC7400"/>
<path d="M30.9032 67.8575C30.9032 64.5495 28.2112 61.8574 24.9031 61.8574V73.8574C28.2111 73.8576 30.9032 71.1657 30.9032 67.8575Z" fill="#C2DFF6"/>
</g>
<defs>
<clipPath id="clip0_1628_1330">
<rect width="78.8571" height="78.8571" fill="white" transform="translate(0.903076 0.143066)"/>
</clipPath>
</defs>
</svg>
