<svg width="327" height="327" viewBox="0 0 327 327" fill="none" xmlns="http://www.w3.org/2000/svg">
<path d="M26.3313 163.593C26.3313 87.7855 87.7854 26.3313 163.593 26.3313C239.4 26.3313 300.854 87.7854 300.854 163.593C300.854 239.4 239.4 300.854 163.593 300.855C87.7854 300.855 26.3313 239.4 26.3313 163.593ZM269.556 163.593C269.556 105.071 222.114 57.6302 163.593 57.6302C105.071 57.6303 57.6302 105.071 57.6302 163.593C57.6302 222.115 105.071 269.556 163.593 269.556C222.114 269.556 269.556 222.114 269.556 163.593Z" fill="#EF7D00" fill-opacity="0.1"/>
<path d="M163.593 41.9808C163.593 33.3378 170.622 26.2392 179.209 27.2225C197.24 29.2872 214.737 34.9142 230.662 43.8327C251.153 55.3082 268.357 71.8494 280.628 91.8739C292.899 111.899 299.827 134.737 300.749 158.204C301.671 181.671 296.556 204.983 285.894 225.908C275.232 246.834 259.379 264.674 239.851 277.722C220.324 290.77 197.775 298.589 174.362 300.431C150.949 302.274 127.455 298.078 106.127 288.246C89.5511 280.604 74.7145 269.757 62.4456 256.383C56.6029 250.014 58.2143 240.155 65.2066 235.075C72.1989 229.995 81.9119 231.644 87.9657 237.813C96.9364 246.954 107.521 254.424 119.231 259.822C135.695 267.413 153.832 270.651 171.907 269.229C189.981 267.806 207.388 261.77 222.463 251.698C237.537 241.625 249.775 227.853 258.006 211.699C266.237 195.545 270.186 177.549 269.474 159.433C268.762 141.317 263.414 123.686 253.941 108.228C244.468 92.7691 231.187 79.9997 215.369 71.1409C204.119 64.8408 191.854 60.6685 179.186 58.7838C170.637 57.5119 163.593 50.6237 163.593 41.9808Z" fill="#EF7D00"/>
<path d="M0.455522 163.394C0.455514 73.4053 73.4053 0.455497 163.394 0.455489C253.382 0.455481 326.332 73.4053 326.332 163.394C326.332 253.382 253.382 326.332 163.394 326.332C73.4054 326.332 0.45553 253.382 0.455522 163.394ZM302.589 163.394C302.589 86.5179 240.269 24.1979 163.394 24.198C86.5179 24.198 24.198 86.5179 24.198 163.394C24.198 240.269 86.518 302.589 163.394 302.589C240.269 302.589 302.589 240.269 302.589 163.394Z" fill="#037CBF" fill-opacity="0.1"/>
<path d="M163.394 12.3267C163.394 5.77043 168.716 0.410445 175.255 0.887495C212.641 3.61506 248.085 19.1729 275.47 45.1236C305.736 73.8053 323.855 112.999 326.096 154.637C328.337 196.275 314.529 237.187 287.515 268.952C263.074 297.692 229.505 316.964 192.627 323.688C186.177 324.864 180.31 320.106 179.607 313.588C178.903 307.069 183.633 301.266 190.068 300.01C220.902 293.99 248.925 277.68 269.429 253.57C292.507 226.434 304.302 191.484 302.388 155.913C300.474 120.343 284.995 86.8597 259.138 62.3573C236.166 40.5875 206.554 27.379 175.251 24.7036C168.719 24.1453 163.394 18.883 163.394 12.3267Z" fill="#037CBF"/>
<path d="M107.585 191.624C102.995 191.624 99.0443 190.77 95.7346 189.062C92.425 187.301 89.8627 184.952 88.0477 182.016C86.2327 179.026 85.3252 175.69 85.3252 172.007C85.3252 170.352 85.5387 168.75 85.9658 167.202C86.3928 165.654 86.9534 164.186 87.6473 162.798C88.3413 161.41 89.0085 160.183 89.6491 159.115C90.3431 157.994 90.957 157.113 91.4908 156.473L106.144 136.374C106.358 136.107 106.678 135.787 107.105 135.414C107.532 134.986 108.119 134.773 108.867 134.773H116.313C116.794 134.773 117.194 134.96 117.514 135.333C117.835 135.654 117.995 136.054 117.995 136.535C117.995 136.748 117.941 136.962 117.835 137.175C117.781 137.335 117.701 137.469 117.594 137.575L106.384 153.11C106.865 152.949 107.425 152.843 108.066 152.789C108.706 152.736 109.294 152.709 109.827 152.709C112.497 152.763 115.032 153.296 117.434 154.311C119.836 155.272 121.945 156.606 123.76 158.314C125.575 160.022 126.99 162.024 128.004 164.32C129.072 166.615 129.605 169.124 129.605 171.847C129.605 175.37 128.725 178.653 126.963 181.695C125.201 184.685 122.666 187.087 119.356 188.902C116.1 190.717 112.176 191.624 107.585 191.624ZM107.505 182.416C109.427 182.416 111.189 182.016 112.79 181.215C114.445 180.414 115.779 179.24 116.794 177.692C117.808 176.144 118.315 174.222 118.315 171.927C118.315 169.685 117.808 167.79 116.794 166.241C115.779 164.693 114.445 163.519 112.79 162.718C111.189 161.918 109.427 161.517 107.505 161.517C105.584 161.517 103.795 161.918 102.14 162.718C100.539 163.519 99.2311 164.693 98.2169 166.241C97.2026 167.79 96.6955 169.685 96.6955 171.927C96.6955 174.222 97.2026 176.144 98.2169 177.692C99.2311 179.24 100.539 180.414 102.14 181.215C103.795 182.016 105.584 182.416 107.505 182.416ZM156.746 191.705C152.155 191.705 148.285 190.957 145.136 189.462C141.986 187.914 139.584 185.913 137.929 183.457C136.328 181.001 135.474 178.386 135.367 175.61C135.313 175.13 135.447 174.756 135.767 174.489C136.141 174.169 136.568 174.008 137.048 174.008H144.495C145.082 174.008 145.563 174.142 145.936 174.409C146.363 174.622 146.684 175.023 146.897 175.61C147.431 177.211 148.178 178.519 149.139 179.533C150.154 180.548 151.301 181.295 152.582 181.776C153.917 182.256 155.305 182.496 156.746 182.496C158.668 182.496 160.403 182.123 161.951 181.375C163.552 180.574 164.834 179.4 165.794 177.852C166.755 176.304 167.236 174.409 167.236 172.167C167.236 170.192 166.782 168.483 165.874 167.042C164.967 165.601 163.712 164.48 162.111 163.679C160.563 162.825 158.775 162.398 156.746 162.398C155.251 162.398 154.024 162.585 153.063 162.958C152.102 163.332 151.275 163.759 150.581 164.24C149.94 164.72 149.353 165.147 148.819 165.521C148.339 165.894 147.778 166.081 147.137 166.081H139.771C139.29 166.081 138.863 165.921 138.49 165.601C138.169 165.227 138.009 164.8 138.009 164.32L140.812 136.935C140.865 136.241 141.105 135.707 141.532 135.333C141.959 134.96 142.467 134.773 143.054 134.773H173.161C173.695 134.773 174.149 134.96 174.522 135.333C174.896 135.707 175.083 136.161 175.083 136.695V142.06C175.083 142.593 174.896 143.047 174.522 143.421C174.149 143.794 173.695 143.981 173.161 143.981H150.02L148.739 157.033C149.7 156.393 150.981 155.779 152.582 155.191C154.184 154.604 156.399 154.311 159.228 154.311C161.791 154.311 164.22 154.738 166.515 155.592C168.864 156.393 170.946 157.594 172.761 159.195C174.576 160.743 175.99 162.638 177.005 164.88C178.072 167.069 178.606 169.578 178.606 172.407C178.606 176.304 177.699 179.694 175.884 182.576C174.069 185.459 171.533 187.701 168.277 189.302C165.02 190.904 161.177 191.705 156.746 191.705ZM190.706 190.824C189.585 190.824 189.025 190.29 189.025 189.222C189.025 188.902 189.132 188.608 189.345 188.341L228.821 136.294C229.195 135.814 229.568 135.44 229.942 135.173C230.316 134.906 230.849 134.773 231.543 134.773H235.787C236.908 134.773 237.469 135.307 237.469 136.374C237.469 136.695 237.362 136.988 237.148 137.255L197.673 189.302C197.299 189.783 196.925 190.156 196.552 190.423C196.231 190.69 195.698 190.824 194.95 190.824H190.706ZM229.221 191.304C225.645 191.304 222.815 190.317 220.734 188.341C218.652 186.366 217.504 183.777 217.29 180.574C217.237 179.187 217.21 177.985 217.21 176.971C217.21 175.957 217.237 174.702 217.29 173.208C217.504 170.005 218.598 167.416 220.573 165.441C222.602 163.466 225.485 162.478 229.221 162.478C233.011 162.478 235.894 163.466 237.869 165.441C239.898 167.416 240.992 170.005 241.152 173.208C241.259 174.702 241.312 175.957 241.312 176.971C241.312 177.985 241.259 179.187 241.152 180.574C240.992 183.777 239.844 186.366 237.709 188.341C235.627 190.317 232.798 191.304 229.221 191.304ZM229.221 185.059C230.396 185.059 231.303 184.818 231.944 184.338C232.638 183.857 233.145 183.244 233.465 182.496C233.785 181.749 233.946 181.001 233.946 180.254C234.052 178.92 234.106 177.799 234.106 176.891C234.106 175.93 234.052 174.836 233.946 173.608C233.892 172.38 233.518 171.259 232.825 170.245C232.131 169.177 230.929 168.644 229.221 168.644C227.566 168.644 226.392 169.177 225.698 170.245C225.004 171.259 224.604 172.38 224.497 173.608C224.444 174.836 224.417 175.93 224.417 176.891C224.417 177.799 224.444 178.92 224.497 180.254C224.604 181.001 224.791 181.749 225.057 182.496C225.378 183.244 225.858 183.857 226.499 184.338C227.193 184.818 228.1 185.059 229.221 185.059ZM197.272 162.958C193.696 162.958 190.866 162.024 188.785 160.156C186.703 158.288 185.555 155.752 185.341 152.549C185.288 151.161 185.261 149.96 185.261 148.946C185.261 147.878 185.288 146.597 185.341 145.102C185.555 141.899 186.649 139.31 188.624 137.335C190.653 135.36 193.536 134.373 197.272 134.373C201.062 134.373 203.945 135.36 205.92 137.335C207.949 139.31 209.043 141.899 209.203 145.102C209.31 146.597 209.363 147.878 209.363 148.946C209.363 149.96 209.31 151.161 209.203 152.549C209.043 155.752 207.895 158.288 205.76 160.156C203.678 162.024 200.849 162.958 197.272 162.958ZM197.272 157.033C198.447 157.033 199.354 156.793 199.995 156.312C200.689 155.832 201.196 155.218 201.516 154.471C201.836 153.723 201.997 152.949 201.997 152.149C202.103 150.814 202.157 149.693 202.157 148.786C202.157 147.825 202.103 146.73 201.997 145.503C201.943 144.275 201.57 143.154 200.876 142.14C200.182 141.125 198.981 140.618 197.272 140.618C195.617 140.618 194.443 141.125 193.749 142.14C193.055 143.154 192.681 144.275 192.628 145.503C192.575 146.73 192.548 147.825 192.548 148.786C192.548 149.693 192.575 150.814 192.628 152.149C192.681 152.949 192.842 153.723 193.109 154.471C193.429 155.218 193.909 155.832 194.55 156.312C195.244 156.793 196.151 157.033 197.272 157.033Z" fill="#003E5C"/>
</svg>
