<svg width="80" height="80" viewBox="0 0 80 80" fill="none" xmlns="http://www.w3.org/2000/svg">
<g clip-path="url(#clip0_1628_1289)">
<path d="M39.6664 2.39551C17.8907 2.39551 0.237793 6.94058 0.237793 12.547V74.0995C0.237793 76.1362 1.88886 77.7869 3.92529 77.7869H75.4074C77.4442 77.7869 79.0949 76.1359 79.0949 74.0995V12.547C79.0949 6.94058 61.4422 2.39551 39.6664 2.39551Z" fill="#003E5C"/>
<path opacity="0.1" d="M3.9872 74.0995V12.547C3.9872 7.10229 20.6359 2.65903 41.5411 2.40706C40.9196 2.39951 40.2949 2.39551 39.6664 2.39551C17.8907 2.39551 0.237793 6.94042 0.237793 12.547V74.0995C0.237793 76.1362 1.88886 77.7869 3.92529 77.7869H7.6747C5.63828 77.7869 3.9872 76.1359 3.9872 74.0995Z" fill="#003E5C"/>
<path d="M63.2389 10.5766C63.1773 10.5637 63.1169 10.5508 63.0543 10.5378C56.4935 9.18693 48.1875 8.44287 39.6664 8.44287C31.1454 8.44287 22.8394 9.18693 16.2785 10.5378C16.2161 10.5508 16.1559 10.5637 16.094 10.5766V25.3759H63.2389V10.5766Z" fill="white"/>
<path opacity="0.1" d="M69.053 34.9736H10.2801C8.60804 34.9736 7.25269 36.329 7.25269 38.001V70.3391C7.25269 72.0111 8.60804 73.3664 10.2801 73.3664H69.0528C70.7248 73.3664 72.0802 72.0111 72.0802 70.3391V38.0012C72.0805 36.3291 70.725 34.9736 69.053 34.9736Z" fill="#003E5C"/>
<path d="M69.053 32.5366H10.2801C8.60804 32.5366 7.25269 33.892 7.25269 35.564V67.9022C7.25269 69.5742 8.60804 70.9296 10.2801 70.9296H69.0528C70.7248 70.9296 72.0802 69.5742 72.0802 67.9022V35.5643C72.0805 33.8923 70.725 32.5366 69.053 32.5366Z" fill="#CCCCCC"/>
<path d="M40.3209 22.1556C39.6484 21.7673 39.418 20.9074 39.8063 20.2349L43.5741 13.7089C43.9624 13.0363 44.8222 12.8059 45.4948 13.1942C46.1673 13.5825 46.3977 14.4424 46.0094 15.1149L42.2416 21.6409C41.8533 22.3135 40.9934 22.5439 40.3209 22.1556Z" fill="#FFD600"/>
<path d="M34.5403 25.3762C34.5403 22.5454 36.8351 20.2505 39.666 20.2505C42.4968 20.2505 44.7917 22.5454 44.7917 25.3762H34.5403Z" fill="#464655"/>
</g>
<defs>
<clipPath id="clip0_1628_1289">
<rect width="78.8571" height="78.8571" fill="white" transform="translate(0.237793 0.662598)"/>
</clipPath>
</defs>
</svg>
