<svg width="897" height="354" viewBox="0 0 897 354" fill="none" xmlns="http://www.w3.org/2000/svg">
<line x1="52.3066" y1="40.3268" x2="896.257" y2="40.3268" stroke="#CFD8DC" stroke-width="0.72134" stroke-dasharray="6.49 6.49"/>
<line x1="52.3066" y1="94.4723" x2="896.257" y2="94.4723" stroke="#CFD8DC" stroke-width="0.72134" stroke-dasharray="6.49 6.49"/>
<line x1="52.3066" y1="149.34" x2="896.257" y2="149.34" stroke="#CFD8DC" stroke-width="0.72134" stroke-dasharray="6.49 6.49"/>
<path d="M52.3066 148.257L160.959 170.277L225.212 118.297L438.185 148.257L640.328 118.297L712.162 170.277L896.257 148.257" stroke="#037CBF" stroke-width="2.88536"/>
<path d="M40.8673 263.917C40.2133 263.917 39.6651 263.811 39.2226 263.6C38.7898 263.388 38.4388 263.1 38.1695 262.734C37.9098 262.359 37.7222 261.931 37.6068 261.45C37.4914 260.969 37.4241 260.464 37.4049 259.935C37.4049 259.676 37.4 259.411 37.3904 259.142C37.3904 258.873 37.3904 258.603 37.3904 258.334C37.4 258.055 37.4049 257.781 37.4049 257.512C37.4145 256.983 37.477 256.478 37.5924 255.997C37.7174 255.516 37.9098 255.093 38.1695 254.727C38.4388 254.352 38.7898 254.059 39.2226 253.847C39.6651 253.636 40.2133 253.53 40.8673 253.53C41.5213 253.53 42.0647 253.636 42.4975 253.847C42.9399 254.059 43.291 254.352 43.5507 254.727C43.82 255.093 44.0123 255.516 44.1277 255.997C44.2528 256.478 44.3201 256.983 44.3297 257.512C44.3393 257.781 44.3441 258.055 44.3441 258.334C44.3441 258.603 44.3441 258.873 44.3441 259.142C44.3441 259.411 44.3393 259.676 44.3297 259.935C44.3201 260.464 44.2528 260.969 44.1277 261.45C44.0123 261.931 43.82 262.359 43.5507 262.734C43.291 263.1 42.9399 263.388 42.4975 263.6C42.0647 263.811 41.5213 263.917 40.8673 263.917ZM40.8673 263.052C41.7233 263.052 42.3581 262.768 42.7716 262.2C43.1852 261.633 43.4016 260.854 43.4208 259.863C43.4304 259.584 43.4353 259.325 43.4353 259.084C43.4353 258.834 43.4353 258.589 43.4353 258.348C43.4353 258.098 43.4304 257.844 43.4208 257.584C43.4016 256.612 43.1852 255.838 42.7716 255.261C42.3581 254.684 41.7233 254.396 40.8673 254.396C40.0209 254.396 39.3861 254.684 38.9629 255.261C38.5494 255.838 38.333 256.612 38.3137 257.584C38.3137 257.844 38.3089 258.098 38.2993 258.348C38.2993 258.589 38.2993 258.834 38.2993 259.084C38.3089 259.325 38.3137 259.584 38.3137 259.863C38.333 260.854 38.5494 261.633 38.9629 262.2C39.3861 262.768 40.0209 263.052 40.8673 263.052Z" fill="#003E5C"/>
<path d="M38.2138 208.905C38.1176 208.905 38.0407 208.876 37.983 208.818C37.9253 208.761 37.8964 208.684 37.8964 208.587V208.371C37.8964 208.275 37.9205 208.183 37.9686 208.097C38.0263 208.001 38.1225 207.89 38.2571 207.765L41.9936 204.029C42.3591 203.692 42.638 203.399 42.8304 203.148C43.0228 202.898 43.1526 202.653 43.2199 202.413C43.2969 202.163 43.3353 201.889 43.3353 201.59C43.3353 200.946 43.1478 200.441 42.7727 200.076C42.4072 199.71 41.883 199.527 41.2002 199.527C40.7674 199.527 40.3923 199.614 40.0749 199.787C39.7575 199.96 39.5074 200.205 39.3247 200.523C39.1419 200.831 39.0217 201.191 38.964 201.605C38.9544 201.72 38.9111 201.807 38.8342 201.865C38.7572 201.913 38.6899 201.937 38.6322 201.937H38.3437C38.2475 201.937 38.1705 201.913 38.1128 201.865C38.0647 201.807 38.0407 201.739 38.0407 201.663C38.0503 201.336 38.1176 200.999 38.2427 200.653C38.3677 200.297 38.5553 199.97 38.8053 199.672C39.065 199.373 39.392 199.133 39.7863 198.95C40.1807 198.758 40.652 198.662 41.2002 198.662C41.9311 198.662 42.5178 198.801 42.9602 199.08C43.4123 199.359 43.7393 199.72 43.9413 200.162C44.1432 200.605 44.2442 201.081 44.2442 201.59C44.2442 201.985 44.1865 202.35 44.0711 202.687C43.9557 203.014 43.7826 203.336 43.5517 203.653C43.3209 203.961 43.0276 204.279 42.6717 204.606L39.2958 208.039H44.1288C44.2346 208.039 44.3164 208.068 44.3741 208.126C44.4318 208.183 44.4606 208.265 44.4606 208.371V208.587C44.4606 208.684 44.4318 208.761 44.3741 208.818C44.3164 208.876 44.2346 208.905 44.1288 208.905H38.2138Z" fill="#003E5C"/>
<path d="M43.0025 154.038C42.9064 154.038 42.8294 154.009 42.7717 153.951C42.714 153.893 42.6852 153.816 42.6852 153.72V151.441H37.9243C37.8281 151.441 37.7512 151.412 37.6935 151.354C37.6358 151.297 37.6069 151.22 37.6069 151.123V150.893C37.6069 150.873 37.6165 150.82 37.6358 150.734C37.655 150.647 37.6983 150.556 37.7656 150.46L42.1514 144.184C42.2668 144.021 42.4447 143.939 42.6852 143.939H43.2767C43.3728 143.939 43.4498 143.968 43.5075 144.025C43.5652 144.083 43.594 144.16 43.594 144.256V150.575H44.9069C45.0031 150.575 45.08 150.604 45.1377 150.662C45.1954 150.719 45.2243 150.796 45.2243 150.893V151.123C45.2243 151.22 45.1954 151.297 45.1377 151.354C45.08 151.412 45.0031 151.441 44.9069 151.441H43.594V153.72C43.594 153.816 43.5652 153.893 43.5075 153.951C43.4498 154.009 43.3728 154.038 43.2767 154.038H43.0025ZM38.7466 150.575H42.6852V144.963L38.7466 150.575Z" fill="#003E5C"/>
<path d="M41.4454 99.3142C40.676 99.3142 40.0316 99.1507 39.5122 98.8237C38.9929 98.4967 38.5985 98.0735 38.3292 97.5541C38.0696 97.0348 37.9397 96.4865 37.9397 95.9095C37.9397 95.6305 37.9686 95.3661 38.0263 95.116C38.0936 94.8563 38.1754 94.6159 38.2715 94.3946C38.3677 94.1734 38.4639 93.9763 38.5601 93.8031C38.6659 93.6204 38.762 93.4713 38.8486 93.3559L41.6907 89.3597C41.7388 89.3116 41.7917 89.2539 41.8494 89.1866C41.9167 89.1096 42.0129 89.0712 42.1379 89.0712H42.412C42.4986 89.0712 42.5659 89.1048 42.614 89.1721C42.6717 89.2299 42.7006 89.302 42.7006 89.3885C42.7006 89.427 42.6909 89.4655 42.6717 89.504C42.6621 89.5328 42.6477 89.5569 42.6284 89.5761L40.4644 92.6346C40.5991 92.5961 40.7578 92.5673 40.9405 92.548C41.1232 92.5288 41.2915 92.5192 41.4454 92.5192C42.0225 92.5192 42.5274 92.6153 42.9602 92.8077C43.4027 92.9904 43.7681 93.2405 44.0567 93.5579C44.3548 93.8753 44.576 94.2408 44.7203 94.6543C44.8742 95.0583 44.9511 95.4767 44.9511 95.9095C44.9511 96.4865 44.8165 97.0348 44.5472 97.5541C44.2875 98.0735 43.898 98.4967 43.3786 98.8237C42.8593 99.1507 42.2149 99.3142 41.4454 99.3142ZM41.4454 98.4486C41.8975 98.4486 42.3207 98.3524 42.715 98.16C43.1093 97.9677 43.4267 97.684 43.6672 97.3089C43.9172 96.9241 44.0423 96.4577 44.0423 95.9095C44.0423 95.3612 43.9172 94.8996 43.6672 94.5245C43.4267 94.1494 43.1093 93.8657 42.715 93.6733C42.3207 93.481 41.8975 93.3848 41.4454 93.3848C40.9934 93.3848 40.5702 93.481 40.1759 93.6733C39.7815 93.8657 39.4593 94.1494 39.2093 94.5245C38.9688 94.8996 38.8486 95.3612 38.8486 95.9095C38.8486 96.4577 38.9688 96.9241 39.2093 97.3089C39.4593 97.684 39.7815 97.9677 40.1759 98.16C40.5702 98.3524 40.9934 98.4486 41.4454 98.4486Z" fill="#003E5C"/>
<path d="M40.8817 44.446C40.3912 44.446 39.9247 44.3835 39.4823 44.2585C39.0495 44.1238 38.6696 43.9315 38.3426 43.6814C38.0156 43.4217 37.7559 43.1091 37.5635 42.7437C37.3808 42.3686 37.2894 41.9406 37.2894 41.4597C37.2894 40.8441 37.4385 40.3248 37.7367 39.9016C38.0348 39.4688 38.4292 39.137 38.9197 38.9061C38.535 38.6849 38.2272 38.3916 37.9964 38.0261C37.7655 37.6606 37.6501 37.223 37.6501 36.7133C37.6501 36.1266 37.7944 35.6409 38.0829 35.2561C38.3714 34.8618 38.761 34.5637 39.2515 34.3617C39.742 34.1597 40.2854 34.0587 40.8817 34.0587C41.478 34.0587 42.0214 34.1597 42.5119 34.3617C43.0025 34.5637 43.392 34.8618 43.6805 35.2561C43.969 35.6409 44.1133 36.1266 44.1133 36.7133C44.1133 37.223 43.9979 37.6606 43.7671 38.0261C43.5362 38.3916 43.2285 38.6849 42.8438 38.9061C43.3343 39.137 43.7286 39.4688 44.0268 39.9016C44.3249 40.3248 44.474 40.8441 44.474 41.4597C44.474 42.1041 44.3105 42.6475 43.9835 43.0899C43.6661 43.5323 43.2333 43.869 42.6851 44.0998C42.1465 44.3306 41.5453 44.446 40.8817 44.446ZM40.8817 43.5804C41.3818 43.5804 41.8339 43.4939 42.2378 43.3207C42.6418 43.1476 42.964 42.9024 43.2044 42.585C43.4449 42.2676 43.5651 41.8925 43.5651 41.4597C43.5651 41.0173 43.4449 40.6422 43.2044 40.3344C42.964 40.017 42.6418 39.7765 42.2378 39.613C41.8339 39.4399 41.3818 39.3534 40.8817 39.3534C40.3912 39.3534 39.9392 39.4399 39.5256 39.613C39.1216 39.7765 38.7994 40.017 38.559 40.3344C38.3185 40.6422 38.1983 41.0173 38.1983 41.4597C38.1983 41.8925 38.3185 42.2676 38.559 42.585C38.7994 42.9024 39.1216 43.1476 39.5256 43.3207C39.9392 43.4939 40.3912 43.5804 40.8817 43.5804ZM40.8817 38.4878C41.2953 38.4781 41.6752 38.4012 42.0214 38.2569C42.3773 38.1127 42.661 37.9107 42.8726 37.651C43.0938 37.3913 43.2044 37.0787 43.2044 36.7133C43.2044 36.3382 43.0986 36.0208 42.887 35.7611C42.6851 35.4918 42.4061 35.285 42.0503 35.1407C41.704 34.9965 41.3145 34.9243 40.8817 34.9243C40.4585 34.9243 40.069 34.9965 39.7131 35.1407C39.3573 35.285 39.0736 35.4918 38.862 35.7611C38.66 36.0208 38.559 36.3382 38.559 36.7133C38.559 37.0884 38.66 37.4106 38.862 37.6799C39.0736 37.9395 39.3573 38.1415 39.7131 38.2858C40.069 38.4204 40.4585 38.4878 40.8817 38.4878Z" fill="#003E5C"/>
<line x1="52.3066" y1="258.354" x2="896.257" y2="258.354" stroke="#CFD8DC" stroke-width="0.72134" stroke-dasharray="6.49 6.49"/>
<line x1="52.3066" y1="204.209" x2="896.257" y2="204.209" stroke="#CFD8DC" stroke-width="0.72134" stroke-dasharray="6.49 6.49"/>
<path d="M61.6541 324.756C61.4334 324.976 61.2298 325.146 61.0431 325.265C60.8479 325.392 60.674 325.49 60.5213 325.558L59.8721 324.908C60.0418 324.824 60.2243 324.709 60.4194 324.565C60.6146 324.438 60.8013 324.285 60.9795 324.107C61.2934 323.793 61.4928 323.466 61.5777 323.127C61.6625 322.787 61.6286 322.439 61.4759 322.083C61.3316 321.718 61.0686 321.345 60.6867 320.963L51.6626 311.939L52.4009 311.2L61.4122 320.212C61.9044 320.704 62.248 321.209 62.4432 321.726C62.6468 322.253 62.6808 322.77 62.545 323.279C62.4262 323.788 62.1292 324.281 61.6541 324.756ZM59.3242 308.681C60.0879 307.917 60.8431 307.535 61.5898 307.535C62.3365 307.535 63.1172 307.943 63.9318 308.757L68.4756 313.301L67.9283 313.848L66.6555 312.83L66.6173 312.868C66.7107 313.284 66.7489 313.696 66.7319 314.103C66.7149 314.493 66.6131 314.892 66.4264 315.299C66.2397 315.69 65.9343 316.097 65.51 316.521C65.0858 316.946 64.6445 317.243 64.1863 317.412C63.7196 317.574 63.2614 317.599 62.8117 317.489C62.362 317.378 61.9335 317.12 61.5262 316.712C60.8558 316.042 60.6225 315.257 60.8261 314.358C61.0213 313.45 61.6195 312.444 62.6208 311.341L63.8045 310.056L63.3208 309.572C62.6505 308.902 62.0438 308.566 61.5007 308.566C60.9577 308.549 60.4231 308.804 59.897 309.33C59.5491 309.678 59.2606 310.06 59.0315 310.476C58.8024 310.874 58.6072 311.316 58.446 311.799L57.6442 311.456C57.7969 310.98 58.0133 310.501 58.2933 310.017C58.5733 309.534 58.917 309.088 59.3242 308.681ZM63.2317 311.799C62.4171 312.699 61.9292 313.492 61.768 314.179C61.5983 314.858 61.7722 315.456 62.2899 315.974C62.7056 316.39 63.1553 316.576 63.639 316.534C64.1142 316.483 64.5766 316.233 65.0264 315.783C65.7476 315.062 66.0997 314.311 66.0828 313.53C66.0743 312.741 65.7137 311.982 65.0009 311.252L64.339 310.59L63.2317 311.799ZM66.7718 301.208C67.5439 300.436 68.3331 300.045 69.1392 300.037C69.9453 300.029 70.7768 300.453 71.6338 301.31L76.0504 305.726L75.3377 306.439L70.9593 302.061C70.3059 301.407 69.678 301.076 69.0755 301.068C68.4731 301.059 67.8833 301.344 67.3063 301.921C66.5681 302.659 66.2287 303.431 66.2881 304.237C66.3475 305.043 66.8057 305.875 67.6627 306.732L71.3538 310.423L70.6411 311.136L63.8698 304.364L64.4426 303.792L65.7281 304.848L65.7663 304.81C65.6475 304.437 65.5966 304.046 65.6135 303.639C65.6305 303.232 65.7323 302.824 65.919 302.417C66.1057 301.993 66.3899 301.59 66.7718 301.208ZM79.6871 302.09L70.3194 297.915L71.0831 297.151L77.2561 299.964C77.5191 300.074 77.7737 300.193 78.0198 300.32C78.2743 300.439 78.5119 300.558 78.7325 300.677C78.9447 300.787 79.1398 300.897 79.318 301.008L79.3562 300.97C79.2544 300.783 79.1441 300.579 79.0253 300.359C78.915 300.13 78.8004 299.888 78.6816 299.633C78.5628 299.379 78.444 299.133 78.3252 298.895L75.5124 292.722L76.2888 291.946L80.4635 301.313L79.6871 302.09ZM78.1184 290.116L84.8897 296.887L84.1769 297.6L77.4056 290.829L78.1184 290.116ZM75.2546 287.965C75.4159 287.804 75.5898 287.732 75.7765 287.748C75.9547 287.757 76.1286 287.846 76.2983 288.016C76.4765 288.194 76.5741 288.376 76.5911 288.563C76.5995 288.741 76.5232 288.911 76.362 289.072C76.2092 289.225 76.0438 289.297 75.8656 289.289C75.6789 289.272 75.4965 289.174 75.3183 288.996C75.1486 288.826 75.0595 288.652 75.051 288.474C75.034 288.287 75.1019 288.118 75.2546 287.965ZM82.7949 285.185C83.3804 284.599 83.9998 284.251 84.6532 284.141C85.3066 284.014 85.9642 284.086 86.626 284.357C87.2964 284.621 87.937 285.058 88.548 285.668L89.0316 286.152L84.195 290.989C85.1029 291.897 86.0024 292.38 86.8933 292.44C87.7928 292.491 88.6286 292.13 89.4007 291.358C89.825 290.934 90.1602 290.531 90.4062 290.149C90.6523 289.767 90.8772 289.304 91.0808 288.761L91.7427 289.423C91.556 289.915 91.3311 290.361 91.0681 290.76C90.805 291.158 90.4529 291.578 90.0117 292.02C89.3413 292.69 88.6286 293.123 87.8734 293.318C87.1267 293.505 86.3715 293.462 85.6078 293.191C84.8441 292.902 84.1144 292.41 83.4186 291.714C82.7228 291.018 82.2222 290.289 81.9167 289.525C81.6112 288.761 81.5264 288.006 81.6621 287.259C81.7894 286.504 82.167 285.813 82.7949 285.185ZM83.4059 285.796C82.778 286.424 82.481 287.136 82.5149 287.934C82.5404 288.723 82.9052 289.538 83.6095 290.378L87.6825 286.305C87.2073 285.83 86.7236 285.482 86.2315 285.261C85.7393 285.041 85.2514 284.968 84.7678 285.045C84.2926 285.113 83.8386 285.363 83.4059 285.796ZM90.0468 277.958C90.2165 277.789 90.3904 277.64 90.5686 277.513C90.7468 277.369 90.9165 277.25 91.0777 277.157L91.6378 277.92C91.468 278.022 91.3068 278.132 91.1541 278.251C90.9929 278.361 90.8317 278.497 90.6704 278.658C90.365 278.964 90.1486 279.299 90.0213 279.664C89.894 280.029 89.8516 280.411 89.894 280.809C89.9365 281.208 90.0637 281.607 90.2759 282.006C90.488 282.405 90.785 282.795 91.1668 283.177L94.8834 286.893L94.1579 287.619L87.3866 280.848L87.9976 280.237L89.3467 281.433L89.3849 281.395C89.2322 281.022 89.1473 280.64 89.1304 280.249C89.1134 279.842 89.1813 279.443 89.334 279.053C89.4782 278.654 89.7158 278.289 90.0468 277.958Z" fill="#003E5C"/>
<path d="M125.331 319.445L124.593 320.183L115.505 311.095L120.495 306.106L121.157 306.768L116.906 311.019L120.648 314.761L124.657 310.752L125.319 311.414L121.309 315.423L125.331 319.445ZM126.526 304.453C127.112 303.867 127.731 303.519 128.385 303.409C129.038 303.282 129.696 303.354 130.357 303.626C131.028 303.889 131.668 304.326 132.279 304.937L132.763 305.42L127.926 310.257C128.834 311.165 129.734 311.648 130.625 311.708C131.524 311.759 132.36 311.398 133.132 310.626C133.556 310.202 133.892 309.799 134.138 309.417C134.384 309.035 134.609 308.572 134.812 308.029L135.474 308.691C135.287 309.183 135.063 309.629 134.8 310.028C134.536 310.427 134.184 310.847 133.743 311.288C133.073 311.958 132.36 312.391 131.605 312.586C130.858 312.773 130.103 312.73 129.339 312.459C128.576 312.17 127.846 311.678 127.15 310.982C126.454 310.287 125.954 309.557 125.648 308.793C125.343 308.029 125.258 307.274 125.394 306.528C125.521 305.772 125.898 305.081 126.526 304.453ZM127.137 305.064C126.509 305.692 126.212 306.404 126.246 307.202C126.272 307.991 126.637 308.806 127.341 309.646L131.414 305.573C130.939 305.098 130.455 304.75 129.963 304.529C129.471 304.309 128.983 304.237 128.499 304.313C128.024 304.381 127.57 304.631 127.137 305.064ZM125.368 300.113C125.411 300.342 125.44 300.618 125.457 300.94C125.474 301.245 125.487 301.572 125.495 301.92C125.504 302.268 125.504 302.616 125.495 302.964C125.487 303.295 125.47 303.609 125.444 303.906L124.948 304.402L124.834 304.287C124.834 303.965 124.812 303.596 124.77 303.18C124.727 302.764 124.677 302.349 124.617 301.933C124.549 301.508 124.477 301.156 124.401 300.876L125.266 300.011L125.368 300.113ZM139.117 305.659L129.749 301.484L130.513 300.721L136.686 303.534C136.949 303.644 137.204 303.763 137.45 303.89C137.704 304.009 137.942 304.128 138.163 304.246C138.375 304.357 138.57 304.467 138.748 304.577L138.786 304.539C138.684 304.352 138.574 304.149 138.455 303.928C138.345 303.699 138.23 303.457 138.112 303.203C137.993 302.948 137.874 302.702 137.755 302.464L134.942 296.291L135.719 295.515L139.894 304.883L139.117 305.659ZM139.496 291.509C139.666 291.339 139.839 291.191 140.018 291.063C140.196 290.919 140.366 290.8 140.527 290.707L141.087 291.471C140.917 291.573 140.756 291.683 140.603 291.802C140.442 291.912 140.281 292.048 140.119 292.209C139.814 292.514 139.598 292.85 139.47 293.214C139.343 293.579 139.301 293.961 139.343 294.36C139.386 294.759 139.513 295.158 139.725 295.556C139.937 295.955 140.234 296.345 140.616 296.727L144.332 300.444L143.607 301.169L136.836 294.398L137.447 293.787L138.796 294.984L138.834 294.945C138.681 294.572 138.596 294.19 138.579 293.8C138.562 293.393 138.63 292.994 138.783 292.603C138.927 292.205 139.165 291.84 139.496 291.509ZM142.558 288.676L149.329 295.447L148.616 296.16L141.845 289.389L142.558 288.676ZM139.694 286.525C139.855 286.364 140.029 286.292 140.216 286.309C140.394 286.317 140.568 286.406 140.737 286.576C140.916 286.754 141.013 286.937 141.03 287.123C141.039 287.302 140.962 287.471 140.801 287.633C140.648 287.785 140.483 287.857 140.305 287.849C140.118 287.832 139.936 287.734 139.757 287.556C139.588 287.386 139.499 287.213 139.49 287.034C139.473 286.848 139.541 286.678 139.694 286.525ZM147.234 283.745C147.82 283.16 148.439 282.812 149.092 282.701C149.746 282.574 150.403 282.646 151.065 282.918C151.736 283.181 152.376 283.618 152.987 284.229L153.471 284.712L148.634 289.549C149.542 290.457 150.442 290.941 151.332 291C152.232 291.051 153.068 290.69 153.84 289.918C154.264 289.494 154.599 289.091 154.845 288.709C155.091 288.327 155.316 287.865 155.52 287.322L156.182 287.984C155.995 288.476 155.77 288.921 155.507 289.32C155.244 289.719 154.892 290.139 154.451 290.58C153.78 291.25 153.068 291.683 152.313 291.878C151.566 292.065 150.811 292.023 150.047 291.751C149.283 291.463 148.554 290.97 147.858 290.275C147.162 289.579 146.661 288.849 146.356 288.085C146.05 287.322 145.966 286.566 146.101 285.82C146.229 285.065 146.606 284.373 147.234 283.745ZM147.845 284.356C147.217 284.984 146.92 285.697 146.954 286.494C146.98 287.284 147.344 288.098 148.049 288.938L152.122 284.865C151.646 284.39 151.163 284.042 150.671 283.822C150.178 283.601 149.691 283.529 149.207 283.605C148.732 283.673 148.278 283.923 147.845 284.356ZM154.486 276.519C154.656 276.349 154.83 276.201 155.008 276.073C155.186 275.929 155.356 275.81 155.517 275.717L156.077 276.481C155.907 276.582 155.746 276.693 155.593 276.812C155.432 276.922 155.271 277.058 155.11 277.219C154.804 277.524 154.588 277.859 154.46 278.224C154.333 278.589 154.291 278.971 154.333 279.37C154.376 279.769 154.503 280.167 154.715 280.566C154.927 280.965 155.224 281.355 155.606 281.737L159.323 285.454L158.597 286.179L151.826 279.408L152.437 278.797L153.786 279.993L153.824 279.955C153.671 279.582 153.586 279.2 153.57 278.81C153.553 278.402 153.62 278.004 153.773 277.613C153.917 277.215 154.155 276.85 154.486 276.519Z" fill="#003E5C"/>
<path d="M343.901 307.352L332.319 302.311L332.281 302.349C332.45 302.485 332.633 302.651 332.828 302.846C333.023 303.024 333.227 303.219 333.439 303.431C333.651 303.626 333.867 303.834 334.088 304.055L340.643 310.61L339.955 311.297L330.868 302.209L331.975 301.102L343.074 305.939L343.125 305.888L338.326 294.751L339.408 293.669L348.496 302.757L347.77 303.482L341.139 296.851C340.952 296.664 340.762 296.473 340.566 296.278C340.38 296.075 340.197 295.875 340.019 295.68C339.841 295.485 339.675 295.302 339.523 295.133L339.485 295.171L344.499 306.753L343.901 307.352ZM346.409 291.072C347.173 290.308 347.928 289.926 348.675 289.926C349.422 289.926 350.202 290.333 351.017 291.148L355.561 295.692L355.013 296.239L353.741 295.221L353.703 295.259C353.796 295.675 353.834 296.086 353.817 296.494C353.8 296.884 353.698 297.283 353.512 297.69C353.325 298.08 353.019 298.488 352.595 298.912C352.171 299.336 351.73 299.633 351.271 299.803C350.805 299.964 350.347 299.99 349.897 299.879C349.447 299.769 349.019 299.51 348.611 299.103C347.941 298.433 347.708 297.648 347.911 296.748C348.106 295.84 348.705 294.835 349.706 293.732L350.89 292.446L350.406 291.963C349.736 291.292 349.129 290.957 348.586 290.957C348.043 290.94 347.508 291.195 346.982 291.721C346.634 292.069 346.346 292.45 346.117 292.866C345.888 293.265 345.692 293.706 345.531 294.19L344.729 293.846C344.882 293.371 345.098 292.892 345.378 292.408C345.658 291.924 346.002 291.479 346.409 291.072ZM350.317 294.19C349.502 295.089 349.014 295.883 348.853 296.57C348.683 297.249 348.857 297.847 349.375 298.365C349.791 298.78 350.241 298.967 350.724 298.925C351.199 298.874 351.662 298.624 352.112 298.174C352.833 297.453 353.185 296.702 353.168 295.921C353.159 295.132 352.799 294.372 352.086 293.643L351.424 292.981L350.317 294.19ZM351.668 286.042L358.439 292.814L357.726 293.526L350.955 286.755L351.668 286.042ZM348.804 283.891C348.965 283.73 349.139 283.658 349.326 283.675C349.504 283.683 349.678 283.773 349.848 283.942C350.026 284.12 350.123 284.303 350.14 284.49C350.149 284.668 350.073 284.837 349.911 284.999C349.759 285.151 349.593 285.224 349.415 285.215C349.228 285.198 349.046 285.101 348.868 284.922C348.698 284.753 348.609 284.579 348.6 284.4C348.583 284.214 348.651 284.044 348.804 283.891Z" fill="#003E5C"/>
<path d="M414.171 315.25C413.95 315.471 413.746 315.641 413.56 315.759C413.365 315.887 413.191 315.984 413.038 316.052L412.389 315.403C412.559 315.318 412.741 315.204 412.936 315.059C413.131 314.932 413.318 314.779 413.496 314.601C413.81 314.287 414.01 313.96 414.094 313.621C414.179 313.282 414.145 312.934 413.993 312.577C413.848 312.213 413.585 311.839 413.203 311.457L404.179 302.433L404.918 301.695L413.929 310.706C414.421 311.199 414.765 311.703 414.96 312.221C415.164 312.747 415.197 313.265 415.062 313.774C414.943 314.283 414.646 314.775 414.171 315.25ZM414.896 296.35L421.667 303.121L421.069 303.719L419.809 302.663L419.77 302.701C419.898 303.066 419.949 303.456 419.923 303.872C419.906 304.279 419.804 304.687 419.618 305.094C419.431 305.501 419.143 305.9 418.752 306.29C418.226 306.816 417.696 307.169 417.161 307.347C416.627 307.508 416.088 307.495 415.545 307.309C415.002 307.122 414.459 306.757 413.916 306.214L409.474 301.772L410.199 301.046L414.577 305.425C415.222 306.07 415.846 306.405 416.448 306.43C417.051 306.439 417.636 306.159 418.205 305.59C418.706 305.09 419.028 304.581 419.172 304.063C419.308 303.537 419.266 303.002 419.045 302.459C418.833 301.908 418.442 301.348 417.874 300.779L414.17 297.075L414.896 296.35ZM417.845 293.4L424.616 300.172L423.904 300.884L417.132 294.113L417.845 293.4ZM414.981 291.249C415.142 291.088 415.316 291.016 415.503 291.033C415.681 291.042 415.855 291.131 416.025 291.3C416.203 291.479 416.301 291.661 416.318 291.848C416.326 292.026 416.25 292.196 416.089 292.357C415.936 292.51 415.77 292.582 415.592 292.573C415.406 292.556 415.223 292.459 415.045 292.28C414.875 292.111 414.786 291.937 414.778 291.759C414.761 291.572 414.829 291.402 414.981 291.249ZM422.992 287.998C423.765 287.226 424.554 286.836 425.36 286.827C426.166 286.819 426.998 287.243 427.855 288.1L432.271 292.517L431.558 293.23L427.18 288.851C426.527 288.198 425.899 287.867 425.296 287.858C424.694 287.85 424.104 288.134 423.527 288.711C422.789 289.449 422.449 290.222 422.509 291.028C422.568 291.834 423.026 292.665 423.883 293.522L427.575 297.213L426.862 297.926L420.091 291.155L420.663 290.582L421.949 291.639L421.987 291.6C421.868 291.227 421.817 290.837 421.834 290.429C421.851 290.022 421.953 289.615 422.14 289.208C422.326 288.783 422.611 288.38 422.992 287.998Z" fill="#003E5C"/>
<path d="M478.418 320.098C478.197 320.319 477.993 320.488 477.807 320.607C477.611 320.734 477.438 320.832 477.285 320.9L476.636 320.251C476.805 320.166 476.988 320.051 477.183 319.907C477.378 319.78 477.565 319.627 477.743 319.449C478.057 319.135 478.256 318.808 478.341 318.469C478.426 318.129 478.392 317.781 478.239 317.425C478.095 317.06 477.832 316.687 477.45 316.305L468.426 307.281L469.164 306.543L478.176 315.554C478.668 316.046 479.012 316.551 479.207 317.069C479.41 317.595 479.444 318.112 479.309 318.621C479.19 319.131 478.893 319.623 478.418 320.098ZM479.142 301.198L485.914 307.969L485.316 308.567L484.055 307.511L484.017 307.549C484.145 307.914 484.195 308.304 484.17 308.72C484.153 309.127 484.051 309.534 483.865 309.942C483.678 310.349 483.389 310.748 482.999 311.138C482.473 311.664 481.943 312.016 481.408 312.194C480.873 312.356 480.335 312.343 479.792 312.156C479.249 311.97 478.705 311.605 478.162 311.062L473.72 306.62L474.446 305.894L478.824 310.273C479.469 310.917 480.093 311.253 480.695 311.278C481.298 311.287 481.883 311.007 482.452 310.438C482.952 309.937 483.275 309.428 483.419 308.911C483.555 308.385 483.512 307.85 483.292 307.307C483.08 306.755 482.689 306.195 482.121 305.627L478.417 301.923L479.142 301.198ZM482.092 298.248L488.863 305.019L488.15 305.732L481.379 298.961L482.092 298.248ZM479.228 296.097C479.389 295.936 479.563 295.864 479.75 295.881C479.928 295.889 480.102 295.978 480.272 296.148C480.45 296.326 480.548 296.509 480.565 296.695C480.573 296.874 480.497 297.043 480.335 297.204C480.183 297.357 480.017 297.429 479.839 297.421C479.652 297.404 479.47 297.306 479.292 297.128C479.122 296.958 479.033 296.784 479.024 296.606C479.007 296.42 479.075 296.25 479.228 296.097ZM491.834 302.048L491.109 302.774L481.435 293.101L482.161 292.375L491.834 302.048ZM494.792 299.09L494.067 299.816L484.394 290.142L485.119 289.417L494.792 299.09ZM492.685 287.401C493.27 286.815 493.89 286.467 494.543 286.357C495.197 286.23 495.854 286.302 496.516 286.573C497.186 286.836 497.827 287.273 498.438 287.884L498.922 288.368L494.085 293.204C494.993 294.112 495.892 294.596 496.783 294.655C497.683 294.706 498.519 294.346 499.291 293.574C499.715 293.149 500.05 292.746 500.296 292.364C500.542 291.983 500.767 291.52 500.971 290.977L501.633 291.639C501.446 292.131 501.221 292.577 500.958 292.975C500.695 293.374 500.343 293.794 499.902 294.235C499.231 294.906 498.519 295.339 497.763 295.534C497.017 295.72 496.261 295.678 495.498 295.406C494.734 295.118 494.004 294.626 493.309 293.93C492.613 293.234 492.112 292.504 491.807 291.741C491.501 290.977 491.416 290.222 491.552 289.475C491.679 288.72 492.057 288.028 492.685 287.401ZM493.296 288.011C492.668 288.639 492.371 289.352 492.405 290.15C492.43 290.939 492.795 291.753 493.499 292.594L497.572 288.521C497.097 288.045 496.614 287.698 496.121 287.477C495.629 287.256 495.141 287.184 494.658 287.261C494.183 287.328 493.729 287.579 493.296 288.011ZM505.473 287.442C505.66 287.255 505.826 287.064 505.97 286.869C506.106 286.665 506.216 286.479 506.301 286.309L506.886 286.895C506.81 287.073 506.691 287.276 506.53 287.505C506.377 287.726 506.195 287.942 505.982 288.155C505.609 288.528 505.223 288.778 504.824 288.906C504.417 289.024 503.993 289.007 503.551 288.855C503.119 288.693 502.669 288.379 502.202 287.913L497.9 283.611L496.907 284.603L496.5 284.196L497.264 282.974L495.966 281.141L496.424 280.683L498.04 282.3L500.128 280.212L500.713 280.798L498.626 282.885L502.902 287.162C503.369 287.628 503.819 287.892 504.251 287.951C504.676 288.002 505.083 287.832 505.473 287.442Z" fill="#003E5C"/>
<path d="M555.777 308.485L551.437 306.563L547.657 310.343L549.566 314.696L548.815 315.447L543.278 302.757L543.94 302.095L556.541 307.721L555.777 308.485ZM546.04 304.068C545.93 304.009 545.777 303.932 545.582 303.839C545.387 303.746 545.183 303.644 544.971 303.533C544.759 303.423 544.564 303.33 544.386 303.253C544.487 303.44 544.589 303.635 544.691 303.839C544.801 304.034 544.899 304.225 544.984 304.412C545.077 304.59 545.158 304.755 545.226 304.908L547.249 309.426L550.546 306.13L546.04 304.068ZM559.957 297.534C560.483 298.06 560.895 298.607 561.191 299.175C561.488 299.727 561.662 300.291 561.713 300.868C561.764 301.428 561.684 301.984 561.472 302.536C561.259 303.087 560.907 303.609 560.415 304.101C559.948 304.568 559.448 304.907 558.913 305.119C558.379 305.315 557.827 305.391 557.259 305.348C556.682 305.298 556.109 305.124 555.54 304.827C554.972 304.53 554.424 304.118 553.898 303.592C553.16 302.854 552.651 302.107 552.371 301.352C552.091 300.58 552.04 299.825 552.218 299.086C552.405 298.34 552.817 297.648 553.453 297.012C554.098 296.367 554.789 295.972 555.528 295.828C556.266 295.667 557.012 295.735 557.768 296.032C558.523 296.329 559.253 296.829 559.957 297.534ZM554.649 302.841C555.226 303.418 555.816 303.847 556.419 304.127C557.012 304.398 557.598 304.483 558.175 304.381C558.752 304.279 559.295 303.974 559.804 303.465C560.33 302.939 560.644 302.387 560.746 301.81C560.839 301.225 560.75 300.635 560.479 300.041C560.199 299.438 559.774 298.853 559.206 298.284C558.637 297.716 558.06 297.292 557.475 297.012C556.889 296.732 556.308 296.634 555.731 296.719C555.154 296.804 554.598 297.114 554.064 297.648C553.292 298.42 552.969 299.252 553.097 300.143C553.224 301.034 553.741 301.933 554.649 302.841ZM563.748 286.971L570.519 293.743L569.921 294.341L568.661 293.284L568.623 293.323C568.75 293.687 568.801 294.078 568.775 294.494C568.758 294.901 568.657 295.308 568.47 295.715C568.283 296.123 567.995 296.522 567.604 296.912C567.078 297.438 566.548 297.79 566.013 297.968C565.479 298.129 564.94 298.117 564.397 297.93C563.854 297.743 563.311 297.379 562.768 296.835L558.326 292.393L559.051 291.668L563.43 296.046C564.074 296.691 564.698 297.026 565.301 297.052C565.903 297.06 566.489 296.78 567.057 296.212C567.558 295.711 567.88 295.202 568.024 294.684C568.16 294.158 568.118 293.624 567.897 293.081C567.685 292.529 567.295 291.969 566.726 291.401L563.022 287.697L563.748 286.971ZM558.491 286.322C558.771 286.399 559.119 286.466 559.535 286.526C559.951 286.568 560.371 286.606 560.795 286.64C561.219 286.674 561.597 286.696 561.928 286.704L562.03 286.806L561.495 287.34C561.079 287.383 560.629 287.4 560.146 287.391C559.671 287.374 559.212 287.349 558.771 287.315C558.805 287.756 558.826 288.219 558.835 288.702C558.835 289.178 558.818 289.627 558.784 290.051L558.275 290.561L558.173 290.459C558.156 290.119 558.131 289.746 558.097 289.339C558.063 288.914 558.02 288.499 557.969 288.091C557.918 287.667 557.855 287.315 557.778 287.035L558.491 286.322ZM574.181 289.113C574.368 288.926 574.533 288.736 574.678 288.54C574.813 288.337 574.924 288.15 575.009 287.98L575.594 288.566C575.518 288.744 575.399 288.948 575.238 289.177C575.085 289.397 574.902 289.614 574.69 289.826C574.317 290.199 573.931 290.45 573.532 290.577C573.125 290.696 572.701 290.679 572.259 290.526C571.827 290.365 571.377 290.051 570.91 289.584L566.608 285.282L565.615 286.275L565.208 285.867L565.972 284.646L564.673 282.813L565.132 282.355L566.748 283.971L568.835 281.884L569.421 282.469L567.334 284.557L571.61 288.833C572.077 289.3 572.527 289.563 572.959 289.622C573.384 289.673 573.791 289.503 574.181 289.113Z" fill="#003E5C"/>
<path d="M608.668 325.069C609.212 325.612 609.534 326.206 609.636 326.851C609.738 327.479 609.644 328.124 609.356 328.785C609.067 329.447 608.622 330.079 608.019 330.682C607.646 331.055 607.29 331.369 606.95 331.624C606.619 331.887 606.305 332.116 606.008 332.311C605.703 332.498 605.414 332.651 605.143 332.769L604.405 332.031C604.854 331.836 605.342 331.577 605.868 331.255C606.386 330.924 606.899 330.504 607.408 329.995C607.875 329.528 608.215 329.053 608.427 328.569C608.647 328.077 608.724 327.602 608.656 327.144C608.596 326.677 608.367 326.244 607.968 325.845C607.604 325.48 607.222 325.268 606.823 325.209C606.433 325.141 605.979 325.196 605.461 325.374C604.943 325.536 604.328 325.794 603.615 326.151C603.098 326.397 602.614 326.601 602.165 326.762C601.723 326.914 601.299 326.999 600.892 327.016C600.484 327.033 600.094 326.965 599.721 326.813C599.347 326.66 598.974 326.397 598.601 326.024C598.1 325.523 597.807 324.976 597.722 324.382C597.638 323.788 597.722 323.185 597.977 322.574C598.24 321.955 598.647 321.369 599.199 320.818C599.64 320.377 600.103 319.999 600.586 319.685C601.061 319.363 601.558 319.104 602.075 318.909L602.47 319.787C601.961 319.99 601.486 320.237 601.044 320.525C600.603 320.814 600.2 321.14 599.835 321.505C599.411 321.929 599.101 322.366 598.906 322.816C598.711 323.249 598.647 323.677 598.715 324.102C598.775 324.517 598.983 324.903 599.339 325.26C599.729 325.65 600.128 325.879 600.535 325.947C600.943 326.015 601.388 325.968 601.872 325.807C602.347 325.637 602.898 325.4 603.526 325.094C604.248 324.746 604.905 324.488 605.499 324.318C606.093 324.131 606.645 324.089 607.154 324.191C607.671 324.284 608.176 324.577 608.668 325.069ZM608.451 316.199C609.036 315.613 609.656 315.265 610.309 315.155C610.962 315.028 611.62 315.1 612.282 315.372C612.952 315.635 613.593 316.072 614.204 316.683L614.687 317.166L609.851 322.003C610.759 322.911 611.658 323.394 612.549 323.454C613.449 323.505 614.284 323.144 615.057 322.372C615.481 321.948 615.816 321.545 616.062 321.163C616.308 320.781 616.533 320.318 616.737 319.775L617.399 320.437C617.212 320.929 616.987 321.375 616.724 321.774C616.461 322.172 616.109 322.593 615.668 323.034C614.997 323.704 614.284 324.137 613.529 324.332C612.783 324.519 612.027 324.476 611.264 324.205C610.5 323.916 609.77 323.424 609.074 322.728C608.379 322.032 607.878 321.303 607.573 320.539C607.267 319.775 607.182 319.02 607.318 318.273C607.445 317.518 607.823 316.827 608.451 316.199ZM609.062 316.81C608.434 317.438 608.137 318.15 608.171 318.948C608.196 319.737 608.561 320.552 609.265 321.392L613.338 317.319C612.863 316.844 612.379 316.496 611.887 316.275C611.395 316.055 610.907 315.982 610.424 316.059C609.948 316.127 609.494 316.377 609.062 316.81ZM615.944 308.705C616.81 307.84 617.777 307.458 618.846 307.56C619.924 307.653 621.036 308.272 622.181 309.418C622.945 310.182 623.479 310.945 623.785 311.709C624.082 312.464 624.154 313.19 624.001 313.885C623.857 314.573 623.492 315.209 622.907 315.795C622.508 316.193 622.101 316.482 621.685 316.66C621.269 316.838 620.866 316.927 620.476 316.927C620.085 316.927 619.716 316.864 619.368 316.736L619.317 316.787C619.546 316.983 619.793 317.203 620.056 317.449C620.31 317.687 620.543 317.912 620.756 318.124L623.543 320.911L622.818 321.637L613.043 311.862L613.641 311.263L615.003 312.447L615.041 312.409C614.905 312.053 614.833 311.667 614.824 311.251C614.816 310.835 614.897 310.415 615.066 309.991C615.236 309.549 615.529 309.121 615.944 308.705ZM616.466 309.431C615.966 309.931 615.66 310.449 615.55 310.983C615.44 311.518 615.512 312.074 615.766 312.651C616.012 313.219 616.437 313.805 617.039 314.407L617.166 314.535C617.803 315.171 618.414 315.629 618.999 315.909C619.585 316.172 620.14 316.253 620.667 316.151C621.201 316.041 621.71 315.744 622.194 315.26C622.669 314.785 622.949 314.276 623.034 313.733C623.119 313.173 623.025 312.596 622.754 312.002C622.482 311.391 622.041 310.78 621.43 310.169C620.505 309.244 619.627 308.714 618.796 308.578C617.955 308.434 617.179 308.718 616.466 309.431ZM628.859 308.621C629.045 308.434 629.211 308.243 629.355 308.048C629.491 307.844 629.601 307.658 629.686 307.488L630.271 308.073C630.195 308.252 630.076 308.455 629.915 308.684C629.762 308.905 629.58 309.121 629.368 309.334C628.994 309.707 628.608 309.957 628.21 310.084C627.802 310.203 627.378 310.186 626.937 310.034C626.504 309.872 626.054 309.558 625.588 309.092L621.286 304.79L620.293 305.782L619.885 305.375L620.649 304.153L619.351 302.32L619.809 301.862L621.426 303.479L623.513 301.391L624.098 301.977L622.011 304.064L626.288 308.341C626.754 308.807 627.204 309.07 627.637 309.13C628.061 309.181 628.468 309.011 628.859 308.621ZM627.418 297.231C628.004 296.646 628.623 296.298 629.277 296.188C629.93 296.06 630.588 296.132 631.249 296.404C631.92 296.667 632.56 297.104 633.171 297.715L633.655 298.199L628.818 303.035C629.726 303.943 630.626 304.427 631.517 304.486C632.416 304.537 633.252 304.176 634.024 303.404C634.448 302.98 634.784 302.577 635.03 302.195C635.276 301.813 635.501 301.351 635.704 300.808L636.366 301.47C636.179 301.962 635.955 302.407 635.692 302.806C635.428 303.205 635.076 303.625 634.635 304.066C633.965 304.736 633.252 305.169 632.497 305.364C631.75 305.551 630.995 305.509 630.231 305.237C629.468 304.949 628.738 304.456 628.042 303.761C627.346 303.065 626.846 302.335 626.54 301.571C626.235 300.808 626.15 300.053 626.286 299.306C626.413 298.551 626.79 297.859 627.418 297.231ZM628.029 297.842C627.401 298.47 627.104 299.183 627.138 299.98C627.164 300.77 627.529 301.584 628.233 302.424L632.306 298.351C631.831 297.876 631.347 297.528 630.855 297.308C630.363 297.087 629.875 297.015 629.391 297.091C628.916 297.159 628.462 297.409 628.029 297.842ZM638.947 285.703C639.626 285.024 640.343 284.689 641.098 284.697C641.862 284.697 642.655 285.109 643.478 285.932L647.996 290.45L647.271 291.176L642.778 286.683C642.175 286.08 641.594 285.771 641.034 285.754C640.466 285.728 639.948 285.949 639.481 286.416C638.828 287.069 638.518 287.761 638.552 288.49C638.586 289.203 638.998 289.954 639.787 290.743L643.745 294.701L643.02 295.427L638.527 290.934C638.119 290.527 637.721 290.255 637.33 290.119C636.949 289.975 636.579 289.954 636.223 290.056C635.875 290.149 635.54 290.357 635.218 290.679C634.793 291.104 634.522 291.553 634.403 292.029C634.284 292.504 634.322 293 634.517 293.518C634.721 294.027 635.099 294.557 635.65 295.109L639.494 298.953L638.781 299.665L632.01 292.894L632.583 292.321L633.779 293.289L633.817 293.25C633.707 292.903 633.656 292.546 633.665 292.181C633.682 291.808 633.771 291.43 633.932 291.049C634.093 290.667 634.348 290.302 634.696 289.954C635.196 289.453 635.722 289.139 636.274 289.012C636.825 288.885 637.381 288.965 637.941 289.254L637.992 289.203C637.78 288.601 637.755 287.998 637.916 287.396C638.086 286.785 638.429 286.22 638.947 285.703ZM643.854 280.592C644.1 280.838 644.359 281.105 644.631 281.393C644.894 281.673 645.106 281.911 645.267 282.106L645.318 282.055C645.098 281.495 645.051 280.897 645.178 280.261C645.305 279.607 645.666 278.984 646.26 278.39C647.125 277.524 648.097 277.147 649.175 277.257C650.252 277.35 651.368 277.974 652.522 279.128C653.235 279.841 653.744 280.57 654.049 281.317C654.363 282.055 654.453 282.789 654.317 283.519C654.181 284.232 653.803 284.898 653.184 285.517C652.615 286.086 652.03 286.434 651.428 286.561C650.834 286.68 650.282 286.654 649.773 286.485L649.709 286.548L650.664 287.783L650.129 288.317L640.456 278.644L641.182 277.919L643.854 280.592ZM646.782 279.115C646.264 279.633 645.95 280.167 645.84 280.719C645.738 281.262 645.823 281.822 646.095 282.399C646.375 282.967 646.829 283.566 647.456 284.194L647.546 284.283C648.462 285.199 649.323 285.738 650.129 285.899C650.935 286.043 651.716 285.738 652.471 284.983C653.201 284.253 653.498 283.455 653.362 282.59C653.235 281.716 652.705 280.812 651.771 279.879C650.812 278.92 649.921 278.377 649.098 278.25C648.267 278.114 647.495 278.402 646.782 279.115ZM653.65 271.025C653.82 270.855 653.994 270.707 654.172 270.579C654.35 270.435 654.52 270.316 654.681 270.223L655.241 270.987C655.072 271.088 654.91 271.199 654.758 271.318C654.596 271.428 654.435 271.564 654.274 271.725C653.968 272.03 653.752 272.366 653.625 272.73C653.498 273.095 653.455 273.477 653.498 273.876C653.54 274.275 653.667 274.674 653.879 275.072C654.091 275.471 654.388 275.861 654.77 276.243L658.487 279.96L657.761 280.685L650.99 273.914L651.601 273.303L652.95 274.5L652.988 274.461C652.836 274.088 652.751 273.706 652.734 273.316C652.717 272.909 652.785 272.51 652.937 272.119C653.082 271.721 653.319 271.356 653.65 271.025ZM658.182 266.468C658.767 265.882 659.387 265.535 660.04 265.424C660.693 265.297 661.351 265.369 662.013 265.641C662.683 265.904 663.324 266.341 663.935 266.952L664.418 267.435L659.582 272.272C660.49 273.18 661.389 273.663 662.28 273.723C663.18 273.774 664.015 273.413 664.787 272.641C665.212 272.217 665.547 271.814 665.793 271.432C666.039 271.05 666.264 270.588 666.468 270.045L667.129 270.706C666.943 271.199 666.718 271.644 666.455 272.043C666.192 272.442 665.84 272.862 665.398 273.303C664.728 273.973 664.015 274.406 663.26 274.601C662.513 274.788 661.758 274.745 660.995 274.474C660.231 274.185 659.501 273.693 658.805 272.997C658.11 272.302 657.609 271.572 657.303 270.808C656.998 270.045 656.913 269.289 657.049 268.543C657.176 267.787 657.554 267.096 658.182 266.468ZM658.793 267.079C658.165 267.707 657.868 268.42 657.902 269.217C657.927 270.006 658.292 270.821 658.996 271.661L663.069 267.588C662.594 267.113 662.11 266.765 661.618 266.544C661.126 266.324 660.638 266.252 660.155 266.328C659.679 266.396 659.225 266.646 658.793 267.079Z" fill="#003E5C"/>
<path d="M210.875 303.828L199.293 298.788L199.255 298.826C199.424 298.962 199.607 299.127 199.802 299.322C199.997 299.5 200.201 299.696 200.413 299.908C200.625 300.103 200.841 300.311 201.062 300.531L207.617 307.086L206.929 307.774L197.842 298.686L198.949 297.579L210.048 302.415L210.099 302.364L205.3 291.227L206.382 290.145L215.47 299.233L214.744 299.959L208.113 293.327C207.927 293.141 207.736 292.95 207.54 292.755C207.354 292.551 207.171 292.352 206.993 292.156C206.815 291.961 206.649 291.779 206.497 291.609L206.459 291.647L211.473 303.23L210.875 303.828ZM213.383 287.548C214.147 286.784 214.902 286.402 215.649 286.402C216.396 286.402 217.176 286.81 217.991 287.624L222.535 292.168L221.988 292.716L220.715 291.697L220.677 291.735C220.77 292.151 220.808 292.563 220.791 292.97C220.774 293.36 220.672 293.759 220.486 294.167C220.299 294.557 219.993 294.964 219.569 295.388C219.145 295.813 218.704 296.11 218.246 296.279C217.779 296.441 217.321 296.466 216.871 296.356C216.421 296.245 215.993 295.987 215.585 295.579C214.915 294.909 214.682 294.124 214.885 293.225C215.08 292.317 215.679 291.311 216.68 290.208L217.864 288.923L217.38 288.439C216.71 287.769 216.103 287.433 215.56 287.433C215.017 287.416 214.482 287.671 213.956 288.197C213.608 288.545 213.32 288.927 213.091 289.343C212.862 289.741 212.666 290.183 212.505 290.666L211.703 290.323C211.856 289.848 212.072 289.368 212.352 288.884C212.632 288.401 212.976 287.955 213.383 287.548ZM217.291 290.666C216.476 291.566 215.988 292.359 215.827 293.046C215.657 293.725 215.831 294.324 216.349 294.841C216.765 295.257 217.215 295.444 217.698 295.401C218.173 295.35 218.636 295.1 219.086 294.65C219.807 293.929 220.159 293.178 220.142 292.397C220.133 291.608 219.773 290.849 219.06 290.119L218.398 289.457L217.291 290.666ZM220.589 280.342C220.759 280.173 220.933 280.024 221.111 279.897C221.289 279.753 221.459 279.634 221.62 279.54L222.18 280.304C222.01 280.406 221.849 280.516 221.696 280.635C221.535 280.745 221.374 280.881 221.213 281.042C220.907 281.348 220.691 281.683 220.564 282.048C220.436 282.413 220.394 282.795 220.436 283.193C220.479 283.592 220.606 283.991 220.818 284.39C221.03 284.789 221.327 285.179 221.709 285.561L225.426 289.277L224.7 290.003L217.929 283.232L218.54 282.621L219.889 283.817L219.927 283.779C219.775 283.406 219.69 283.024 219.673 282.633C219.656 282.226 219.724 281.827 219.876 281.437C220.021 281.038 220.258 280.673 220.589 280.342ZM232.166 278.948C232.573 279.355 232.819 279.805 232.904 280.297C232.989 280.789 232.913 281.307 232.675 281.85C232.429 282.384 232.026 282.932 231.466 283.492C230.999 283.958 230.541 284.332 230.091 284.612C229.642 284.892 229.23 285.1 228.857 285.236L228.157 284.535C228.615 284.383 229.086 284.166 229.569 283.886C230.045 283.598 230.477 283.258 230.868 282.868C231.546 282.189 231.924 281.591 232 281.073C232.068 280.547 231.907 280.089 231.517 279.699C231.262 279.444 230.982 279.309 230.677 279.292C230.371 279.258 230.015 279.317 229.608 279.47C229.2 279.606 228.725 279.809 228.182 280.081C227.622 280.352 227.109 280.577 226.642 280.755C226.167 280.925 225.726 280.984 225.318 280.933C224.911 280.883 224.508 280.658 224.109 280.259C223.566 279.716 223.362 279.071 223.498 278.324C223.634 277.578 224.071 276.835 224.809 276.097C225.216 275.69 225.632 275.35 226.056 275.079C226.489 274.799 226.913 274.578 227.329 274.417L227.673 275.27C227.427 275.363 227.168 275.486 226.897 275.639C226.617 275.783 226.349 275.948 226.095 276.135C225.84 276.322 225.603 276.525 225.382 276.746C224.847 277.281 224.525 277.79 224.415 278.273C224.304 278.757 224.427 279.177 224.784 279.533C225.055 279.805 225.339 279.953 225.636 279.979C225.933 279.987 226.273 279.911 226.655 279.75C227.045 279.58 227.507 279.372 228.042 279.126C228.577 278.863 229.081 278.647 229.557 278.477C230.04 278.299 230.494 278.235 230.919 278.286C231.351 278.328 231.767 278.549 232.166 278.948Z" fill="#003E5C"/>
<path d="M282.942 302.97L278.602 301.049L274.821 304.829L276.731 309.182L275.98 309.933L270.443 297.243L271.105 296.581L283.706 302.207L282.942 302.97ZM273.205 298.554C273.095 298.494 272.942 298.418 272.747 298.325C272.552 298.231 272.348 298.13 272.136 298.019C271.924 297.909 271.729 297.816 271.55 297.739C271.652 297.926 271.754 298.121 271.856 298.325C271.966 298.52 272.064 298.711 272.149 298.897C272.242 299.076 272.323 299.241 272.39 299.394L274.414 303.912L277.711 300.616L273.205 298.554ZM286.32 299.592L276.952 295.418L277.716 294.654L283.889 297.467C284.152 297.577 284.406 297.696 284.652 297.823C284.907 297.942 285.145 298.061 285.365 298.18C285.577 298.29 285.773 298.4 285.951 298.511L285.989 298.472C285.887 298.286 285.777 298.082 285.658 297.861C285.548 297.632 285.433 297.391 285.314 297.136C285.196 296.881 285.077 296.635 284.958 296.398L282.145 290.225L282.921 289.448L287.096 298.816L286.32 299.592ZM286.699 285.442C286.868 285.272 287.042 285.124 287.22 284.997C287.399 284.852 287.568 284.734 287.729 284.64L288.289 285.404C288.12 285.506 287.959 285.616 287.806 285.735C287.645 285.845 287.483 285.981 287.322 286.142C287.017 286.448 286.8 286.783 286.673 287.148C286.546 287.513 286.503 287.894 286.546 288.293C286.588 288.692 286.715 289.091 286.928 289.49C287.14 289.888 287.437 290.279 287.819 290.661L291.535 294.377L290.81 295.103L284.038 288.331L284.649 287.72L285.998 288.917L286.037 288.879C285.884 288.505 285.799 288.124 285.782 287.733C285.765 287.326 285.833 286.927 285.986 286.537C286.13 286.138 286.368 285.773 286.699 285.442ZM289.76 282.61L296.532 289.381L295.819 290.094L289.048 283.322L289.76 282.61ZM286.896 280.459C287.058 280.297 287.232 280.225 287.418 280.242C287.597 280.251 287.77 280.34 287.94 280.509C288.118 280.688 288.216 280.87 288.233 281.057C288.241 281.235 288.165 281.405 288.004 281.566C287.851 281.719 287.686 281.791 287.507 281.782C287.321 281.765 287.138 281.668 286.96 281.489C286.79 281.32 286.701 281.146 286.693 280.968C286.676 280.781 286.744 280.611 286.896 280.459ZM299.502 286.41L298.777 287.135L289.104 277.462L289.829 276.737L299.502 286.41Z" fill="#003E5C"/>
<path d="M684.432 313.719C685.128 314.414 685.671 315.136 686.061 315.882C686.46 316.621 686.702 317.372 686.787 318.135C686.863 318.89 686.757 319.641 686.468 320.388C686.18 321.118 685.696 321.822 685.017 322.501C684.33 323.188 683.617 323.672 682.879 323.952C682.141 324.232 681.394 324.334 680.639 324.257C679.884 324.181 679.137 323.943 678.399 323.545C677.652 323.137 676.931 322.586 676.235 321.89C675.31 320.965 674.653 320.002 674.262 319.001C673.881 317.991 673.8 316.985 674.021 315.984C674.241 314.966 674.805 314.003 675.713 313.095C676.587 312.221 677.512 311.678 678.488 311.466C679.464 311.237 680.457 311.313 681.466 311.695C682.476 312.077 683.465 312.751 684.432 313.719ZM677.012 321.114C677.826 321.928 678.654 322.518 679.494 322.883C680.334 323.248 681.169 323.354 682.001 323.201C682.833 323.048 683.626 322.594 684.381 321.839C685.145 321.075 685.603 320.286 685.756 319.472C685.908 318.64 685.798 317.809 685.425 316.977C685.06 316.137 684.47 315.31 683.656 314.495C682.391 313.231 681.131 312.522 679.875 312.37C678.628 312.208 677.461 312.671 676.375 313.757C675.612 314.521 675.145 315.318 674.975 316.15C674.814 316.973 674.912 317.809 675.268 318.657C675.633 319.497 676.214 320.316 677.012 321.114ZM693.731 313.787C693.069 314.449 692.369 314.878 691.631 315.073C690.893 315.251 690.142 315.204 689.378 314.933C688.623 314.653 687.88 314.148 687.151 313.418C686.387 312.655 685.878 311.874 685.623 311.076C685.377 310.27 685.36 309.49 685.572 308.734C685.776 307.971 686.205 307.262 686.858 306.609C687.18 306.286 687.516 306.019 687.863 305.807C688.211 305.578 688.547 305.404 688.869 305.285L689.289 306.087C688.967 306.223 688.648 306.397 688.334 306.609C688.012 306.812 687.732 307.033 687.494 307.271C686.951 307.814 686.612 308.391 686.476 309.002C686.34 309.596 686.391 310.207 686.629 310.834C686.875 311.454 687.299 312.065 687.902 312.667C688.462 313.227 689.039 313.643 689.633 313.915C690.227 314.169 690.816 314.241 691.402 314.131C691.987 314.021 692.552 313.694 693.095 313.151C693.426 312.82 693.701 312.476 693.922 312.12C694.151 311.755 694.333 311.395 694.469 311.038L695.131 311.7C695.004 312.014 694.83 312.349 694.609 312.705C694.389 313.062 694.096 313.423 693.731 313.787ZM698.371 307.925C698.558 307.738 698.724 307.547 698.868 307.352C699.004 307.149 699.114 306.962 699.199 306.792L699.784 307.378C699.708 307.556 699.589 307.76 699.428 307.989C699.275 308.209 699.093 308.426 698.881 308.638C698.507 309.011 698.121 309.262 697.722 309.389C697.315 309.508 696.891 309.491 696.45 309.338C696.017 309.177 695.567 308.863 695.1 308.396L690.798 304.094L689.806 305.087L689.398 304.679L690.162 303.458L688.864 301.625L689.322 301.167L690.938 302.783L693.026 300.696L693.611 301.281L691.524 303.368L695.8 307.645C696.267 308.112 696.717 308.375 697.15 308.434C697.574 308.485 697.981 308.315 698.371 307.925ZM703.55 296.943C704.076 297.469 704.487 298.016 704.784 298.585C705.081 299.136 705.255 299.701 705.306 300.278C705.357 300.838 705.276 301.393 705.064 301.945C704.852 302.496 704.5 303.018 704.008 303.51C703.541 303.977 703.041 304.317 702.506 304.529C701.971 304.724 701.42 304.8 700.851 304.758C700.274 304.707 699.702 304.533 699.133 304.236C698.565 303.939 698.017 303.527 697.491 303.001C696.753 302.263 696.244 301.516 695.964 300.761C695.684 299.989 695.633 299.234 695.811 298.496C695.998 297.749 696.409 297.057 697.046 296.421C697.691 295.776 698.382 295.382 699.12 295.237C699.859 295.076 700.605 295.144 701.361 295.441C702.116 295.738 702.845 296.239 703.55 296.943ZM698.242 302.25C698.819 302.827 699.409 303.256 700.011 303.536C700.605 303.807 701.191 303.892 701.768 303.79C702.345 303.689 702.888 303.383 703.397 302.874C703.923 302.348 704.237 301.796 704.339 301.219C704.432 300.634 704.343 300.044 704.072 299.45C703.792 298.848 703.367 298.262 702.799 297.694C702.23 297.125 701.653 296.701 701.068 296.421C700.482 296.141 699.901 296.043 699.324 296.128C698.747 296.213 698.191 296.523 697.657 297.057C696.885 297.83 696.562 298.661 696.689 299.552C696.817 300.443 697.334 301.342 698.242 302.25ZM702.491 290.772C702.737 291.018 702.996 291.285 703.268 291.574C703.531 291.854 703.743 292.091 703.904 292.286L703.955 292.236C703.734 291.675 703.688 291.077 703.815 290.441C703.942 289.788 704.303 289.164 704.897 288.57C705.762 287.704 706.734 287.327 707.812 287.437C708.889 287.53 710.005 288.154 711.159 289.308C711.872 290.021 712.381 290.751 712.686 291.497C713 292.236 713.089 292.969 712.954 293.699C712.818 294.412 712.44 295.078 711.821 295.698C711.252 296.266 710.667 296.614 710.064 296.741C709.47 296.86 708.919 296.835 708.41 296.665L708.346 296.728L709.301 297.963L708.766 298.498L699.093 288.824L699.818 288.099L702.491 290.772ZM705.419 289.295C704.901 289.813 704.587 290.348 704.477 290.899C704.375 291.442 704.46 292.002 704.731 292.579C705.011 293.148 705.465 293.746 706.093 294.374L706.182 294.463C707.099 295.379 707.96 295.918 708.766 296.079C709.572 296.224 710.353 295.918 711.108 295.163C711.838 294.433 712.135 293.636 711.999 292.77C711.872 291.896 711.341 290.992 710.408 290.059C709.449 289.1 708.558 288.557 707.735 288.43C706.904 288.294 706.132 288.583 705.419 289.295ZM712.287 281.205C712.457 281.035 712.631 280.887 712.809 280.76C712.987 280.615 713.157 280.497 713.318 280.403L713.878 281.167C713.708 281.269 713.547 281.379 713.394 281.498C713.233 281.608 713.072 281.744 712.911 281.905C712.605 282.211 712.389 282.546 712.262 282.911C712.134 283.275 712.092 283.657 712.134 284.056C712.177 284.455 712.304 284.854 712.516 285.253C712.728 285.651 713.025 286.042 713.407 286.424L717.124 290.14L716.398 290.866L709.627 284.094L710.238 283.483L711.587 284.68L711.625 284.642C711.473 284.268 711.388 283.886 711.371 283.496C711.354 283.089 711.422 282.69 711.574 282.3C711.719 281.901 711.956 281.536 712.287 281.205ZM716.819 276.648C717.404 276.063 718.024 275.715 718.677 275.605C719.33 275.477 719.988 275.549 720.65 275.821C721.32 276.084 721.961 276.521 722.572 277.132L723.055 277.616L718.219 282.452C719.127 283.36 720.026 283.844 720.917 283.903C721.816 283.954 722.652 283.593 723.424 282.821C723.849 282.397 724.184 281.994 724.43 281.612C724.676 281.23 724.901 280.768 725.104 280.225L725.766 280.887C725.58 281.379 725.355 281.824 725.092 282.223C724.829 282.622 724.477 283.042 724.035 283.483C723.365 284.153 722.652 284.586 721.897 284.781C721.15 284.968 720.395 284.926 719.631 284.654C718.868 284.366 718.138 283.873 717.442 283.178C716.746 282.482 716.246 281.752 715.94 280.988C715.635 280.225 715.55 279.47 715.686 278.723C715.813 277.968 716.191 277.276 716.819 276.648ZM717.43 277.259C716.802 277.887 716.505 278.6 716.539 279.397C716.564 280.187 716.929 281.001 717.633 281.841L721.706 277.768C721.231 277.293 720.747 276.945 720.255 276.725C719.763 276.504 719.275 276.432 718.791 276.508C718.316 276.576 717.862 276.826 717.43 277.259Z" fill="#003E5C"/>
<path d="M755.779 328.011L755.002 328.787L741.791 326.114L741.753 326.152C741.922 326.322 742.101 326.492 742.287 326.661C742.465 326.823 742.648 326.997 742.835 327.183C743.03 327.362 743.225 327.548 743.42 327.743C743.615 327.922 743.81 328.108 744.006 328.303L749.746 334.044L749.058 334.731L739.971 325.643L740.76 324.854L753.921 327.527L753.959 327.489C753.831 327.362 753.679 327.217 753.501 327.056C753.314 326.886 753.119 326.708 752.915 326.521C752.72 326.326 752.52 326.135 752.317 325.949C752.122 325.754 751.935 325.567 751.757 325.389L745.991 319.623L746.691 318.923L755.779 328.011ZM760.457 316.562C760.983 317.088 761.394 317.635 761.691 318.204C761.988 318.755 762.162 319.319 762.213 319.896C762.264 320.456 762.183 321.012 761.971 321.564C761.759 322.115 761.407 322.637 760.915 323.129C760.448 323.596 759.947 323.935 759.413 324.148C758.878 324.343 758.327 324.419 757.758 324.377C757.181 324.326 756.608 324.152 756.04 323.855C755.471 323.558 754.924 323.146 754.398 322.62C753.66 321.882 753.151 321.135 752.871 320.38C752.591 319.608 752.54 318.853 752.718 318.114C752.905 317.368 753.316 316.676 753.953 316.04C754.597 315.395 755.289 315 756.027 314.856C756.765 314.695 757.512 314.763 758.267 315.06C759.023 315.357 759.752 315.857 760.457 316.562ZM755.149 321.869C755.726 322.446 756.316 322.875 756.918 323.155C757.512 323.426 758.098 323.511 758.675 323.409C759.252 323.307 759.795 323.002 760.304 322.493C760.83 321.967 761.144 321.415 761.246 320.838C761.339 320.253 761.25 319.663 760.978 319.069C760.698 318.467 760.274 317.881 759.706 317.313C759.137 316.744 758.56 316.32 757.975 316.04C757.389 315.76 756.808 315.662 756.231 315.747C755.654 315.832 755.098 316.142 754.564 316.676C753.791 317.448 753.469 318.28 753.596 319.171C753.723 320.062 754.241 320.961 755.149 321.869ZM766.914 316.876L757.546 312.701L758.309 311.937L764.483 314.75C764.746 314.861 765 314.979 765.246 315.107C765.501 315.226 765.738 315.344 765.959 315.463C766.171 315.573 766.366 315.684 766.544 315.794L766.583 315.756C766.481 315.569 766.371 315.366 766.252 315.145C766.141 314.916 766.027 314.674 765.908 314.419C765.789 314.165 765.67 313.919 765.552 313.681L762.739 307.508L763.515 306.732L767.69 316.099L766.914 316.876ZM767.063 302.929C767.649 302.344 768.268 301.996 768.921 301.886C769.575 301.758 770.232 301.83 770.894 302.102C771.565 302.365 772.205 302.802 772.816 303.413L773.3 303.897L768.463 308.733C769.371 309.641 770.271 310.125 771.162 310.184C772.061 310.235 772.897 309.874 773.669 309.102C774.093 308.678 774.428 308.275 774.674 307.893C774.92 307.511 775.145 307.049 775.349 306.506L776.011 307.168C775.824 307.66 775.599 308.105 775.336 308.504C775.073 308.903 774.721 309.323 774.28 309.764C773.61 310.435 772.897 310.867 772.142 311.062C771.395 311.249 770.64 311.207 769.876 310.935C769.112 310.647 768.383 310.154 767.687 309.459C766.991 308.763 766.49 308.033 766.185 307.269C765.879 306.506 765.795 305.751 765.93 305.004C766.058 304.249 766.435 303.557 767.063 302.929ZM767.674 303.54C767.046 304.168 766.749 304.881 766.783 305.679C766.809 306.468 767.173 307.282 767.878 308.122L771.951 304.049C771.475 303.574 770.992 303.226 770.5 303.006C770.008 302.785 769.52 302.713 769.036 302.789C768.561 302.857 768.107 303.107 767.674 303.54ZM778.592 291.401C779.27 290.722 779.987 290.387 780.743 290.395C781.506 290.395 782.3 290.807 783.123 291.63L787.641 296.148L786.916 296.874L782.423 292.381C781.82 291.778 781.239 291.469 780.679 291.452C780.11 291.426 779.593 291.647 779.126 292.114C778.473 292.767 778.163 293.459 778.197 294.188C778.231 294.901 778.642 295.652 779.432 296.441L783.39 300.399L782.664 301.125L778.172 296.632C777.764 296.225 777.365 295.953 776.975 295.817C776.593 295.673 776.224 295.652 775.868 295.754C775.52 295.847 775.185 296.055 774.862 296.377C774.438 296.802 774.166 297.251 774.048 297.727C773.929 298.202 773.967 298.698 774.162 299.216C774.366 299.725 774.743 300.255 775.295 300.807L779.139 304.651L778.426 305.363L771.655 298.592L772.228 298.019L773.424 298.987L773.462 298.949C773.352 298.601 773.301 298.244 773.309 297.879C773.326 297.506 773.416 297.128 773.577 296.747C773.738 296.365 773.993 296 774.34 295.652C774.841 295.151 775.367 294.837 775.919 294.71C776.47 294.583 777.026 294.663 777.586 294.952L777.637 294.901C777.425 294.299 777.399 293.696 777.561 293.094C777.73 292.483 778.074 291.918 778.592 291.401ZM783.499 286.29C783.745 286.536 784.004 286.803 784.276 287.091C784.539 287.371 784.751 287.609 784.912 287.804L784.963 287.753C784.742 287.193 784.696 286.595 784.823 285.959C784.95 285.305 785.311 284.682 785.905 284.088C786.77 283.222 787.742 282.845 788.819 282.955C789.897 283.048 791.013 283.672 792.167 284.826C792.88 285.539 793.389 286.268 793.694 287.015C794.008 287.753 794.097 288.487 793.961 289.217C793.826 289.93 793.448 290.596 792.829 291.215C792.26 291.784 791.675 292.132 791.072 292.259C790.478 292.378 789.927 292.352 789.418 292.183L789.354 292.246L790.309 293.481L789.774 294.015L780.101 284.342L780.826 283.617L783.499 286.29ZM786.427 284.813C785.909 285.331 785.595 285.865 785.485 286.417C785.383 286.96 785.468 287.52 785.739 288.097C786.019 288.665 786.473 289.264 787.101 289.892L787.19 289.981C788.107 290.897 788.968 291.436 789.774 291.597C790.58 291.741 791.361 291.436 792.116 290.681C792.846 289.951 793.143 289.153 793.007 288.288C792.88 287.414 792.349 286.51 791.416 285.577C790.457 284.618 789.566 284.075 788.743 283.948C787.911 283.812 787.139 284.1 786.427 284.813ZM793.295 276.723C793.465 276.553 793.639 276.405 793.817 276.277C793.995 276.133 794.165 276.014 794.326 275.921L794.886 276.685C794.716 276.787 794.555 276.897 794.402 277.016C794.241 277.126 794.08 277.262 793.919 277.423C793.613 277.728 793.397 278.064 793.27 278.428C793.142 278.793 793.1 279.175 793.142 279.574C793.185 279.973 793.312 280.372 793.524 280.77C793.736 281.169 794.033 281.559 794.415 281.941L798.132 285.658L797.406 286.383L790.635 279.612L791.246 279.001L792.595 280.198L792.633 280.159C792.48 279.786 792.396 279.404 792.379 279.014C792.362 278.607 792.429 278.208 792.582 277.817C792.726 277.419 792.964 277.054 793.295 276.723ZM797.826 272.166C798.412 271.58 799.031 271.233 799.685 271.122C800.338 270.995 800.996 271.067 801.658 271.339C802.328 271.602 802.968 272.039 803.579 272.65L804.063 273.133L799.226 277.97C800.134 278.878 801.034 279.361 801.925 279.421C802.824 279.472 803.66 279.111 804.432 278.339C804.856 277.915 805.192 277.512 805.438 277.13C805.684 276.748 805.909 276.286 806.112 275.743L806.774 276.404C806.587 276.897 806.363 277.342 806.1 277.741C805.837 278.14 805.484 278.56 805.043 279.001C804.373 279.671 803.66 280.104 802.905 280.299C802.158 280.486 801.403 280.443 800.639 280.172C799.876 279.883 799.146 279.391 798.45 278.695C797.754 278 797.254 277.27 796.948 276.506C796.643 275.743 796.558 274.987 796.694 274.241C796.821 273.485 797.198 272.794 797.826 272.166ZM798.437 272.777C797.809 273.405 797.512 274.118 797.546 274.915C797.572 275.704 797.937 276.519 798.641 277.359L802.714 273.286C802.239 272.811 801.755 272.463 801.263 272.242C800.771 272.022 800.283 271.95 799.799 272.026C799.324 272.094 798.87 272.344 798.437 272.777Z" fill="#EF7D00"/>
<path d="M820.609 321.055C821.627 322.074 822.297 323.109 822.62 324.161C822.951 325.205 822.938 326.253 822.582 327.305C822.234 328.349 821.542 329.388 820.507 330.423L818.267 332.663L809.179 323.576L811.699 321.055C812.658 320.097 813.638 319.456 814.639 319.134C815.641 318.811 816.642 318.811 817.643 319.134C818.653 319.448 819.641 320.088 820.609 321.055ZM819.87 321.845C819.013 320.988 818.165 320.419 817.325 320.139C816.476 319.851 815.628 319.851 814.779 320.139C813.922 320.419 813.065 320.988 812.208 321.845L810.566 323.487L818.356 331.276L819.807 329.825C821.156 328.476 821.835 327.144 821.843 325.828C821.852 324.496 821.194 323.168 819.87 321.845ZM822.823 314.31C823.408 313.725 824.027 313.377 824.681 313.267C825.334 313.14 825.992 313.212 826.654 313.483C827.324 313.746 827.965 314.183 828.576 314.794L829.059 315.278L824.223 320.114C825.131 321.022 826.03 321.506 826.921 321.565C827.82 321.616 828.656 321.256 829.428 320.484C829.853 320.059 830.188 319.656 830.434 319.274C830.68 318.893 830.905 318.43 831.108 317.887L831.77 318.549C831.584 319.041 831.359 319.487 831.096 319.885C830.833 320.284 830.481 320.704 830.039 321.145C829.369 321.816 828.656 322.248 827.901 322.444C827.154 322.63 826.399 322.588 825.635 322.316C824.872 322.028 824.142 321.536 823.446 320.84C822.75 320.144 822.25 319.414 821.944 318.651C821.639 317.887 821.554 317.132 821.69 316.385C821.817 315.63 822.195 314.938 822.823 314.31ZM823.434 314.921C822.806 315.549 822.509 316.262 822.543 317.06C822.568 317.849 822.933 318.663 823.637 319.503L827.71 315.431C827.235 314.955 826.751 314.607 826.259 314.387C825.767 314.166 825.279 314.094 824.795 314.17C824.32 314.238 823.866 314.489 823.434 314.921ZM821.664 309.97C821.707 310.199 821.736 310.475 821.753 310.798C821.77 311.103 821.783 311.43 821.792 311.778C821.8 312.126 821.8 312.473 821.792 312.821C821.783 313.152 821.766 313.466 821.741 313.763L821.244 314.26L821.13 314.145C821.13 313.823 821.109 313.453 821.066 313.038C821.024 312.622 820.973 312.206 820.913 311.79C820.845 311.366 820.773 311.014 820.697 310.734L821.563 309.868L821.664 309.97ZM837.024 314.161C836.362 314.823 835.662 315.251 834.924 315.446C834.186 315.625 833.435 315.578 832.671 315.306C831.916 315.026 831.173 314.521 830.444 313.792C829.68 313.028 829.171 312.247 828.916 311.45C828.67 310.644 828.653 309.863 828.865 309.108C829.069 308.344 829.497 307.636 830.151 306.982C830.473 306.66 830.808 306.393 831.156 306.18C831.504 305.951 831.839 305.777 832.162 305.659L832.582 306.46C832.259 306.596 831.941 306.77 831.627 306.982C831.305 307.186 831.025 307.407 830.787 307.644C830.244 308.187 829.905 308.764 829.769 309.375C829.633 309.969 829.684 310.58 829.922 311.208C830.168 311.827 830.592 312.438 831.194 313.041C831.754 313.601 832.331 314.017 832.925 314.288C833.519 314.543 834.109 314.615 834.695 314.504C835.28 314.394 835.844 314.067 836.387 313.524C836.718 313.194 836.994 312.85 837.215 312.493C837.444 312.129 837.626 311.768 837.762 311.412L838.424 312.073C838.297 312.387 838.123 312.723 837.902 313.079C837.681 313.435 837.389 313.796 837.024 314.161ZM835.899 301.235C836.484 300.649 837.103 300.301 837.757 300.191C838.41 300.064 839.068 300.136 839.73 300.407C840.4 300.67 841.041 301.107 841.652 301.718L842.135 302.202L837.299 307.038C838.207 307.946 839.106 308.43 839.997 308.489C840.896 308.54 841.732 308.18 842.504 307.408C842.929 306.983 843.264 306.58 843.51 306.198C843.756 305.817 843.981 305.354 844.184 304.811L844.846 305.473C844.66 305.965 844.435 306.411 844.172 306.809C843.909 307.208 843.556 307.628 843.115 308.069C842.445 308.74 841.732 309.173 840.977 309.368C840.23 309.554 839.475 309.512 838.711 309.24C837.948 308.952 837.218 308.46 836.522 307.764C835.826 307.068 835.326 306.338 835.02 305.575C834.715 304.811 834.63 304.056 834.766 303.309C834.893 302.554 835.271 301.862 835.899 301.235ZM836.509 301.845C835.882 302.473 835.585 303.186 835.619 303.984C835.644 304.773 836.009 305.587 836.713 306.428L840.786 302.355C840.311 301.879 839.827 301.532 839.335 301.311C838.843 301.09 838.355 301.018 837.871 301.095C837.396 301.162 836.942 301.413 836.509 301.845ZM847.427 289.706C848.106 289.027 848.823 288.692 849.578 288.701C850.342 288.701 851.135 289.112 851.958 289.935L856.476 294.454L855.751 295.179L851.258 290.686C850.656 290.084 850.074 289.774 849.514 289.757C848.946 289.732 848.428 289.952 847.962 290.419C847.308 291.072 846.998 291.764 847.032 292.494C847.066 293.206 847.478 293.957 848.267 294.746L852.225 298.705L851.5 299.43L847.007 294.937C846.6 294.53 846.201 294.258 845.81 294.123C845.429 293.978 845.06 293.957 844.703 294.059C844.355 294.152 844.02 294.36 843.698 294.683C843.273 295.107 843.002 295.557 842.883 296.032C842.764 296.507 842.802 297.003 842.998 297.521C843.201 298.03 843.579 298.561 844.13 299.112L847.974 302.956L847.261 303.669L840.49 296.897L841.063 296.325L842.259 297.292L842.298 297.254C842.187 296.906 842.136 296.549 842.145 296.185C842.162 295.811 842.251 295.434 842.412 295.052C842.573 294.67 842.828 294.305 843.176 293.957C843.676 293.457 844.203 293.143 844.754 293.015C845.306 292.888 845.861 292.969 846.421 293.257L846.472 293.206C846.26 292.604 846.235 292.001 846.396 291.399C846.566 290.788 846.909 290.224 847.427 289.706ZM852.335 284.595C852.581 284.841 852.839 285.108 853.111 285.397C853.374 285.677 853.586 285.914 853.747 286.109L853.798 286.059C853.578 285.499 853.531 284.9 853.658 284.264C853.786 283.611 854.146 282.987 854.74 282.393C855.606 281.527 856.577 281.15 857.655 281.26C858.732 281.353 859.848 281.977 861.002 283.131C861.715 283.844 862.224 284.574 862.53 285.32C862.844 286.059 862.933 286.793 862.797 287.522C862.661 288.235 862.284 288.901 861.664 289.521C861.096 290.089 860.51 290.437 859.908 290.564C859.314 290.683 858.762 290.658 858.253 290.488L858.189 290.552L859.144 291.786L858.609 292.321L848.936 282.647L849.662 281.922L852.335 284.595ZM855.262 283.118C854.744 283.636 854.43 284.171 854.32 284.722C854.218 285.265 854.303 285.825 854.575 286.402C854.855 286.971 855.309 287.569 855.937 288.197L856.026 288.286C856.942 289.202 857.803 289.741 858.609 289.902C859.416 290.047 860.196 289.741 860.951 288.986C861.681 288.256 861.978 287.459 861.842 286.593C861.715 285.719 861.185 284.815 860.251 283.882C859.292 282.923 858.402 282.38 857.578 282.253C856.747 282.117 855.975 282.406 855.262 283.118ZM862.13 275.028C862.3 274.858 862.474 274.71 862.652 274.583C862.83 274.438 863 274.32 863.161 274.226L863.721 274.99C863.552 275.092 863.39 275.202 863.238 275.321C863.076 275.431 862.915 275.567 862.754 275.728C862.449 276.034 862.232 276.369 862.105 276.734C861.978 277.099 861.935 277.48 861.978 277.879C862.02 278.278 862.147 278.677 862.359 279.076C862.572 279.474 862.869 279.865 863.25 280.247L866.967 283.963L866.241 284.689L859.47 277.917L860.081 277.306L861.43 278.503L861.469 278.465C861.316 278.091 861.231 277.709 861.214 277.319C861.197 276.912 861.265 276.513 861.418 276.123C861.562 275.724 861.799 275.359 862.13 275.028ZM866.662 270.471C867.247 269.886 867.867 269.538 868.52 269.428C869.173 269.3 869.831 269.372 870.493 269.644C871.163 269.907 871.804 270.344 872.415 270.955L872.898 271.439L868.062 276.275C868.97 277.183 869.869 277.667 870.76 277.726C871.66 277.777 872.495 277.416 873.268 276.644C873.692 276.22 874.027 275.817 874.273 275.435C874.519 275.053 874.744 274.591 874.948 274.048L875.61 274.71C875.423 275.202 875.198 275.647 874.935 276.046C874.672 276.445 874.32 276.865 873.879 277.306C873.208 277.976 872.495 278.409 871.74 278.604C870.994 278.791 870.238 278.749 869.475 278.477C868.711 278.189 867.981 277.696 867.285 277.001C866.59 276.305 866.089 275.575 865.784 274.811C865.478 274.048 865.393 273.293 865.529 272.546C865.656 271.791 866.034 271.099 866.662 270.471ZM867.273 271.082C866.645 271.71 866.348 272.423 866.382 273.22C866.407 274.01 866.772 274.824 867.476 275.664L871.549 271.591C871.074 271.116 870.59 270.768 870.098 270.548C869.606 270.327 869.118 270.255 868.635 270.331C868.159 270.399 867.705 270.649 867.273 271.082Z" fill="#003E5C"/>
<path d="M2.00041 13.2593C1.90424 13.2593 1.82729 13.2304 1.76959 13.1727C1.71188 13.115 1.68302 13.0381 1.68302 12.9419V3.49233C1.68302 3.38653 1.71188 3.30478 1.76959 3.24707C1.82729 3.18936 1.90424 3.16051 2.00041 3.16051H5.07332C6.09282 3.16051 6.8911 3.30959 7.46817 3.60774C8.04525 3.9059 8.45401 4.34832 8.69445 4.93501C8.94452 5.51208 9.07436 6.21899 9.08398 7.05575C9.0936 7.48855 9.0984 7.87327 9.0984 8.20989C9.0984 8.5369 9.0936 8.91681 9.08398 9.34961C9.06474 10.2345 8.9349 10.9654 8.69445 11.5425C8.45401 12.1196 8.05006 12.5524 7.4826 12.8409C6.91515 13.1198 6.1361 13.2593 5.14546 13.2593H2.00041ZM2.59191 12.3937H5.07332C5.84275 12.3937 6.44868 12.2927 6.8911 12.0907C7.34314 11.8791 7.66534 11.5473 7.8577 11.0953C8.05967 10.6336 8.16547 10.0277 8.17509 9.27748C8.18471 8.98894 8.18952 8.73888 8.18952 8.52728C8.18952 8.30607 8.18952 8.08967 8.18952 7.87808C8.18952 7.66648 8.18471 7.41642 8.17509 7.12788C8.15585 6.06992 7.9106 5.29087 7.43932 4.79074C6.96805 4.28099 6.15534 4.02612 5.00119 4.02612H2.59191V12.3937ZM14.0433 13.4035C13.1104 13.4035 12.3698 13.1006 11.8216 12.4947C11.2734 11.8791 10.9608 11.076 10.8838 10.0854C10.8742 9.94111 10.8694 9.74875 10.8694 9.50831C10.8694 9.26786 10.8742 9.0755 10.8838 8.93123C10.9319 8.27722 11.0858 7.70015 11.3455 7.20002C11.6052 6.69989 11.961 6.31036 12.4131 6.03145C12.8747 5.75253 13.4181 5.61307 14.0433 5.61307C14.7166 5.61307 15.2888 5.76215 15.7601 6.0603C16.2314 6.35845 16.592 6.78645 16.8421 7.34429C17.1018 7.90212 17.2316 8.56576 17.2316 9.33519V9.55159C17.2316 9.64777 17.198 9.72471 17.1306 9.78242C17.0729 9.84012 16.996 9.86898 16.8998 9.86898H11.7639C11.7639 9.86898 11.7639 9.88821 11.7639 9.92668C11.7639 9.96516 11.7639 9.99401 11.7639 10.0132C11.7831 10.446 11.8841 10.8596 12.0668 11.254C12.2496 11.6387 12.5093 11.9561 12.8459 12.2061C13.1825 12.4466 13.5816 12.5668 14.0433 12.5668C14.4569 12.5668 14.7983 12.5043 15.0676 12.3792C15.3465 12.2542 15.5677 12.1196 15.7312 11.9753C15.8947 11.8214 16.0005 11.706 16.0486 11.629C16.1352 11.504 16.2025 11.4319 16.2506 11.4126C16.2987 11.3838 16.3756 11.3694 16.4814 11.3694H16.7123C16.7988 11.3694 16.871 11.3982 16.9287 11.4559C16.996 11.504 17.0248 11.5713 17.0152 11.6579C17.0056 11.7926 16.9287 11.9609 16.7844 12.1628C16.6497 12.3552 16.4526 12.5476 16.1929 12.7399C15.9428 12.9323 15.6351 13.091 15.2696 13.216C14.9041 13.341 14.4953 13.4035 14.0433 13.4035ZM11.7639 9.06108H16.3516V9.00337C16.3516 8.52247 16.2602 8.08967 16.0775 7.70496C15.8947 7.32024 15.6303 7.01728 15.284 6.79607C14.9378 6.56524 14.5242 6.44982 14.0433 6.44982C13.5624 6.44982 13.1488 6.56524 12.8026 6.79607C12.466 7.01728 12.2063 7.32024 12.0236 7.70496C11.8504 8.08967 11.7639 8.52247 11.7639 9.00337V9.06108ZM13.8413 4.67533C13.6874 4.67533 13.6105 4.59838 13.6105 4.4445C13.6105 4.36755 13.6345 4.30504 13.6826 4.25695L14.6781 3.05952C14.755 2.96334 14.8272 2.89602 14.8945 2.85755C14.9618 2.81908 15.0676 2.79984 15.2119 2.79984H15.8034C15.9861 2.79984 16.0775 2.89121 16.0775 3.07395C16.0775 3.14128 16.0534 3.19898 16.0054 3.24707L14.4328 4.53106C14.3559 4.59838 14.2838 4.64166 14.2164 4.6609C14.1587 4.67052 14.0818 4.67533 13.9856 4.67533H13.8413ZM21.9766 13.4035C21.3033 13.4035 20.7311 13.2737 20.2598 13.014C19.7885 12.7447 19.4278 12.36 19.1778 11.8599C18.9373 11.3597 18.8075 10.7682 18.7883 10.0854C18.7786 9.94111 18.7738 9.74875 18.7738 9.50831C18.7738 9.26786 18.7786 9.0755 18.7883 8.93123C18.8075 8.23875 18.9373 7.64725 19.1778 7.15674C19.4278 6.65661 19.7885 6.2767 20.2598 6.01702C20.7311 5.74772 21.3033 5.61307 21.9766 5.61307C22.4863 5.61307 22.9239 5.6852 23.2894 5.82947C23.6645 5.96412 23.9723 6.14686 24.2127 6.37769C24.4532 6.5989 24.6359 6.84416 24.761 7.11346C24.886 7.38276 24.9533 7.64725 24.9629 7.90693C24.9726 8.00311 24.9437 8.08005 24.8764 8.13776C24.809 8.19547 24.7321 8.22432 24.6455 8.22432H24.4436C24.3474 8.22432 24.2753 8.20509 24.2272 8.16661C24.1887 8.11852 24.1454 8.03677 24.0973 7.92136C23.8953 7.37314 23.6164 6.99323 23.2606 6.78164C22.9143 6.56043 22.4863 6.44982 21.9766 6.44982C21.3226 6.44982 20.7792 6.6518 20.3464 7.05575C19.9232 7.45008 19.6971 8.09929 19.6683 9.00337C19.6491 9.33999 19.6491 9.67662 19.6683 10.0132C19.6971 10.9173 19.9232 11.5713 20.3464 11.9753C20.7792 12.3696 21.3226 12.5668 21.9766 12.5668C22.4863 12.5668 22.9143 12.461 23.2606 12.2494C23.6164 12.0282 23.8953 11.6435 24.0973 11.0953C24.1454 10.9798 24.1887 10.9029 24.2272 10.8644C24.2753 10.8163 24.3474 10.7923 24.4436 10.7923H24.6455C24.7321 10.7923 24.809 10.8211 24.8764 10.8789C24.9437 10.9366 24.9726 11.0135 24.9629 11.1097C24.9533 11.3213 24.91 11.5329 24.8331 11.7445C24.7561 11.9561 24.6359 12.1628 24.4724 12.3648C24.3185 12.5668 24.1262 12.7447 23.8953 12.8986C23.6645 13.0525 23.3856 13.1727 23.0586 13.2593C22.7412 13.3555 22.3805 13.4035 21.9766 13.4035ZM29.6536 13.4035C28.7206 13.4035 27.9801 13.1006 27.4318 12.4947C26.8836 11.8791 26.571 11.076 26.4941 10.0854C26.4845 9.94111 26.4797 9.74875 26.4797 9.50831C26.4797 9.26786 26.4845 9.0755 26.4941 8.93123C26.5422 8.27722 26.6961 7.70015 26.9557 7.20002C27.2154 6.69989 27.5713 6.31036 28.0233 6.03145C28.485 5.75253 29.0284 5.61307 29.6536 5.61307C30.3268 5.61307 30.8991 5.76215 31.3704 6.0603C31.8416 6.35845 32.2023 6.78645 32.4524 7.34429C32.712 7.90212 32.8419 8.56576 32.8419 9.33519V9.55159C32.8419 9.64777 32.8082 9.72471 32.7409 9.78242C32.6832 9.84012 32.6062 9.86898 32.5101 9.86898H27.3741C27.3741 9.86898 27.3741 9.88821 27.3741 9.92668C27.3741 9.96516 27.3741 9.99401 27.3741 10.0132C27.3934 10.446 27.4944 10.8596 27.6771 11.254C27.8598 11.6387 28.1195 11.9561 28.4561 12.2061C28.7928 12.4466 29.1919 12.5668 29.6536 12.5668C30.0671 12.5668 30.4086 12.5043 30.6779 12.3792C30.9568 12.2542 31.178 12.1196 31.3415 11.9753C31.505 11.8214 31.6108 11.706 31.6589 11.629C31.7454 11.504 31.8128 11.4319 31.8609 11.4126C31.909 11.3838 31.9859 11.3694 32.0917 11.3694H32.3225C32.4091 11.3694 32.4812 11.3982 32.5389 11.4559C32.6062 11.504 32.6351 11.5713 32.6255 11.6579C32.6159 11.7926 32.5389 11.9609 32.3947 12.1628C32.26 12.3552 32.0628 12.5476 31.8032 12.7399C31.5531 12.9323 31.2453 13.091 30.8798 13.216C30.5144 13.341 30.1056 13.4035 29.6536 13.4035ZM27.3741 9.06108H31.9619V9.00337C31.9619 8.52247 31.8705 8.08967 31.6877 7.70496C31.505 7.32024 31.2405 7.01728 30.8943 6.79607C30.548 6.56524 30.1345 6.44982 29.6536 6.44982C29.1727 6.44982 28.7591 6.56524 28.4129 6.79607C28.0762 7.01728 27.8165 7.32024 27.6338 7.70496C27.4607 8.08967 27.3741 8.52247 27.3741 9.00337V9.06108ZM29.87 4.67533C29.7738 4.67533 29.692 4.67052 29.6247 4.6609C29.567 4.64166 29.4997 4.59838 29.4227 4.53106L27.8502 3.24707C27.8021 3.19898 27.7781 3.14128 27.7781 3.07395C27.7781 2.89121 27.8694 2.79984 28.0522 2.79984H28.6437C28.788 2.79984 28.8938 2.81908 28.9611 2.85755C29.0284 2.89602 29.1005 2.96334 29.1775 3.05952L30.1729 4.25695C30.221 4.30504 30.2451 4.36755 30.2451 4.4445C30.2451 4.59838 30.1681 4.67533 30.0142 4.67533H29.87ZM37.1252 13.4035C36.6251 13.4035 36.1923 13.3362 35.8268 13.2016C35.4709 13.0669 35.1776 12.9082 34.9467 12.7255C34.7159 12.5331 34.5428 12.3456 34.4274 12.1628C34.3216 11.9801 34.2639 11.8406 34.2543 11.7445C34.2446 11.6387 34.2783 11.5617 34.3552 11.5136C34.4322 11.4559 34.5043 11.4271 34.5716 11.4271H34.788C34.8458 11.4271 34.8938 11.4367 34.9323 11.4559C34.9804 11.4752 35.0381 11.5281 35.1054 11.6146C35.2305 11.7781 35.3747 11.9368 35.5382 12.0907C35.7017 12.235 35.9085 12.3504 36.1586 12.4369C36.4183 12.5235 36.7405 12.5668 37.1252 12.5668C37.7023 12.5668 38.1783 12.4562 38.5534 12.235C38.9285 12.0138 39.1161 11.6868 39.1161 11.254C39.1161 10.9847 39.0391 10.7682 38.8853 10.6047C38.741 10.4412 38.4909 10.297 38.1351 10.1719C37.7792 10.0469 37.2983 9.91707 36.6924 9.78242C36.0865 9.63815 35.62 9.46503 35.293 9.26305C34.9756 9.06108 34.7592 8.83025 34.6438 8.57056C34.5284 8.30126 34.4707 8.01273 34.4707 7.70496C34.4707 7.36833 34.5668 7.04132 34.7592 6.72393C34.9515 6.39693 35.2353 6.13243 35.6104 5.93046C35.9951 5.71887 36.476 5.61307 37.0531 5.61307C37.5243 5.61307 37.9235 5.67558 38.2505 5.80062C38.5871 5.92565 38.8612 6.07954 39.0728 6.26228C39.2844 6.4354 39.4383 6.60852 39.5345 6.78164C39.6403 6.95476 39.698 7.09422 39.7076 7.20002C39.7172 7.2962 39.6883 7.37314 39.621 7.43085C39.5537 7.48855 39.4768 7.51741 39.3902 7.51741H39.1738C39.0968 7.51741 39.0343 7.50298 38.9862 7.47413C38.9382 7.43566 38.8949 7.38757 38.8564 7.32986C38.7602 7.17597 38.6448 7.0317 38.5102 6.89705C38.3755 6.7624 38.1928 6.65661 37.9619 6.57966C37.7407 6.4931 37.4378 6.44982 37.0531 6.44982C36.476 6.44982 36.048 6.57005 35.7691 6.81049C35.4901 7.04132 35.3507 7.33948 35.3507 7.70496C35.3507 7.91655 35.4084 8.1041 35.5238 8.2676C35.6392 8.42149 35.8556 8.56576 36.173 8.70041C36.4904 8.82544 36.9521 8.96009 37.558 9.10436C38.1735 9.23901 38.6592 9.40732 39.0151 9.60929C39.371 9.80165 39.621 10.0325 39.7653 10.3018C39.9192 10.5711 39.9961 10.8885 39.9961 11.254C39.9961 11.6387 39.8855 11.9945 39.6643 12.3215C39.4527 12.6485 39.1305 12.913 38.6977 13.115C38.2745 13.3074 37.7503 13.4035 37.1252 13.4035Z" fill="#003E5C"/>
<g filter="url(#filter0_d_1628_3458)">
<path d="M69.6331 184.348C69.6331 180.364 72.8626 177.134 76.8465 177.134H106.458C110.442 177.134 113.672 180.364 113.672 184.348V258.714H69.6331V184.348Z" fill="#54C352"/>
</g>
<g filter="url(#filter1_d_1628_3458)">
<path d="M481.141 184.348C481.141 180.364 484.37 177.134 488.354 177.134H517.966C521.95 177.134 525.179 180.364 525.179 184.348V258.714H481.141V184.348Z" fill="#54C352"/>
</g>
<g filter="url(#filter2_d_1628_3458)">
<path d="M138.218 257.992C138.218 258.391 138.541 258.714 138.94 258.714H181.535C181.933 258.714 182.256 258.391 182.256 257.992H138.218Z" fill="#54C352"/>
</g>
<g filter="url(#filter3_d_1628_3458)">
<path d="M549.725 258.715C549.725 258.316 550.048 257.993 550.447 257.993H593.041C593.44 257.993 593.763 258.316 593.763 258.715H549.725Z" fill="#54C352"/>
</g>
<g filter="url(#filter4_d_1628_3458)">
<path d="M206.802 211.783C206.802 207.799 210.032 204.569 214.015 204.569H243.627C247.611 204.569 250.84 207.799 250.84 211.783V258.715H206.802V211.783Z" fill="#54C352"/>
</g>
<g filter="url(#filter5_d_1628_3458)">
<path d="M618.31 258.715C618.31 258.316 618.633 257.993 619.032 257.993H661.626C662.025 257.993 662.348 258.316 662.348 258.715H618.31Z" fill="#54C352"/>
</g>
<g filter="url(#filter6_d_1628_3458)">
<path d="M275.387 239.938C275.387 235.954 278.617 232.725 282.6 232.725H312.212C316.196 232.725 319.425 235.954 319.425 239.938V258.715H275.387V239.938Z" fill="#54C352"/>
</g>
<g filter="url(#filter7_d_1628_3458)">
<path d="M686.894 211.059C686.894 207.075 690.123 203.846 694.107 203.846H723.719C727.702 203.846 730.932 207.075 730.932 211.059V258.713H686.894V211.059Z" fill="#54C352"/>
</g>
<g filter="url(#filter8_d_1628_3458)">
<path d="M343.971 258.715C343.971 258.316 344.294 257.993 344.693 257.993H387.287C387.686 257.993 388.009 258.316 388.009 258.715H343.971Z" fill="#54C352"/>
</g>
<g filter="url(#filter9_d_1628_3458)">
<path d="M755.478 154.749C755.478 150.765 758.708 147.535 762.692 147.535H792.303C796.287 147.535 799.517 150.765 799.517 154.749V258.714H755.478V154.749Z" fill="#EF7D00"/>
</g>
<g filter="url(#filter10_d_1628_3458)">
<path d="M412.556 211.059C412.556 207.075 415.785 203.846 419.769 203.846H449.381C453.365 203.846 456.594 207.075 456.594 211.059V258.713H412.556V211.059Z" fill="#54C352"/>
</g>
<g filter="url(#filter11_d_1628_3458)">
<path d="M824.063 239.938C824.063 235.954 827.293 232.725 831.277 232.725H860.888C864.872 232.725 868.102 235.954 868.102 239.938V258.715H824.063V239.938Z" fill="#54C352"/>
</g>
<defs>
<filter id="filter0_d_1628_3458" x="62.4197" y="172.085" width="58.4654" height="96.0064" filterUnits="userSpaceOnUse" color-interpolation-filters="sRGB">
<feFlood flood-opacity="0" result="BackgroundImageFix"/>
<feColorMatrix in="SourceAlpha" type="matrix" values="0 0 0 0 0 0 0 0 0 0 0 0 0 0 0 0 0 0 127 0" result="hardAlpha"/>
<feMorphology radius="2.88536" operator="erode" in="SourceAlpha" result="effect1_dropShadow_1628_3458"/>
<feOffset dy="2.16402"/>
<feGaussianBlur stdDeviation="5.04938"/>
<feComposite in2="hardAlpha" operator="out"/>
<feColorMatrix type="matrix" values="0 0 0 0 0 0 0 0 0 0 0 0 0 0 0 0 0 0 0.35 0"/>
<feBlend mode="normal" in2="BackgroundImageFix" result="effect1_dropShadow_1628_3458"/>
<feBlend mode="normal" in="SourceGraphic" in2="effect1_dropShadow_1628_3458" result="shape"/>
</filter>
<filter id="filter1_d_1628_3458" x="473.927" y="172.085" width="58.4654" height="96.0064" filterUnits="userSpaceOnUse" color-interpolation-filters="sRGB">
<feFlood flood-opacity="0" result="BackgroundImageFix"/>
<feColorMatrix in="SourceAlpha" type="matrix" values="0 0 0 0 0 0 0 0 0 0 0 0 0 0 0 0 0 0 127 0" result="hardAlpha"/>
<feMorphology radius="2.88536" operator="erode" in="SourceAlpha" result="effect1_dropShadow_1628_3458"/>
<feOffset dy="2.16402"/>
<feGaussianBlur stdDeviation="5.04938"/>
<feComposite in2="hardAlpha" operator="out"/>
<feColorMatrix type="matrix" values="0 0 0 0 0 0 0 0 0 0 0 0 0 0 0 0 0 0 0.35 0"/>
<feBlend mode="normal" in2="BackgroundImageFix" result="effect1_dropShadow_1628_3458"/>
<feBlend mode="normal" in="SourceGraphic" in2="effect1_dropShadow_1628_3458" result="shape"/>
</filter>
<filter id="filter2_d_1628_3458" x="131.005" y="252.942" width="58.4654" height="15.149" filterUnits="userSpaceOnUse" color-interpolation-filters="sRGB">
<feFlood flood-opacity="0" result="BackgroundImageFix"/>
<feColorMatrix in="SourceAlpha" type="matrix" values="0 0 0 0 0 0 0 0 0 0 0 0 0 0 0 0 0 0 127 0" result="hardAlpha"/>
<feMorphology radius="2.88536" operator="erode" in="SourceAlpha" result="effect1_dropShadow_1628_3458"/>
<feOffset dy="2.16402"/>
<feGaussianBlur stdDeviation="5.04938"/>
<feComposite in2="hardAlpha" operator="out"/>
<feColorMatrix type="matrix" values="0 0 0 0 0 0 0 0 0 0 0 0 0 0 0 0 0 0 0.35 0"/>
<feBlend mode="normal" in2="BackgroundImageFix" result="effect1_dropShadow_1628_3458"/>
<feBlend mode="normal" in="SourceGraphic" in2="effect1_dropShadow_1628_3458" result="shape"/>
</filter>
<filter id="filter3_d_1628_3458" x="542.511" y="252.943" width="58.4654" height="15.149" filterUnits="userSpaceOnUse" color-interpolation-filters="sRGB">
<feFlood flood-opacity="0" result="BackgroundImageFix"/>
<feColorMatrix in="SourceAlpha" type="matrix" values="0 0 0 0 0 0 0 0 0 0 0 0 0 0 0 0 0 0 127 0" result="hardAlpha"/>
<feMorphology radius="2.88536" operator="erode" in="SourceAlpha" result="effect1_dropShadow_1628_3458"/>
<feOffset dy="2.16402"/>
<feGaussianBlur stdDeviation="5.04938"/>
<feComposite in2="hardAlpha" operator="out"/>
<feColorMatrix type="matrix" values="0 0 0 0 0 0 0 0 0 0 0 0 0 0 0 0 0 0 0.35 0"/>
<feBlend mode="normal" in2="BackgroundImageFix" result="effect1_dropShadow_1628_3458"/>
<feBlend mode="normal" in="SourceGraphic" in2="effect1_dropShadow_1628_3458" result="shape"/>
</filter>
<filter id="filter4_d_1628_3458" x="199.589" y="199.52" width="58.4654" height="68.5723" filterUnits="userSpaceOnUse" color-interpolation-filters="sRGB">
<feFlood flood-opacity="0" result="BackgroundImageFix"/>
<feColorMatrix in="SourceAlpha" type="matrix" values="0 0 0 0 0 0 0 0 0 0 0 0 0 0 0 0 0 0 127 0" result="hardAlpha"/>
<feMorphology radius="2.88536" operator="erode" in="SourceAlpha" result="effect1_dropShadow_1628_3458"/>
<feOffset dy="2.16402"/>
<feGaussianBlur stdDeviation="5.04938"/>
<feComposite in2="hardAlpha" operator="out"/>
<feColorMatrix type="matrix" values="0 0 0 0 0 0 0 0 0 0 0 0 0 0 0 0 0 0 0.35 0"/>
<feBlend mode="normal" in2="BackgroundImageFix" result="effect1_dropShadow_1628_3458"/>
<feBlend mode="normal" in="SourceGraphic" in2="effect1_dropShadow_1628_3458" result="shape"/>
</filter>
<filter id="filter5_d_1628_3458" x="611.096" y="252.943" width="58.4654" height="15.149" filterUnits="userSpaceOnUse" color-interpolation-filters="sRGB">
<feFlood flood-opacity="0" result="BackgroundImageFix"/>
<feColorMatrix in="SourceAlpha" type="matrix" values="0 0 0 0 0 0 0 0 0 0 0 0 0 0 0 0 0 0 127 0" result="hardAlpha"/>
<feMorphology radius="2.88536" operator="erode" in="SourceAlpha" result="effect1_dropShadow_1628_3458"/>
<feOffset dy="2.16402"/>
<feGaussianBlur stdDeviation="5.04938"/>
<feComposite in2="hardAlpha" operator="out"/>
<feColorMatrix type="matrix" values="0 0 0 0 0 0 0 0 0 0 0 0 0 0 0 0 0 0 0.35 0"/>
<feBlend mode="normal" in2="BackgroundImageFix" result="effect1_dropShadow_1628_3458"/>
<feBlend mode="normal" in="SourceGraphic" in2="effect1_dropShadow_1628_3458" result="shape"/>
</filter>
<filter id="filter6_d_1628_3458" x="268.174" y="227.675" width="58.4654" height="40.4166" filterUnits="userSpaceOnUse" color-interpolation-filters="sRGB">
<feFlood flood-opacity="0" result="BackgroundImageFix"/>
<feColorMatrix in="SourceAlpha" type="matrix" values="0 0 0 0 0 0 0 0 0 0 0 0 0 0 0 0 0 0 127 0" result="hardAlpha"/>
<feMorphology radius="2.88536" operator="erode" in="SourceAlpha" result="effect1_dropShadow_1628_3458"/>
<feOffset dy="2.16402"/>
<feGaussianBlur stdDeviation="5.04938"/>
<feComposite in2="hardAlpha" operator="out"/>
<feColorMatrix type="matrix" values="0 0 0 0 0 0 0 0 0 0 0 0 0 0 0 0 0 0 0.35 0"/>
<feBlend mode="normal" in2="BackgroundImageFix" result="effect1_dropShadow_1628_3458"/>
<feBlend mode="normal" in="SourceGraphic" in2="effect1_dropShadow_1628_3458" result="shape"/>
</filter>
<filter id="filter7_d_1628_3458" x="679.68" y="198.796" width="58.4654" height="69.2945" filterUnits="userSpaceOnUse" color-interpolation-filters="sRGB">
<feFlood flood-opacity="0" result="BackgroundImageFix"/>
<feColorMatrix in="SourceAlpha" type="matrix" values="0 0 0 0 0 0 0 0 0 0 0 0 0 0 0 0 0 0 127 0" result="hardAlpha"/>
<feMorphology radius="2.88536" operator="erode" in="SourceAlpha" result="effect1_dropShadow_1628_3458"/>
<feOffset dy="2.16402"/>
<feGaussianBlur stdDeviation="5.04938"/>
<feComposite in2="hardAlpha" operator="out"/>
<feColorMatrix type="matrix" values="0 0 0 0 0 0 0 0 0 0 0 0 0 0 0 0 0 0 0.35 0"/>
<feBlend mode="normal" in2="BackgroundImageFix" result="effect1_dropShadow_1628_3458"/>
<feBlend mode="normal" in="SourceGraphic" in2="effect1_dropShadow_1628_3458" result="shape"/>
</filter>
<filter id="filter8_d_1628_3458" x="336.758" y="252.943" width="58.4654" height="15.149" filterUnits="userSpaceOnUse" color-interpolation-filters="sRGB">
<feFlood flood-opacity="0" result="BackgroundImageFix"/>
<feColorMatrix in="SourceAlpha" type="matrix" values="0 0 0 0 0 0 0 0 0 0 0 0 0 0 0 0 0 0 127 0" result="hardAlpha"/>
<feMorphology radius="2.88536" operator="erode" in="SourceAlpha" result="effect1_dropShadow_1628_3458"/>
<feOffset dy="2.16402"/>
<feGaussianBlur stdDeviation="5.04938"/>
<feComposite in2="hardAlpha" operator="out"/>
<feColorMatrix type="matrix" values="0 0 0 0 0 0 0 0 0 0 0 0 0 0 0 0 0 0 0.35 0"/>
<feBlend mode="normal" in2="BackgroundImageFix" result="effect1_dropShadow_1628_3458"/>
<feBlend mode="normal" in="SourceGraphic" in2="effect1_dropShadow_1628_3458" result="shape"/>
</filter>
<filter id="filter9_d_1628_3458" x="748.265" y="142.486" width="58.4654" height="125.606" filterUnits="userSpaceOnUse" color-interpolation-filters="sRGB">
<feFlood flood-opacity="0" result="BackgroundImageFix"/>
<feColorMatrix in="SourceAlpha" type="matrix" values="0 0 0 0 0 0 0 0 0 0 0 0 0 0 0 0 0 0 127 0" result="hardAlpha"/>
<feMorphology radius="2.88536" operator="erode" in="SourceAlpha" result="effect1_dropShadow_1628_3458"/>
<feOffset dy="2.16402"/>
<feGaussianBlur stdDeviation="5.04938"/>
<feComposite in2="hardAlpha" operator="out"/>
<feColorMatrix type="matrix" values="0 0 0 0 0 0 0 0 0 0 0 0 0 0 0 0 0 0 0.35 0"/>
<feBlend mode="normal" in2="BackgroundImageFix" result="effect1_dropShadow_1628_3458"/>
<feBlend mode="normal" in="SourceGraphic" in2="effect1_dropShadow_1628_3458" result="shape"/>
</filter>
<filter id="filter10_d_1628_3458" x="405.343" y="198.796" width="58.4654" height="69.2945" filterUnits="userSpaceOnUse" color-interpolation-filters="sRGB">
<feFlood flood-opacity="0" result="BackgroundImageFix"/>
<feColorMatrix in="SourceAlpha" type="matrix" values="0 0 0 0 0 0 0 0 0 0 0 0 0 0 0 0 0 0 127 0" result="hardAlpha"/>
<feMorphology radius="2.88536" operator="erode" in="SourceAlpha" result="effect1_dropShadow_1628_3458"/>
<feOffset dy="2.16402"/>
<feGaussianBlur stdDeviation="5.04938"/>
<feComposite in2="hardAlpha" operator="out"/>
<feColorMatrix type="matrix" values="0 0 0 0 0 0 0 0 0 0 0 0 0 0 0 0 0 0 0.35 0"/>
<feBlend mode="normal" in2="BackgroundImageFix" result="effect1_dropShadow_1628_3458"/>
<feBlend mode="normal" in="SourceGraphic" in2="effect1_dropShadow_1628_3458" result="shape"/>
</filter>
<filter id="filter11_d_1628_3458" x="816.85" y="227.675" width="58.4654" height="40.4166" filterUnits="userSpaceOnUse" color-interpolation-filters="sRGB">
<feFlood flood-opacity="0" result="BackgroundImageFix"/>
<feColorMatrix in="SourceAlpha" type="matrix" values="0 0 0 0 0 0 0 0 0 0 0 0 0 0 0 0 0 0 127 0" result="hardAlpha"/>
<feMorphology radius="2.88536" operator="erode" in="SourceAlpha" result="effect1_dropShadow_1628_3458"/>
<feOffset dy="2.16402"/>
<feGaussianBlur stdDeviation="5.04938"/>
<feComposite in2="hardAlpha" operator="out"/>
<feColorMatrix type="matrix" values="0 0 0 0 0 0 0 0 0 0 0 0 0 0 0 0 0 0 0.35 0"/>
<feBlend mode="normal" in2="BackgroundImageFix" result="effect1_dropShadow_1628_3458"/>
<feBlend mode="normal" in="SourceGraphic" in2="effect1_dropShadow_1628_3458" result="shape"/>
</filter>
</defs>
</svg>
