<svg width="79" height="80" viewBox="0 0 79 80" fill="none" xmlns="http://www.w3.org/2000/svg">
<g clip-path="url(#clip0_1727_973)">
<path d="M61.6802 0.230957H33.8289V15.8945H61.6802V0.230957Z" fill="#FFD600" fill-opacity="0.5"/>
<path d="M59.5597 0.230957H40.5129V15.8945H59.5597V0.230957Z" fill="#FFD600"/>
<path d="M68.3644 0.230957H59.5598V15.8945H68.3644V0.230957Z" fill="#CCAB00"/>
<path d="M71.4343 15.5078V68.6576C71.4343 74.7606 66.5245 79.7091 60.4672 79.7091H23.4562C19.1066 79.7091 15.1695 77.9319 12.3202 75.0603C9.47102 72.1867 7.70776 68.2186 7.70776 63.8367C7.70776 55.0728 14.7589 47.9662 23.4562 47.9662H30.3461V15.5078H71.4343Z" fill="#CCCCCC"/>
<path d="M62.0214 15.5078V68.6576C62.0214 69.7888 61.8525 70.8795 61.5398 71.9063C61.2405 72.8867 60.8107 73.8072 60.2696 74.6484C58.3183 77.6941 54.9204 79.7091 51.0543 79.7091H23.4562C19.1066 79.7091 15.1695 77.9319 12.3202 75.0603C9.47102 72.1867 7.70776 68.2186 7.70776 63.8367C7.70776 62.922 7.78451 62.0247 7.93417 61.1507C8.10109 60.1586 8.36011 59.1975 8.70163 58.2771C10.9369 52.2553 16.7006 47.9662 23.4562 47.9662H30.3461V15.5078H62.0214Z" fill="#E6E6E6"/>
<path d="M37.5411 15.5078V47.9662H30.6512C21.9539 47.9662 14.9028 55.0728 14.9028 63.8367C14.9028 68.2186 16.666 72.1867 19.5152 75.0603C22.3645 77.9319 26.3016 79.7091 30.6512 79.7091H23.4562C19.1066 79.7091 15.1695 77.9319 12.3202 75.0603C9.47102 72.1867 7.70776 68.2186 7.70776 63.8367C7.70776 55.0728 14.7589 47.9662 23.4562 47.9662H30.3461V15.5078H37.5411Z" fill="#F2F2F2"/>
<path d="M71.4342 33.7758L30.3459 23.0439V26.1142L71.4342 36.8461" fill="#CCCCCC"/>
<path d="M71.4342 55.3149L30.3459 44.583V47.6531L71.4342 58.3851" fill="#CCCCCC"/>
<path d="M61.5397 71.9061C61.2404 72.8865 60.8106 73.807 60.2696 74.6482L7.93408 61.1504C8.10101 60.1584 8.36003 59.1973 8.70155 58.2769L61.5397 71.9061Z" fill="#CCCCCC"/>
</g>
<defs>
<clipPath id="clip0_1727_973">
<rect width="78.8572" height="79.4781" fill="white" transform="translate(0.142578 0.230957)"/>
</clipPath>
</defs>
</svg>
