<svg width="80" height="80" viewBox="0 0 80 80" fill="none" xmlns="http://www.w3.org/2000/svg">
<g clip-path="url(#clip0_1628_1519)">
<path d="M10.5596 22.5674V75.2525C10.5596 77.6075 11.9673 79.0152 13.7042 79.0152H65.7243C67.4612 79.0152 68.8689 77.6075 68.8689 75.2525V22.5674H10.5596Z" fill="#003E5C"/>
<path d="M65.7243 0.158691H13.7042C11.9673 0.158691 10.5596 1.5672 10.5596 3.30407V23.9308H68.869V3.30407C68.869 1.5672 67.4613 0.158691 65.7243 0.158691Z" fill="#0083C2"/>
<path d="M63.6991 4.71729H15.7285V20.1605H63.6991V4.71729Z" fill="#4C6884"/>
<path d="M61.0062 6.84766H18.4187V18.0314H61.0062V6.84766Z" fill="#FFD600"/>
<path d="M26.9376 37.2538C26.9376 37.9365 26.3836 38.4898 25.7016 38.4898H18.4543C17.7715 38.4898 17.2183 37.9357 17.2183 37.2538V30.007C17.2183 29.3242 17.7723 28.771 18.4543 28.771H25.7016C26.3844 28.771 26.9376 29.325 26.9376 30.007V37.2538Z" fill="#0083C2"/>
<path d="M38.8281 37.2538C38.8281 37.9365 38.2741 38.4898 37.5921 38.4898H30.3442C29.6614 38.4898 29.1082 37.9357 29.1082 37.2538V30.007C29.1082 29.3242 29.6622 28.771 30.3442 28.771H37.5915C38.2743 28.771 38.8275 29.325 38.8275 30.007V37.2538H38.8281Z" fill="#0083C2"/>
<path d="M50.7172 37.2538C50.7172 37.9365 50.1632 38.4898 49.4812 38.4898H42.2338C41.551 38.4898 40.9978 37.9357 40.9978 37.2538V30.007C40.9978 29.3242 41.5518 28.771 42.2338 28.771H49.4812C50.1639 28.771 50.7172 29.325 50.7172 30.007V37.2538Z" fill="#0083C2"/>
<path d="M62.6068 37.2538C62.6068 37.9365 62.0528 38.4898 61.3708 38.4898H54.1235C53.4407 38.4898 52.8875 37.9357 52.8875 37.2538V30.007C52.8875 29.3242 53.4415 28.771 54.1235 28.771H61.3708C62.0536 28.771 62.6068 29.325 62.6068 30.007V37.2538Z" fill="#0083C2"/>
<path d="M26.9376 49.0342C26.9376 49.7169 26.3836 50.2702 25.7016 50.2702H18.4543C17.7715 50.2702 17.2183 49.7161 17.2183 49.0342V41.7868C17.2183 41.104 17.7723 40.5508 18.4543 40.5508H25.7016C26.3844 40.5508 26.9376 41.1048 26.9376 41.7868V49.0342Z" fill="#0083C2"/>
<path d="M38.8281 49.0342C38.8281 49.7169 38.2741 50.2702 37.5921 50.2702H30.3442C29.6614 50.2702 29.1082 49.7161 29.1082 49.0342V41.7868C29.1082 41.104 29.6622 40.5508 30.3442 40.5508H37.5915C38.2743 40.5508 38.8275 41.1048 38.8275 41.7868V49.0342H38.8281Z" fill="#0083C2"/>
<path d="M50.7172 49.0342C50.7172 49.7169 50.1632 50.2702 49.4812 50.2702H42.2338C41.551 50.2702 40.9978 49.7161 40.9978 49.0342V41.7868C40.9978 41.104 41.5518 40.5508 42.2338 40.5508H49.4812C50.1639 40.5508 50.7172 41.1048 50.7172 41.7868V49.0342Z" fill="#0083C2"/>
<path d="M62.6068 49.0342C62.6068 49.7169 62.0528 50.2702 61.3708 50.2702H54.1235C53.4407 50.2702 52.8875 49.7161 52.8875 49.0342V41.7868C52.8875 41.104 53.4415 40.5508 54.1235 40.5508H61.3708C62.0536 40.5508 62.6068 41.1048 62.6068 41.7868V49.0342Z" fill="#0083C2"/>
<path d="M26.9376 60.8139C26.9376 61.4967 26.3836 62.0499 25.7016 62.0499H18.4543C17.7715 62.0499 17.2183 61.4959 17.2183 60.8139V53.5666C17.2183 52.8838 17.7723 52.3306 18.4543 52.3306H25.7016C26.3844 52.3306 26.9376 52.8846 26.9376 53.5666V60.8139Z" fill="#0083C2"/>
<path d="M38.8281 60.8139C38.8281 61.4967 38.2741 62.0499 37.5921 62.0499H30.3442C29.6614 62.0499 29.1082 61.4959 29.1082 60.8139V53.5666C29.1082 52.8838 29.6622 52.3306 30.3442 52.3306H37.5915C38.2743 52.3306 38.8275 52.8846 38.8275 53.5666V60.8139H38.8281Z" fill="#0083C2"/>
<path d="M50.7172 60.8139C50.7172 61.4967 50.1632 62.0499 49.4812 62.0499H42.2338C41.551 62.0499 40.9978 61.4959 40.9978 60.8139V53.5666C40.9978 52.8838 41.5518 52.3306 42.2338 52.3306H49.4812C50.1639 52.3306 50.7172 52.8846 50.7172 53.5666V60.8139Z" fill="#0083C2"/>
<path d="M26.9376 72.5937C26.9376 73.2765 26.3836 73.8297 25.7016 73.8297H18.4543C17.7715 73.8297 17.2183 73.2757 17.2183 72.5937V65.3464C17.2183 64.6636 17.7723 64.1104 18.4543 64.1104H25.7016C26.3844 64.1104 26.9376 64.6644 26.9376 65.3464V72.5937Z" fill="#0083C2"/>
<path d="M38.8281 72.5937C38.8281 73.2765 38.2741 73.8297 37.5921 73.8297H30.3442C29.6614 73.8297 29.1082 73.2757 29.1082 72.5937V65.3464C29.1082 64.6636 29.6622 64.1104 30.3442 64.1104H37.5915C38.2743 64.1104 38.8275 64.6644 38.8275 65.3464V72.5937H38.8281Z" fill="#0083C2"/>
<path d="M50.7172 72.5937C50.7172 73.2765 50.1632 73.8297 49.4812 73.8297H42.2338C41.551 73.8297 40.9978 73.2757 40.9978 72.5937V65.3464C40.9978 64.6636 41.5518 64.1104 42.2338 64.1104H49.4812C50.1639 64.1104 50.7172 64.6644 50.7172 65.3464V72.5937Z" fill="#0083C2"/>
<path d="M61.3711 52.3301H54.1237C53.4409 52.3301 52.8877 52.8841 52.8877 53.5661V72.5934C52.8877 73.2762 53.4417 73.8294 54.1237 73.8294H61.3711C62.0538 73.8294 62.6071 73.2754 62.6071 72.5934V53.5669C62.6071 52.8841 62.0531 52.3301 61.3711 52.3301Z" fill="#0083C2"/>
</g>
<defs>
<clipPath id="clip0_1628_1519">
<rect width="78.8571" height="78.8571" fill="white" transform="translate(0.285645 0.158203)"/>
</clipPath>
</defs>
</svg>
