<svg width="80" height="80" viewBox="0 0 80 80" fill="none" xmlns="http://www.w3.org/2000/svg">
<path d="M79.5383 40.1962C79.5383 45.5817 77.3562 50.4566 73.8268 53.9879C70.7666 57.0462 66.6963 59.0945 62.1569 59.5845C61.4615 59.6598 60.753 59.6994 60.0369 59.6994H20.1844C9.41333 59.6994 0.681152 50.9672 0.681152 40.1962C0.681152 29.4251 9.41333 20.6948 20.1844 20.6948H60.0369C60.753 20.6948 61.4615 20.7344 62.1569 20.8098C71.9311 21.865 79.5383 30.1412 79.5383 40.1962Z" fill="#FFD600"/>
<path opacity="0.4" d="M62.1569 20.8098V59.5845C61.4616 59.6598 60.7531 59.6994 60.037 59.6994H23.1523V20.6948H60.037C60.7531 20.6948 61.4616 20.7344 62.1569 20.8098Z" fill="#6A6A6A"/>
<path d="M40.1104 79.6252C29.3396 79.6252 20.6082 70.8938 20.6082 60.1229V20.2704C20.6082 9.49968 29.3396 0.768066 40.1104 0.768066C50.8813 0.768066 59.6127 9.49949 59.6127 20.2704V60.1229C59.6125 70.8936 50.8811 79.6252 40.1104 79.6252Z" fill="#003E5C"/>
<path d="M52.4054 22.5801H27.8157V57.0624H52.4054V22.5801Z" fill="#00608F"/>
<path d="M29.8887 18.527C31.0335 18.527 31.9615 17.5989 31.9615 16.4542C31.9615 15.3094 31.0335 14.3813 29.8887 14.3813C28.7439 14.3813 27.8159 15.3094 27.8159 16.4542C27.8159 17.5989 28.7439 18.527 29.8887 18.527Z" fill="#F3F6F7"/>
<path d="M50.3328 18.527C51.4776 18.527 52.4056 17.5989 52.4056 16.4542C52.4056 15.3094 51.4776 14.3813 50.3328 14.3813C49.188 14.3813 48.26 15.3094 48.26 16.4542C48.26 17.5989 49.188 18.527 50.3328 18.527Z" fill="#F3F6F7"/>
<path d="M40.1106 18.527C41.2554 18.527 42.1834 17.5989 42.1834 16.4542C42.1834 15.3094 41.2554 14.3813 40.1106 14.3813C38.9659 14.3813 38.0378 15.3094 38.0378 16.4542C38.0378 17.5989 38.9659 18.527 40.1106 18.527Z" fill="#F3F6F7"/>
<path d="M29.8887 65.2604C31.0335 65.2604 31.9615 64.3323 31.9615 63.1875C31.9615 62.0428 31.0335 61.1147 29.8887 61.1147C28.7439 61.1147 27.8159 62.0428 27.8159 63.1875C27.8159 64.3323 28.7439 65.2604 29.8887 65.2604Z" fill="#F3F6F7"/>
<path d="M50.3328 65.2604C51.4776 65.2604 52.4056 64.3323 52.4056 63.1875C52.4056 62.0428 51.4776 61.1147 50.3328 61.1147C49.188 61.1147 48.26 62.0428 48.26 63.1875C48.26 64.3323 49.188 65.2604 50.3328 65.2604Z" fill="#F3F6F7"/>
<path d="M40.1106 65.2604C41.2554 65.2604 42.1834 64.3323 42.1834 63.1875C42.1834 62.0428 41.2554 61.1147 40.1106 61.1147C38.9659 61.1147 38.0378 62.0428 38.0378 63.1875C38.0378 64.3323 38.9659 65.2604 40.1106 65.2604Z" fill="#F3F6F7"/>
<path d="M63.4764 31.671C64.6212 31.671 65.5492 30.743 65.5492 29.5982C65.5492 28.4534 64.6212 27.5254 63.4764 27.5254C62.3316 27.5254 61.4036 28.4534 61.4036 29.5982C61.4036 30.743 62.3316 31.671 63.4764 31.671Z" fill="#FFF7CC"/>
<path d="M63.4764 52.1153C64.6212 52.1153 65.5492 51.1873 65.5492 50.0425C65.5492 48.8978 64.6212 47.9697 63.4764 47.9697C62.3316 47.9697 61.4036 48.8978 61.4036 50.0425C61.4036 51.1873 62.3316 52.1153 63.4764 52.1153Z" fill="#FFF7CC"/>
<path d="M63.4764 41.8932C64.6212 41.8932 65.5492 40.9651 65.5492 39.8204C65.5492 38.6756 64.6212 37.7476 63.4764 37.7476C62.3316 37.7476 61.4036 38.6756 61.4036 39.8204C61.4036 40.9651 62.3316 41.8932 63.4764 41.8932Z" fill="#FFF7CC"/>
<path d="M16.744 31.671C17.8887 31.671 18.8168 30.743 18.8168 29.5982C18.8168 28.4534 17.8887 27.5254 16.744 27.5254C15.5992 27.5254 14.6711 28.4534 14.6711 29.5982C14.6711 30.743 15.5992 31.671 16.744 31.671Z" fill="#FFF7CC"/>
<path d="M16.744 52.1153C17.8887 52.1153 18.8168 51.1873 18.8168 50.0425C18.8168 48.8978 17.8887 47.9697 16.744 47.9697C15.5992 47.9697 14.6711 48.8978 14.6711 50.0425C14.6711 51.1873 15.5992 52.1153 16.744 52.1153Z" fill="#FFF7CC"/>
<path d="M16.744 41.8932C17.8887 41.8932 18.8168 40.9651 18.8168 39.8204C18.8168 38.6756 17.8887 37.7476 16.744 37.7476C15.5992 37.7476 14.6711 38.6756 14.6711 39.8204C14.6711 40.9651 15.5992 41.8932 16.744 41.8932Z" fill="#FFF7CC"/>
</svg>
