<svg width="79" height="79" viewBox="0 0 79 79" fill="none" xmlns="http://www.w3.org/2000/svg">
<g clip-path="url(#clip0_1628_1574)">
<path d="M55.8556 0C49.4205 0 43.6014 2.64473 39.4286 6.90548C35.2544 2.64473 29.4366 0 23.0004 0C10.2975 0 0 10.2975 0 22.9992C0 49.287 39.4286 72.2837 39.4286 72.2837C39.4286 72.2837 78.8571 49.2868 78.8571 22.9992C78.8571 10.2975 68.5596 0 55.8556 0Z" fill="#003E5C"/>
<g opacity="0.2">
<path opacity="0.2" d="M55.8557 3.28662C54.7415 3.28662 53.6464 3.36718 52.5732 3.5212C63.7178 5.11549 72.2875 14.6994 72.2875 26.2858C72.2875 47.9073 45.6112 67.3041 36.1426 73.508C38.1857 74.8484 39.4287 75.5704 39.4287 75.5704C39.4287 75.5704 78.8572 52.5735 78.8572 26.2858C78.8572 13.5842 68.5597 3.28662 55.8557 3.28662Z" fill="white"/>
</g>
<path d="M56.8664 34.8131L47.6734 27.6501L42.155 7.81543C41.1853 8.53626 40.2732 9.33025 39.4285 10.1919C39.4177 10.1811 39.4068 10.1714 39.3973 10.1606L44.2753 27.6971L28.8542 34.6808C28.1443 35.0033 27.758 35.7793 27.9301 36.5398L31.2547 51.2569C31.4267 52.0198 32.1053 52.5396 32.8562 52.5396C32.9753 52.5396 33.0968 52.5252 33.2195 52.4963C34.1039 52.299 34.66 51.4182 34.4602 50.5326L31.4304 37.1222L46.0081 30.52L54.8473 37.405C55.1481 37.6385 55.5044 37.7515 55.8557 37.7515C56.3467 37.7515 56.8279 37.535 57.1552 37.1187C57.7109 36.4026 57.5834 35.3702 56.8664 34.8131Z" fill="#FFD600"/>
</g>
<defs>
<clipPath id="clip0_1628_1574">
<rect width="78.8571" height="78.8571" fill="white"/>
</clipPath>
</defs>
</svg>
