<svg width="80" height="80" viewBox="0 0 80 80" fill="none" xmlns="http://www.w3.org/2000/svg">
<g clip-path="url(#clip0_1628_1308)">
<path d="M39.9828 5.30817L6.5542 10.451V79.0225H39.9828L41.6971 39.5939L39.9828 5.30817Z" fill="#004566"/>
<path d="M73.4112 10.451L39.9827 5.30817V79.0225H73.4112V10.451Z" fill="#003E5C"/>
<path d="M39.9828 10.4512H6.5542V0.165459H39.9828V10.4512Z" fill="#47638A"/>
<path d="M27.1256 73.8794H11.697V54.1651H27.1256V73.8794Z" fill="white"/>
<path d="M27.1256 49.0225H11.697V29.3082H27.1256V49.0225Z" fill="white"/>
<path d="M73.4115 10.4512H39.9829V0.165459H73.4115V10.4512Z" fill="#354A67"/>
<path d="M32.2686 73.8794V54.1651H39.9828L41.6971 64.0223L39.9828 73.8794H32.2686Z" fill="white"/>
<path d="M47.6972 73.8794H39.9829V54.1651H47.6972V73.8794Z" fill="#00608F"/>
<path d="M32.2686 49.0225V29.3082H39.9828L41.6971 39.1653L39.9828 49.0225H32.2686Z" fill="white"/>
<path d="M47.6969 49.0225H39.9827V29.3082H47.6969V49.0225Z" fill="#00608F"/>
<path d="M68.2684 73.8794H52.8398V54.1651H68.2684V73.8794Z" fill="#00608F"/>
<path d="M68.2684 49.0225H52.8398V29.3082H68.2684V49.0225Z" fill="#00608F"/>
<path d="M32.2686 24.1655V0.165527H39.9828L41.6971 12.1655L39.9828 24.1655H32.2686Z" fill="#FFEF99"/>
<path d="M47.6972 24.1655H39.9829V0.165527H47.6972V24.1655Z" fill="#FFD600"/>
</g>
<defs>
<clipPath id="clip0_1628_1308">
<rect width="78.8571" height="78.8571" fill="white" transform="matrix(1 0 0 -1 0.554199 79.0215)"/>
</clipPath>
</defs>
</svg>
