<svg width="80" height="79" viewBox="0 0 80 79" fill="none" xmlns="http://www.w3.org/2000/svg">
<g clip-path="url(#clip0_1628_1546)">
<path d="M39.8574 56.8258C49.4261 56.8258 57.183 52.1488 57.183 46.3795C57.183 40.6101 49.4261 35.9331 39.8574 35.9331C30.2887 35.9331 22.5317 40.6101 22.5317 46.3795C22.5317 52.1488 30.2887 56.8258 39.8574 56.8258Z" fill="#FFE666"/>
<path d="M39.8573 73.0048C45.1342 73.0048 49.4119 67.6434 49.4119 61.0298C49.4119 54.4161 45.1342 49.0547 39.8573 49.0547C34.5805 49.0547 30.3027 54.4161 30.3027 61.0298C30.3027 67.6434 34.5805 73.0048 39.8573 73.0048Z" fill="#F9BDA0"/>
<path d="M32.4684 49.054L37.182 43.5761L36.4177 26.123L23.6782 28.6709" fill="#FFE666"/>
<path d="M47.2463 49.054L42.5327 43.5761L43.2971 26.123L55.9091 28.6709" fill="#FFE666"/>
<path d="M55.3994 20.3903C55.3994 30.5819 59.6034 33.1298 42.9148 33.1298H36.7998C29.9205 33.1298 24.3152 27.2696 24.3152 20.3903C24.3152 13.511 29.9205 7.65088 36.7998 7.65088H42.9148C49.7941 7.65088 55.3994 13.511 55.3994 20.3903Z" fill="#FFE666"/>
<path d="M47.5009 38.2256H32.2136V56.0608H47.5009V38.2256Z" fill="#F9BDA0"/>
<path d="M48.1378 56.6978L39.9846 61.284L31.9587 38.2256H47.7557L48.1378 56.6978Z" fill="#EAA78C"/>
<path d="M52.4692 24.9768C52.4692 37.2066 46.3543 48.1626 39.8572 48.1626C33.3601 48.1626 27.2451 37.2066 27.2451 24.9768C27.2451 12.7469 33.3601 10.836 39.8572 10.836C46.3543 10.7086 52.4692 12.7469 52.4692 24.9768Z" fill="#FCCCB9"/>
<path d="M39.8572 10.7085C46.3543 10.7085 52.4692 12.7468 52.4692 24.8493C52.4692 37.0791 46.3543 48.0351 39.8572 48.0351" fill="#F9BDA0"/>
<path d="M45.8447 8.41587C45.8447 8.41587 71.1962 31.6017 23.0411 30.7099C23.0411 30.7099 21.0028 17.9704 26.226 12.3651C31.4491 6.88713 40.7489 7.77889 40.7489 7.77889L45.8447 8.41587Z" fill="#FFE666"/>
<path d="M40.6215 7.77881L45.8446 8.41578C45.8446 8.41578 71.1961 31.6016 23.041 30.7098" fill="#FFDA1A"/>
<path d="M37.0547 8.41531C37.0547 8.41531 40.6217 27.6519 56.546 29.5628C56.546 29.5628 58.9665 18.0973 54.5077 13.0015C50.0489 7.77834 41.6409 8.16053 41.6409 8.16053L37.0547 8.41531Z" fill="#FFE666"/>
<path d="M56.4186 29.5628C56.4186 29.5628 58.8391 18.0973 54.3803 13.0015C50.0489 7.77834 41.6408 8.16053 41.6408 8.16053L36.9272 8.41531" fill="#FFDA1A"/>
<path d="M42.2777 78.8649L72.4702 78.4827L72.9797 67.272L49.0296 55.5518L39.8572 62.8132L30.6848 55.5518L6.73462 67.272L7.2442 78.4827L37.4367 78.8649H39.8572H42.2777Z" fill="#003E5C"/>
<path d="M37.4367 78.8649H39.8572H42.2777L72.4702 78.4827L72.9798 67.272L49.0296 55.5518L39.8572 62.8132L30.6848 55.5518" fill="#003E5C"/>
<path d="M39.8572 74.4061L53.7432 57.8449L49.0296 55.5518L39.8572 62.8132L30.6848 55.5518L25.9712 57.8449L39.8572 74.4061Z" fill="#00608F"/>
<path d="M55.1445 14.0207V12.3646C55.1445 5.61268 49.1569 0.00732422 42.405 0.00732422H37.3093C30.5574 0.00732422 24.5698 5.61268 24.5698 12.3646V14.0207H55.1445Z" fill="#005680"/>
<path d="M37.3093 14.0207H42.4051C48.9022 14.0207 54.5076 15.9316 54.8898 18.6069C54.8898 18.3521 55.1445 17.9699 55.1445 17.7151V12.2372C55.1445 5.61268 49.157 0.00732422 42.4051 0.00732422H37.3093" fill="#003E5C"/>
<path d="M55.1447 20.7724L35.1437 22.8107L25.0796 14.0205H55.1447V20.7724Z" fill="#FFDA1A"/>
<path d="M41.1312 2.55518H37.3093V11.4728H41.1312V2.55518Z" fill="#CEEFEB"/>
<path d="M43.6791 5.10303H34.7615V8.92486H43.6791V5.10303Z" fill="#CEEFEB"/>
</g>
<defs>
<clipPath id="clip0_1628_1546">
<rect width="78.8571" height="78.8571" fill="white" transform="translate(0.428711 0.00732422)"/>
</clipPath>
</defs>
</svg>
